<svg width="516" height="638" viewBox="0 0 516 638" fill="none" xmlns="http://www.w3.org/2000/svg">
<g clip-path="url(#clip0_430_1882)">
<mask id="mask0_430_1882" style="mask-type:luminance" maskUnits="userSpaceOnUse" x="0" y="0" width="516" height="638">
<path d="M516 0H0V638H516V0Z" fill="white"/>
</mask>
<g mask="url(#mask0_430_1882)">
<path opacity="0.77" d="M64.3856 338.826H5.60988C3.06392 338.826 1.00001 340.89 1.00001 343.436L1 637.314" stroke="url(#paint0_linear_430_1882)" stroke-width="1.15247"/>
<path opacity="0.77" d="M77.0625 350.35H17.1343C14.5883 350.35 12.5244 352.414 12.5244 354.96V637.314" stroke="url(#paint1_linear_430_1882)" stroke-width="1.15247"/>
<path opacity="0.77" d="M87.4355 364.18H28.6597C26.1137 364.18 24.0498 366.244 24.0498 368.79V637.314" stroke="url(#paint2_linear_430_1882)" stroke-width="1.15247"/>
<path opacity="0.77" d="M451.614 298.489H510.39C512.936 298.489 515 296.425 515 293.879V0" stroke="url(#paint3_linear_430_1882)" stroke-width="1.15247"/>
<path opacity="0.77" d="M438.938 286.965H498.865C501.411 286.965 503.475 284.901 503.475 282.355V0" stroke="url(#paint4_linear_430_1882)" stroke-width="1.15247"/>
<path opacity="0.77" d="M428.565 273.135H487.341C489.887 273.135 491.951 271.07 491.951 268.524V0" stroke="url(#paint5_linear_430_1882)" stroke-width="1.15247"/>
<mask id="mask1_430_1882" style="mask-type:luminance" maskUnits="userSpaceOnUse" x="44" y="191" width="423" height="282">
<path d="M453.815 191.311H57.5758C50.5166 191.311 44.7939 197.033 44.7939 204.092V459.731C44.7939 466.79 50.5166 472.513 57.5758 472.513H453.815C460.874 472.513 466.597 466.79 466.597 459.731V204.092C466.597 197.033 460.874 191.311 453.815 191.311Z" fill="white"/>
</mask>
<g mask="url(#mask1_430_1882)">
<path d="M453.815 191.311H57.5758C50.5166 191.311 44.7939 197.033 44.7939 204.092V459.731C44.7939 466.79 50.5166 472.513 57.5758 472.513H453.815C460.874 472.513 466.597 466.79 466.597 459.731V204.092C466.597 197.033 460.874 191.311 453.815 191.311Z" fill="#16171B"/>
<mask id="mask2_430_1882" style="mask-type:luminance" maskUnits="userSpaceOnUse" x="71" y="229" width="368" height="74">
<path d="M429.718 229.342H80.5205C75.4286 229.342 71.3008 233.47 71.3008 238.562V293.343C71.3008 298.435 75.4286 302.563 80.5205 302.563H429.718C434.81 302.563 438.938 298.435 438.938 293.343V238.562C438.938 233.47 434.81 229.342 429.718 229.342Z" fill="white"/>
</mask>
<g mask="url(#mask2_430_1882)">
<path d="M429.718 229.342H80.5205C75.4286 229.342 71.3008 233.47 71.3008 238.562V293.343C71.3008 298.435 75.4286 302.563 80.5205 302.563H429.718C434.81 302.563 438.938 298.435 438.938 293.343V238.562C438.938 233.47 434.81 229.342 429.718 229.342Z" fill="#1D1F23"/>
<path d="M125.026 243.172H88.2599C86.5318 243.172 85.1309 244.573 85.1309 246.301V285.605C85.1309 287.333 86.5318 288.734 88.2599 288.734H125.026C126.754 288.734 128.155 287.333 128.155 285.605V246.301C128.155 244.573 126.754 243.172 125.026 243.172Z" fill="#4D4F54"/>
<path d="M153.294 252.683H151.511V251.963H153.294C153.639 251.963 153.919 251.908 154.133 251.798C154.347 251.688 154.502 251.535 154.6 251.34C154.701 251.144 154.751 250.921 154.751 250.671C154.751 250.441 154.701 250.226 154.6 250.024C154.502 249.823 154.347 249.661 154.133 249.538C153.919 249.413 153.639 249.35 153.294 249.35H151.717V255.3H150.832V248.626H153.294C153.798 248.626 154.224 248.713 154.573 248.888C154.921 249.062 155.185 249.303 155.366 249.612C155.546 249.917 155.636 250.267 155.636 250.661C155.636 251.089 155.546 251.454 155.366 251.757C155.185 252.059 154.921 252.29 154.573 252.449C154.224 252.605 153.798 252.683 153.294 252.683ZM156.661 248.626H158.87C159.371 248.626 159.794 248.703 160.139 248.855C160.488 249.008 160.752 249.234 160.932 249.534C161.116 249.83 161.207 250.195 161.207 250.629C161.207 250.935 161.145 251.214 161.02 251.468C160.897 251.719 160.72 251.933 160.488 252.11C160.259 252.284 159.984 252.414 159.663 252.499L159.415 252.596H157.339L157.33 251.876H158.897C159.215 251.876 159.479 251.821 159.69 251.711C159.901 251.598 160.06 251.447 160.167 251.257C160.274 251.068 160.327 250.858 160.327 250.629C160.327 250.373 160.277 250.148 160.176 249.956C160.075 249.763 159.916 249.615 159.699 249.511C159.486 249.404 159.209 249.35 158.87 249.35H157.545V255.3H156.661V248.626ZM160.561 255.3L158.939 252.275L159.86 252.27L161.505 255.245V255.3H160.561ZM163.3 248.626V255.3H162.415V248.626H163.3ZM169.953 251.752V252.174C169.953 252.675 169.89 253.124 169.765 253.522C169.64 253.919 169.46 254.256 169.224 254.534C168.989 254.813 168.706 255.025 168.376 255.172C168.049 255.318 167.683 255.392 167.276 255.392C166.882 255.392 166.52 255.318 166.19 255.172C165.863 255.025 165.579 254.813 165.337 254.534C165.099 254.256 164.914 253.919 164.783 253.522C164.651 253.124 164.586 252.675 164.586 252.174V251.752C164.586 251.251 164.65 250.803 164.778 250.409C164.91 250.012 165.095 249.674 165.333 249.396C165.571 249.115 165.854 248.901 166.181 248.755C166.511 248.608 166.873 248.535 167.267 248.535C167.674 248.535 168.04 248.608 168.367 248.755C168.697 248.901 168.98 249.115 169.215 249.396C169.453 249.674 169.635 250.012 169.761 250.409C169.889 250.803 169.953 251.251 169.953 251.752ZM169.078 252.174V251.743C169.078 251.346 169.036 250.994 168.954 250.689C168.874 250.383 168.757 250.127 168.601 249.919C168.445 249.711 168.254 249.554 168.028 249.447C167.805 249.34 167.551 249.286 167.267 249.286C166.992 249.286 166.743 249.34 166.52 249.447C166.3 249.554 166.111 249.711 165.952 249.919C165.796 250.127 165.675 250.383 165.59 250.689C165.504 250.994 165.461 251.346 165.461 251.743V252.174C165.461 252.574 165.504 252.929 165.59 253.237C165.675 253.543 165.797 253.801 165.956 254.012C166.118 254.22 166.309 254.377 166.529 254.484C166.752 254.591 167.001 254.645 167.276 254.645C167.564 254.645 167.819 254.591 168.042 254.484C168.265 254.377 168.453 254.22 168.606 254.012C168.761 253.801 168.879 253.543 168.958 253.237C169.038 252.929 169.078 252.574 169.078 252.174ZM171.184 248.626H173.393C173.894 248.626 174.317 248.703 174.663 248.855C175.011 249.008 175.275 249.234 175.456 249.534C175.639 249.83 175.731 250.195 175.731 250.629C175.731 250.935 175.668 251.214 175.543 251.468C175.421 251.719 175.243 251.933 175.011 252.11C174.782 252.284 174.507 252.414 174.186 252.499L173.939 252.596H171.862L171.853 251.876H173.421C173.738 251.876 174.003 251.821 174.214 251.711C174.424 251.598 174.583 251.447 174.69 251.257C174.797 251.068 174.851 250.858 174.851 250.629C174.851 250.373 174.8 250.148 174.699 249.956C174.599 249.763 174.44 249.615 174.223 249.511C174.009 249.404 173.732 249.35 173.393 249.35H172.068V255.3H171.184V248.626ZM175.084 255.3L173.462 252.275L174.383 252.27L176.029 255.245V255.3H175.084ZM177.823 248.626V255.3H176.939V248.626H177.823ZM181.667 248.626V255.3H180.796V248.626H181.667ZM183.812 248.626V249.35H178.655V248.626H183.812ZM185.088 248.626L186.821 251.977L188.558 248.626H189.562L187.261 252.806V255.3H186.376V252.806L184.075 248.626H185.088ZM196.117 253.613C196.117 253.457 196.092 253.32 196.043 253.201C195.997 253.078 195.915 252.968 195.796 252.871C195.68 252.773 195.518 252.68 195.31 252.591C195.105 252.502 194.845 252.412 194.531 252.321C194.201 252.223 193.903 252.114 193.637 251.995C193.371 251.873 193.143 251.734 192.954 251.578C192.764 251.422 192.619 251.244 192.518 251.042C192.418 250.84 192.367 250.609 192.367 250.35C192.367 250.09 192.421 249.85 192.528 249.63C192.635 249.41 192.787 249.219 192.986 249.057C193.188 248.892 193.428 248.764 193.706 248.672C193.984 248.58 194.294 248.535 194.636 248.535C195.137 248.535 195.562 248.631 195.91 248.823C196.262 249.013 196.529 249.262 196.712 249.571C196.896 249.876 196.987 250.203 196.987 250.551H196.107C196.107 250.301 196.054 250.079 195.947 249.887C195.84 249.691 195.678 249.538 195.461 249.428C195.244 249.315 194.969 249.259 194.636 249.259C194.321 249.259 194.062 249.306 193.857 249.401C193.652 249.496 193.499 249.624 193.399 249.786C193.301 249.948 193.252 250.133 193.252 250.341C193.252 250.481 193.281 250.609 193.339 250.726C193.4 250.839 193.493 250.944 193.619 251.042C193.747 251.14 193.909 251.23 194.104 251.312C194.303 251.395 194.54 251.474 194.815 251.551C195.194 251.658 195.521 251.777 195.796 251.908C196.071 252.04 196.297 252.188 196.474 252.353C196.654 252.515 196.787 252.7 196.873 252.907C196.961 253.112 197.006 253.344 197.006 253.604C197.006 253.876 196.951 254.122 196.841 254.342C196.731 254.562 196.573 254.75 196.369 254.906C196.164 255.062 195.918 255.182 195.631 255.268C195.347 255.35 195.029 255.392 194.677 255.392C194.369 255.392 194.065 255.349 193.765 255.263C193.469 255.178 193.198 255.049 192.954 254.878C192.713 254.707 192.518 254.496 192.372 254.246C192.228 253.992 192.156 253.699 192.156 253.366H193.036C193.036 253.595 193.081 253.792 193.169 253.957C193.258 254.119 193.379 254.253 193.531 254.36C193.687 254.467 193.863 254.547 194.059 254.599C194.257 254.648 194.463 254.672 194.677 254.672C194.986 254.672 195.247 254.629 195.461 254.544C195.675 254.458 195.837 254.336 195.947 254.177C196.06 254.018 196.117 253.83 196.117 253.613ZM201.858 248.626H202.738V253.141C202.738 253.642 202.626 254.059 202.403 254.392C202.18 254.725 201.884 254.976 201.514 255.144C201.147 255.309 200.748 255.392 200.318 255.392C199.865 255.392 199.456 255.309 199.089 255.144C198.725 254.976 198.437 254.725 198.223 254.392C198.012 254.059 197.907 253.642 197.907 253.141V248.626H198.782V253.141C198.782 253.489 198.846 253.777 198.975 254.003C199.103 254.229 199.282 254.397 199.511 254.507C199.743 254.617 200.012 254.672 200.318 254.672C200.626 254.672 200.895 254.617 201.124 254.507C201.356 254.397 201.537 254.229 201.665 254.003C201.793 253.777 201.858 253.489 201.858 253.141V248.626ZM206.494 252.683H204.711V251.963H206.494C206.839 251.963 207.119 251.908 207.333 251.798C207.547 251.688 207.702 251.535 207.8 251.34C207.901 251.144 207.952 250.921 207.952 250.671C207.952 250.441 207.901 250.226 207.8 250.024C207.702 249.823 207.547 249.661 207.333 249.538C207.119 249.413 206.839 249.35 206.494 249.35H204.917V255.3H204.033V248.626H206.494C206.998 248.626 207.424 248.713 207.773 248.888C208.121 249.062 208.385 249.303 208.566 249.612C208.746 249.917 208.836 250.267 208.836 250.661C208.836 251.089 208.746 251.454 208.566 251.757C208.385 252.059 208.121 252.29 207.773 252.449C207.424 252.605 206.998 252.683 206.494 252.683ZM212.322 252.683H210.539V251.963H212.322C212.667 251.963 212.947 251.908 213.161 251.798C213.375 251.688 213.531 251.535 213.628 251.34C213.729 251.144 213.78 250.921 213.78 250.671C213.78 250.441 213.729 250.226 213.628 250.024C213.531 249.823 213.375 249.661 213.161 249.538C212.947 249.413 212.667 249.35 212.322 249.35H210.745V255.3H209.861V248.626H212.322C212.826 248.626 213.252 248.713 213.601 248.888C213.949 249.062 214.214 249.303 214.394 249.612C214.574 249.917 214.664 250.267 214.664 250.661C214.664 251.089 214.574 251.454 214.394 251.757C214.214 252.059 213.949 252.29 213.601 252.449C213.252 252.605 212.826 252.683 212.322 252.683ZM220.827 251.752V252.174C220.827 252.675 220.764 253.124 220.639 253.522C220.514 253.919 220.333 254.256 220.098 254.534C219.863 254.813 219.58 255.025 219.25 255.172C218.923 255.318 218.557 255.392 218.15 255.392C217.756 255.392 217.394 255.318 217.064 255.172C216.737 255.025 216.453 254.813 216.211 254.534C215.973 254.256 215.788 253.919 215.657 253.522C215.525 253.124 215.46 252.675 215.46 252.174V251.752C215.46 251.251 215.524 250.803 215.652 250.409C215.783 250.012 215.968 249.674 216.207 249.396C216.445 249.115 216.728 248.901 217.055 248.755C217.385 248.608 217.747 248.535 218.141 248.535C218.547 248.535 218.914 248.608 219.241 248.755C219.571 248.901 219.854 249.115 220.089 249.396C220.327 249.674 220.509 250.012 220.634 250.409C220.763 250.803 220.827 251.251 220.827 251.752ZM219.951 252.174V251.743C219.951 251.346 219.91 250.994 219.828 250.689C219.748 250.383 219.631 250.127 219.475 249.919C219.319 249.711 219.128 249.554 218.902 249.447C218.679 249.34 218.425 249.286 218.141 249.286C217.866 249.286 217.617 249.34 217.394 249.447C217.174 249.554 216.984 249.711 216.825 249.919C216.67 250.127 216.549 250.383 216.463 250.689C216.378 250.994 216.335 251.346 216.335 251.743V252.174C216.335 252.574 216.378 252.929 216.463 253.237C216.549 253.543 216.671 253.801 216.83 254.012C216.992 254.22 217.183 254.377 217.403 254.484C217.626 254.591 217.875 254.645 218.15 254.645C218.437 254.645 218.693 254.591 218.916 254.484C219.139 254.377 219.327 254.22 219.479 254.012C219.635 253.801 219.753 253.543 219.832 253.237C219.912 252.929 219.951 252.574 219.951 252.174ZM222.058 248.626H224.267C224.768 248.626 225.191 248.703 225.537 248.855C225.885 249.008 226.149 249.234 226.33 249.534C226.513 249.83 226.605 250.195 226.605 250.629C226.605 250.935 226.542 251.214 226.417 251.468C226.294 251.719 226.117 251.933 225.885 252.11C225.656 252.284 225.381 252.414 225.06 252.499L224.812 252.596H222.736L222.727 251.876H224.294C224.612 251.876 224.877 251.821 225.087 251.711C225.298 251.598 225.457 251.447 225.564 251.257C225.671 251.068 225.725 250.858 225.725 250.629C225.725 250.373 225.674 250.148 225.573 249.956C225.472 249.763 225.314 249.615 225.097 249.511C224.883 249.404 224.606 249.35 224.267 249.35H222.942V255.3H222.058V248.626ZM225.958 255.3L224.336 252.275L225.257 252.27L226.903 255.245V255.3H225.958ZM229.848 248.626V255.3H228.977V248.626H229.848ZM231.993 248.626V249.35H226.836V248.626H231.993Z" fill="#8247E5"/>
<path d="M232.817 243.562H150.3C145.198 243.562 141.062 247.697 141.062 252.799C141.062 257.901 145.198 262.038 150.3 262.038H232.817C237.919 262.038 242.055 257.901 242.055 252.799C242.055 247.697 237.919 243.562 232.817 243.562Z" stroke="#8247E5" stroke-width="0.782261"/>
<path d="M237.807 272.6H143.8C142.072 272.6 140.671 274.001 140.671 275.729V285.605C140.671 287.333 142.072 288.734 143.8 288.734H237.807C239.535 288.734 240.936 287.333 240.936 285.605V275.729C240.936 274.001 239.535 272.6 237.807 272.6Z" fill="#4D4F54"/>
<path d="M290.051 272.6H253.284C251.556 272.6 250.155 274.001 250.155 275.729V285.605C250.155 287.333 251.556 288.734 253.284 288.734H290.051C291.779 288.734 293.18 287.333 293.18 285.605V275.729C293.18 274.001 291.779 272.6 290.051 272.6Z" fill="#4D4F54"/>
<path d="M72.4531 233.166V300.009" stroke="#8247E5" stroke-width="2.30493"/>
</g>
<path d="M429.718 229.732H80.52C75.6441 229.732 71.6914 233.685 71.6914 238.561V293.343C71.6914 298.219 75.6441 302.171 80.52 302.171H429.718C434.594 302.171 438.546 298.219 438.546 293.343V238.561C438.546 233.685 434.594 229.732 429.718 229.732Z" stroke="#4D4F54" stroke-width="0.782261"/>
<g opacity="0.4">
<path d="M429.718 321.393H80.52C75.6441 321.393 71.6914 325.345 71.6914 330.221V381.879C71.6914 386.755 75.6441 390.708 80.52 390.708H429.718C434.594 390.708 438.546 386.755 438.546 381.879V330.221C438.546 325.345 434.594 321.393 429.718 321.393Z" fill="#1D1F23"/>
<path d="M125.025 334.832H88.2589C86.5308 334.832 85.1299 336.233 85.1299 337.961V374.141C85.1299 375.87 86.5308 377.27 88.2589 377.27H125.025C126.753 377.27 128.154 375.87 128.154 374.141V337.961C128.154 336.233 126.753 334.832 125.025 334.832Z" fill="#4D4F54"/>
<path d="M237.807 334.832H143.8C142.072 334.832 140.671 336.233 140.671 337.961V347.838C140.671 349.566 142.072 350.967 143.8 350.967H237.807C239.535 350.967 240.936 349.566 240.936 347.838V337.961C240.936 336.233 239.535 334.832 237.807 334.832Z" fill="#4D4F54"/>
<path d="M237.807 361.135H143.8C142.072 361.135 140.671 362.536 140.671 364.264V374.14C140.671 375.868 142.072 377.269 143.8 377.269H237.807C239.535 377.269 240.936 375.868 240.936 374.14V364.264C240.936 362.536 239.535 361.135 237.807 361.135Z" fill="#4D4F54"/>
<path d="M290.05 361.135H253.283C251.555 361.135 250.154 362.536 250.154 364.264V374.14C250.154 375.868 251.555 377.269 253.283 377.269H290.05C291.778 377.269 293.179 375.868 293.179 374.14V364.264C293.179 362.536 291.778 361.135 290.05 361.135Z" fill="#4D4F54"/>
<path d="M429.718 321.393H80.52C75.6441 321.393 71.6914 325.345 71.6914 330.221V381.879C71.6914 386.755 75.6441 390.708 80.52 390.708H429.718C434.594 390.708 438.546 386.755 438.546 381.879V330.221C438.546 325.345 434.594 321.393 429.718 321.393Z" stroke="#4D4F54" stroke-width="0.782261"/>
</g>
<g opacity="0.2">
<path d="M429.718 409.93H80.52C75.6441 409.93 71.6914 413.882 71.6914 418.758V470.417C71.6914 475.292 75.6441 479.245 80.52 479.245H429.718C434.594 479.245 438.546 475.292 438.546 470.417V418.758C438.546 413.882 434.594 409.93 429.718 409.93Z" fill="#1D1F23"/>
<path d="M125.025 423.369H88.2589C86.5308 423.369 85.1299 424.77 85.1299 426.498V462.679C85.1299 464.407 86.5308 465.808 88.2589 465.808H125.025C126.753 465.808 128.154 464.407 128.154 462.679V426.498C128.154 424.77 126.753 423.369 125.025 423.369Z" fill="#4D4F54"/>
<path d="M237.807 423.369H143.8C142.072 423.369 140.671 424.77 140.671 426.498V436.375C140.671 438.103 142.072 439.504 143.8 439.504H237.807C239.535 439.504 240.936 438.103 240.936 436.375V426.498C240.936 424.77 239.535 423.369 237.807 423.369Z" fill="#4D4F54"/>
<path d="M237.807 449.672H143.8C142.072 449.672 140.671 451.073 140.671 452.801V462.677C140.671 464.405 142.072 465.806 143.8 465.806H237.807C239.535 465.806 240.936 464.405 240.936 462.677V452.801C240.936 451.073 239.535 449.672 237.807 449.672Z" fill="#4D4F54"/>
<path d="M290.05 449.672H253.283C251.555 449.672 250.154 451.073 250.154 452.801V462.677C250.154 464.405 251.555 465.806 253.283 465.806H290.05C291.778 465.806 293.179 464.405 293.179 462.677V452.801C293.179 451.073 291.778 449.672 290.05 449.672Z" fill="#4D4F54"/>
<path d="M429.718 409.93H80.52C75.6441 409.93 71.6914 413.882 71.6914 418.758V470.417C71.6914 475.292 75.6441 479.245 80.52 479.245H429.718C434.594 479.245 438.546 475.292 438.546 470.417V418.758C438.546 413.882 434.594 409.93 429.718 409.93Z" stroke="#4D4F54" stroke-width="0.782261"/>
</g>
</g>
<path d="M453.814 191.887H57.5758C50.8348 191.887 45.3701 197.351 45.3701 204.092V459.73C45.3701 466.471 50.8348 471.936 57.5758 471.936H453.814C460.555 471.936 466.02 466.471 466.02 459.73V204.092C466.02 197.351 460.555 191.887 453.814 191.887Z" stroke="url(#paint6_linear_430_1882)" stroke-opacity="0.8" stroke-width="1.15247"/>
</g>
</g>
<defs>
<linearGradient id="paint0_linear_430_1882" x1="49.4036" y1="339.393" x2="49.4036" y2="578.687" gradientUnits="userSpaceOnUse">
<stop offset="0.665992" stop-color="#444444"/>
<stop offset="0.801389" stop-color="#888888" stop-opacity="0"/>
</linearGradient>
<linearGradient id="paint1_linear_430_1882" x1="61.8081" y1="350.895" x2="62.6567" y2="558.889" gradientUnits="userSpaceOnUse">
<stop offset="0.263115" stop-color="#444444"/>
<stop offset="0.794315" stop-color="#888888" stop-opacity="0"/>
</linearGradient>
<linearGradient id="paint2_linear_430_1882" x1="72.4534" y1="364.699" x2="72.4534" y2="621.699" gradientUnits="userSpaceOnUse">
<stop stop-color="#444444"/>
<stop offset="0.457208" stop-color="#444444" stop-opacity="0"/>
</linearGradient>
<linearGradient id="paint3_linear_430_1882" x1="498.865" y1="299.056" x2="498.865" y2="89.9878" gradientUnits="userSpaceOnUse">
<stop stop-color="#444444"/>
<stop offset="0.952541" stop-color="#DEE2E6" stop-opacity="0"/>
</linearGradient>
<linearGradient id="paint4_linear_430_1882" x1="487.047" y1="287.509" x2="487.047" y2="86.5133" gradientUnits="userSpaceOnUse">
<stop stop-color="#444444"/>
<stop offset="0.839378" stop-color="#444444" stop-opacity="0"/>
</linearGradient>
<linearGradient id="paint5_linear_430_1882" x1="475.816" y1="273.654" x2="475.816" y2="82.344" gradientUnits="userSpaceOnUse">
<stop stop-color="#444444"/>
<stop offset="0.605774" stop-color="#444444" stop-opacity="0"/>
</linearGradient>
<linearGradient id="paint6_linear_430_1882" x1="-83.824" y1="141.781" x2="466.597" y2="485.295" gradientUnits="userSpaceOnUse">
<stop stop-color="#ACACAC"/>
<stop offset="1" stop-opacity="0"/>
</linearGradient>
<clipPath id="clip0_430_1882">
<rect width="516" height="638" fill="white"/>
</clipPath>
</defs>
</svg>
