<svg width="516" height="638" viewBox="0 0 516 638" fill="none" xmlns="http://www.w3.org/2000/svg">
<g clip-path="url(#clip0_420_977)">
<path opacity="0.77" d="M64.3856 338.824H5.60988C3.06392 338.824 1.00001 340.888 1.00001 343.434L1 637.312" stroke="url(#paint0_linear_420_977)" style="" stroke-width="1.15247"/>
<path opacity="0.77" d="M77.0625 350.35H17.1343C14.5883 350.35 12.5244 352.414 12.5244 354.96V637.314" stroke="url(#paint1_linear_420_977)" style="" stroke-width="1.15247"/>
<path opacity="0.77" d="M87.435 364.18H28.6592C26.1132 364.18 24.0493 366.244 24.0493 368.79V637.314" stroke="url(#paint2_linear_420_977)" style="" stroke-width="1.15247"/>
<path opacity="0.77" d="M451.614 298.489H510.39C512.936 298.489 515 296.425 515 293.879V0" stroke="url(#paint3_linear_420_977)" style="" stroke-width="1.15247"/>
<path opacity="0.77" d="M438.937 286.964H498.865C501.411 286.964 503.475 284.9 503.475 282.354V0" stroke="url(#paint4_linear_420_977)" style="" stroke-width="1.15247"/>
<path opacity="0.77" d="M428.565 273.134H487.341C489.887 273.134 491.951 271.07 491.951 268.524V0" stroke="url(#paint5_linear_420_977)" style="" stroke-width="1.15247"/>
<mask id="mask0_420_977" style="mask-type:luminance" maskUnits="userSpaceOnUse" x="44" y="191" width="423" height="282">
<path d="M453.815 191.309H57.5758C50.5166 191.309 44.7939 197.031 44.7939 204.09V459.729C44.7939 466.788 50.5166 472.511 57.5758 472.511H453.815C460.874 472.511 466.597 466.788 466.597 459.729V204.09C466.597 197.031 460.874 191.309 453.815 191.309Z" fill="white" style="fill:white;fill:white;fill-opacity:1;"/>
</mask>
<g mask="url(#mask0_420_977)">
<path d="M453.815 191.309H57.5758C50.5166 191.309 44.7939 197.031 44.7939 204.09V459.729C44.7939 466.788 50.5166 472.511 57.5758 472.511H453.815C460.874 472.511 466.597 466.788 466.597 459.729V204.09C466.597 197.031 460.874 191.309 453.815 191.309Z" fill="#222222" style="fill:#222222;fill:color(display-p3 0.1333 0.1333 0.1333);fill-opacity:1;"/>
<mask id="mask1_420_977" style="mask-type:luminance" maskUnits="userSpaceOnUse" x="71" y="229" width="368" height="74">
<path d="M429.718 229.34H80.5205C75.4286 229.34 71.3008 233.468 71.3008 238.56V293.341C71.3008 298.433 75.4286 302.561 80.5205 302.561H429.718C434.81 302.561 438.938 298.433 438.938 293.341V238.56C438.938 233.468 434.81 229.34 429.718 229.34Z" fill="white" style="fill:white;fill:white;fill-opacity:1;"/>
</mask>
<g mask="url(#mask1_420_977)">
<path d="M429.718 229.34H80.5205C75.4286 229.34 71.3008 233.468 71.3008 238.56V293.341C71.3008 298.433 75.4286 302.561 80.5205 302.561H429.718C434.81 302.561 438.938 298.433 438.938 293.341V238.56C438.938 233.468 434.81 229.34 429.718 229.34Z" fill="#222222" style="fill:#222222;fill:color(display-p3 0.1333 0.1333 0.1333);fill-opacity:1;"/>
<path d="M125.026 243.17H88.2594C86.5313 243.17 85.1304 244.571 85.1304 246.299V285.603C85.1304 287.331 86.5313 288.732 88.2594 288.732H125.026C126.754 288.732 128.155 287.331 128.155 285.603V246.299C128.155 244.571 126.754 243.17 125.026 243.17Z" fill="#444444" style="fill:#444444;fill:color(display-p3 0.2667 0.2667 0.2667);fill-opacity:1;"/>
<path d="M153.295 252.681H151.512V251.961H153.295C153.64 251.961 153.92 251.906 154.134 251.796C154.348 251.686 154.503 251.533 154.601 251.338C154.702 251.142 154.752 250.919 154.752 250.669C154.752 250.439 154.702 250.224 154.601 250.022C154.503 249.821 154.348 249.659 154.134 249.536C153.92 249.411 153.64 249.348 153.295 249.348H151.718V255.298H150.833V248.624H153.295C153.799 248.624 154.225 248.711 154.574 248.886C154.922 249.06 155.186 249.301 155.367 249.61C155.547 249.915 155.637 250.265 155.637 250.659C155.637 251.087 155.547 251.452 155.367 251.755C155.186 252.057 154.922 252.288 154.574 252.447C154.225 252.603 153.799 252.681 153.295 252.681ZM156.662 248.624H158.871C159.372 248.624 159.795 248.701 160.14 248.853C160.489 249.006 160.753 249.232 160.933 249.532C161.117 249.828 161.208 250.193 161.208 250.627C161.208 250.933 161.146 251.212 161.021 251.466C160.898 251.717 160.721 251.931 160.489 252.108C160.26 252.282 159.985 252.412 159.664 252.497L159.416 252.594H157.34L157.331 251.874H158.898C159.216 251.874 159.48 251.819 159.691 251.709C159.902 251.596 160.061 251.445 160.168 251.255C160.275 251.066 160.328 250.856 160.328 250.627C160.328 250.371 160.278 250.146 160.177 249.954C160.076 249.761 159.917 249.613 159.7 249.509C159.487 249.402 159.21 249.348 158.871 249.348H157.546V255.298H156.662V248.624ZM160.562 255.298L158.94 252.273L159.861 252.268L161.506 255.243V255.298H160.562ZM163.301 248.624V255.298H162.416V248.624H163.301ZM169.954 251.75V252.172C169.954 252.673 169.891 253.122 169.766 253.52C169.641 253.917 169.461 254.254 169.225 254.532C168.99 254.811 168.707 255.023 168.377 255.17C168.05 255.316 167.684 255.39 167.277 255.39C166.883 255.39 166.521 255.316 166.191 255.17C165.864 255.023 165.58 254.811 165.338 254.532C165.1 254.254 164.915 253.917 164.784 253.52C164.652 253.122 164.587 252.673 164.587 252.172V251.75C164.587 251.249 164.651 250.801 164.779 250.407C164.911 250.01 165.096 249.672 165.334 249.394C165.572 249.113 165.855 248.899 166.182 248.753C166.512 248.606 166.874 248.533 167.268 248.533C167.675 248.533 168.041 248.606 168.368 248.753C168.698 248.899 168.981 249.113 169.216 249.394C169.454 249.672 169.636 250.01 169.762 250.407C169.89 250.801 169.954 251.249 169.954 251.75ZM169.079 252.172V251.741C169.079 251.344 169.037 250.992 168.955 250.687C168.875 250.381 168.758 250.125 168.602 249.917C168.446 249.709 168.255 249.552 168.029 249.445C167.806 249.338 167.552 249.284 167.268 249.284C166.993 249.284 166.744 249.338 166.521 249.445C166.301 249.552 166.112 249.709 165.953 249.917C165.797 250.125 165.676 250.381 165.591 250.687C165.505 250.992 165.462 251.344 165.462 251.741V252.172C165.462 252.572 165.505 252.927 165.591 253.235C165.676 253.541 165.798 253.799 165.957 254.01C166.119 254.218 166.31 254.375 166.53 254.482C166.753 254.589 167.002 254.643 167.277 254.643C167.565 254.643 167.82 254.589 168.043 254.482C168.266 254.375 168.454 254.218 168.607 254.01C168.762 253.799 168.88 253.541 168.959 253.235C169.039 252.927 169.079 252.572 169.079 252.172ZM171.185 248.624H173.394C173.895 248.624 174.318 248.701 174.664 248.853C175.012 249.006 175.276 249.232 175.457 249.532C175.64 249.828 175.732 250.193 175.732 250.627C175.732 250.933 175.669 251.212 175.544 251.466C175.422 251.717 175.244 251.931 175.012 252.108C174.783 252.282 174.508 252.412 174.187 252.497L173.94 252.594H171.863L171.854 251.874H173.422C173.739 251.874 174.004 251.819 174.215 251.709C174.425 251.596 174.584 251.445 174.691 251.255C174.798 251.066 174.852 250.856 174.852 250.627C174.852 250.371 174.801 250.146 174.7 249.954C174.6 249.761 174.441 249.613 174.224 249.509C174.01 249.402 173.733 249.348 173.394 249.348H172.069V255.298H171.185V248.624ZM175.085 255.298L173.463 252.273L174.384 252.268L176.03 255.243V255.298H175.085ZM177.824 248.624V255.298H176.94V248.624H177.824ZM181.668 248.624V255.298H180.797V248.624H181.668ZM183.813 248.624V249.348H178.656V248.624H183.813ZM185.089 248.624L186.822 251.975L188.559 248.624H189.563L187.262 252.804V255.298H186.377V252.804L184.076 248.624H185.089ZM196.118 253.611C196.118 253.455 196.093 253.318 196.044 253.199C195.998 253.076 195.916 252.966 195.797 252.869C195.681 252.771 195.519 252.678 195.311 252.589C195.106 252.5 194.846 252.41 194.532 252.319C194.202 252.221 193.904 252.112 193.638 251.993C193.372 251.871 193.144 251.732 192.955 251.576C192.765 251.42 192.62 251.242 192.519 251.04C192.419 250.838 192.368 250.607 192.368 250.348C192.368 250.088 192.422 249.848 192.529 249.628C192.636 249.408 192.788 249.217 192.987 249.055C193.189 248.89 193.429 248.762 193.707 248.67C193.985 248.578 194.295 248.533 194.637 248.533C195.138 248.533 195.563 248.629 195.911 248.821C196.263 249.011 196.53 249.26 196.713 249.569C196.897 249.874 196.988 250.201 196.988 250.549H196.108C196.108 250.299 196.055 250.077 195.948 249.885C195.841 249.689 195.679 249.536 195.462 249.426C195.245 249.313 194.97 249.257 194.637 249.257C194.322 249.257 194.063 249.304 193.858 249.399C193.653 249.494 193.5 249.622 193.4 249.784C193.302 249.946 193.253 250.131 193.253 250.339C193.253 250.479 193.282 250.607 193.34 250.724C193.401 250.837 193.494 250.942 193.62 251.04C193.748 251.138 193.91 251.228 194.105 251.31C194.304 251.393 194.541 251.472 194.816 251.549C195.195 251.656 195.522 251.775 195.797 251.906C196.072 252.038 196.298 252.186 196.475 252.351C196.655 252.513 196.788 252.698 196.874 252.905C196.962 253.11 197.007 253.342 197.007 253.602C197.007 253.874 196.952 254.12 196.842 254.34C196.732 254.56 196.574 254.748 196.37 254.904C196.165 255.06 195.919 255.18 195.632 255.266C195.348 255.348 195.03 255.39 194.678 255.39C194.37 255.39 194.066 255.347 193.766 255.261C193.47 255.176 193.199 255.047 192.955 254.876C192.714 254.705 192.519 254.494 192.373 254.244C192.229 253.99 192.157 253.697 192.157 253.364H193.037C193.037 253.593 193.082 253.79 193.17 253.955C193.259 254.117 193.38 254.251 193.532 254.358C193.688 254.465 193.864 254.545 194.06 254.597C194.258 254.646 194.464 254.67 194.678 254.67C194.987 254.67 195.248 254.627 195.462 254.542C195.676 254.456 195.838 254.334 195.948 254.175C196.061 254.016 196.118 253.828 196.118 253.611ZM201.859 248.624H202.739V253.139C202.739 253.64 202.627 254.057 202.404 254.39C202.181 254.723 201.885 254.974 201.515 255.142C201.148 255.307 200.749 255.39 200.319 255.39C199.866 255.39 199.457 255.307 199.09 255.142C198.726 254.974 198.438 254.723 198.224 254.39C198.013 254.057 197.908 253.64 197.908 253.139V248.624H198.783V253.139C198.783 253.487 198.847 253.775 198.976 254.001C199.104 254.227 199.283 254.395 199.512 254.505C199.744 254.615 200.013 254.67 200.319 254.67C200.627 254.67 200.896 254.615 201.125 254.505C201.357 254.395 201.538 254.227 201.666 254.001C201.794 253.775 201.859 253.487 201.859 253.139V248.624ZM206.495 252.681H204.712V251.961H206.495C206.84 251.961 207.12 251.906 207.334 251.796C207.548 251.686 207.703 251.533 207.801 251.338C207.902 251.142 207.953 250.919 207.953 250.669C207.953 250.439 207.902 250.224 207.801 250.022C207.703 249.821 207.548 249.659 207.334 249.536C207.12 249.411 206.84 249.348 206.495 249.348H204.918V255.298H204.034V248.624H206.495C206.999 248.624 207.425 248.711 207.774 248.886C208.122 249.06 208.386 249.301 208.567 249.61C208.747 249.915 208.837 250.265 208.837 250.659C208.837 251.087 208.747 251.452 208.567 251.755C208.386 252.057 208.122 252.288 207.774 252.447C207.425 252.603 206.999 252.681 206.495 252.681ZM212.323 252.681H210.54V251.961H212.323C212.668 251.961 212.948 251.906 213.162 251.796C213.376 251.686 213.532 251.533 213.629 251.338C213.73 251.142 213.781 250.919 213.781 250.669C213.781 250.439 213.73 250.224 213.629 250.022C213.532 249.821 213.376 249.659 213.162 249.536C212.948 249.411 212.668 249.348 212.323 249.348H210.746V255.298H209.862V248.624H212.323C212.827 248.624 213.253 248.711 213.602 248.886C213.95 249.06 214.215 249.301 214.395 249.61C214.575 249.915 214.665 250.265 214.665 250.659C214.665 251.087 214.575 251.452 214.395 251.755C214.215 252.057 213.95 252.288 213.602 252.447C213.253 252.603 212.827 252.681 212.323 252.681ZM220.828 251.75V252.172C220.828 252.673 220.765 253.122 220.64 253.52C220.515 253.917 220.334 254.254 220.099 254.532C219.864 254.811 219.581 255.023 219.251 255.17C218.924 255.316 218.558 255.39 218.151 255.39C217.757 255.39 217.395 255.316 217.065 255.17C216.738 255.023 216.454 254.811 216.212 254.532C215.974 254.254 215.789 253.917 215.658 253.52C215.526 253.122 215.461 252.673 215.461 252.172V251.75C215.461 251.249 215.525 250.801 215.653 250.407C215.784 250.01 215.969 249.672 216.208 249.394C216.446 249.113 216.729 248.899 217.056 248.753C217.386 248.606 217.748 248.533 218.142 248.533C218.548 248.533 218.915 248.606 219.242 248.753C219.572 248.899 219.855 249.113 220.09 249.394C220.328 249.672 220.51 250.01 220.635 250.407C220.764 250.801 220.828 251.249 220.828 251.75ZM219.952 252.172V251.741C219.952 251.344 219.911 250.992 219.829 250.687C219.749 250.381 219.632 250.125 219.476 249.917C219.32 249.709 219.129 249.552 218.903 249.445C218.68 249.338 218.426 249.284 218.142 249.284C217.867 249.284 217.618 249.338 217.395 249.445C217.175 249.552 216.985 249.709 216.826 249.917C216.671 250.125 216.55 250.381 216.464 250.687C216.379 250.992 216.336 251.344 216.336 251.741V252.172C216.336 252.572 216.379 252.927 216.464 253.235C216.55 253.541 216.672 253.799 216.831 254.01C216.993 254.218 217.184 254.375 217.404 254.482C217.627 254.589 217.876 254.643 218.151 254.643C218.438 254.643 218.694 254.589 218.917 254.482C219.14 254.375 219.328 254.218 219.48 254.01C219.636 253.799 219.754 253.541 219.833 253.235C219.913 252.927 219.952 252.572 219.952 252.172ZM222.059 248.624H224.268C224.769 248.624 225.192 248.701 225.538 248.853C225.886 249.006 226.15 249.232 226.331 249.532C226.514 249.828 226.606 250.193 226.606 250.627C226.606 250.933 226.543 251.212 226.418 251.466C226.295 251.717 226.118 251.931 225.886 252.108C225.657 252.282 225.382 252.412 225.061 252.497L224.813 252.594H222.737L222.728 251.874H224.295C224.613 251.874 224.878 251.819 225.088 251.709C225.299 251.596 225.458 251.445 225.565 251.255C225.672 251.066 225.726 250.856 225.726 250.627C225.726 250.371 225.675 250.146 225.574 249.954C225.473 249.761 225.315 249.613 225.098 249.509C224.884 249.402 224.607 249.348 224.268 249.348H222.943V255.298H222.059V248.624ZM225.959 255.298L224.337 252.273L225.258 252.268L226.904 255.243V255.298H225.959ZM229.849 248.624V255.298H228.978V248.624H229.849ZM231.994 248.624V249.348H226.837V248.624H231.994Z" fill="#8247E5" style="fill:#8247E5;fill:color(display-p3 0.5098 0.2784 0.8980);fill-opacity:1;"/>
<path d="M232.817 243.561H150.3C145.198 243.561 141.062 247.696 141.062 252.798C141.062 257.9 145.198 262.036 150.3 262.036H232.817C237.919 262.036 242.055 257.9 242.055 252.798C242.055 247.696 237.919 243.561 232.817 243.561Z" stroke="#8247E5" style="stroke:#8247E5;stroke:color(display-p3 0.5098 0.2784 0.8980);stroke-opacity:1;" stroke-width="0.782261"/>
<path d="M237.807 272.598H143.8C142.072 272.598 140.671 273.999 140.671 275.727V285.603C140.671 287.331 142.072 288.732 143.8 288.732H237.807C239.535 288.732 240.936 287.331 240.936 285.603V275.727C240.936 273.999 239.535 272.598 237.807 272.598Z" fill="#444444" style="fill:#444444;fill:color(display-p3 0.2667 0.2667 0.2667);fill-opacity:1;"/>
<path d="M290.051 272.598H253.284C251.556 272.598 250.155 273.999 250.155 275.727V285.603C250.155 287.331 251.556 288.732 253.284 288.732H290.051C291.779 288.732 293.18 287.331 293.18 285.603V275.727C293.18 273.999 291.779 272.598 290.051 272.598Z" fill="#444444" style="fill:#444444;fill:color(display-p3 0.2667 0.2667 0.2667);fill-opacity:1;"/>
<path d="M72.4531 233.164V300.007" stroke="#9A6BEB" style="stroke:#9A6BEB;stroke:color(display-p3 0.6037 0.4196 0.9216);stroke-opacity:1;" stroke-width="2.30493"/>
</g>
<path d="M429.718 229.73H80.5205C75.6446 229.73 71.6919 233.683 71.6919 238.559V293.341C71.6919 298.217 75.6446 302.169 80.5205 302.169H429.718C434.594 302.169 438.547 298.217 438.547 293.341V238.559C438.547 233.683 434.594 229.73 429.718 229.73Z" stroke="#444444" style="stroke:#444444;stroke:color(display-p3 0.2667 0.2667 0.2667);stroke-opacity:1;" stroke-width="0.782261"/>
<g opacity="0.4">
<path d="M429.718 321.391H80.5205C75.6446 321.391 71.6919 325.343 71.6919 330.219V381.877C71.6919 386.753 75.6446 390.706 80.5205 390.706H429.718C434.594 390.706 438.547 386.753 438.547 381.877V330.219C438.547 325.343 434.594 321.391 429.718 321.391Z" fill="#222222" style="fill:#222222;fill:color(display-p3 0.1333 0.1333 0.1333);fill-opacity:1;"/>
<path d="M125.026 334.83H88.2594C86.5313 334.83 85.1304 336.231 85.1304 337.959V374.139C85.1304 375.868 86.5313 377.268 88.2594 377.268H125.026C126.754 377.268 128.155 375.868 128.155 374.139V337.959C128.155 336.231 126.754 334.83 125.026 334.83Z" fill="#444444" style="fill:#444444;fill:color(display-p3 0.2667 0.2667 0.2667);fill-opacity:1;"/>
<path d="M237.807 334.83H143.8C142.072 334.83 140.671 336.231 140.671 337.959V347.836C140.671 349.564 142.072 350.965 143.8 350.965H237.807C239.535 350.965 240.936 349.564 240.936 347.836V337.959C240.936 336.231 239.535 334.83 237.807 334.83Z" fill="#444444" style="fill:#444444;fill:color(display-p3 0.2667 0.2667 0.2667);fill-opacity:1;"/>
<path d="M237.807 361.133H143.8C142.072 361.133 140.671 362.534 140.671 364.262V374.138C140.671 375.866 142.072 377.267 143.8 377.267H237.807C239.535 377.267 240.936 375.866 240.936 374.138V364.262C240.936 362.534 239.535 361.133 237.807 361.133Z" fill="#444444" style="fill:#444444;fill:color(display-p3 0.2667 0.2667 0.2667);fill-opacity:1;"/>
<path d="M290.051 361.133H253.284C251.556 361.133 250.155 362.534 250.155 364.262V374.138C250.155 375.866 251.556 377.267 253.284 377.267H290.051C291.779 377.267 293.18 375.866 293.18 374.138V364.262C293.18 362.534 291.779 361.133 290.051 361.133Z" fill="#444444" style="fill:#444444;fill:color(display-p3 0.2667 0.2667 0.2667);fill-opacity:1;"/>
<path d="M429.718 321.391H80.5205C75.6446 321.391 71.6919 325.343 71.6919 330.219V381.877C71.6919 386.753 75.6446 390.706 80.5205 390.706H429.718C434.594 390.706 438.547 386.753 438.547 381.877V330.219C438.547 325.343 434.594 321.391 429.718 321.391Z" stroke="#444444" style="stroke:#444444;stroke:color(display-p3 0.2667 0.2667 0.2667);stroke-opacity:1;" stroke-width="0.782261"/>
</g>
<g opacity="0.2">
<path d="M429.718 409.928H80.5205C75.6446 409.928 71.6919 413.88 71.6919 418.756V470.415C71.6919 475.29 75.6446 479.243 80.5205 479.243H429.718C434.594 479.243 438.547 475.29 438.547 470.415V418.756C438.547 413.88 434.594 409.928 429.718 409.928Z" fill="#222222" style="fill:#222222;fill:color(display-p3 0.1333 0.1333 0.1333);fill-opacity:1;"/>
<path d="M125.026 423.367H88.2594C86.5313 423.367 85.1304 424.768 85.1304 426.496V462.677C85.1304 464.405 86.5313 465.806 88.2594 465.806H125.026C126.754 465.806 128.155 464.405 128.155 462.677V426.496C128.155 424.768 126.754 423.367 125.026 423.367Z" fill="#444444" style="fill:#444444;fill:color(display-p3 0.2667 0.2667 0.2667);fill-opacity:1;"/>
<path d="M237.807 423.367H143.8C142.072 423.367 140.671 424.768 140.671 426.496V436.373C140.671 438.101 142.072 439.502 143.8 439.502H237.807C239.535 439.502 240.936 438.101 240.936 436.373V426.496C240.936 424.768 239.535 423.367 237.807 423.367Z" fill="#444444" style="fill:#444444;fill:color(display-p3 0.2667 0.2667 0.2667);fill-opacity:1;"/>
<path d="M237.807 449.67H143.8C142.072 449.67 140.671 451.071 140.671 452.799V462.675C140.671 464.404 142.072 465.804 143.8 465.804H237.807C239.535 465.804 240.936 464.404 240.936 462.675V452.799C240.936 451.071 239.535 449.67 237.807 449.67Z" fill="#444444" style="fill:#444444;fill:color(display-p3 0.2667 0.2667 0.2667);fill-opacity:1;"/>
<path d="M290.051 449.67H253.284C251.556 449.67 250.155 451.071 250.155 452.799V462.675C250.155 464.404 251.556 465.804 253.284 465.804H290.051C291.779 465.804 293.18 464.404 293.18 462.675V452.799C293.18 451.071 291.779 449.67 290.051 449.67Z" fill="#444444" style="fill:#444444;fill:color(display-p3 0.2667 0.2667 0.2667);fill-opacity:1;"/>
<path d="M429.718 409.928H80.5205C75.6446 409.928 71.6919 413.88 71.6919 418.756V470.415C71.6919 475.29 75.6446 479.243 80.5205 479.243H429.718C434.594 479.243 438.547 475.29 438.547 470.415V418.756C438.547 413.88 434.594 409.928 429.718 409.928Z" stroke="#444444" style="stroke:#444444;stroke:color(display-p3 0.2667 0.2667 0.2667);stroke-opacity:1;" stroke-width="0.782261"/>
</g>
</g>
<path d="M453.814 191.885H57.5758C50.8348 191.885 45.3701 197.349 45.3701 204.09V459.728C45.3701 466.469 50.8348 471.934 57.5758 471.934H453.814C460.555 471.934 466.02 466.469 466.02 459.728V204.09C466.02 197.349 460.555 191.885 453.814 191.885Z" stroke="url(#paint6_linear_420_977)" stroke-opacity="0.8" style="" stroke-width="1.15247"/>
</g>
<defs>
<linearGradient id="paint0_linear_420_977" x1="49.4036" y1="339.391" x2="49.4036" y2="578.685" gradientUnits="userSpaceOnUse">
<stop offset="0.665992" stop-color="#444444" style="stop-color:#444444;stop-color:color(display-p3 0.2667 0.2667 0.2667);stop-opacity:1;"/>
<stop offset="0.801389" stop-color="#888888" stop-opacity="0" style="stop-color:none;stop-color:none;stop-opacity:0;"/>
</linearGradient>
<linearGradient id="paint1_linear_420_977" x1="61.8081" y1="350.895" x2="62.6567" y2="558.889" gradientUnits="userSpaceOnUse">
<stop offset="0.263115" stop-color="#444444" style="stop-color:#444444;stop-color:color(display-p3 0.2667 0.2667 0.2667);stop-opacity:1;"/>
<stop offset="0.794315" stop-color="#888888" stop-opacity="0" style="stop-color:none;stop-color:none;stop-opacity:0;"/>
</linearGradient>
<linearGradient id="paint2_linear_420_977" x1="72.4529" y1="364.699" x2="72.4529" y2="621.699" gradientUnits="userSpaceOnUse">
<stop stop-color="#444444" style="stop-color:#444444;stop-color:color(display-p3 0.2667 0.2667 0.2667);stop-opacity:1;"/>
<stop offset="0.457208" stop-color="#444444" stop-opacity="0" style="stop-color:none;stop-color:none;stop-opacity:0;"/>
</linearGradient>
<linearGradient id="paint3_linear_420_977" x1="498.865" y1="299.056" x2="498.865" y2="89.9878" gradientUnits="userSpaceOnUse">
<stop stop-color="#444444" style="stop-color:#444444;stop-color:color(display-p3 0.2667 0.2667 0.2667);stop-opacity:1;"/>
<stop offset="0.952541" stop-color="#DEE2E6" stop-opacity="0" style="stop-color:none;stop-color:none;stop-opacity:0;"/>
</linearGradient>
<linearGradient id="paint4_linear_420_977" x1="487.047" y1="287.509" x2="487.047" y2="86.5133" gradientUnits="userSpaceOnUse">
<stop stop-color="#444444" style="stop-color:#444444;stop-color:color(display-p3 0.2667 0.2667 0.2667);stop-opacity:1;"/>
<stop offset="0.839378" stop-color="#444444" stop-opacity="0" style="stop-color:none;stop-color:none;stop-opacity:0;"/>
</linearGradient>
<linearGradient id="paint5_linear_420_977" x1="475.816" y1="273.653" x2="475.816" y2="82.344" gradientUnits="userSpaceOnUse">
<stop stop-color="#444444" style="stop-color:#444444;stop-color:color(display-p3 0.2667 0.2667 0.2667);stop-opacity:1;"/>
<stop offset="0.605774" stop-color="#444444" stop-opacity="0" style="stop-color:none;stop-color:none;stop-opacity:0;"/>
</linearGradient>
<linearGradient id="paint6_linear_420_977" x1="-83.824" y1="141.779" x2="466.597" y2="485.293" gradientUnits="userSpaceOnUse">
<stop stop-color="#ACACAC" style="stop-color:#ACACAC;stop-color:color(display-p3 0.6745 0.6745 0.6745);stop-opacity:1;"/>
<stop offset="1" stop-opacity="0" style="stop-color:none;stop-color:none;stop-opacity:0;"/>
</linearGradient>
<clipPath id="clip0_420_977">
<rect width="516" height="638" fill="white" style="fill:white;fill:white;fill-opacity:1;"/>
</clipPath>
</defs>
</svg>
