<svg width="405" height="218" viewBox="0 0 405 218" fill="none" xmlns="http://www.w3.org/2000/svg">
<g clip-path="url(#clip0_401_1356)">
<mask id="mask0_401_1356" style="mask-type:luminance" maskUnits="userSpaceOnUse" x="0" y="0" width="405" height="218">
<path d="M405 0H0V218H405V0Z" fill="white" style="fill:white;fill:white;fill-opacity:1;"/>
</mask>
<g mask="url(#mask0_401_1356)">
<path d="M206 -17.0205V48.9795" stroke="url(#paint0_linear_401_1356)" style="" stroke-width="0.75"/>
<path d="M200 -17.0205V48.9795" stroke="url(#paint1_linear_401_1356)" style="" stroke-width="0.75"/>
<g opacity="0.2">
<path d="M50.8649 -42.1348H0.319885V8.41023H50.8649V-42.1348Z" stroke="#EBE9EF" style="stroke:#EBE9EF;stroke:color(display-p3 0.9224 0.9137 0.9373);stroke-opacity:1;" stroke-width="0.63981"/>
<path d="M101.41 -42.1348H50.8649V8.41023H101.41V-42.1348Z" stroke="#EBE9EF" style="stroke:#EBE9EF;stroke:color(display-p3 0.9224 0.9137 0.9373);stroke-opacity:1;" stroke-width="0.63981"/>
<path d="M151.955 -42.1348H101.41V8.41023H151.955V-42.1348Z" stroke="#EBE9EF" style="stroke:#EBE9EF;stroke:color(display-p3 0.9224 0.9137 0.9373);stroke-opacity:1;" stroke-width="0.63981"/>
<path d="M202.5 -42.1348H151.955V8.41023H202.5V-42.1348Z" stroke="#EBE9EF" style="stroke:#EBE9EF;stroke:color(display-p3 0.9224 0.9137 0.9373);stroke-opacity:1;" stroke-width="0.63981"/>
<path d="M253.045 -42.1348H202.5V8.41023H253.045V-42.1348Z" stroke="#EBE9EF" style="stroke:#EBE9EF;stroke:color(display-p3 0.9224 0.9137 0.9373);stroke-opacity:1;" stroke-width="0.63981"/>
<path d="M303.59 -42.1348H253.045V8.41023H303.59V-42.1348Z" stroke="#EBE9EF" style="stroke:#EBE9EF;stroke:color(display-p3 0.9224 0.9137 0.9373);stroke-opacity:1;" stroke-width="0.63981"/>
<path d="M354.135 -42.1348H303.59V8.41023H354.135V-42.1348Z" stroke="#EBE9EF" style="stroke:#EBE9EF;stroke:color(display-p3 0.9224 0.9137 0.9373);stroke-opacity:1;" stroke-width="0.63981"/>
<path d="M404.68 -42.1348H354.135V8.41023H404.68V-42.1348Z" stroke="#EBE9EF" style="stroke:#EBE9EF;stroke:color(display-p3 0.9224 0.9137 0.9373);stroke-opacity:1;" stroke-width="0.63981"/>
<path d="M50.8649 8.41016H0.319885V58.9552H50.8649V8.41016Z" stroke="#EBE9EF" style="stroke:#EBE9EF;stroke:color(display-p3 0.9224 0.9137 0.9373);stroke-opacity:1;" stroke-width="0.63981"/>
<path opacity="0.5" d="M101.41 8.41113H50.8649V58.9561H101.41V8.41113Z" fill="url(#paint2_linear_401_1356)" stroke="#EBE9EF" style="stroke:#EBE9EF;stroke:color(display-p3 0.9224 0.9137 0.9373);stroke-opacity:1;" stroke-width="0.63981"/>
<path d="M151.955 8.41113H101.41V58.9561H151.955V8.41113Z" stroke="#EBE9EF" style="stroke:#EBE9EF;stroke:color(display-p3 0.9224 0.9137 0.9373);stroke-opacity:1;" stroke-width="0.63981"/>
<path d="M202.5 8.41113H151.955V58.9561H202.5V8.41113Z" stroke="#EBE9EF" style="stroke:#EBE9EF;stroke:color(display-p3 0.9224 0.9137 0.9373);stroke-opacity:1;" stroke-width="0.63981"/>
<path d="M253.045 8.41113H202.5V58.9561H253.045V8.41113Z" stroke="#EBE9EF" style="stroke:#EBE9EF;stroke:color(display-p3 0.9224 0.9137 0.9373);stroke-opacity:1;" stroke-width="0.63981"/>
<path d="M303.59 8.41113H253.045V58.9561H303.59V8.41113Z" stroke="#EBE9EF" style="stroke:#EBE9EF;stroke:color(display-p3 0.9224 0.9137 0.9373);stroke-opacity:1;" stroke-width="0.63981"/>
<path d="M354.135 8.41113H303.59V58.9561H354.135V8.41113Z" fill="url(#paint3_linear_401_1356)" stroke="#EBE9EF" style="stroke:#EBE9EF;stroke:color(display-p3 0.9224 0.9137 0.9373);stroke-opacity:1;" stroke-width="0.63981"/>
<path d="M404.68 8.41113H354.135V58.9561H404.68V8.41113Z" fill="url(#paint4_linear_401_1356)" stroke="#EBE9EF" style="stroke:#EBE9EF;stroke:color(display-p3 0.9224 0.9137 0.9373);stroke-opacity:1;" stroke-width="0.63981"/>
<path d="M50.8649 58.9551H0.319885V109.5H50.8649V58.9551Z" stroke="#EBE9EF" style="stroke:#EBE9EF;stroke:color(display-p3 0.9224 0.9137 0.9373);stroke-opacity:1;" stroke-width="0.63981"/>
<path d="M101.41 58.9551H50.8649V109.5H101.41V58.9551Z" stroke="#EBE9EF" style="stroke:#EBE9EF;stroke:color(display-p3 0.9224 0.9137 0.9373);stroke-opacity:1;" stroke-width="0.63981"/>
<path d="M151.955 58.9551H101.41V109.5H151.955V58.9551Z" stroke="#EBE9EF" style="stroke:#EBE9EF;stroke:color(display-p3 0.9224 0.9137 0.9373);stroke-opacity:1;" stroke-width="0.63981"/>
<path d="M202.5 58.9551H151.955V109.5H202.5V58.9551Z" stroke="#EBE9EF" style="stroke:#EBE9EF;stroke:color(display-p3 0.9224 0.9137 0.9373);stroke-opacity:1;" stroke-width="0.63981"/>
<path d="M253.045 58.9551H202.5V109.5H253.045V58.9551Z" stroke="#EBE9EF" style="stroke:#EBE9EF;stroke:color(display-p3 0.9224 0.9137 0.9373);stroke-opacity:1;" stroke-width="0.63981"/>
<path d="M303.59 58.9551H253.045V109.5H303.59V58.9551Z" stroke="#EBE9EF" style="stroke:#EBE9EF;stroke:color(display-p3 0.9224 0.9137 0.9373);stroke-opacity:1;" stroke-width="0.63981"/>
<path d="M354.135 58.9551H303.59V109.5H354.135V58.9551Z" stroke="#EBE9EF" style="stroke:#EBE9EF;stroke:color(display-p3 0.9224 0.9137 0.9373);stroke-opacity:1;" stroke-width="0.63981"/>
<path d="M404.68 58.9551H354.135V109.5H404.68V58.9551Z" stroke="#EBE9EF" style="stroke:#EBE9EF;stroke:color(display-p3 0.9224 0.9137 0.9373);stroke-opacity:1;" stroke-width="0.63981"/>
<path opacity="0.5" d="M50.8649 109.5H0.319885V160.045H50.8649V109.5Z" fill="url(#paint5_linear_401_1356)" stroke="#EBE9EF" style="stroke:#EBE9EF;stroke:color(display-p3 0.9224 0.9137 0.9373);stroke-opacity:1;" stroke-width="0.63981"/>
<path d="M101.41 109.5H50.8649V160.045H101.41V109.5Z" stroke="#EBE9EF" style="stroke:#EBE9EF;stroke:color(display-p3 0.9224 0.9137 0.9373);stroke-opacity:1;" stroke-width="0.63981"/>
<path d="M151.955 109.5H101.41V160.045H151.955V109.5Z" stroke="#EBE9EF" style="stroke:#EBE9EF;stroke:color(display-p3 0.9224 0.9137 0.9373);stroke-opacity:1;" stroke-width="0.63981"/>
<path d="M202.5 109.5H151.955V160.045H202.5V109.5Z" fill="url(#paint6_linear_401_1356)" stroke="#EBE9EF" style="stroke:#EBE9EF;stroke:color(display-p3 0.9224 0.9137 0.9373);stroke-opacity:1;" stroke-width="0.63981"/>
<path d="M253.045 109.5H202.5V160.045H253.045V109.5Z" stroke="#EBE9EF" style="stroke:#EBE9EF;stroke:color(display-p3 0.9224 0.9137 0.9373);stroke-opacity:1;" stroke-width="0.63981"/>
<path d="M303.59 109.5H253.045V160.045H303.59V109.5Z" fill="url(#paint7_linear_401_1356)" stroke="#EBE9EF" style="stroke:#EBE9EF;stroke:color(display-p3 0.9224 0.9137 0.9373);stroke-opacity:1;" stroke-width="0.63981"/>
<path d="M354.135 109.5H303.59V160.045H354.135V109.5Z" fill="url(#paint8_linear_401_1356)" stroke="#EBE9EF" style="stroke:#EBE9EF;stroke:color(display-p3 0.9224 0.9137 0.9373);stroke-opacity:1;" stroke-width="0.63981"/>
<path d="M404.68 109.5H354.135V160.045H404.68V109.5Z" stroke="#EBE9EF" style="stroke:#EBE9EF;stroke:color(display-p3 0.9224 0.9137 0.9373);stroke-opacity:1;" stroke-width="0.63981"/>
<path d="M50.8649 160.045H0.319885V210.59H50.8649V160.045Z" stroke="#EBE9EF" style="stroke:#EBE9EF;stroke:color(display-p3 0.9224 0.9137 0.9373);stroke-opacity:1;" stroke-width="0.63981"/>
<path d="M101.41 160.045H50.8649V210.59H101.41V160.045Z" fill="url(#paint9_linear_401_1356)" stroke="#EBE9EF" style="stroke:#EBE9EF;stroke:color(display-p3 0.9224 0.9137 0.9373);stroke-opacity:1;" stroke-width="0.63981"/>
<path d="M151.955 160.045H101.41V210.59H151.955V160.045Z" stroke="#EBE9EF" style="stroke:#EBE9EF;stroke:color(display-p3 0.9224 0.9137 0.9373);stroke-opacity:1;" stroke-width="0.63981"/>
<path d="M202.5 160.045H151.955V210.59H202.5V160.045Z" stroke="#EBE9EF" style="stroke:#EBE9EF;stroke:color(display-p3 0.9224 0.9137 0.9373);stroke-opacity:1;" stroke-width="0.63981"/>
<path d="M253.045 160.045H202.5V210.59H253.045V160.045Z" stroke="#EBE9EF" style="stroke:#EBE9EF;stroke:color(display-p3 0.9224 0.9137 0.9373);stroke-opacity:1;" stroke-width="0.63981"/>
<path d="M303.59 160.045H253.045V210.59H303.59V160.045Z" stroke="#EBE9EF" style="stroke:#EBE9EF;stroke:color(display-p3 0.9224 0.9137 0.9373);stroke-opacity:1;" stroke-width="0.63981"/>
<path d="M354.135 160.045H303.59V210.59H354.135V160.045Z" stroke="#EBE9EF" style="stroke:#EBE9EF;stroke:color(display-p3 0.9224 0.9137 0.9373);stroke-opacity:1;" stroke-width="0.63981"/>
<path d="M404.68 160.045H354.135V210.59H404.68V160.045Z" fill="url(#paint10_linear_401_1356)" stroke="#EBE9EF" style="stroke:#EBE9EF;stroke:color(display-p3 0.9224 0.9137 0.9373);stroke-opacity:1;" stroke-width="0.63981"/>
<path d="M50.8649 210.59H0.319885V261.135H50.8649V210.59Z" stroke="#EBE9EF" style="stroke:#EBE9EF;stroke:color(display-p3 0.9224 0.9137 0.9373);stroke-opacity:1;" stroke-width="0.63981"/>
<path opacity="0.5" d="M101.41 210.59H50.8649V261.135H101.41V210.59Z" fill="url(#paint11_linear_401_1356)" stroke="#EBE9EF" style="stroke:#EBE9EF;stroke:color(display-p3 0.9224 0.9137 0.9373);stroke-opacity:1;" stroke-width="0.63981"/>
<path d="M151.955 210.59H101.41V261.135H151.955V210.59Z" stroke="#EBE9EF" style="stroke:#EBE9EF;stroke:color(display-p3 0.9224 0.9137 0.9373);stroke-opacity:1;" stroke-width="0.63981"/>
<path d="M202.5 210.59H151.955V261.135H202.5V210.59Z" stroke="#EBE9EF" style="stroke:#EBE9EF;stroke:color(display-p3 0.9224 0.9137 0.9373);stroke-opacity:1;" stroke-width="0.63981"/>
<path d="M253.045 210.59H202.5V261.135H253.045V210.59Z" stroke="#EBE9EF" style="stroke:#EBE9EF;stroke:color(display-p3 0.9224 0.9137 0.9373);stroke-opacity:1;" stroke-width="0.63981"/>
<path d="M303.59 210.59H253.045V261.135H303.59V210.59Z" stroke="#EBE9EF" style="stroke:#EBE9EF;stroke:color(display-p3 0.9224 0.9137 0.9373);stroke-opacity:1;" stroke-width="0.63981"/>
<path opacity="0.5" d="M354.135 210.59H303.59V261.135H354.135V210.59Z" fill="url(#paint12_linear_401_1356)" stroke="#EBE9EF" style="stroke:#EBE9EF;stroke:color(display-p3 0.9224 0.9137 0.9373);stroke-opacity:1;" stroke-width="0.63981"/>
<path d="M404.68 210.59H354.135V261.135H404.68V210.59Z" stroke="#EBE9EF" style="stroke:#EBE9EF;stroke:color(display-p3 0.9224 0.9137 0.9373);stroke-opacity:1;" stroke-width="0.63981"/>
</g>
<path d="M369 77H36V217H369V77Z" fill="white" style="fill:white;fill:white;fill-opacity:1;"/>
<mask id="mask1_401_1356" style="mask-type:alpha" maskUnits="userSpaceOnUse" x="39" y="19" width="333" height="205">
<path d="M372 19.4502H39V223.45H372V19.4502Z" fill="url(#paint13_linear_401_1356)" style=""/>
</mask>
<g mask="url(#mask1_401_1356)">
<g opacity="0.25">
<path d="M46 44.4502C46 42.2411 47.7909 40.4502 50 40.4502H355C357.209 40.4502 359 42.2411 359 44.4502V169.45C359 171.659 357.209 173.45 355 173.45H50C47.7909 173.45 46 171.659 46 169.45V44.4502Z" fill="#EBE9EF" style="fill:#EBE9EF;fill:color(display-p3 0.9224 0.9137 0.9373);fill-opacity:1;"/>
</g>
<mask id="mask2_401_1356" style="mask-type:luminance" maskUnits="userSpaceOnUse" x="51" y="46" width="303" height="154">
<path d="M350 46H55C52.7909 46 51 47.7909 51 50V196C51 198.209 52.7909 200 55 200H350C352.209 200 354 198.209 354 196V50C354 47.7909 352.209 46 350 46Z" fill="white" style="fill:white;fill:white;fill-opacity:1;"/>
</mask>
<g mask="url(#mask2_401_1356)">
<path d="M350 46H55C52.7909 46 51 47.7909 51 50V196C51 198.209 52.7909 200 55 200H350C352.209 200 354 198.209 354 196V50C354 47.7909 352.209 46 350 46Z" fill="white" style="fill:white;fill:white;fill-opacity:1;"/>
<path d="M331 99H64C63.4477 99 63 99.4477 63 100V106C63 106.552 63.4477 107 64 107H331C331.552 107 332 106.552 332 106V100C332 99.4477 331.552 99 331 99Z" fill="#D2CEDA" style="fill:#D2CEDA;fill:color(display-p3 0.8251 0.8078 0.8549);fill-opacity:1;"/>
<path d="M221 115H64C63.4477 115 63 115.448 63 116V123C63 123.552 63.4477 124 64 124H221C221.552 124 222 123.552 222 123V116C222 115.448 221.552 115 221 115Z" fill="#D2CEDA" style="fill:#D2CEDA;fill:color(display-p3 0.8251 0.8078 0.8549);fill-opacity:1;"/>
<path d="M278 132H64C63.4477 132 63 132.448 63 133V139C63 139.552 63.4477 140 64 140H278C278.552 140 279 139.552 279 139V133C279 132.448 278.552 132 278 132Z" fill="#D2CEDA" style="fill:#D2CEDA;fill:color(display-p3 0.8251 0.8078 0.8549);fill-opacity:1;"/>
<path d="M147 148H64C63.4477 148 63 148.448 63 149V155C63 155.552 63.4477 156 64 156H147C147.552 156 148 155.552 148 155V149C148 148.448 147.552 148 147 148Z" fill="#D2CEDA" style="fill:#D2CEDA;fill:color(display-p3 0.8251 0.8078 0.8549);fill-opacity:1;"/>
<path d="M333 171H295C294.448 171 294 171.448 294 172V184C294 184.552 294.448 185 295 185H333C333.552 185 334 184.552 334 184V172C334 171.448 333.552 171 333 171Z" fill="#8247E5" style="fill:#8247E5;fill:color(display-p3 0.5098 0.2784 0.8980);fill-opacity:1;"/>
<path d="M179.2 63H92.4C91.6268 63 91 63.6268 91 64.4V70C91 70.7732 91.6268 71.4 92.4 71.4H179.2C179.973 71.4 180.6 70.7732 180.6 70V64.4C180.6 63.6268 179.973 63 179.2 63Z" fill="#D2CEDA" style="fill:#D2CEDA;fill:color(display-p3 0.8251 0.8078 0.8549);fill-opacity:1;"/>
<path d="M109.2 77H92.4C91.6268 77 91 77.6268 91 78.4V82.6C91 83.3732 91.6268 84 92.4 84H109.2C109.973 84 110.6 83.3732 110.6 82.6V78.4C110.6 77.6268 109.973 77 109.2 77Z" fill="#D2CEDA" style="fill:#D2CEDA;fill:color(display-p3 0.8251 0.8078 0.8549);fill-opacity:1;"/>
<path d="M134.4 77H117.6C116.827 77 116.2 77.6268 116.2 78.4V82.6C116.2 83.3732 116.827 84 117.6 84H134.4C135.173 84 135.8 83.3732 135.8 82.6V78.4C135.8 77.6268 135.173 77 134.4 77Z" fill="#D2CEDA" style="fill:#D2CEDA;fill:color(display-p3 0.8251 0.8078 0.8549);fill-opacity:1;"/>
<path d="M82.6 63H64.4C63.6268 63 63 63.6268 63 64.4V82.6C63 83.3732 63.6268 84 64.4 84H82.6C83.3732 84 84 83.3732 84 82.6V64.4C84 63.6268 83.3732 63 82.6 63Z" fill="#D2CEDA" style="fill:#D2CEDA;fill:color(display-p3 0.8251 0.8078 0.8549);fill-opacity:1;"/>
<path fill-rule="evenodd" clip-rule="evenodd" d="M324.97 179.993L331.214 194.836C331.483 195.474 332.389 195.473 332.655 194.833L334.087 191.402L337.312 194.626C338.227 195.541 339.711 195.541 340.626 194.626C341.541 193.711 341.541 192.227 340.626 191.312L337.402 188.087L340.833 186.655C341.473 186.389 341.474 185.483 340.836 185.214L325.993 178.97C325.347 178.698 324.698 179.347 324.97 179.993Z" fill="#1F1136" style="fill:#1F1136;fill:color(display-p3 0.1199 0.0667 0.2118);fill-opacity:1;"/>
<path fill-rule="evenodd" clip-rule="evenodd" d="M333.543 188.648L338.416 193.521C338.721 193.826 339.216 193.826 339.521 193.521C339.826 193.216 339.826 192.721 339.521 192.416L334.648 187.543L338.511 185.931L327.153 181.153L331.931 192.511L333.543 188.648ZM340.833 186.655C341.473 186.389 341.474 185.483 340.836 185.214L325.993 178.97C325.347 178.698 324.698 179.347 324.97 179.993L331.214 194.836C331.483 195.474 332.389 195.473 332.655 194.833L334.087 191.402L337.312 194.626C338.227 195.541 339.711 195.541 340.626 194.626C341.541 193.711 341.541 192.227 340.626 191.312L337.402 188.087L340.833 186.655Z" fill="white" style="fill:white;fill:white;fill-opacity:1;"/>
</g>
<path d="M350 46.5H55C53.067 46.5 51.5 48.067 51.5 50V196C51.5 197.933 53.067 199.5 55 199.5H350C351.933 199.5 353.5 197.933 353.5 196V50C353.5 48.067 351.933 46.5 350 46.5Z" stroke="#EBE9EF" style="stroke:#EBE9EF;stroke:color(display-p3 0.9224 0.9137 0.9373);stroke-opacity:1;"/>
</g>
</g>
</g>
<defs>
<linearGradient id="paint0_linear_401_1356" x1="207" y1="46" x2="207" y2="8" gradientUnits="userSpaceOnUse">
<stop stop-color="#4C07C3" style="stop-color:#4C07C3;stop-color:color(display-p3 0.2978 0.0275 0.7647);stop-opacity:1;"/>
<stop offset="0.681321" stop-color="#4C07C3" stop-opacity="0" style="stop-color:none;stop-color:none;stop-opacity:0;"/>
</linearGradient>
<linearGradient id="paint1_linear_401_1356" x1="201" y1="46" x2="201" y2="8" gradientUnits="userSpaceOnUse">
<stop stop-color="#4C07C3" style="stop-color:#4C07C3;stop-color:color(display-p3 0.2978 0.0275 0.7647);stop-opacity:1;"/>
<stop offset="0.681321" stop-color="#4C07C3" stop-opacity="0" style="stop-color:none;stop-color:none;stop-opacity:0;"/>
</linearGradient>
<linearGradient id="paint2_linear_401_1356" x1="78.5001" y1="-7.49862" x2="80.0001" y2="68.5014" gradientUnits="userSpaceOnUse">
<stop stop-color="#EDD99C" stop-opacity="0.11" style="stop-color:#EDD99C;stop-color:color(display-p3 0.9294 0.8500 0.6118);stop-opacity:0.11;"/>
<stop offset="0.821091" stop-color="#BDB9AD" stop-opacity="0" style="stop-color:none;stop-color:none;stop-opacity:0;"/>
</linearGradient>
<linearGradient id="paint3_linear_401_1356" x1="331.225" y1="-7.49862" x2="332.725" y2="68.5014" gradientUnits="userSpaceOnUse">
<stop stop-color="#BA9CED" stop-opacity="0.11" style="stop-color:#BA9CED;stop-color:color(display-p3 0.7282 0.6118 0.9294);stop-opacity:0.11;"/>
<stop offset="0.821091" stop-color="#B3ADBD" stop-opacity="0" style="stop-color:none;stop-color:none;stop-opacity:0;"/>
</linearGradient>
<linearGradient id="paint4_linear_401_1356" x1="381.77" y1="-7.49862" x2="383.27" y2="68.5014" gradientUnits="userSpaceOnUse">
<stop stop-color="#BA9CED" stop-opacity="0.11" style="stop-color:#BA9CED;stop-color:color(display-p3 0.7282 0.6118 0.9294);stop-opacity:0.11;"/>
<stop offset="0.821091" stop-color="#B3ADBD" stop-opacity="0" style="stop-color:none;stop-color:none;stop-opacity:0;"/>
</linearGradient>
<linearGradient id="paint5_linear_401_1356" x1="27.9551" y1="93.5903" x2="29.4551" y2="169.59" gradientUnits="userSpaceOnUse">
<stop stop-color="#EDD99C" stop-opacity="0.11" style="stop-color:#EDD99C;stop-color:color(display-p3 0.9294 0.8500 0.6118);stop-opacity:0.11;"/>
<stop offset="0.821091" stop-color="#BDB9AD" stop-opacity="0" style="stop-color:none;stop-color:none;stop-opacity:0;"/>
</linearGradient>
<linearGradient id="paint6_linear_401_1356" x1="179.59" y1="93.5903" x2="181.09" y2="169.59" gradientUnits="userSpaceOnUse">
<stop stop-color="#BA9CED" stop-opacity="0.11" style="stop-color:#BA9CED;stop-color:color(display-p3 0.7282 0.6118 0.9294);stop-opacity:0.11;"/>
<stop offset="0.821091" stop-color="#B3ADBD" stop-opacity="0" style="stop-color:none;stop-color:none;stop-opacity:0;"/>
</linearGradient>
<linearGradient id="paint7_linear_401_1356" x1="280.68" y1="93.5903" x2="282.18" y2="169.59" gradientUnits="userSpaceOnUse">
<stop stop-color="#BA9CED" stop-opacity="0.11" style="stop-color:#BA9CED;stop-color:color(display-p3 0.7282 0.6118 0.9294);stop-opacity:0.11;"/>
<stop offset="0.821091" stop-color="#B3ADBD" stop-opacity="0" style="stop-color:none;stop-color:none;stop-opacity:0;"/>
</linearGradient>
<linearGradient id="paint8_linear_401_1356" x1="331.225" y1="93.5903" x2="332.725" y2="169.59" gradientUnits="userSpaceOnUse">
<stop stop-color="#BA9CED" stop-opacity="0.11" style="stop-color:#BA9CED;stop-color:color(display-p3 0.7282 0.6118 0.9294);stop-opacity:0.11;"/>
<stop offset="0.821091" stop-color="#B3ADBD" stop-opacity="0" style="stop-color:none;stop-color:none;stop-opacity:0;"/>
</linearGradient>
<linearGradient id="paint9_linear_401_1356" x1="78.5001" y1="144.135" x2="80.0001" y2="220.135" gradientUnits="userSpaceOnUse">
<stop stop-color="#BA9CED" stop-opacity="0.11" style="stop-color:#BA9CED;stop-color:color(display-p3 0.7282 0.6118 0.9294);stop-opacity:0.11;"/>
<stop offset="0.821091" stop-color="#B3ADBD" stop-opacity="0" style="stop-color:none;stop-color:none;stop-opacity:0;"/>
</linearGradient>
<linearGradient id="paint10_linear_401_1356" x1="381.77" y1="144.135" x2="383.27" y2="220.135" gradientUnits="userSpaceOnUse">
<stop stop-color="#BA9CED" stop-opacity="0.11" style="stop-color:#BA9CED;stop-color:color(display-p3 0.7282 0.6118 0.9294);stop-opacity:0.11;"/>
<stop offset="0.821091" stop-color="#B3ADBD" stop-opacity="0" style="stop-color:none;stop-color:none;stop-opacity:0;"/>
</linearGradient>
<linearGradient id="paint11_linear_401_1356" x1="78.5001" y1="194.68" x2="80.0001" y2="270.68" gradientUnits="userSpaceOnUse">
<stop stop-color="#BA9CED" stop-opacity="0.11" style="stop-color:#BA9CED;stop-color:color(display-p3 0.7282 0.6118 0.9294);stop-opacity:0.11;"/>
<stop offset="0.821091" stop-color="#B3ADBD" stop-opacity="0" style="stop-color:none;stop-color:none;stop-opacity:0;"/>
</linearGradient>
<linearGradient id="paint12_linear_401_1356" x1="331.225" y1="194.68" x2="332.725" y2="270.68" gradientUnits="userSpaceOnUse">
<stop stop-color="#BA9CED" stop-opacity="0.11" style="stop-color:#BA9CED;stop-color:color(display-p3 0.7282 0.6118 0.9294);stop-opacity:0.11;"/>
<stop offset="0.821091" stop-color="#B3ADBD" stop-opacity="0" style="stop-color:none;stop-color:none;stop-opacity:0;"/>
</linearGradient>
<linearGradient id="paint13_linear_401_1356" x1="205.5" y1="19.4502" x2="205.5" y2="223.45" gradientUnits="userSpaceOnUse">
<stop offset="0.423485" stop-color="#D9D9D9" style="stop-color:#D9D9D9;stop-color:color(display-p3 0.8510 0.8510 0.8510);stop-opacity:1;"/>
<stop offset="0.877301" stop-color="#D9D9D9" stop-opacity="0" style="stop-color:none;stop-color:none;stop-opacity:0;"/>
</linearGradient>
<clipPath id="clip0_401_1356">
<rect width="405" height="218" fill="white" style="fill:white;fill:white;fill-opacity:1;"/>
</clipPath>
</defs>
</svg>
