<svg width="405" height="218" viewBox="0 0 405 218" fill="none" xmlns="http://www.w3.org/2000/svg">
<g clip-path="url(#clip0_401_1602)">
<mask id="mask0_401_1602" style="mask-type:luminance" maskUnits="userSpaceOnUse" x="0" y="0" width="405" height="218">
<path d="M405 0H0V218H405V0Z" fill="white" style="fill:white;fill:white;fill-opacity:1;"/>
</mask>
<g mask="url(#mask0_401_1602)">
<path d="M206 -17.0195V48.9805" stroke="url(#paint0_linear_401_1602)" style="" stroke-width="0.75"/>
<path d="M200 -17.0195V48.9805" stroke="url(#paint1_linear_401_1602)" style="" stroke-width="0.75"/>
<g opacity="0.2">
<path d="M50.8649 -42.1348H0.319885V8.41023H50.8649V-42.1348Z" stroke="#EBE9EF" style="stroke:#EBE9EF;stroke:color(display-p3 0.9224 0.9137 0.9373);stroke-opacity:1;" stroke-width="0.63981"/>
<path d="M101.41 -42.1348H50.8648V8.41023H101.41V-42.1348Z" stroke="#EBE9EF" style="stroke:#EBE9EF;stroke:color(display-p3 0.9224 0.9137 0.9373);stroke-opacity:1;" stroke-width="0.63981"/>
<path d="M151.955 -42.1348H101.41V8.41023H151.955V-42.1348Z" stroke="#EBE9EF" style="stroke:#EBE9EF;stroke:color(display-p3 0.9224 0.9137 0.9373);stroke-opacity:1;" stroke-width="0.63981"/>
<path d="M202.5 -42.1348H151.955V8.41023H202.5V-42.1348Z" stroke="#EBE9EF" style="stroke:#EBE9EF;stroke:color(display-p3 0.9224 0.9137 0.9373);stroke-opacity:1;" stroke-width="0.63981"/>
<path d="M253.045 -42.1348H202.5V8.41023H253.045V-42.1348Z" stroke="#EBE9EF" style="stroke:#EBE9EF;stroke:color(display-p3 0.9224 0.9137 0.9373);stroke-opacity:1;" stroke-width="0.63981"/>
<path d="M303.59 -42.1348H253.045V8.41023H303.59V-42.1348Z" stroke="#EBE9EF" style="stroke:#EBE9EF;stroke:color(display-p3 0.9224 0.9137 0.9373);stroke-opacity:1;" stroke-width="0.63981"/>
<path d="M354.135 -42.1348H303.59V8.41023H354.135V-42.1348Z" stroke="#EBE9EF" style="stroke:#EBE9EF;stroke:color(display-p3 0.9224 0.9137 0.9373);stroke-opacity:1;" stroke-width="0.63981"/>
<path d="M404.68 -42.1348H354.135V8.41023H404.68V-42.1348Z" stroke="#EBE9EF" style="stroke:#EBE9EF;stroke:color(display-p3 0.9224 0.9137 0.9373);stroke-opacity:1;" stroke-width="0.63981"/>
<path d="M50.8649 8.41016H0.319885V58.9552H50.8649V8.41016Z" stroke="#EBE9EF" style="stroke:#EBE9EF;stroke:color(display-p3 0.9224 0.9137 0.9373);stroke-opacity:1;" stroke-width="0.63981"/>
<path opacity="0.5" d="M101.41 8.41016H50.8648V58.9552H101.41V8.41016Z" fill="url(#paint2_linear_401_1602)" stroke="#EBE9EF" style="stroke:#EBE9EF;stroke:color(display-p3 0.9224 0.9137 0.9373);stroke-opacity:1;" stroke-width="0.63981"/>
<path d="M151.955 8.41016H101.41V58.9552H151.955V8.41016Z" stroke="#EBE9EF" style="stroke:#EBE9EF;stroke:color(display-p3 0.9224 0.9137 0.9373);stroke-opacity:1;" stroke-width="0.63981"/>
<path d="M202.5 8.41016H151.955V58.9552H202.5V8.41016Z" stroke="#EBE9EF" style="stroke:#EBE9EF;stroke:color(display-p3 0.9224 0.9137 0.9373);stroke-opacity:1;" stroke-width="0.63981"/>
<path d="M253.045 8.41016H202.5V58.9552H253.045V8.41016Z" stroke="#EBE9EF" style="stroke:#EBE9EF;stroke:color(display-p3 0.9224 0.9137 0.9373);stroke-opacity:1;" stroke-width="0.63981"/>
<path d="M303.59 8.41016H253.045V58.9552H303.59V8.41016Z" stroke="#EBE9EF" style="stroke:#EBE9EF;stroke:color(display-p3 0.9224 0.9137 0.9373);stroke-opacity:1;" stroke-width="0.63981"/>
<path d="M354.135 8.41016H303.59V58.9552H354.135V8.41016Z" fill="url(#paint3_linear_401_1602)" stroke="#EBE9EF" style="stroke:#EBE9EF;stroke:color(display-p3 0.9224 0.9137 0.9373);stroke-opacity:1;" stroke-width="0.63981"/>
<path d="M404.68 8.41016H354.135V58.9552H404.68V8.41016Z" fill="url(#paint4_linear_401_1602)" stroke="#EBE9EF" style="stroke:#EBE9EF;stroke:color(display-p3 0.9224 0.9137 0.9373);stroke-opacity:1;" stroke-width="0.63981"/>
<path d="M50.8649 58.9551H0.319885V109.5H50.8649V58.9551Z" stroke="#EBE9EF" style="stroke:#EBE9EF;stroke:color(display-p3 0.9224 0.9137 0.9373);stroke-opacity:1;" stroke-width="0.63981"/>
<path d="M101.41 58.9551H50.8648V109.5H101.41V58.9551Z" stroke="#EBE9EF" style="stroke:#EBE9EF;stroke:color(display-p3 0.9224 0.9137 0.9373);stroke-opacity:1;" stroke-width="0.63981"/>
<path d="M151.955 58.9551H101.41V109.5H151.955V58.9551Z" stroke="#EBE9EF" style="stroke:#EBE9EF;stroke:color(display-p3 0.9224 0.9137 0.9373);stroke-opacity:1;" stroke-width="0.63981"/>
<path d="M202.5 58.9551H151.955V109.5H202.5V58.9551Z" stroke="#EBE9EF" style="stroke:#EBE9EF;stroke:color(display-p3 0.9224 0.9137 0.9373);stroke-opacity:1;" stroke-width="0.63981"/>
<path d="M253.045 58.9551H202.5V109.5H253.045V58.9551Z" stroke="#EBE9EF" style="stroke:#EBE9EF;stroke:color(display-p3 0.9224 0.9137 0.9373);stroke-opacity:1;" stroke-width="0.63981"/>
<path d="M303.59 58.9551H253.045V109.5H303.59V58.9551Z" stroke="#EBE9EF" style="stroke:#EBE9EF;stroke:color(display-p3 0.9224 0.9137 0.9373);stroke-opacity:1;" stroke-width="0.63981"/>
<path d="M354.135 58.9551H303.59V109.5H354.135V58.9551Z" stroke="#EBE9EF" style="stroke:#EBE9EF;stroke:color(display-p3 0.9224 0.9137 0.9373);stroke-opacity:1;" stroke-width="0.63981"/>
<path d="M404.68 58.9551H354.135V109.5H404.68V58.9551Z" stroke="#EBE9EF" style="stroke:#EBE9EF;stroke:color(display-p3 0.9224 0.9137 0.9373);stroke-opacity:1;" stroke-width="0.63981"/>
<path opacity="0.5" d="M50.8649 109.5H0.319885V160.045H50.8649V109.5Z" fill="url(#paint5_linear_401_1602)" stroke="#EBE9EF" style="stroke:#EBE9EF;stroke:color(display-p3 0.9224 0.9137 0.9373);stroke-opacity:1;" stroke-width="0.63981"/>
<path d="M101.41 109.5H50.8648V160.045H101.41V109.5Z" stroke="#EBE9EF" style="stroke:#EBE9EF;stroke:color(display-p3 0.9224 0.9137 0.9373);stroke-opacity:1;" stroke-width="0.63981"/>
<path d="M151.955 109.5H101.41V160.045H151.955V109.5Z" stroke="#EBE9EF" style="stroke:#EBE9EF;stroke:color(display-p3 0.9224 0.9137 0.9373);stroke-opacity:1;" stroke-width="0.63981"/>
<path d="M202.5 109.5H151.955V160.045H202.5V109.5Z" fill="url(#paint6_linear_401_1602)" stroke="#EBE9EF" style="stroke:#EBE9EF;stroke:color(display-p3 0.9224 0.9137 0.9373);stroke-opacity:1;" stroke-width="0.63981"/>
<path d="M253.045 109.5H202.5V160.045H253.045V109.5Z" stroke="#EBE9EF" style="stroke:#EBE9EF;stroke:color(display-p3 0.9224 0.9137 0.9373);stroke-opacity:1;" stroke-width="0.63981"/>
<path d="M303.59 109.5H253.045V160.045H303.59V109.5Z" fill="url(#paint7_linear_401_1602)" stroke="#EBE9EF" style="stroke:#EBE9EF;stroke:color(display-p3 0.9224 0.9137 0.9373);stroke-opacity:1;" stroke-width="0.63981"/>
<path d="M354.135 109.5H303.59V160.045H354.135V109.5Z" fill="url(#paint8_linear_401_1602)" stroke="#EBE9EF" style="stroke:#EBE9EF;stroke:color(display-p3 0.9224 0.9137 0.9373);stroke-opacity:1;" stroke-width="0.63981"/>
<path d="M404.68 109.5H354.135V160.045H404.68V109.5Z" stroke="#EBE9EF" style="stroke:#EBE9EF;stroke:color(display-p3 0.9224 0.9137 0.9373);stroke-opacity:1;" stroke-width="0.63981"/>
<path d="M50.8649 160.045H0.319885V210.59H50.8649V160.045Z" stroke="#EBE9EF" style="stroke:#EBE9EF;stroke:color(display-p3 0.9224 0.9137 0.9373);stroke-opacity:1;" stroke-width="0.63981"/>
<path d="M101.41 160.045H50.8648V210.59H101.41V160.045Z" fill="url(#paint9_linear_401_1602)" stroke="#EBE9EF" style="stroke:#EBE9EF;stroke:color(display-p3 0.9224 0.9137 0.9373);stroke-opacity:1;" stroke-width="0.63981"/>
<path d="M151.955 160.045H101.41V210.59H151.955V160.045Z" stroke="#EBE9EF" style="stroke:#EBE9EF;stroke:color(display-p3 0.9224 0.9137 0.9373);stroke-opacity:1;" stroke-width="0.63981"/>
<path d="M202.5 160.045H151.955V210.59H202.5V160.045Z" stroke="#EBE9EF" style="stroke:#EBE9EF;stroke:color(display-p3 0.9224 0.9137 0.9373);stroke-opacity:1;" stroke-width="0.63981"/>
<path d="M253.045 160.045H202.5V210.59H253.045V160.045Z" stroke="#EBE9EF" style="stroke:#EBE9EF;stroke:color(display-p3 0.9224 0.9137 0.9373);stroke-opacity:1;" stroke-width="0.63981"/>
<path d="M303.59 160.045H253.045V210.59H303.59V160.045Z" stroke="#EBE9EF" style="stroke:#EBE9EF;stroke:color(display-p3 0.9224 0.9137 0.9373);stroke-opacity:1;" stroke-width="0.63981"/>
<path d="M354.135 160.045H303.59V210.59H354.135V160.045Z" stroke="#EBE9EF" style="stroke:#EBE9EF;stroke:color(display-p3 0.9224 0.9137 0.9373);stroke-opacity:1;" stroke-width="0.63981"/>
<path d="M404.68 160.045H354.135V210.59H404.68V160.045Z" fill="url(#paint10_linear_401_1602)" stroke="#EBE9EF" style="stroke:#EBE9EF;stroke:color(display-p3 0.9224 0.9137 0.9373);stroke-opacity:1;" stroke-width="0.63981"/>
<path d="M50.8649 210.59H0.319885V261.135H50.8649V210.59Z" stroke="#EBE9EF" style="stroke:#EBE9EF;stroke:color(display-p3 0.9224 0.9137 0.9373);stroke-opacity:1;" stroke-width="0.63981"/>
<path opacity="0.5" d="M101.41 210.59H50.8648V261.135H101.41V210.59Z" fill="url(#paint11_linear_401_1602)" stroke="#EBE9EF" style="stroke:#EBE9EF;stroke:color(display-p3 0.9224 0.9137 0.9373);stroke-opacity:1;" stroke-width="0.63981"/>
<path d="M151.955 210.59H101.41V261.135H151.955V210.59Z" stroke="#EBE9EF" style="stroke:#EBE9EF;stroke:color(display-p3 0.9224 0.9137 0.9373);stroke-opacity:1;" stroke-width="0.63981"/>
<path d="M202.5 210.59H151.955V261.135H202.5V210.59Z" stroke="#EBE9EF" style="stroke:#EBE9EF;stroke:color(display-p3 0.9224 0.9137 0.9373);stroke-opacity:1;" stroke-width="0.63981"/>
<path d="M253.045 210.59H202.5V261.135H253.045V210.59Z" stroke="#EBE9EF" style="stroke:#EBE9EF;stroke:color(display-p3 0.9224 0.9137 0.9373);stroke-opacity:1;" stroke-width="0.63981"/>
<path d="M303.59 210.59H253.045V261.135H303.59V210.59Z" stroke="#EBE9EF" style="stroke:#EBE9EF;stroke:color(display-p3 0.9224 0.9137 0.9373);stroke-opacity:1;" stroke-width="0.63981"/>
<path opacity="0.5" d="M354.135 210.59H303.59V261.135H354.135V210.59Z" fill="url(#paint12_linear_401_1602)" stroke="#EBE9EF" style="stroke:#EBE9EF;stroke:color(display-p3 0.9224 0.9137 0.9373);stroke-opacity:1;" stroke-width="0.63981"/>
<path d="M404.68 210.59H354.135V261.135H404.68V210.59Z" stroke="#EBE9EF" style="stroke:#EBE9EF;stroke:color(display-p3 0.9224 0.9137 0.9373);stroke-opacity:1;" stroke-width="0.63981"/>
</g>
<path d="M369 77H36V217H369V77Z" fill="white" style="fill:white;fill:white;fill-opacity:1;"/>
<mask id="mask1_401_1602" style="mask-type:alpha" maskUnits="userSpaceOnUse" x="39" y="19" width="333" height="205">
<path d="M372 19.4512H39V223.451H372V19.4512Z" fill="url(#paint13_linear_401_1602)" style=""/>
</mask>
<g mask="url(#mask1_401_1602)">
<g opacity="0.25">
<path d="M46 44.4512C46 42.242 47.7909 40.4512 50 40.4512H355C357.209 40.4512 359 42.242 359 44.4512V169.451C359 171.66 357.209 173.451 355 173.451H50C47.7909 173.451 46 171.66 46 169.451V44.4512Z" fill="#EBE9EF" style="fill:#EBE9EF;fill:color(display-p3 0.9224 0.9137 0.9373);fill-opacity:1;"/>
</g>
<mask id="mask2_401_1602" style="mask-type:luminance" maskUnits="userSpaceOnUse" x="51" y="45" width="303" height="157">
<path d="M350 45.002H55C52.7909 45.002 51 46.7928 51 49.002V197.002C51 199.211 52.7909 201.002 55 201.002H350C352.209 201.002 354 199.211 354 197.002V49.002C354 46.7928 352.209 45.002 350 45.002Z" fill="white" style="fill:white;fill:white;fill-opacity:1;"/>
</mask>
<g mask="url(#mask2_401_1602)">
<path d="M350 45.002H55C52.7909 45.002 51 46.7928 51 49.002V197.002C51 199.211 52.7909 201.002 55 201.002H350C352.209 201.002 354 199.211 354 197.002V49.002C354 46.7928 352.209 45.002 350 45.002Z" fill="white" style="fill:white;fill:white;fill-opacity:1;"/>
<mask id="mask3_401_1602" style="mask-type:luminance" maskUnits="userSpaceOnUse" x="62" y="64" width="283" height="47">
<path d="M339.158 64.002H67.8423C64.6157 64.002 62 66.6176 62 69.8442V104.32C62 107.547 64.6157 110.162 67.8423 110.162H339.158C342.384 110.162 345 107.547 345 104.32V69.8442C345 66.6176 342.384 64.002 339.158 64.002Z" fill="white" style="fill:white;fill:white;fill-opacity:1;"/>
</mask>
<g mask="url(#mask3_401_1602)">
<path d="M339.158 64.002H67.8423C64.6157 64.002 62 66.6176 62 69.8442V104.32C62 107.547 64.6157 110.162 67.8423 110.162H339.158C342.384 110.162 345 107.547 345 104.32V69.8442C345 66.6176 342.384 64.002 339.158 64.002Z" fill="white" style="fill:white;fill:white;fill-opacity:1;"/>
<path d="M96.0439 72.7656H72.7462C71.6511 72.7656 70.7634 73.6533 70.7634 74.7484V99.4165C70.7634 100.512 71.6511 101.399 72.7462 101.399H96.0439C97.1389 101.399 98.0266 100.512 98.0266 99.4165V74.7484C98.0266 73.6533 97.1389 72.7656 96.0439 72.7656Z" fill="#E1DEE6" style="fill:#E1DEE6;fill:color(display-p3 0.8821 0.8706 0.9020);fill-opacity:1;"/>
<path d="M113.957 79.0894H112.827V78.6334H113.957C114.175 78.6334 114.353 78.5986 114.488 78.5289C114.624 78.4592 114.722 78.3624 114.784 78.2384C114.848 78.1145 114.88 77.9732 114.88 77.8144C114.88 77.6692 114.848 77.5326 114.784 77.4048C114.722 77.2771 114.624 77.1744 114.488 77.097C114.353 77.0176 114.175 76.9779 113.957 76.9779H112.957V80.7479H112.397V76.519H113.957C114.276 76.519 114.546 76.5742 114.767 76.6845C114.988 76.7949 115.155 76.9479 115.269 77.1434C115.384 77.3371 115.441 77.5588 115.441 77.8086C115.441 78.0797 115.384 78.311 115.269 78.5027C115.155 78.6944 114.988 78.8406 114.767 78.9413C114.546 79.0401 114.276 79.0894 113.957 79.0894ZM116.09 76.519H117.49C117.807 76.519 118.076 76.5674 118.294 76.6642C118.515 76.761 118.683 76.9043 118.797 77.0941C118.913 77.2819 118.971 77.5133 118.971 77.7882C118.971 77.9819 118.931 78.159 118.852 78.3198C118.775 78.4785 118.662 78.6141 118.515 78.7264C118.37 78.8368 118.196 78.919 117.992 78.9733L117.836 79.0343H116.52L116.514 78.5783H117.507C117.709 78.5783 117.876 78.5434 118.01 78.4737C118.143 78.4021 118.244 78.3062 118.312 78.1862C118.38 78.0661 118.414 77.9335 118.414 77.7882C118.414 77.6256 118.382 77.4833 118.318 77.3613C118.254 77.2393 118.153 77.1454 118.016 77.0795C117.88 77.0118 117.705 76.9779 117.49 76.9779H116.651V80.7479H116.09V76.519ZM118.562 80.7479L117.533 78.8309L118.117 78.828L119.16 80.713V80.7479H118.562ZM120.297 76.519V80.7479H119.737V76.519H120.297ZM124.513 78.4998V78.767C124.513 79.0846 124.473 79.3692 124.394 79.621C124.315 79.8727 124.2 80.0866 124.051 80.2628C123.902 80.4391 123.723 80.5736 123.514 80.6666C123.307 80.7595 123.074 80.806 122.817 80.806C122.567 80.806 122.338 80.7595 122.128 80.6666C121.921 80.5736 121.741 80.4391 121.588 80.2628C121.437 80.0866 121.32 79.8727 121.237 79.621C121.154 79.3692 121.112 79.0846 121.112 78.767V78.4998C121.112 78.1823 121.153 77.8986 121.234 77.6488C121.317 77.3971 121.434 77.1831 121.585 77.0069C121.736 76.8288 121.915 76.6933 122.123 76.6003C122.332 76.5074 122.561 76.4609 122.811 76.4609C123.069 76.4609 123.301 76.5074 123.508 76.6003C123.717 76.6933 123.896 76.8288 124.045 77.0069C124.196 77.1831 124.312 77.3971 124.391 77.6488C124.472 77.8986 124.513 78.1823 124.513 78.4998ZM123.958 78.767V78.494C123.958 78.2423 123.932 78.0196 123.88 77.826C123.83 77.6324 123.755 77.4697 123.656 77.338C123.557 77.2064 123.436 77.1067 123.293 77.0389C123.152 76.9711 122.991 76.9372 122.811 76.9372C122.637 76.9372 122.479 76.9711 122.338 77.0389C122.198 77.1067 122.078 77.2064 121.977 77.338C121.879 77.4697 121.802 77.6324 121.748 77.826C121.694 78.0196 121.667 78.2423 121.667 78.494V78.767C121.667 79.0207 121.694 79.2453 121.748 79.4409C121.802 79.6345 121.88 79.7981 121.98 79.9317C122.083 80.0634 122.204 80.1631 122.343 80.2309C122.485 80.2987 122.643 80.3326 122.817 80.3326C122.999 80.3326 123.161 80.2987 123.302 80.2309C123.443 80.1631 123.562 80.0634 123.659 79.9317C123.758 79.7981 123.832 79.6345 123.883 79.4409C123.933 79.2453 123.958 79.0207 123.958 78.767ZM125.293 76.519H126.693C127.01 76.519 127.279 76.5674 127.497 76.6642C127.718 76.761 127.886 76.9043 128 77.0941C128.116 77.2819 128.174 77.5133 128.174 77.7882C128.174 77.9819 128.134 78.159 128.055 78.3198C127.978 78.4785 127.865 78.6141 127.718 78.7264C127.573 78.8368 127.399 78.919 127.195 78.9733L127.039 79.0343H125.723L125.717 78.5783H126.71C126.912 78.5783 127.079 78.5434 127.213 78.4737C127.346 78.4021 127.447 78.3062 127.515 78.1862C127.583 78.0661 127.617 77.9335 127.617 77.7882C127.617 77.6256 127.585 77.4833 127.521 77.3613C127.457 77.2393 127.356 77.1454 127.219 77.0795C127.083 77.0118 126.908 76.9779 126.693 76.9779H125.853V80.7479H125.293V76.519ZM127.765 80.7479L126.736 78.8309L127.32 78.828L128.363 80.713V80.7479H127.765ZM129.5 76.519V80.7479H128.94V76.519H129.5ZM131.936 76.519V80.7479H131.384V76.519H131.936ZM133.295 76.519V76.9779H130.027V76.519H133.295ZM134.104 76.519L135.202 78.6422L136.303 76.519H136.939L135.481 79.1679V80.7479H134.92V79.1679L133.462 76.519H134.104ZM141.092 79.679C141.092 79.5803 141.077 79.4932 141.046 79.4176C141.017 79.3402 140.964 79.2705 140.889 79.2085C140.815 79.1466 140.713 79.0875 140.581 79.0314C140.451 78.9752 140.287 78.9181 140.087 78.86C139.878 78.798 139.689 78.7293 139.521 78.6538C139.352 78.5763 139.208 78.4882 139.088 78.3895C138.968 78.2907 138.876 78.1774 138.812 78.0496C138.748 77.9218 138.716 77.7757 138.716 77.6111C138.716 77.4465 138.75 77.2945 138.818 77.1551C138.886 77.0157 138.982 76.8946 139.108 76.792C139.236 76.6874 139.388 76.6061 139.564 76.548C139.741 76.4899 139.937 76.4609 140.154 76.4609C140.472 76.4609 140.741 76.5219 140.961 76.6439C141.184 76.7639 141.353 76.9217 141.47 77.1173C141.586 77.3109 141.644 77.5181 141.644 77.7389H141.086C141.086 77.5801 141.052 77.4397 140.985 77.3177C140.917 77.1938 140.814 77.097 140.677 77.0273C140.539 76.9556 140.365 76.9198 140.154 76.9198C139.955 76.9198 139.79 76.9498 139.66 77.0098C139.53 77.0699 139.434 77.1512 139.37 77.2538C139.308 77.3564 139.277 77.4736 139.277 77.6053C139.277 77.6943 139.295 77.7757 139.332 77.8492C139.371 77.9209 139.43 77.9877 139.509 78.0496C139.59 78.1116 139.693 78.1687 139.817 78.221C139.943 78.2733 140.093 78.3236 140.267 78.372C140.507 78.4398 140.715 78.5153 140.889 78.5986C141.063 78.6818 141.206 78.7758 141.319 78.8803C141.433 78.9829 141.517 79.1001 141.571 79.2318C141.627 79.3615 141.656 79.5087 141.656 79.6732C141.656 79.8456 141.621 80.0014 141.551 80.1409C141.481 80.2803 141.382 80.3994 141.252 80.4981C141.122 80.5969 140.966 80.6733 140.784 80.7276C140.604 80.7798 140.403 80.806 140.18 80.806C139.985 80.806 139.792 80.7789 139.602 80.7247C139.414 80.6704 139.243 80.5891 139.088 80.4807C138.935 80.3722 138.812 80.2386 138.719 80.0799C138.628 79.9192 138.583 79.7333 138.583 79.5222H139.14C139.14 79.6674 139.168 79.7923 139.225 79.8969C139.281 79.9995 139.357 80.0847 139.454 80.1525C139.553 80.2202 139.664 80.2706 139.788 80.3035C139.914 80.3345 140.045 80.35 140.18 80.35C140.376 80.35 140.541 80.3229 140.677 80.2687C140.812 80.2144 140.915 80.137 140.985 80.0363C141.056 79.9356 141.092 79.8165 141.092 79.679ZM144.73 76.519H145.288V79.3799C145.288 79.6974 145.217 79.9618 145.076 80.1728C144.934 80.3839 144.746 80.5426 144.512 80.6491C144.28 80.7537 144.027 80.806 143.754 80.806C143.468 80.806 143.208 80.7537 142.976 80.6491C142.745 80.5426 142.562 80.3839 142.427 80.1728C142.293 79.9618 142.226 79.6974 142.226 79.3799V76.519H142.781V79.3799C142.781 79.6006 142.822 79.7826 142.903 79.9259C142.984 80.0692 143.098 80.1757 143.243 80.2454C143.39 80.3151 143.56 80.35 143.754 80.35C143.95 80.35 144.12 80.3151 144.265 80.2454C144.412 80.1757 144.527 80.0692 144.608 79.9259C144.689 79.7826 144.73 79.6006 144.73 79.3799V76.519ZM147.668 79.0894H146.538V78.6334H147.668C147.887 78.6334 148.064 78.5986 148.199 78.5289C148.335 78.4592 148.434 78.3624 148.496 78.2384C148.56 78.1145 148.592 77.9732 148.592 77.8144C148.592 77.6692 148.56 77.5326 148.496 77.4048C148.434 77.2771 148.335 77.1744 148.199 77.097C148.064 77.0176 147.887 76.9779 147.668 76.9779H146.669V80.7479H146.108V76.519H147.668C147.987 76.519 148.258 76.5742 148.478 76.6845C148.699 76.7949 148.866 76.9479 148.981 77.1434C149.095 77.3371 149.152 77.5588 149.152 77.8086C149.152 78.0797 149.095 78.311 148.981 78.5027C148.866 78.6944 148.699 78.8406 148.478 78.9413C148.258 79.0401 147.987 79.0894 147.668 79.0894ZM151.361 79.0894H150.231V78.6334H151.361C151.58 78.6334 151.757 78.5986 151.893 78.5289C152.028 78.4592 152.127 78.3624 152.189 78.2384C152.253 78.1145 152.285 77.9732 152.285 77.8144C152.285 77.6692 152.253 77.5326 152.189 77.4048C152.127 77.2771 152.028 77.1744 151.893 77.097C151.757 77.0176 151.58 76.9779 151.361 76.9779H150.362V80.7479H149.801V76.519H151.361C151.681 76.519 151.951 76.5742 152.171 76.6845C152.392 76.7949 152.56 76.9479 152.674 77.1434C152.788 77.3371 152.845 77.5588 152.845 77.8086C152.845 78.0797 152.788 78.311 152.674 78.5027C152.56 78.6944 152.392 78.8406 152.171 78.9413C151.951 79.0401 151.681 79.0894 151.361 79.0894ZM156.75 78.4998V78.767C156.75 79.0846 156.711 79.3692 156.631 79.621C156.552 79.8727 156.438 80.0866 156.289 80.2628C156.139 80.4391 155.96 80.5736 155.751 80.6666C155.544 80.7595 155.312 80.806 155.054 80.806C154.804 80.806 154.575 80.7595 154.366 80.6666C154.159 80.5736 153.978 80.4391 153.826 80.2628C153.674 80.0866 153.557 79.8727 153.474 79.621C153.391 79.3692 153.349 79.0846 153.349 78.767V78.4998C153.349 78.1823 153.39 77.8986 153.471 77.6488C153.554 77.3971 153.672 77.1831 153.823 77.0069C153.974 76.8288 154.153 76.6933 154.36 76.6003C154.569 76.5074 154.799 76.4609 155.048 76.4609C155.306 76.4609 155.538 76.5074 155.745 76.6003C155.954 76.6933 156.134 76.8288 156.283 77.0069C156.434 77.1831 156.549 77.3971 156.628 77.6488C156.71 77.8986 156.75 78.1823 156.75 78.4998ZM156.196 78.767V78.494C156.196 78.2423 156.169 78.0196 156.117 77.826C156.067 77.6324 155.992 77.4697 155.893 77.338C155.795 77.2064 155.674 77.1067 155.53 77.0389C155.389 76.9711 155.228 76.9372 155.048 76.9372C154.874 76.9372 154.716 76.9711 154.575 77.0389C154.435 77.1067 154.315 77.2064 154.215 77.338C154.116 77.4697 154.039 77.6324 153.985 77.826C153.931 78.0196 153.904 78.2423 153.904 78.494V78.767C153.904 79.0207 153.931 79.2453 153.985 79.4409C154.039 79.6345 154.117 79.7981 154.218 79.9317C154.32 80.0634 154.441 80.1631 154.581 80.2309C154.722 80.2987 154.88 80.3326 155.054 80.3326C155.236 80.3326 155.398 80.2987 155.539 80.2309C155.681 80.1631 155.8 80.0634 155.896 79.9317C155.995 79.7981 156.07 79.6345 156.12 79.4409C156.17 79.2453 156.196 79.0207 156.196 78.767ZM157.53 76.519H158.93C159.248 76.519 159.516 76.5674 159.735 76.6642C159.955 76.761 160.123 76.9043 160.237 77.0941C160.353 77.2819 160.411 77.5133 160.411 77.7882C160.411 77.9819 160.372 78.159 160.292 78.3198C160.215 78.4785 160.103 78.6141 159.955 78.7264C159.81 78.8368 159.636 78.919 159.433 78.9733L159.276 79.0343H157.96L157.954 78.5783H158.948C159.149 78.5783 159.316 78.5434 159.45 78.4737C159.584 78.4021 159.684 78.3062 159.752 78.1862C159.82 78.0661 159.854 77.9335 159.854 77.7882C159.854 77.6256 159.822 77.4833 159.758 77.3613C159.694 77.2393 159.593 77.1454 159.456 77.0795C159.32 77.0118 159.145 76.9779 158.93 76.9779H158.091V80.7479H157.53V76.519ZM160.002 80.7479L158.974 78.8309L159.558 78.828L160.6 80.713V80.7479H160.002ZM162.466 76.519V80.7479H161.915V76.519H162.466ZM163.826 76.519V76.9779H160.558V76.519H163.826Z" fill="#8247E5" style="fill:#8247E5;fill:color(display-p3 0.5098 0.2784 0.8980);fill-opacity:1;"/>
<path d="M111.941 73.0137H164.872C168.039 73.0137 170.607 75.5813 170.607 78.7486V78.7486C170.607 81.916 168.039 84.4836 164.872 84.4836H111.941C108.774 84.4836 106.206 81.916 106.206 78.7486V78.7486C106.206 75.5813 108.774 73.0137 111.941 73.0137Z" stroke="#8247E5" style="stroke:#8247E5;stroke:color(display-p3 0.5098 0.2784 0.8980);stroke-opacity:1;" stroke-width="0.495696"/>
<path d="M167.51 91.1758H107.941C106.846 91.1758 105.958 92.0635 105.958 93.1586V99.417C105.958 100.512 106.846 101.4 107.941 101.4H167.51C168.605 101.4 169.493 100.512 169.493 99.417V93.1586C169.493 92.0635 168.605 91.1758 167.51 91.1758Z" fill="#E1DEE6" style="fill:#E1DEE6;fill:color(display-p3 0.8821 0.8706 0.9020);fill-opacity:1;"/>
<path d="M200.615 91.1758H177.318C176.223 91.1758 175.335 92.0635 175.335 93.1586V99.417C175.335 100.512 176.223 101.4 177.318 101.4H200.615C201.71 101.4 202.598 100.512 202.598 99.417V93.1586C202.598 92.0635 201.71 91.1758 200.615 91.1758Z" fill="#E1DEE6" style="fill:#E1DEE6;fill:color(display-p3 0.8821 0.8706 0.9020);fill-opacity:1;"/>
<path d="M233.72 91.1758H210.423C209.328 91.1758 208.44 92.0635 208.44 93.1586V99.417C208.44 100.512 209.328 101.4 210.423 101.4H233.72C234.815 101.4 235.703 100.512 235.703 99.417V93.1586C235.703 92.0635 234.815 91.1758 233.72 91.1758Z" fill="#E1DEE6" style="fill:#E1DEE6;fill:color(display-p3 0.8821 0.8706 0.9020);fill-opacity:1;"/>
<path d="M251.563 91.1758H243.529C242.434 91.1758 241.546 92.0635 241.546 93.1586V99.417C241.546 100.512 242.434 101.4 243.529 101.4H251.563C252.658 101.4 253.546 100.512 253.546 99.417V93.1586C253.546 92.0635 252.658 91.1758 251.563 91.1758Z" fill="#E1DEE6" style="fill:#E1DEE6;fill:color(display-p3 0.8821 0.8706 0.9020);fill-opacity:1;"/>
<path d="M62.7293 65.791V108.148" stroke="#8247E5" style="stroke:#8247E5;stroke:color(display-p3 0.5098 0.2784 0.8980);stroke-opacity:1;" stroke-width="1.46057"/>
<path d="M322.455 77.8629C322.455 73.7075 325.815 70.3184 330 70.3184C334.155 70.3184 337.545 73.7075 337.545 77.8629C337.545 82.0478 334.155 85.4075 330 85.4075C325.815 85.4075 322.455 82.0478 322.455 77.8629ZM333.389 76.5662C333.713 76.242 333.713 75.741 333.389 75.4168C333.065 75.0927 332.564 75.0927 332.24 75.4168L329.057 78.5997L327.731 77.303C327.407 76.9788 326.906 76.9788 326.581 77.303C326.257 77.6272 326.257 78.1282 326.581 78.4523L328.468 80.3385C328.792 80.6627 329.293 80.6627 329.617 80.3385L333.389 76.5662Z" fill="#00C9A7" style="fill:#00C9A7;fill:color(display-p3 0.0000 0.7882 0.6549);fill-opacity:1;"/>
</g>
<path d="M339.157 64.25H67.8422C64.7525 64.25 62.2478 66.7547 62.2478 69.8444V104.32C62.2478 107.41 64.7525 109.915 67.8422 109.915H339.157C342.247 109.915 344.752 107.41 344.752 104.32V69.8444C344.752 66.7547 342.247 64.25 339.157 64.25Z" stroke="#E1DEE6" style="stroke:#E1DEE6;stroke:color(display-p3 0.8821 0.8706 0.9020);stroke-opacity:1;" stroke-width="0.495696"/>
<g opacity="0.5">
<path d="M340.039 118.373H66.9605C64.3371 118.373 62.2104 120.5 62.2104 123.123V152.236C62.2104 154.86 64.3371 156.986 66.9605 156.986H340.039C342.663 156.986 344.789 154.86 344.789 152.236V123.123C344.789 120.5 342.663 118.373 340.039 118.373Z" fill="white" style="fill:white;fill:white;fill-opacity:1;"/>
<path d="M90.9062 125.604H71.1245C70.1947 125.604 69.4409 126.357 69.4409 127.287V148.072C69.4409 149.002 70.1947 149.756 71.1245 149.756H90.9062C91.836 149.756 92.5897 149.002 92.5897 148.072V127.287C92.5897 126.357 91.836 125.604 90.9062 125.604Z" fill="#E1DEE6" style="fill:#E1DEE6;fill:color(display-p3 0.8821 0.8706 0.9020);fill-opacity:1;"/>
<path d="M151.587 125.604H101.008C100.078 125.604 99.324 126.357 99.324 127.287V132.601C99.324 133.531 100.078 134.285 101.008 134.285H151.587C152.517 134.285 153.27 133.531 153.27 132.601V127.287C153.27 126.357 152.517 125.604 151.587 125.604Z" fill="#E1DEE6" style="fill:#E1DEE6;fill:color(display-p3 0.8821 0.8706 0.9020);fill-opacity:1;"/>
<path d="M160.876 139.756H101.307C100.212 139.756 99.324 140.644 99.324 141.739V147.773C99.324 148.868 100.212 149.756 101.307 149.756H160.876C161.971 149.756 162.859 148.868 162.859 147.773V141.739C162.859 140.644 161.971 139.756 160.876 139.756Z" fill="#E1DEE6" style="fill:#E1DEE6;fill:color(display-p3 0.8821 0.8706 0.9020);fill-opacity:1;"/>
<path d="M196.785 139.756H173.488C172.393 139.756 171.505 140.644 171.505 141.739V147.773C171.505 148.868 172.393 149.756 173.488 149.756H196.785C197.88 149.756 198.768 148.868 198.768 147.773V141.739C198.768 140.644 197.88 139.756 196.785 139.756Z" fill="#E1DEE6" style="fill:#E1DEE6;fill:color(display-p3 0.8821 0.8706 0.9020);fill-opacity:1;"/>
<path d="M232.695 139.756H209.398C208.303 139.756 207.415 140.644 207.415 141.739V147.773C207.415 148.868 208.303 149.756 209.398 149.756H232.695C233.79 149.756 234.678 148.868 234.678 147.773V141.739C234.678 140.644 233.79 139.756 232.695 139.756Z" fill="#E1DEE6" style="fill:#E1DEE6;fill:color(display-p3 0.8821 0.8706 0.9020);fill-opacity:1;"/>
<path d="M253.341 139.756H245.307C244.212 139.756 243.324 140.644 243.324 141.739V147.773C243.324 148.868 244.212 149.756 245.307 149.756H253.341C254.436 149.756 255.324 148.868 255.324 147.773V141.739C255.324 140.644 254.436 139.756 253.341 139.756Z" fill="#E1DEE6" style="fill:#E1DEE6;fill:color(display-p3 0.8821 0.8706 0.9020);fill-opacity:1;"/>
<path d="M340.039 118.373H66.9605C64.3371 118.373 62.2104 120.5 62.2104 123.123V152.236C62.2104 154.86 64.3371 156.986 66.9605 156.986H340.039C342.663 156.986 344.789 154.86 344.789 152.236V123.123C344.789 120.5 342.663 118.373 340.039 118.373Z" stroke="#EBE9EF" style="stroke:#EBE9EF;stroke:color(display-p3 0.9224 0.9137 0.9373);stroke-opacity:1;" stroke-width="0.420887"/>
</g>
<g opacity="0.5">
<path d="M340.039 165.406H66.9605C64.3371 165.406 62.2104 167.533 62.2104 170.156V199.27C62.2104 201.893 64.3371 204.02 66.9605 204.02H340.039C342.663 204.02 344.789 201.893 344.789 199.27V170.156C344.789 167.533 342.663 165.406 340.039 165.406Z" fill="white" style="fill:white;fill:white;fill-opacity:1;"/>
<path d="M90.9062 172.637H71.1245C70.1947 172.637 69.4409 173.39 69.4409 174.32V195.106C69.4409 196.035 70.1947 196.789 71.1245 196.789H90.9062C91.836 196.789 92.5897 196.035 92.5897 195.106V174.32C92.5897 173.39 91.836 172.637 90.9062 172.637Z" fill="#E1DEE6" style="fill:#E1DEE6;fill:color(display-p3 0.8821 0.8706 0.9020);fill-opacity:1;"/>
<path d="M151.587 172.637H101.008C100.078 172.637 99.324 173.39 99.324 174.32V179.634C99.324 180.564 100.078 181.318 101.008 181.318H151.587C152.517 181.318 153.27 180.564 153.27 179.634V174.32C153.27 173.39 152.517 172.637 151.587 172.637Z" fill="#E1DEE6" style="fill:#E1DEE6;fill:color(display-p3 0.8821 0.8706 0.9020);fill-opacity:1;"/>
<path d="M160.876 186.789H101.307C100.212 186.789 99.324 187.677 99.324 188.772V194.806C99.324 195.901 100.212 196.789 101.307 196.789H160.876C161.971 196.789 162.859 195.901 162.859 194.806V188.772C162.859 187.677 161.971 186.789 160.876 186.789Z" fill="#E1DEE6" style="fill:#E1DEE6;fill:color(display-p3 0.8821 0.8706 0.9020);fill-opacity:1;"/>
<path d="M196.785 186.789H173.488C172.393 186.789 171.505 187.677 171.505 188.772V194.806C171.505 195.901 172.393 196.789 173.488 196.789H196.785C197.88 196.789 198.768 195.901 198.768 194.806V188.772C198.768 187.677 197.88 186.789 196.785 186.789Z" fill="#E1DEE6" style="fill:#E1DEE6;fill:color(display-p3 0.8821 0.8706 0.9020);fill-opacity:1;"/>
<path d="M232.695 186.789H209.398C208.303 186.789 207.415 187.677 207.415 188.772V194.806C207.415 195.901 208.303 196.789 209.398 196.789H232.695C233.79 196.789 234.678 195.901 234.678 194.806V188.772C234.678 187.677 233.79 186.789 232.695 186.789Z" fill="#E1DEE6" style="fill:#E1DEE6;fill:color(display-p3 0.8821 0.8706 0.9020);fill-opacity:1;"/>
<path d="M253.341 186.789H245.307C244.212 186.789 243.324 187.677 243.324 188.772V194.806C243.324 195.901 244.212 196.789 245.307 196.789H253.341C254.436 196.789 255.324 195.901 255.324 194.806V188.772C255.324 187.677 254.436 186.789 253.341 186.789Z" fill="#E1DEE6" style="fill:#E1DEE6;fill:color(display-p3 0.8821 0.8706 0.9020);fill-opacity:1;"/>
<path d="M340.039 165.406H66.9605C64.3371 165.406 62.2104 167.533 62.2104 170.156V199.27C62.2104 201.893 64.3371 204.02 66.9605 204.02H340.039C342.663 204.02 344.789 201.893 344.789 199.27V170.156C344.789 167.533 342.663 165.406 340.039 165.406Z" stroke="#EBE9EF" style="stroke:#EBE9EF;stroke:color(display-p3 0.9224 0.9137 0.9373);stroke-opacity:1;" stroke-width="0.420887"/>
</g>
</g>
<path d="M350 45.377H55C52.998 45.377 51.375 46.9999 51.375 49.002V197.002C51.375 199.004 52.998 200.627 55 200.627H350C352.002 200.627 353.625 199.004 353.625 197.002V49.002C353.625 46.9999 352.002 45.377 350 45.377Z" stroke="#EBE9EF" style="stroke:#EBE9EF;stroke:color(display-p3 0.9224 0.9137 0.9373);stroke-opacity:1;" stroke-width="0.75"/>
</g>
</g>
</g>
<defs>
<linearGradient id="paint0_linear_401_1602" x1="207" y1="46.001" x2="207" y2="8.00098" gradientUnits="userSpaceOnUse">
<stop stop-color="#4C07C3" style="stop-color:#4C07C3;stop-color:color(display-p3 0.2978 0.0275 0.7647);stop-opacity:1;"/>
<stop offset="0.681321" stop-color="#4C07C3" stop-opacity="0" style="stop-color:none;stop-color:none;stop-opacity:0;"/>
</linearGradient>
<linearGradient id="paint1_linear_401_1602" x1="201" y1="46.001" x2="201" y2="8.00098" gradientUnits="userSpaceOnUse">
<stop stop-color="#4C07C3" style="stop-color:#4C07C3;stop-color:color(display-p3 0.2978 0.0275 0.7647);stop-opacity:1;"/>
<stop offset="0.681321" stop-color="#4C07C3" stop-opacity="0" style="stop-color:none;stop-color:none;stop-opacity:0;"/>
</linearGradient>
<linearGradient id="paint2_linear_401_1602" x1="78.5" y1="-7.49959" x2="80" y2="68.5004" gradientUnits="userSpaceOnUse">
<stop stop-color="#BA9CED" stop-opacity="0.11" style="stop-color:#BA9CED;stop-color:color(display-p3 0.7282 0.6118 0.9294);stop-opacity:0.11;"/>
<stop offset="0.821091" stop-color="#B3ADBD" stop-opacity="0" style="stop-color:none;stop-color:none;stop-opacity:0;"/>
</linearGradient>
<linearGradient id="paint3_linear_401_1602" x1="331.225" y1="-7.49959" x2="332.725" y2="68.5004" gradientUnits="userSpaceOnUse">
<stop stop-color="#BA9CED" stop-opacity="0.11" style="stop-color:#BA9CED;stop-color:color(display-p3 0.7282 0.6118 0.9294);stop-opacity:0.11;"/>
<stop offset="0.821091" stop-color="#B3ADBD" stop-opacity="0" style="stop-color:none;stop-color:none;stop-opacity:0;"/>
</linearGradient>
<linearGradient id="paint4_linear_401_1602" x1="381.77" y1="-7.49959" x2="383.27" y2="68.5004" gradientUnits="userSpaceOnUse">
<stop stop-color="#BA9CED" stop-opacity="0.11" style="stop-color:#BA9CED;stop-color:color(display-p3 0.7282 0.6118 0.9294);stop-opacity:0.11;"/>
<stop offset="0.821091" stop-color="#B3ADBD" stop-opacity="0" style="stop-color:none;stop-color:none;stop-opacity:0;"/>
</linearGradient>
<linearGradient id="paint5_linear_401_1602" x1="27.9551" y1="93.5903" x2="29.4551" y2="169.59" gradientUnits="userSpaceOnUse">
<stop stop-color="#BA9CED" stop-opacity="0.11" style="stop-color:#BA9CED;stop-color:color(display-p3 0.7282 0.6118 0.9294);stop-opacity:0.11;"/>
<stop offset="0.821091" stop-color="#B3ADBD" stop-opacity="0" style="stop-color:none;stop-color:none;stop-opacity:0;"/>
</linearGradient>
<linearGradient id="paint6_linear_401_1602" x1="179.59" y1="93.5903" x2="181.09" y2="169.59" gradientUnits="userSpaceOnUse">
<stop stop-color="#BA9CED" stop-opacity="0.11" style="stop-color:#BA9CED;stop-color:color(display-p3 0.7282 0.6118 0.9294);stop-opacity:0.11;"/>
<stop offset="0.821091" stop-color="#B3ADBD" stop-opacity="0" style="stop-color:none;stop-color:none;stop-opacity:0;"/>
</linearGradient>
<linearGradient id="paint7_linear_401_1602" x1="280.68" y1="93.5903" x2="282.18" y2="169.59" gradientUnits="userSpaceOnUse">
<stop stop-color="#BA9CED" stop-opacity="0.11" style="stop-color:#BA9CED;stop-color:color(display-p3 0.7282 0.6118 0.9294);stop-opacity:0.11;"/>
<stop offset="0.821091" stop-color="#B3ADBD" stop-opacity="0" style="stop-color:none;stop-color:none;stop-opacity:0;"/>
</linearGradient>
<linearGradient id="paint8_linear_401_1602" x1="331.225" y1="93.5903" x2="332.725" y2="169.59" gradientUnits="userSpaceOnUse">
<stop stop-color="#BA9CED" stop-opacity="0.11" style="stop-color:#BA9CED;stop-color:color(display-p3 0.7282 0.6118 0.9294);stop-opacity:0.11;"/>
<stop offset="0.821091" stop-color="#B3ADBD" stop-opacity="0" style="stop-color:none;stop-color:none;stop-opacity:0;"/>
</linearGradient>
<linearGradient id="paint9_linear_401_1602" x1="78.5" y1="144.135" x2="80" y2="220.135" gradientUnits="userSpaceOnUse">
<stop stop-color="#BA9CED" stop-opacity="0.11" style="stop-color:#BA9CED;stop-color:color(display-p3 0.7282 0.6118 0.9294);stop-opacity:0.11;"/>
<stop offset="0.821091" stop-color="#B3ADBD" stop-opacity="0" style="stop-color:none;stop-color:none;stop-opacity:0;"/>
</linearGradient>
<linearGradient id="paint10_linear_401_1602" x1="381.77" y1="144.135" x2="383.27" y2="220.135" gradientUnits="userSpaceOnUse">
<stop stop-color="#BA9CED" stop-opacity="0.11" style="stop-color:#BA9CED;stop-color:color(display-p3 0.7282 0.6118 0.9294);stop-opacity:0.11;"/>
<stop offset="0.821091" stop-color="#B3ADBD" stop-opacity="0" style="stop-color:none;stop-color:none;stop-opacity:0;"/>
</linearGradient>
<linearGradient id="paint11_linear_401_1602" x1="78.5" y1="194.68" x2="80" y2="270.68" gradientUnits="userSpaceOnUse">
<stop stop-color="#BA9CED" stop-opacity="0.11" style="stop-color:#BA9CED;stop-color:color(display-p3 0.7282 0.6118 0.9294);stop-opacity:0.11;"/>
<stop offset="0.821091" stop-color="#B3ADBD" stop-opacity="0" style="stop-color:none;stop-color:none;stop-opacity:0;"/>
</linearGradient>
<linearGradient id="paint12_linear_401_1602" x1="331.225" y1="194.68" x2="332.725" y2="270.68" gradientUnits="userSpaceOnUse">
<stop stop-color="#BA9CED" stop-opacity="0.11" style="stop-color:#BA9CED;stop-color:color(display-p3 0.7282 0.6118 0.9294);stop-opacity:0.11;"/>
<stop offset="0.821091" stop-color="#B3ADBD" stop-opacity="0" style="stop-color:none;stop-color:none;stop-opacity:0;"/>
</linearGradient>
<linearGradient id="paint13_linear_401_1602" x1="205.5" y1="19.4512" x2="205.5" y2="223.451" gradientUnits="userSpaceOnUse">
<stop offset="0.423485" stop-color="#D9D9D9" style="stop-color:#D9D9D9;stop-color:color(display-p3 0.8510 0.8510 0.8510);stop-opacity:1;"/>
<stop offset="0.877301" stop-color="#D9D9D9" stop-opacity="0" style="stop-color:none;stop-color:none;stop-opacity:0;"/>
</linearGradient>
<clipPath id="clip0_401_1602">
<rect width="405" height="218" fill="white" style="fill:white;fill:white;fill-opacity:1;"/>
</clipPath>
</defs>
</svg>
