<svg width="405" height="218" viewBox="0 0 405 218" fill="none" xmlns="http://www.w3.org/2000/svg">
<g clip-path="url(#clip0_430_1608)">
<mask id="mask0_430_1608" style="mask-type:luminance" maskUnits="userSpaceOnUse" x="0" y="0" width="405" height="218">
<path d="M405 0H0V218H405V0Z" fill="white"/>
</mask>
<g mask="url(#mask0_430_1608)">
<mask id="mask1_430_1608" style="mask-type:luminance" maskUnits="userSpaceOnUse" x="0" y="0" width="405" height="218">
<path d="M405 0H0V218H405V0Z" fill="white"/>
</mask>
<g mask="url(#mask1_430_1608)">
<path d="M206 -17.0195V48.9805" stroke="url(#paint0_linear_430_1608)" stroke-width="0.75"/>
<path d="M200 -17.0195V48.9805" stroke="url(#paint1_linear_430_1608)" stroke-width="0.75"/>
<g opacity="0.2">
<path d="M50.8653 -42.1348H0.320312V8.41026H50.8653V-42.1348Z" stroke="#1D1F23" stroke-width="0.63981"/>
<path d="M101.41 -42.1348H50.8652V8.41026H101.41V-42.1348Z" stroke="#1D1F23" stroke-width="0.63981"/>
<path d="M151.955 -42.1348H101.41V8.41026H151.955V-42.1348Z" stroke="#1D1F23" stroke-width="0.63981"/>
<path d="M202.5 -42.1348H151.955V8.41026H202.5V-42.1348Z" stroke="#1D1F23" stroke-width="0.63981"/>
<path d="M253.045 -42.1348H202.5V8.41026H253.045V-42.1348Z" stroke="#1D1F23" stroke-width="0.63981"/>
<path d="M303.59 -42.1348H253.045V8.41026H303.59V-42.1348Z" stroke="#1D1F23" stroke-width="0.63981"/>
<path d="M354.136 -42.1348H303.591V8.41026H354.136V-42.1348Z" stroke="#1D1F23" stroke-width="0.63981"/>
<path d="M404.681 -42.1348H354.136V8.41026H404.681V-42.1348Z" stroke="#1D1F23" stroke-width="0.63981"/>
<path d="M50.8653 8.41016H0.320312V58.9552H50.8653V8.41016Z" stroke="#1D1F23" stroke-width="0.63981"/>
<path opacity="0.5" d="M101.41 8.41211H50.8652V58.9571H101.41V8.41211Z" fill="url(#paint2_linear_430_1608)" stroke="#1D1F23" stroke-width="0.63981"/>
<path d="M151.955 8.41211H101.41V58.9571H151.955V8.41211Z" stroke="#1D1F23" stroke-width="0.63981"/>
<path d="M202.5 8.41211H151.955V58.9571H202.5V8.41211Z" stroke="#1D1F23" stroke-width="0.63981"/>
<path d="M253.045 8.41211H202.5V58.9571H253.045V8.41211Z" stroke="#1D1F23" stroke-width="0.63981"/>
<path d="M303.59 8.41211H253.045V58.9571H303.59V8.41211Z" stroke="#1D1F23" stroke-width="0.63981"/>
<path d="M354.136 8.41211H303.591V58.9571H354.136V8.41211Z" fill="url(#paint3_linear_430_1608)" stroke="#1D1F23" stroke-width="0.63981"/>
<path d="M404.681 8.41211H354.136V58.9571H404.681V8.41211Z" fill="url(#paint4_linear_430_1608)" stroke="#1D1F23" stroke-width="0.63981"/>
<path d="M50.8653 58.9551H0.320312V109.5H50.8653V58.9551Z" stroke="#1D1F23" stroke-width="0.63981"/>
<path d="M101.41 58.9551H50.8652V109.5H101.41V58.9551Z" stroke="#1D1F23" stroke-width="0.63981"/>
<path d="M151.955 58.9551H101.41V109.5H151.955V58.9551Z" stroke="#1D1F23" stroke-width="0.63981"/>
<path d="M202.5 58.9551H151.955V109.5H202.5V58.9551Z" stroke="#1D1F23" stroke-width="0.63981"/>
<path d="M253.045 58.9551H202.5V109.5H253.045V58.9551Z" stroke="#1D1F23" stroke-width="0.63981"/>
<path d="M303.59 58.9551H253.045V109.5H303.59V58.9551Z" stroke="#1D1F23" stroke-width="0.63981"/>
<path d="M354.136 58.9551H303.591V109.5H354.136V58.9551Z" stroke="#1D1F23" stroke-width="0.63981"/>
<path d="M404.681 58.9551H354.136V109.5H404.681V58.9551Z" stroke="#1D1F23" stroke-width="0.63981"/>
<path opacity="0.5" d="M50.8653 109.5H0.320312V160.045H50.8653V109.5Z" fill="url(#paint5_linear_430_1608)" stroke="#1D1F23" stroke-width="0.63981"/>
<path d="M101.41 109.5H50.8652V160.045H101.41V109.5Z" stroke="#1D1F23" stroke-width="0.63981"/>
<path d="M151.955 109.5H101.41V160.045H151.955V109.5Z" stroke="#1D1F23" stroke-width="0.63981"/>
<path d="M202.5 109.5H151.955V160.045H202.5V109.5Z" fill="url(#paint6_linear_430_1608)" stroke="#1D1F23" stroke-width="0.63981"/>
<path d="M253.045 109.5H202.5V160.045H253.045V109.5Z" stroke="#1D1F23" stroke-width="0.63981"/>
<path d="M303.59 109.5H253.045V160.045H303.59V109.5Z" fill="url(#paint7_linear_430_1608)" stroke="#1D1F23" stroke-width="0.63981"/>
<path d="M354.136 109.5H303.591V160.045H354.136V109.5Z" fill="url(#paint8_linear_430_1608)" stroke="#1D1F23" stroke-width="0.63981"/>
<path d="M404.681 109.5H354.136V160.045H404.681V109.5Z" stroke="#1D1F23" stroke-width="0.63981"/>
<path d="M50.8653 160.047H0.320312V210.592H50.8653V160.047Z" stroke="#1D1F23" stroke-width="0.63981"/>
<path d="M101.41 160.047H50.8652V210.592H101.41V160.047Z" fill="url(#paint9_linear_430_1608)" stroke="#1D1F23" stroke-width="0.63981"/>
<path d="M151.955 160.047H101.41V210.592H151.955V160.047Z" stroke="#1D1F23" stroke-width="0.63981"/>
<path d="M202.5 160.047H151.955V210.592H202.5V160.047Z" stroke="#1D1F23" stroke-width="0.63981"/>
<path d="M253.045 160.047H202.5V210.592H253.045V160.047Z" stroke="#1D1F23" stroke-width="0.63981"/>
<path d="M303.59 160.047H253.045V210.592H303.59V160.047Z" stroke="#1D1F23" stroke-width="0.63981"/>
<path d="M354.136 160.047H303.591V210.592H354.136V160.047Z" stroke="#1D1F23" stroke-width="0.63981"/>
<path d="M404.681 160.047H354.136V210.592H404.681V160.047Z" fill="url(#paint10_linear_430_1608)" stroke="#1D1F23" stroke-width="0.63981"/>
<path d="M50.8653 210.592H0.320312V261.137H50.8653V210.592Z" stroke="#1D1F23" stroke-width="0.63981"/>
<path opacity="0.5" d="M101.41 210.592H50.8652V261.137H101.41V210.592Z" fill="url(#paint11_linear_430_1608)" stroke="#1D1F23" stroke-width="0.63981"/>
<path d="M151.955 210.592H101.41V261.137H151.955V210.592Z" stroke="#1D1F23" stroke-width="0.63981"/>
<path d="M202.5 210.592H151.955V261.137H202.5V210.592Z" stroke="#1D1F23" stroke-width="0.63981"/>
<path d="M253.045 210.592H202.5V261.137H253.045V210.592Z" stroke="#1D1F23" stroke-width="0.63981"/>
<path d="M303.59 210.592H253.045V261.137H303.59V210.592Z" stroke="#1D1F23" stroke-width="0.63981"/>
<path opacity="0.5" d="M354.136 210.592H303.591V261.137H354.136V210.592Z" fill="url(#paint12_linear_430_1608)" stroke="#1D1F23" stroke-width="0.63981"/>
<path d="M404.681 210.592H354.136V261.137H404.681V210.592Z" stroke="#1D1F23" stroke-width="0.63981"/>
</g>
<path d="M359 77H46V217H359V77Z" fill="#16171B"/>
<mask id="mask2_430_1608" style="mask-type:alpha" maskUnits="userSpaceOnUse" x="39" y="19" width="333" height="205">
<path d="M372 19.4512H39V223.451H372V19.4512Z" fill="url(#paint13_linear_430_1608)"/>
</mask>
<g mask="url(#mask2_430_1608)">
<g opacity="0.15">
<path d="M46 44C46 41.7909 47.7909 40 50 40H355C357.209 40 359 41.7909 359 44V190C359 192.209 357.209 194 355 194H50C47.7909 194 46 192.209 46 190V44Z" fill="#2E3035"/>
</g>
<mask id="mask3_430_1608" style="mask-type:luminance" maskUnits="userSpaceOnUse" x="51" y="46" width="303" height="155">
<path d="M350 46H55C52.7909 46 51 47.7909 51 50V197C51 199.209 52.7909 201 55 201H350C352.209 201 354 199.209 354 197V50C354 47.7909 352.209 46 350 46Z" fill="white"/>
</mask>
<g mask="url(#mask3_430_1608)">
<path d="M350 46H55C52.7909 46 51 47.7909 51 50V197C51 199.209 52.7909 201 55 201H350C352.209 201 354 199.209 354 197V50C354 47.7909 352.209 46 350 46Z" fill="#16171B"/>
<mask id="mask4_430_1608" style="mask-type:luminance" maskUnits="userSpaceOnUse" x="62" y="65" width="283" height="47">
<path d="M339.158 65H67.8423C64.6157 65 62 67.6157 62 70.8423V105.318C62 108.545 64.6157 111.16 67.8423 111.16H339.158C342.384 111.16 345 108.545 345 105.318V70.8423C345 67.6157 342.384 65 339.158 65Z" fill="white"/>
</mask>
<g mask="url(#mask4_430_1608)">
<path d="M339.158 65H67.8423C64.6157 65 62 67.6157 62 70.8423V105.318C62 108.545 64.6157 111.16 67.8423 111.16H339.158C342.384 111.16 345 108.545 345 105.318V70.8423C345 67.6157 342.384 65 339.158 65Z" fill="#222429"/>
<path d="M96.0441 73.7637H72.7465C71.6514 73.7637 70.7637 74.6514 70.7637 75.7465V100.414C70.7637 101.51 71.6514 102.397 72.7465 102.397H96.0441C97.1392 102.397 98.0269 101.51 98.0269 100.414V75.7465C98.0269 74.6514 97.1392 73.7637 96.0441 73.7637Z" fill="#4D4F54"/>
<path d="M113.957 80.0875H112.827V79.6315H113.957C114.175 79.6315 114.353 79.5967 114.488 79.527C114.624 79.4573 114.722 79.3605 114.784 79.2365C114.848 79.1126 114.88 78.9713 114.88 78.8125C114.88 78.6673 114.848 78.5307 114.784 78.4029C114.722 78.2752 114.624 78.1725 114.488 78.0951C114.353 78.0157 114.175 77.976 113.957 77.976H112.957V81.746H112.397V77.5171H113.957C114.276 77.5171 114.546 77.5723 114.767 77.6826C114.988 77.793 115.155 77.946 115.269 78.1415C115.384 78.3352 115.441 78.5569 115.441 78.8067C115.441 79.0778 115.384 79.3091 115.269 79.5008C115.155 79.6925 114.988 79.8387 114.767 79.9394C114.546 80.0382 114.276 80.0875 113.957 80.0875ZM116.09 77.5171H117.49C117.807 77.5171 118.076 77.5655 118.294 77.6623C118.515 77.7591 118.683 77.9024 118.797 78.0922C118.913 78.28 118.971 78.5114 118.971 78.7863C118.971 78.98 118.931 79.1571 118.852 79.3179C118.775 79.4766 118.662 79.6122 118.515 79.7245C118.37 79.8349 118.196 79.9171 117.992 79.9714L117.836 80.0324H116.52L116.514 79.5764H117.507C117.709 79.5764 117.876 79.5415 118.01 79.4718C118.143 79.4002 118.244 79.3043 118.312 79.1843C118.38 79.0642 118.414 78.9316 118.414 78.7863C118.414 78.6237 118.382 78.4814 118.318 78.3594C118.254 78.2374 118.153 78.1435 118.016 78.0776C117.88 78.0099 117.705 77.976 117.49 77.976H116.651V81.746H116.09V77.5171ZM118.562 81.746L117.533 79.829L118.117 79.8261L119.16 81.7111V81.746H118.562ZM120.297 77.5171V81.746H119.737V77.5171H120.297ZM124.513 79.4979V79.7651C124.513 80.0827 124.473 80.3673 124.394 80.6191C124.315 80.8708 124.2 81.0847 124.051 81.2609C123.902 81.4372 123.723 81.5717 123.514 81.6647C123.307 81.7576 123.074 81.8041 122.817 81.8041C122.567 81.8041 122.338 81.7576 122.128 81.6647C121.921 81.5717 121.741 81.4372 121.588 81.2609C121.437 81.0847 121.32 80.8708 121.237 80.6191C121.154 80.3673 121.112 80.0827 121.112 79.7651V79.4979C121.112 79.1804 121.153 78.8967 121.234 78.6469C121.317 78.3952 121.434 78.1812 121.585 78.005C121.736 77.8269 121.915 77.6914 122.123 77.5984C122.332 77.5055 122.561 77.459 122.811 77.459C123.069 77.459 123.301 77.5055 123.508 77.5984C123.717 77.6914 123.896 77.8269 124.045 78.005C124.196 78.1812 124.312 78.3952 124.391 78.6469C124.472 78.8967 124.513 79.1804 124.513 79.4979ZM123.958 79.7651V79.4921C123.958 79.2404 123.932 79.0177 123.88 78.8241C123.83 78.6305 123.755 78.4678 123.656 78.3361C123.557 78.2045 123.436 78.1048 123.293 78.037C123.152 77.9692 122.991 77.9353 122.811 77.9353C122.637 77.9353 122.479 77.9692 122.338 78.037C122.198 78.1048 122.078 78.2045 121.977 78.3361C121.879 78.4678 121.802 78.6305 121.748 78.8241C121.694 79.0177 121.667 79.2404 121.667 79.4921V79.7651C121.667 80.0188 121.694 80.2434 121.748 80.439C121.802 80.6326 121.88 80.7962 121.98 80.9298C122.083 81.0615 122.204 81.1612 122.343 81.229C122.485 81.2968 122.643 81.3307 122.817 81.3307C122.999 81.3307 123.161 81.2968 123.302 81.229C123.443 81.1612 123.562 81.0615 123.659 80.9298C123.758 80.7962 123.832 80.6326 123.883 80.439C123.933 80.2434 123.958 80.0188 123.958 79.7651ZM125.293 77.5171H126.693C127.01 77.5171 127.279 77.5655 127.497 77.6623C127.718 77.7591 127.886 77.9024 128 78.0922C128.116 78.28 128.174 78.5114 128.174 78.7863C128.174 78.98 128.134 79.1571 128.055 79.3179C127.978 79.4766 127.865 79.6122 127.718 79.7245C127.573 79.8349 127.399 79.9171 127.195 79.9714L127.039 80.0324H125.723L125.717 79.5764H126.71C126.912 79.5764 127.079 79.5415 127.213 79.4718C127.346 79.4002 127.447 79.3043 127.515 79.1843C127.583 79.0642 127.617 78.9316 127.617 78.7863C127.617 78.6237 127.585 78.4814 127.521 78.3594C127.457 78.2374 127.356 78.1435 127.219 78.0776C127.083 78.0099 126.908 77.976 126.693 77.976H125.853V81.746H125.293V77.5171ZM127.765 81.746L126.736 79.829L127.32 79.8261L128.363 81.7111V81.746H127.765ZM129.5 77.5171V81.746H128.94V77.5171H129.5ZM131.936 77.5171V81.746H131.384V77.5171H131.936ZM133.295 77.5171V77.976H130.027V77.5171H133.295ZM134.104 77.5171L135.202 79.6403L136.303 77.5171H136.939L135.481 80.166V81.746H134.92V80.166L133.462 77.5171H134.104ZM141.092 80.6771C141.092 80.5784 141.077 80.4913 141.046 80.4157C141.017 80.3383 140.964 80.2686 140.889 80.2066C140.815 80.1447 140.713 80.0856 140.581 80.0295C140.451 79.9733 140.287 79.9162 140.087 79.8581C139.878 79.7961 139.689 79.7274 139.521 79.6519C139.352 79.5744 139.208 79.4863 139.088 79.3876C138.968 79.2888 138.876 79.1755 138.812 79.0477C138.748 78.9199 138.716 78.7738 138.716 78.6092C138.716 78.4446 138.75 78.2926 138.818 78.1532C138.886 78.0138 138.982 77.8927 139.108 77.7901C139.236 77.6855 139.388 77.6042 139.564 77.5461C139.741 77.488 139.937 77.459 140.154 77.459C140.472 77.459 140.741 77.52 140.961 77.642C141.184 77.762 141.353 77.9198 141.47 78.1154C141.586 78.309 141.644 78.5162 141.644 78.737H141.086C141.086 78.5782 141.052 78.4378 140.985 78.3158C140.917 78.1919 140.814 78.0951 140.677 78.0254C140.539 77.9537 140.365 77.9179 140.154 77.9179C139.955 77.9179 139.79 77.9479 139.66 78.0079C139.53 78.068 139.434 78.1493 139.37 78.2519C139.308 78.3545 139.277 78.4717 139.277 78.6034C139.277 78.6924 139.295 78.7738 139.332 78.8473C139.371 78.919 139.43 78.9858 139.509 79.0477C139.59 79.1097 139.693 79.1668 139.817 79.2191C139.943 79.2714 140.093 79.3217 140.267 79.3701C140.507 79.4379 140.715 79.5134 140.889 79.5967C141.063 79.6799 141.206 79.7739 141.319 79.8784C141.433 79.981 141.517 80.0982 141.571 80.2299C141.627 80.3596 141.656 80.5068 141.656 80.6713C141.656 80.8437 141.621 80.9995 141.551 81.139C141.481 81.2784 141.382 81.3975 141.252 81.4962C141.122 81.595 140.966 81.6714 140.784 81.7257C140.604 81.7779 140.403 81.8041 140.18 81.8041C139.985 81.8041 139.792 81.777 139.602 81.7228C139.414 81.6685 139.243 81.5872 139.088 81.4788C138.935 81.3703 138.812 81.2367 138.719 81.078C138.628 80.9173 138.583 80.7314 138.583 80.5203H139.14C139.14 80.6655 139.168 80.7904 139.225 80.895C139.281 80.9976 139.357 81.0828 139.454 81.1506C139.553 81.2183 139.664 81.2687 139.788 81.3016C139.914 81.3326 140.045 81.3481 140.18 81.3481C140.376 81.3481 140.541 81.321 140.677 81.2668C140.812 81.2125 140.915 81.1351 140.985 81.0344C141.056 80.9337 141.092 80.8146 141.092 80.6771ZM144.73 77.5171H145.288V80.378C145.288 80.6955 145.217 80.9599 145.076 81.1709C144.934 81.382 144.746 81.5407 144.512 81.6472C144.28 81.7518 144.027 81.8041 143.754 81.8041C143.468 81.8041 143.208 81.7518 142.976 81.6472C142.745 81.5407 142.562 81.382 142.427 81.1709C142.293 80.9599 142.226 80.6955 142.226 80.378V77.5171H142.781V80.378C142.781 80.5987 142.822 80.7807 142.903 80.924C142.984 81.0673 143.098 81.1738 143.243 81.2435C143.39 81.3132 143.56 81.3481 143.754 81.3481C143.95 81.3481 144.12 81.3132 144.265 81.2435C144.412 81.1738 144.527 81.0673 144.608 80.924C144.689 80.7807 144.73 80.5987 144.73 80.378V77.5171ZM147.668 80.0875H146.538V79.6315H147.668C147.887 79.6315 148.064 79.5967 148.199 79.527C148.335 79.4573 148.434 79.3605 148.496 79.2365C148.56 79.1126 148.592 78.9713 148.592 78.8125C148.592 78.6673 148.56 78.5307 148.496 78.4029C148.434 78.2752 148.335 78.1725 148.199 78.0951C148.064 78.0157 147.887 77.976 147.668 77.976H146.669V81.746H146.108V77.5171H147.668C147.987 77.5171 148.258 77.5723 148.478 77.6826C148.699 77.793 148.866 77.946 148.981 78.1415C149.095 78.3352 149.152 78.5569 149.152 78.8067C149.152 79.0778 149.095 79.3091 148.981 79.5008C148.866 79.6925 148.699 79.8387 148.478 79.9394C148.258 80.0382 147.987 80.0875 147.668 80.0875ZM151.361 80.0875H150.231V79.6315H151.361C151.58 79.6315 151.757 79.5967 151.893 79.527C152.028 79.4573 152.127 79.3605 152.189 79.2365C152.253 79.1126 152.285 78.9713 152.285 78.8125C152.285 78.6673 152.253 78.5307 152.189 78.4029C152.127 78.2752 152.028 78.1725 151.893 78.0951C151.757 78.0157 151.58 77.976 151.361 77.976H150.362V81.746H149.801V77.5171H151.361C151.681 77.5171 151.951 77.5723 152.171 77.6826C152.392 77.793 152.56 77.946 152.674 78.1415C152.788 78.3352 152.845 78.5569 152.845 78.8067C152.845 79.0778 152.788 79.3091 152.674 79.5008C152.56 79.6925 152.392 79.8387 152.171 79.9394C151.951 80.0382 151.681 80.0875 151.361 80.0875ZM156.75 79.4979V79.7651C156.75 80.0827 156.711 80.3673 156.631 80.6191C156.552 80.8708 156.438 81.0847 156.289 81.2609C156.139 81.4372 155.96 81.5717 155.751 81.6647C155.544 81.7576 155.312 81.8041 155.054 81.8041C154.804 81.8041 154.575 81.7576 154.366 81.6647C154.159 81.5717 153.978 81.4372 153.826 81.2609C153.674 81.0847 153.557 80.8708 153.474 80.6191C153.391 80.3673 153.349 80.0827 153.349 79.7651V79.4979C153.349 79.1804 153.39 78.8967 153.471 78.6469C153.554 78.3952 153.672 78.1812 153.823 78.005C153.974 77.8269 154.153 77.6914 154.36 77.5984C154.569 77.5055 154.799 77.459 155.048 77.459C155.306 77.459 155.538 77.5055 155.745 77.5984C155.954 77.6914 156.134 77.8269 156.283 78.005C156.434 78.1812 156.549 78.3952 156.628 78.6469C156.71 78.8967 156.75 79.1804 156.75 79.4979ZM156.196 79.7651V79.4921C156.196 79.2404 156.169 79.0177 156.117 78.8241C156.067 78.6305 155.992 78.4678 155.893 78.3361C155.795 78.2045 155.674 78.1048 155.53 78.037C155.389 77.9692 155.228 77.9353 155.048 77.9353C154.874 77.9353 154.716 77.9692 154.575 78.037C154.435 78.1048 154.315 78.2045 154.215 78.3361C154.116 78.4678 154.039 78.6305 153.985 78.8241C153.931 79.0177 153.904 79.2404 153.904 79.4921V79.7651C153.904 80.0188 153.931 80.2434 153.985 80.439C154.039 80.6326 154.117 80.7962 154.218 80.9298C154.32 81.0615 154.441 81.1612 154.581 81.229C154.722 81.2968 154.88 81.3307 155.054 81.3307C155.236 81.3307 155.398 81.2968 155.539 81.229C155.681 81.1612 155.8 81.0615 155.896 80.9298C155.995 80.7962 156.07 80.6326 156.12 80.439C156.17 80.2434 156.196 80.0188 156.196 79.7651ZM157.53 77.5171H158.93C159.248 77.5171 159.516 77.5655 159.735 77.6623C159.955 77.7591 160.123 77.9024 160.237 78.0922C160.353 78.28 160.411 78.5114 160.411 78.7863C160.411 78.98 160.372 79.1571 160.292 79.3179C160.215 79.4766 160.103 79.6122 159.955 79.7245C159.81 79.8349 159.636 79.9171 159.433 79.9714L159.276 80.0324H157.96L157.954 79.5764H158.948C159.149 79.5764 159.316 79.5415 159.45 79.4718C159.584 79.4002 159.684 79.3043 159.752 79.1843C159.82 79.0642 159.854 78.9316 159.854 78.7863C159.854 78.6237 159.822 78.4814 159.758 78.3594C159.694 78.2374 159.593 78.1435 159.456 78.0776C159.32 78.0099 159.145 77.976 158.93 77.976H158.091V81.746H157.53V77.5171ZM160.002 81.746L158.974 79.829L159.558 79.8261L160.6 81.7111V81.746H160.002ZM162.466 77.5171V81.746H161.915V77.5171H162.466ZM163.826 77.5171V77.976H160.558V77.5171H163.826Z" fill="#8247E5"/>
<path d="M111.941 74.0117H164.872C168.039 74.0117 170.607 76.5793 170.607 79.7467C170.607 82.914 168.039 85.4816 164.872 85.4816H111.941C108.774 85.4816 106.206 82.914 106.206 79.7467C106.206 76.5793 108.774 74.0117 111.941 74.0117Z" stroke="#8247E5" stroke-width="0.495696"/>
<path d="M167.51 92.1738H107.941C106.846 92.1738 105.958 93.0615 105.958 94.1565V100.415C105.958 101.51 106.846 102.398 107.941 102.398H167.51C168.605 102.398 169.493 101.51 169.493 100.415V94.1565C169.493 93.0615 168.605 92.1738 167.51 92.1738Z" fill="#4D4F54"/>
<path d="M200.615 92.1738H177.318C176.223 92.1738 175.335 93.0615 175.335 94.1565V100.415C175.335 101.51 176.223 102.398 177.318 102.398H200.615C201.71 102.398 202.598 101.51 202.598 100.415V94.1565C202.598 93.0615 201.71 92.1738 200.615 92.1738Z" fill="#4D4F54"/>
<path d="M233.721 92.1738H210.423C209.328 92.1738 208.44 93.0615 208.44 94.1565V100.415C208.44 101.51 209.328 102.398 210.423 102.398H233.721C234.816 102.398 235.704 101.51 235.704 100.415V94.1565C235.704 93.0615 234.816 92.1738 233.721 92.1738Z" fill="#4D4F54"/>
<path d="M251.563 92.1738H243.529C242.434 92.1738 241.546 93.0615 241.546 94.1565V100.415C241.546 101.51 242.434 102.398 243.529 102.398H251.563C252.658 102.398 253.546 101.51 253.546 100.415V94.1565C253.546 93.0615 252.658 92.1738 251.563 92.1738Z" fill="#4D4F54"/>
<path d="M62.7295 66.7891V109.146" stroke="#8247E5" stroke-width="1.46057"/>
<path d="M322.455 78.8629C322.455 74.7075 325.815 71.3184 330 71.3184C334.155 71.3184 337.545 74.7075 337.545 78.8629C337.545 83.0478 334.155 86.4075 330 86.4075C325.815 86.4075 322.455 83.0478 322.455 78.8629ZM333.389 77.5662C333.713 77.242 333.713 76.741 333.389 76.4168C333.065 76.0927 332.564 76.0927 332.24 76.4168L329.057 79.5997L327.731 78.303C327.407 77.9788 326.906 77.9788 326.581 78.303C326.257 78.6272 326.257 79.1282 326.581 79.4523L328.468 81.3385C328.792 81.6627 329.293 81.6627 329.617 81.3385L333.389 77.5662Z" fill="#00C9A7"/>
</g>
<path d="M339.158 65.248H67.8425C64.7528 65.248 62.248 67.7528 62.248 70.8425V105.318C62.248 108.408 64.7528 110.913 67.8425 110.913H339.158C342.247 110.913 344.752 108.408 344.752 105.318V70.8425C344.752 67.7528 342.247 65.248 339.158 65.248Z" stroke="#4D4F54" stroke-width="0.495696"/>
<g opacity="0.5">
<path d="M340.039 119.371H66.9601C64.3367 119.371 62.21 121.498 62.21 124.121V153.234C62.21 155.858 64.3367 157.984 66.9601 157.984H340.039C342.662 157.984 344.789 155.858 344.789 153.234V124.121C344.789 121.498 342.662 119.371 340.039 119.371Z" fill="#222429"/>
<path d="M90.9057 126.602H71.124C70.1942 126.602 69.4404 127.355 69.4404 128.285V149.071C69.4404 150 70.1942 150.754 71.124 150.754H90.9057C91.8355 150.754 92.5892 150 92.5892 149.071V128.285C92.5892 127.355 91.8355 126.602 90.9057 126.602Z" fill="#4D4F54"/>
<path d="M151.586 126.602H101.007C100.077 126.602 99.3232 127.355 99.3232 128.285V133.599C99.3232 134.529 100.077 135.283 101.007 135.283H151.586C152.516 135.283 153.27 134.529 153.27 133.599V128.285C153.27 127.355 152.516 126.602 151.586 126.602Z" fill="#4D4F54"/>
<path d="M160.875 140.754H101.306C100.211 140.754 99.3232 141.642 99.3232 142.737V148.771C99.3232 149.866 100.211 150.754 101.306 150.754H160.875C161.97 150.754 162.858 149.866 162.858 148.771V142.737C162.858 141.642 161.97 140.754 160.875 140.754Z" fill="#4D4F54"/>
<path d="M196.785 140.754H173.488C172.393 140.754 171.505 141.642 171.505 142.737V148.771C171.505 149.866 172.393 150.754 173.488 150.754H196.785C197.88 150.754 198.768 149.866 198.768 148.771V142.737C198.768 141.642 197.88 140.754 196.785 140.754Z" fill="#4D4F54"/>
<path d="M232.694 140.754H209.397C208.302 140.754 207.414 141.642 207.414 142.737V148.771C207.414 149.866 208.302 150.754 209.397 150.754H232.694C233.79 150.754 234.677 149.866 234.677 148.771V142.737C234.677 141.642 233.79 140.754 232.694 140.754Z" fill="#4D4F54"/>
<path d="M253.34 140.754H245.306C244.211 140.754 243.323 141.642 243.323 142.737V148.771C243.323 149.866 244.211 150.754 245.306 150.754H253.34C254.436 150.754 255.323 149.866 255.323 148.771V142.737C255.323 141.642 254.436 140.754 253.34 140.754Z" fill="#4D4F54"/>
<path d="M340.039 119.371H66.9601C64.3367 119.371 62.21 121.498 62.21 124.121V153.234C62.21 155.858 64.3367 157.984 66.9601 157.984H340.039C342.662 157.984 344.789 155.858 344.789 153.234V124.121C344.789 121.498 342.662 119.371 340.039 119.371Z" stroke="#4D4F54" stroke-width="0.420887"/>
</g>
<g opacity="0.5">
<path d="M340.039 166.404H66.9601C64.3367 166.404 62.21 168.531 62.21 171.154V200.268C62.21 202.891 64.3367 205.018 66.9601 205.018H340.039C342.662 205.018 344.789 202.891 344.789 200.268V171.154C344.789 168.531 342.662 166.404 340.039 166.404Z" fill="#222429"/>
<path d="M90.9057 173.637H71.124C70.1942 173.637 69.4404 174.39 69.4404 175.32V196.106C69.4404 197.035 70.1942 197.789 71.124 197.789H90.9057C91.8355 197.789 92.5892 197.035 92.5892 196.106V175.32C92.5892 174.39 91.8355 173.637 90.9057 173.637Z" fill="#4D4F54"/>
<path d="M151.586 173.637H101.007C100.077 173.637 99.3232 174.39 99.3232 175.32V180.634C99.3232 181.564 100.077 182.318 101.007 182.318H151.586C152.516 182.318 153.27 181.564 153.27 180.634V175.32C153.27 174.39 152.516 173.637 151.586 173.637Z" fill="#4D4F54"/>
<path d="M160.875 187.787H101.306C100.211 187.787 99.3232 188.675 99.3232 189.77V195.804C99.3232 196.899 100.211 197.787 101.306 197.787H160.875C161.97 197.787 162.858 196.899 162.858 195.804V189.77C162.858 188.675 161.97 187.787 160.875 187.787Z" fill="#4D4F54"/>
<path d="M196.785 187.787H173.488C172.393 187.787 171.505 188.675 171.505 189.77V195.804C171.505 196.899 172.393 197.787 173.488 197.787H196.785C197.88 197.787 198.768 196.899 198.768 195.804V189.77C198.768 188.675 197.88 187.787 196.785 187.787Z" fill="#4D4F54"/>
<path d="M232.694 187.787H209.397C208.302 187.787 207.414 188.675 207.414 189.77V195.804C207.414 196.899 208.302 197.787 209.397 197.787H232.694C233.79 197.787 234.677 196.899 234.677 195.804V189.77C234.677 188.675 233.79 187.787 232.694 187.787Z" fill="#4D4F54"/>
<path d="M253.34 187.787H245.306C244.211 187.787 243.323 188.675 243.323 189.77V195.804C243.323 196.899 244.211 197.787 245.306 197.787H253.34C254.436 197.787 255.323 196.899 255.323 195.804V189.77C255.323 188.675 254.436 187.787 253.34 187.787Z" fill="#4D4F54"/>
<path d="M340.039 166.404H66.9601C64.3367 166.404 62.21 168.531 62.21 171.154V200.268C62.21 202.891 64.3367 205.018 66.9601 205.018H340.039C342.662 205.018 344.789 202.891 344.789 200.268V171.154C344.789 168.531 342.662 166.404 340.039 166.404Z" stroke="#4D4F54" stroke-width="0.420887"/>
</g>
</g>
<path d="M350 46.375H55C52.998 46.375 51.375 47.998 51.375 50V197C51.375 199.002 52.998 200.625 55 200.625H350C352.002 200.625 353.625 199.002 353.625 197V50C353.625 47.998 352.002 46.375 350 46.375Z" stroke="#4D4F54" stroke-width="0.75"/>
</g>
</g>
</g>
</g>
<defs>
<linearGradient id="paint0_linear_430_1608" x1="207" y1="46.001" x2="207" y2="8.00098" gradientUnits="userSpaceOnUse">
<stop stop-color="#8247E5"/>
<stop offset="0.681321" stop-color="#4C07C3" stop-opacity="0"/>
</linearGradient>
<linearGradient id="paint1_linear_430_1608" x1="201" y1="46.001" x2="201" y2="8.00098" gradientUnits="userSpaceOnUse">
<stop stop-color="#8247E5"/>
<stop offset="0.681321" stop-color="#4C07C3" stop-opacity="0"/>
</linearGradient>
<linearGradient id="paint2_linear_430_1608" x1="78.5004" y1="-7.49764" x2="80.0004" y2="68.5024" gradientUnits="userSpaceOnUse">
<stop stop-color="#EDDD9C" stop-opacity="0.11"/>
<stop offset="0.821091" stop-color="#BDBCAD" stop-opacity="0"/>
</linearGradient>
<linearGradient id="paint3_linear_430_1608" x1="331.226" y1="-7.49764" x2="332.726" y2="68.5024" gradientUnits="userSpaceOnUse">
<stop stop-color="#EDDD9C" stop-opacity="0.11"/>
<stop offset="0.821091" stop-color="#BDBAAD" stop-opacity="0"/>
</linearGradient>
<linearGradient id="paint4_linear_430_1608" x1="381.771" y1="-7.49764" x2="383.271" y2="68.5024" gradientUnits="userSpaceOnUse">
<stop stop-color="#EDDD9C" stop-opacity="0.11"/>
<stop offset="0.821091" stop-color="#BDBAAD" stop-opacity="0"/>
</linearGradient>
<linearGradient id="paint5_linear_430_1608" x1="27.9555" y1="93.5903" x2="29.4555" y2="169.59" gradientUnits="userSpaceOnUse">
<stop stop-color="#EDDD9C" stop-opacity="0.11"/>
<stop offset="0.821091" stop-color="#BDBAAD" stop-opacity="0"/>
</linearGradient>
<linearGradient id="paint6_linear_430_1608" x1="179.59" y1="93.5903" x2="181.09" y2="169.59" gradientUnits="userSpaceOnUse">
<stop stop-color="#EDDD9C" stop-opacity="0.11"/>
<stop offset="0.821091" stop-color="#BDBAAD" stop-opacity="0"/>
</linearGradient>
<linearGradient id="paint7_linear_430_1608" x1="280.68" y1="93.5903" x2="282.18" y2="169.59" gradientUnits="userSpaceOnUse">
<stop stop-color="#EDDD9C" stop-opacity="0.11"/>
<stop offset="0.821091" stop-color="#BDBAAD" stop-opacity="0"/>
</linearGradient>
<linearGradient id="paint8_linear_430_1608" x1="331.226" y1="93.5903" x2="332.726" y2="169.59" gradientUnits="userSpaceOnUse">
<stop stop-color="#EDDD9C" stop-opacity="0.11"/>
<stop offset="0.821091" stop-color="#BDBAAD" stop-opacity="0"/>
</linearGradient>
<linearGradient id="paint9_linear_430_1608" x1="78.5004" y1="144.137" x2="80.0004" y2="220.137" gradientUnits="userSpaceOnUse">
<stop stop-color="#EDDD9C" stop-opacity="0.11"/>
<stop offset="0.821091" stop-color="#BDBAAD" stop-opacity="0"/>
</linearGradient>
<linearGradient id="paint10_linear_430_1608" x1="381.771" y1="144.137" x2="383.271" y2="220.137" gradientUnits="userSpaceOnUse">
<stop stop-color="#EDDD9C" stop-opacity="0.11"/>
<stop offset="0.821091" stop-color="#BDBAAD" stop-opacity="0"/>
</linearGradient>
<linearGradient id="paint11_linear_430_1608" x1="78.5004" y1="194.682" x2="80.0004" y2="270.682" gradientUnits="userSpaceOnUse">
<stop stop-color="#EDDD9C" stop-opacity="0.11"/>
<stop offset="0.821091" stop-color="#BDBAAD" stop-opacity="0"/>
</linearGradient>
<linearGradient id="paint12_linear_430_1608" x1="331.226" y1="194.682" x2="332.726" y2="270.682" gradientUnits="userSpaceOnUse">
<stop stop-color="#EDDD9C" stop-opacity="0.11"/>
<stop offset="0.821091" stop-color="#BDBAAD" stop-opacity="0"/>
</linearGradient>
<linearGradient id="paint13_linear_430_1608" x1="205.5" y1="19.4512" x2="205.5" y2="223.451" gradientUnits="userSpaceOnUse">
<stop offset="0.423485" stop-color="#D9D9D9"/>
<stop offset="0.863599" stop-color="#D9D9D9" stop-opacity="0"/>
</linearGradient>
<clipPath id="clip0_430_1608">
<rect width="405" height="218" fill="white"/>
</clipPath>
</defs>
</svg>
