<svg width="318" height="107" viewBox="0 0 318 107" fill="none" xmlns="http://www.w3.org/2000/svg">
<path d="M1 104.293L1.27695 96.2236L1.5539 103.396L1.83085 99.8098L2.1078 101.603L2.38475 102.499L2.6617 101.603L2.93865 99.8098L3.2156 103.396H3.49255H3.7695L4.04645 102.499H4.3234L4.60035 100.706L4.8773 98.0167L5.15425 97.1202L5.4312 93.534L5.70815 97.1202L5.9851 98.9133L6.26205 101.603H6.539L6.81595 98.0167L7.0929 99.8098L7.36985 101.603L7.6468 98.9133L7.92375 101.603L8.2007 98.9133L8.47765 100.706H8.7546H9.03155H9.3085L9.58545 99.8098L9.8624 100.706H10.1394H10.4163H10.6933H10.9702H11.2472H11.5241H11.8011H12.078H12.355H12.6319H12.9089L13.1858 99.8098H13.4628H13.7397H14.0167L14.2936 98.9133L14.5706 98.0167L14.8475 98.9133L15.1245 100.706L15.4014 98.9133L15.6784 99.8098H15.9553L16.2323 98.0167L16.5092 99.8098L16.7862 100.706L17.0631 97.1202L17.3401 98.0167L17.617 97.1202H17.894L18.1709 98.0167L18.4479 99.8098L18.7248 100.706L19.0018 99.8098L19.2787 106.086L19.5557 99.8098L19.8326 100.706L20.1096 99.8098L20.3865 98.9133L20.6635 98.0167L20.9404 99.8098L21.2174 98.0167L21.4943 92.6374L21.7713 99.8098L22.0482 98.9133L22.3252 99.8098L22.6021 98.9133L22.8791 97.1202L23.156 98.0167L23.433 98.9133L23.7099 99.8098H23.9869H24.2638H24.5408L24.8177 98.9133L25.0947 98.0167L25.3716 98.9133L25.6486 98.0167H25.9255L26.2025 98.9133L26.4794 100.706L26.7564 99.8098H27.0333H27.3103L27.5872 98.9133H27.8642H28.1411L28.4181 99.8098H28.695L28.972 100.706L29.2489 99.8098L29.5259 100.706H29.8028L30.0798 99.8098L30.3567 100.706L30.6337 99.8098H30.9106H31.1876H31.4645L31.7415 100.706L32.0184 98.9133H32.2954L32.5723 99.8098H32.8493L33.1262 100.706L33.4032 99.8098L33.6801 100.706L33.9571 99.8098H34.234H34.511L34.7879 98.0167L35.0649 98.9133H35.3418H35.6188L35.8957 98.0167L36.1727 97.1202H36.4496H36.7266H37.0035H37.2805H37.5574L37.8344 98.0167L38.1113 98.9133L38.3883 98.0167L38.6652 98.9133L38.9422 98.0167L39.2191 97.1202L39.4961 98.0167L39.773 97.1202L40.05 95.3271L40.3269 96.2236L40.6039 97.1202L40.8808 96.2236L41.1578 97.1202H41.4347H41.7117H41.9886H42.2656H42.5425L42.8195 98.0167L43.0964 97.1202H43.3734L43.6503 96.2236H43.9273L44.2042 94.4305H44.4812L44.7581 95.3271H45.0351L45.312 92.6374L45.589 90.8443L45.8659 93.534L46.1429 90.8443L46.4198 87.2581L46.6968 81.8788L46.9737 89.0512L47.2507 87.2581H47.5276L47.8046 88.1547L48.0815 85.465L48.3585 86.3616L48.6354 80.9822L48.9124 76.4995L49.1893 57.6719L49.4663 69.3271L49.7432 63.9478L50.0202 67.534L50.2971 69.3271L50.5741 72.0167L50.851 77.396L51.128 78.2926H51.4049L51.6819 80.0857L51.9588 73.8098L52.2358 78.2926H52.5127L52.7897 80.9822L53.0666 79.1891L53.3436 78.2926L53.6205 75.6029L53.8975 76.4995L54.1744 67.534L54.4514 71.1202H54.7283L55.0053 73.8098L55.2822 71.1202H55.5592L55.8361 74.7064L56.1131 78.2926L56.39 70.2236L56.667 73.8098L56.9439 74.7064L57.2209 75.6029L57.4978 72.9133H57.7748L58.0517 71.1202L58.3287 72.9133L58.6056 71.1202H58.8826L59.1595 66.6374L59.4365 68.4305H59.7134L59.9904 63.9478L60.2673 65.7409L60.5443 64.8443L60.8212 61.2581L61.0982 62.1547L61.3751 57.6719L61.6521 54.9823L61.929 48.7064L62.206 63.9478L62.4829 69.3271L62.7599 65.7409L63.0368 63.9478L63.3138 64.8443L63.5907 57.6719L63.8677 65.7409L64.1446 61.2581L64.4216 69.3271L64.6985 68.4305L64.9755 69.3271H65.2524L65.5294 65.7409L65.8063 54.9823L66.0833 58.5685L66.3602 63.9478L66.6372 68.4305L66.9141 74.7064L67.1911 70.2236L67.468 68.4305H67.745L68.0219 69.3271L68.2989 70.2236L68.5758 63.9478L68.8528 65.7409L69.1297 69.3271L69.4067 66.6374H69.6836L69.9606 63.9478L70.2375 63.0512L70.5145 63.9478L70.7914 62.1547L71.0684 60.3616L71.3453 46.0167L71.6223 2.08569L71.8992 37.9478L72.1762 57.6719L72.4531 63.9478L72.7301 64.8443L73.007 63.0512L73.284 65.7409L73.5609 66.6374L73.8379 73.8098L74.1148 72.9133L74.3918 79.1891L74.6687 81.8788L74.9457 80.0857L75.2226 75.6029L75.4996 76.4995L75.7765 73.8098L76.0535 78.2926H76.3304L76.6074 80.0857L76.8843 79.1891L77.1613 76.4995L77.4382 74.7064L77.7152 72.9133L77.9921 68.4305L78.2691 73.8098L78.546 72.0167L78.823 75.6029L79.0999 77.396H79.3769L79.6538 75.6029L79.9308 79.1891L80.2077 76.4995L80.4847 78.2926L80.7616 74.7064L81.0386 77.396L81.3155 76.4995L81.5925 80.9822L81.8694 78.2926L82.1464 80.9822L82.4233 79.1891L82.7003 76.4995L82.9772 82.7753L83.2542 80.0857H83.5311L83.8081 77.396L84.085 79.1891H84.362L84.6389 80.9822L84.9159 79.1891L85.1928 78.2926L85.4698 73.8098L85.7467 81.8788L86.0237 73.8098L86.3006 77.396L86.5776 74.7064L86.8545 72.0167L87.1315 68.4305L87.4084 64.8443L87.6854 73.8098L87.9623 72.9133H88.2393L88.5162 76.4995L88.7932 72.9133L89.0701 73.8098L89.3471 68.4305L89.624 80.0857L89.901 80.9822L90.1779 81.8788L90.4549 80.9822L90.7318 79.1891L91.0088 83.6719L91.2857 82.7753L91.5627 79.1891L91.8396 80.0857L92.1166 81.8788L92.3935 83.6719L92.6705 82.7753L92.9474 80.9822L93.2244 80.0857H93.5013H93.7783L94.0552 78.2926H94.3322L94.6091 79.1891L94.8861 80.0857L95.163 79.1891L95.44 80.9822L95.7169 79.1891L95.9939 78.2926L96.2708 80.9822L96.5478 78.2926L96.8247 74.7064H97.1017L97.3786 72.9133L97.6556 71.1202L97.9325 72.9133L98.2095 72.0167L98.4864 71.1202L98.7634 73.8098L99.0403 72.9133L99.3173 78.2926L99.5942 72.0167H99.8712L100.148 71.1202L100.425 68.4305L100.702 69.3271L100.979 63.9478L101.256 68.4305L101.533 65.7409H101.81L102.087 68.4305L102.364 71.1202L102.641 69.3271L102.918 68.4305H103.195H103.472L103.748 66.6374L104.025 68.4305L104.302 67.534L104.579 72.0167L104.856 73.8098L105.133 74.7064L105.41 75.6029L105.687 77.396L105.964 72.0167L106.241 75.6029L106.518 73.8098L106.795 72.0167L107.072 71.1202L107.349 75.6029L107.626 76.4995L107.903 77.396L108.18 80.9822H108.457L108.734 80.0857H109.011L109.287 80.9822H109.564L109.841 81.8788L110.118 80.9822L110.395 81.8788L110.672 80.0857L110.949 78.2926L111.226 74.7064H111.503H111.78H112.057L112.334 75.6029L112.611 73.8098H112.888L113.165 72.9133L113.442 73.8098L113.719 74.7064L113.996 75.6029L114.273 72.0167L114.55 73.8098H114.826L115.103 72.0167L115.38 71.1202L115.657 73.8098L115.934 72.0167L116.211 74.7064L116.488 70.2236L116.765 73.8098L117.042 72.0167L117.319 71.1202H117.596H117.873L118.15 72.0167L118.427 73.8098L118.704 66.6374L118.981 65.7409L119.258 60.3616L119.535 61.2581L119.812 58.5685L120.089 56.7754L120.365 58.5685L120.642 63.9478L120.919 58.5685L121.196 57.6719L121.473 54.0857L121.75 53.1891L122.027 56.7754L122.304 57.6719L122.581 58.5685H122.858L123.135 54.9823L123.412 55.8788L123.689 56.7754L123.966 57.6719L124.243 61.2581L124.52 64.8443L124.797 59.465L125.074 61.2581L125.351 62.1547L125.628 63.9478L125.904 61.2581L126.181 62.1547L126.458 61.2581L126.735 64.8443L127.012 62.1547L127.289 61.2581L127.566 60.3616L127.843 59.465L128.12 57.6719L128.397 56.7754L128.674 62.1547L128.951 61.2581L129.228 62.1547L129.505 63.0512H129.782L130.059 64.8443H130.336L130.613 63.0512L130.89 66.6374L131.167 65.7409H131.443L131.72 66.6374L131.997 65.7409L132.274 67.534L132.551 64.8443L132.828 65.7409H133.105L133.382 67.534L133.659 66.6374H133.936L134.213 64.8443L134.49 65.7409L134.767 66.6374H135.044L135.321 63.0512L135.598 66.6374H135.875L136.152 69.3271L136.429 67.534L136.706 65.7409L136.982 64.8443L137.259 65.7409L137.536 68.4305L137.813 71.1202H138.09L138.367 72.0167L138.644 72.9133H138.921L139.198 73.8098L139.475 69.3271L139.752 68.4305L140.029 70.2236H140.306L140.583 68.4305L140.86 67.534L141.137 72.0167L141.414 73.8098L141.691 72.9133H141.968L142.245 78.2926L142.521 80.0857L142.798 76.4995L143.075 80.0857L143.352 77.396L143.629 79.1891L143.906 77.396H144.183H144.46L144.737 78.2926L145.014 76.4995L145.291 75.6029L145.568 78.2926L145.845 80.9822L146.122 72.0167L146.399 71.1202H146.676L146.953 70.2236L147.23 76.4995L147.507 73.8098L147.784 74.7064L148.06 76.4995L148.337 75.6029L148.614 74.7064H148.891L149.168 68.4305L149.445 65.7409L149.722 73.8098L149.999 74.7064L150.276 75.6029L150.553 77.396L150.83 79.1891L151.107 77.396L151.384 78.2926L151.661 79.1891H151.938L152.215 80.0857H152.492L152.769 75.6029H153.046L153.323 76.4995L153.599 74.7064L153.876 79.1891L154.153 78.2926L154.43 77.396H154.707H154.984H155.261L155.538 79.1891L155.815 78.2926H156.092L156.369 80.0857L156.646 79.1891H156.923L157.2 77.396L157.477 75.6029L157.754 76.4995L158.031 75.6029L158.308 76.4995L158.585 79.1891L158.862 75.6029H159.138L159.415 77.396H159.692L159.969 76.4995L160.246 75.6029L160.523 74.7064H160.8H161.077H161.354L161.631 73.8098H161.908L162.185 72.9133L162.462 73.8098H162.739H163.016L163.293 74.7064L163.57 73.8098H163.847L164.124 74.7064L164.401 76.4995L164.677 75.6029L164.954 73.8098H165.231H165.508L165.785 77.396L166.062 76.4995L166.339 74.7064L166.616 73.8098L166.893 76.4995L167.17 77.396L167.447 76.4995L167.724 77.396L168.001 76.4995H168.278L168.555 78.2926H168.832L169.109 75.6029H169.386L169.663 79.1891L169.94 77.396L170.216 76.4995L170.493 77.396L170.77 76.4995L171.047 78.2926H171.324L171.601 80.0857L171.878 80.9822L172.155 86.3616L172.432 83.6719L172.709 86.3616L172.986 88.1547L173.263 89.0512L173.54 88.1547L173.817 84.5684H174.094H174.371L174.648 86.3616L174.925 84.5684H175.202H175.479H175.755L176.032 83.6719L176.309 84.5684L176.586 80.9822L176.863 86.3616L177.14 87.2581L177.417 86.3616L177.694 81.8788L177.971 84.5684L178.248 83.6719L178.525 84.5684L178.802 82.7753L179.079 86.3616L179.356 85.465H179.633H179.91H180.187L180.464 86.3616L180.741 85.465L181.018 87.2581H181.294L181.571 88.1547L181.848 90.8443L182.125 89.0512H182.402L182.679 91.7409L182.956 90.8443L183.233 91.7409H183.51L183.787 90.8443H184.064H184.341L184.618 89.9478L184.895 90.8443H185.172H185.449L185.726 89.9478H186.003H186.28L186.557 90.8443H186.833H187.11L187.387 89.9478L187.664 89.0512L187.941 89.9478H188.218H188.495L188.772 89.0512H189.049L189.326 89.9478L189.603 91.7409L189.88 89.9478L190.157 90.8443L190.434 88.1547L190.711 87.2581L190.988 91.7409L191.265 89.0512L191.542 87.2581H191.819L192.096 86.3616H192.372H192.649L192.926 87.2581L193.203 85.465L193.48 89.0512L193.757 88.1547L194.034 83.6719L194.311 87.2581L194.588 86.3616H194.865H195.142H195.419L195.696 84.5684H195.973H196.25H196.527H196.804L197.081 83.6719L197.358 84.5684L197.635 82.7753L197.911 79.1891L198.188 82.7753L198.465 80.9822L198.742 85.465L199.019 83.6719L199.296 81.8788L199.573 83.6719L199.85 84.5684L200.127 83.6719L200.404 86.3616H200.681L200.958 85.465H201.235L201.512 83.6719H201.789L202.066 84.5684L202.343 86.3616L202.62 84.5684L202.897 86.3616L203.174 85.465H203.45L203.727 87.2581H204.004H204.281H204.558H204.835L205.112 85.465L205.389 88.1547L205.666 87.2581L205.943 86.3616L206.22 84.5684L206.497 85.465L206.774 86.3616L207.051 85.465L207.328 86.3616L207.605 87.2581L207.882 88.1547L208.159 87.2581L208.436 88.1547L208.713 89.0512L208.989 87.2581L209.266 88.1547L209.543 89.0512L209.82 88.1547H210.097H210.374L210.651 87.2581H210.928L211.205 89.0512H211.482L211.759 88.1547L212.036 87.2581H212.313L212.59 88.1547L212.867 87.2581L213.144 86.3616H213.421H213.698L213.975 87.2581L214.252 89.0512H214.528L214.805 88.1547L215.082 84.5684L215.359 88.1547L215.636 90.8443L215.913 89.0512L216.19 89.9478L216.467 88.1547H216.744L217.021 89.0512L217.298 82.7753L217.575 88.1547L217.852 89.0512L218.129 88.1547L218.406 89.0512L218.683 88.1547L218.96 89.0512H219.237H219.514H219.791L220.067 87.2581H220.344H220.621L220.898 86.3616L221.175 85.465H221.452L221.729 83.6719H222.006L222.283 85.465L222.56 84.5684H222.837L223.114 89.0512L223.391 87.2581L223.668 89.0512L223.945 86.3616L224.222 88.1547L224.499 89.0512H224.776L225.053 89.9478H225.33H225.606L225.883 89.0512H226.16L226.437 89.9478H226.714L226.991 89.0512L227.268 89.9478H227.545L227.822 88.1547L228.099 89.9478L228.376 90.8443L228.653 89.9478L228.93 89.0512L229.207 90.8443L229.484 87.2581L229.761 89.9478H230.038L230.315 90.8443L230.592 89.0512L230.869 89.9478H231.145H231.422H231.699L231.976 90.8443L232.253 91.7409L232.53 90.8443L232.807 91.7409H233.084L233.361 93.534H233.638L233.915 91.7409L234.192 92.6374L234.469 91.7409H234.746H235.023H235.3L235.577 93.534H235.854H236.131L236.408 92.6374H236.684H236.961L237.238 91.7409H237.515H237.792H238.069H238.346L238.623 90.8443H238.9L239.177 89.9478L239.454 90.8443L239.731 89.9478L240.008 89.0512L240.285 89.9478L240.562 89.0512H240.839H241.116L241.393 87.2581H241.67L241.947 88.1547H242.223L242.5 89.0512L242.777 88.1547L243.054 86.3616L243.331 84.5684L243.608 88.1547H243.885L244.162 89.0512L244.439 88.1547H244.716H244.993H245.27L245.547 86.3616L245.824 87.2581L246.101 86.3616H246.378L246.655 85.465H246.932L247.209 83.6719L247.486 85.465L247.763 84.5684L248.039 85.465L248.316 86.3616L248.593 88.1547L248.87 87.2581L249.147 84.5684L249.424 87.2581L249.701 88.1547H249.978L250.255 86.3616L250.532 87.2581H250.809H251.086L251.363 88.1547L251.64 87.2581H251.917L252.194 88.1547H252.471L252.748 89.0512L253.025 89.9478L253.301 89.0512L253.578 88.1547L253.855 89.9478L254.132 90.8443L254.409 93.534L254.686 91.7409H254.963H255.24L255.517 90.8443H255.794H256.071L256.348 91.7409H256.625L256.902 89.9478L257.179 90.8443L257.456 89.9478L257.733 89.0512H258.01H258.287L258.564 88.1547L258.841 89.0512H259.117L259.394 88.1547H259.671L259.948 89.9478L260.225 89.0512L260.502 88.1547L260.779 89.9478L261.056 90.8443L261.333 89.9478L261.61 90.8443H261.887L262.164 89.9478L262.441 89.0512L262.718 89.9478L262.995 89.0512L263.272 88.1547L263.549 89.9478L263.826 89.0512H264.103L264.379 89.9478H264.656H264.933L265.21 89.0512H265.487H265.764L266.041 88.1547L266.318 89.9478L266.595 91.7409L266.872 90.8443H267.149L267.426 89.0512L267.703 89.9478H267.98L268.257 90.8443H268.534L268.811 89.9478L269.088 87.2581L269.365 88.1547L269.642 89.0512L269.918 90.8443L270.195 91.7409L270.472 92.6374H270.749L271.026 91.7409L271.303 92.6374H271.58L271.857 93.534L272.134 92.6374L272.411 93.534L272.688 92.6374H272.965H273.242H273.519L273.796 93.534L274.073 92.6374L274.35 94.4305L274.627 93.534L274.904 92.6374L275.181 94.4305H275.458L275.734 93.534L276.011 94.4305L276.288 95.3271H276.565L276.842 93.534H277.119H277.396H277.673H277.95L278.227 95.3271L278.504 94.4305H278.781H279.058H279.335H279.612H279.889L280.166 95.3271L280.443 88.1547L280.72 95.3271H280.996L281.273 96.2236H281.55L281.827 97.1202L282.104 96.2236L282.381 97.1202L282.658 96.2236H282.935H283.212H283.489L283.766 97.1202H284.043H284.32H284.597H284.874L285.151 95.3271L285.428 97.1202H285.705L285.982 98.0167H286.259L286.536 97.1202L286.812 98.0167H287.089H287.366L287.643 97.1202L287.92 98.0167L288.197 97.1202H288.474H288.751H289.028H289.305L289.582 98.0167L289.859 97.1202L290.136 98.0167L290.413 96.2236L290.69 97.1202H290.967L291.244 96.2236L291.521 97.1202L291.798 98.0167H292.075L292.351 97.1202H292.628L292.905 98.0167L293.182 97.1202H293.459L293.736 98.0167L294.013 98.9133L294.29 97.1202L294.567 98.0167H294.844H295.121H295.398H295.675L295.952 98.9133L296.229 98.0167L296.506 97.1202H296.783H297.06H297.337L297.613 96.2236H297.89H298.167H298.444H298.721H298.998L299.275 97.1202L299.552 98.0167L299.829 97.1202H300.106H300.383H300.66L300.937 95.3271L301.214 96.2236L301.491 97.1202H301.768L302.045 98.0167H302.322H302.599H302.876H303.153H303.429H303.706H303.983L304.26 97.1202H304.537L304.814 98.0167H305.091L305.368 98.9133L305.645 98.0167H305.922H306.199H306.476H306.753H307.03H307.307H307.584L307.861 97.1202H308.138L308.415 98.9133L308.692 96.2236L308.968 97.1202L309.245 98.0167L309.522 96.2236L309.799 97.1202L310.076 98.0167H310.353L310.63 97.1202L310.907 98.0167L311.184 98.9133H311.461L311.738 98.0167H312.015H312.292H312.569H312.846L313.123 98.9133L313.4 98.0167H313.677H313.954L314.231 97.1202L314.507 98.0167L314.784 97.1202L315.061 98.0167H315.338H315.615L315.892 97.1202L316.169 98.0167H316.446H316.723L317 98.9133" stroke="#CED4DA" stroke-width="0.5" stroke-linecap="round" stroke-linejoin="round"/>
</svg>
