<svg width="347" height="106" viewBox="0 0 347 106" fill="none" xmlns="http://www.w3.org/2000/svg">
<path d="M0 105H0.289649H0.579299H0.868948H1.1586H1.44825H1.7379H2.02755H2.3172H2.60684H2.89649H3.18614H3.47579H3.76544H4.05509H4.34474H4.63439H4.92404H5.21369H5.50334H5.79299H6.08264H6.37229H6.66194H6.95159H7.24124H7.53088H7.82053H8.11018H8.39983H8.68948H8.97913H9.26878H9.55843H9.84808H10.1377H10.4274H10.717H11.0067H11.2963H11.586H11.8756H12.1653H12.4549H12.7446H13.0342H13.3239H13.6135H13.9032H14.1928H14.4825H14.7721H15.0618H15.3514H15.6411H15.9307H16.2204H16.51H16.7997H17.0893H17.379H17.6686H17.9583H18.2479H18.5376H18.8272H19.1169H19.4065H19.6962H19.9858H20.2755H20.5651H20.8548H21.1444H21.4341H21.7237H22.0134H22.303H22.5927H22.8823H23.172H23.4616H23.7513H24.0409H24.3306H24.6202H24.9098H25.1995H25.4891H25.7788H26.0684H26.3581H26.6477H26.9374H27.227H27.5167H27.8063H28.096H28.3856H28.6753H28.9649H29.2546H29.5442H29.8339H30.1235H30.4132H30.7028H30.9925H31.2821H31.5718H31.8614H32.1511H32.4407H32.7304H33.02H33.3097H33.5993H33.889H34.1786H34.4683H34.7579H35.0476H35.3372H35.6269H35.9165H36.2062H36.4958H36.7855H37.0751H37.3648H37.6544H37.9441H38.2337H38.5234H38.813H39.1027H39.3923H39.682H39.9716H40.2613H40.5509H40.8406H41.1302H41.4199H41.7095H41.9992H42.2888H42.5785H42.8681H43.1578H43.4474H43.7371H44.0267H44.3164H44.606H44.8957H45.1853H45.475H45.7646H46.0543H46.3439H46.6336H46.9232H47.2129H47.5025H47.7922H48.0818H48.3715H48.6611H48.9508H49.2404H49.5301H49.8197H50.1094H50.399H50.6886H50.9783H51.2679H51.5576H51.8472H52.1369H52.4265H52.7162H53.0058H53.2955H53.5851H53.8748H54.1644H54.4541H54.7437H55.0334H55.323H55.6127H55.9023H56.192H56.4816H56.7713H57.0609H57.3506H57.6402H57.9299H58.2195H58.5092H58.7988H59.0885H59.3781H59.6678H59.9574H60.2471H60.5367H60.8264H61.116H61.4057H61.6953H61.985H62.2746H62.5643H62.8539H63.1436H63.4332H63.7229H64.0125H64.3022H64.5918H64.8815H65.1711H65.4608H65.7504H66.0401H66.3297H66.6194H66.909H67.1987H67.4883H67.778H68.0676H68.3573H68.6469H68.9366H69.2262H69.5159H69.8055H70.0952H70.3848H70.6745H70.9641H71.2538H71.5434H71.8331H72.1227H72.4124H72.702H72.9917H73.2813H73.571H73.8606H74.1503H74.4399H74.7295H75.0192H75.3089H75.5985H75.8881H76.1778H76.4674H76.7571H77.0467H77.3364H77.626H77.9157H78.2053H78.495H78.7846H79.0743H79.3639H79.6536H79.9432H80.2329H80.5225H80.8122H81.1018H81.3915H81.6811H81.9708H82.2604H82.5501H82.8397H83.1294H83.419H83.7087H83.9983H84.288H84.5776H84.8673H85.1569H85.4466H85.7362H86.0259H86.3155H86.6052H86.8948H87.1845H87.4741H87.7638H88.0534H88.3431H88.6327H88.9224H89.212H89.5017H89.7913H90.081H90.3706H90.6603H90.9499H91.2396H91.5292H91.8189H92.1085H92.3982H92.6878H92.9775H93.2671H93.5568H93.8464H94.1361H94.4257H94.7154H95.005H95.2947H95.5843H95.874H96.1636H96.4532H96.7429H97.0326H97.3222H97.6119H97.9015H98.1911H98.4808H98.7704H99.0601H99.3497H99.6394H99.929L100.219 104.947L100.508 105H100.798H101.088H101.377L101.667 104.973L101.957 104.841L102.246 105H102.536H102.826H103.115H103.405H103.694H103.984H104.274H104.563L104.853 104.973L105.143 105H105.432H105.722H106.012H106.301H106.591H106.881H107.17H107.46H107.75H108.039L108.329 92.5615L108.619 98.9402L108.908 97.3455L109.198 102.475L109.487 100.402L109.777 99.711L110.067 98.8339L110.356 99.9767L110.646 99.6312L110.936 98.6478L111.225 101.465L111.515 101.252L111.805 98.6744L112.094 98.4352L112.384 99.2326L112.674 100.056L112.963 98.0365L113.253 102.103L113.543 101.651L113.832 97.9568L114.122 95.6711L114.412 1L114.701 96.7608L114.991 96.8405L115.28 97.3987L115.57 95.5116L115.86 97.0532L116.149 96.2824L116.439 98.0365L116.729 98.8073L117.018 97.1595L117.308 100.535L117.598 99.9767L117.887 98.4086L118.177 97.9568L118.467 99.2326L118.756 98.4884L119.046 99.2591L119.336 99.2857L119.625 101.465L119.915 99.4452L120.205 99.7641L120.494 100.455L120.784 99.9767L121.073 98.6744L121.363 100.827L121.653 102.13L121.942 99.0465L122.232 99.4983L122.522 99.0465L122.811 98.5415L123.101 99.8173L123.391 98.7276L123.68 102.076L123.97 100.163L124.26 100.189L124.549 98.7807L124.839 100.296L125.129 98.8073L125.418 100.854L125.708 102.076L125.997 99.1794L126.287 100.056L126.577 99.1528L126.866 98.0897L127.156 98.6213L127.446 101.146L127.735 97.3721L128.025 100.455L128.315 98.9136L128.604 99.897L128.894 100.03L129.184 100.508L129.473 101.598L129.763 102.103L130.053 98.9136L130.342 100.827L130.632 99.2857L130.922 98.515L131.211 100.535L131.501 101.731L131.79 101.279L132.08 99.1794L132.37 99.2857L132.659 96.7608L132.949 98.2226L133.239 100.668L133.528 100.269L133.818 100.375L134.108 100.243L134.397 97.8505L134.687 99.0465L134.977 99.8704L135.266 100.163L135.556 100.482L135.846 100.615L136.135 97.5847L136.425 99.4718L136.715 98.5415L137.004 100.003L137.294 99.4983L137.583 100.056L137.873 101.093L138.163 100.296L138.452 99.8439L138.742 99.1528L139.032 98.3555L139.321 98.7807L139.611 101.837L139.901 97.7973L140.19 99.0199L140.48 99.7641L140.77 99.4983L141.059 100.11L141.349 100.748L141.639 101.704L141.928 101.678L142.218 99.4186L142.508 99.206L142.797 98.0897L143.087 97.5581L143.376 99.0731L143.666 99.711L143.956 101.412L144.245 98.9668L144.535 100.083L144.825 99.897L145.114 98.2757L145.404 100.88L145.694 101.465L145.983 101.279L146.273 99.2326L146.563 99.8439L146.852 99.0731L147.142 97.5847L147.432 95.3522L147.721 98.9934L148.011 100.482L148.3 98.887L148.59 97.2658L148.88 98.6213L149.169 98.0365L149.459 99.4186L149.749 98.196L150.038 96.814L150.328 96.7874L150.618 97.6645L150.907 96.4684L151.197 99.1528L151.487 98.4086L151.776 99.8704L152.066 101.997L152.356 99.4718L152.645 99.7375L152.935 98.2492L153.225 100.934L153.514 99.2857L153.804 101.465L154.093 100.641L154.383 99.6578L154.673 100.88L154.962 100.535L155.252 99.4718L155.542 99.6844L155.831 101.226L156.121 101.571L156.411 99.3389L156.7 96.3887L156.99 99.4186L157.28 98.1694L157.569 99.392L157.859 101.385L158.149 102.209L158.438 98.196L158.728 97.9568L159.018 95.7774L159.307 98.8339L159.597 99.9502L159.886 100.827L160.176 102.156L160.466 100.535L160.755 98.3821L161.045 98.6213L161.335 99.392L161.624 99.5249L161.914 99.4452H162.204L162.493 98.7542L162.783 99.7641L163.073 98.701L163.362 99.8704L163.652 98.1694L163.942 101.651L164.231 100.615L164.521 97.0532L164.811 100.88L165.1 102.821L165.39 96.7608L165.679 96.8937L165.969 101.093L166.259 100.056L166.548 98.8605L166.838 99.897L167.128 99.206L167.417 99.4452L167.707 100.721L167.997 101.226L168.286 101.757L168.576 99.9767L168.866 101.226L169.155 101.731L169.445 100.429L169.735 99.4983L170.024 100.508L170.314 98.9668L170.604 98.8073L170.893 99.9767L171.183 97.505L171.472 99.0731L171.762 98.4352L172.052 101.04L172.341 99.6312L172.631 98.3023L172.921 100.11L173.21 97.3721L173.5 97.4518L173.79 99.5515L174.079 100.641L174.369 99.5249L174.659 99.206L174.948 99.3654L175.238 99.0997L175.528 98.0365L175.817 98.9402L176.107 99.4983L176.396 99.1794L176.686 97.5581L176.976 98.2226L177.265 97.5581L177.555 98.1429L177.845 97.7973L178.134 101.226L178.424 99.8704L178.714 96.4684L179.003 97.186L179.293 97.1595L179.583 96.2027L179.872 97.0797L180.162 98.3289L180.452 100.003L180.741 97.0532L181.031 98.7542L181.321 96.3887L181.61 98.9136L181.9 97.6113L182.189 98.2757L182.479 98.6744L182.769 97.0532L183.058 96.2558L183.348 98.3289L183.638 98.3821L183.927 98.7807L184.217 99.7375L184.507 99.2591L184.796 96.6013L185.086 95.8571L185.376 96.4419L185.665 96.9203L185.955 90.6213L186.245 95.4053L186.534 95.9635L186.824 95.6445L187.114 95.99L187.403 97.3455L187.693 98.3555L187.982 95.804L188.272 97.9834L188.562 99.4452L188.851 97.0532L189.141 97.9037L189.431 96.4153L189.72 96.3356L190.01 97.0532L190.3 98.01L190.589 99.3654L190.879 97.1595L191.169 98.701L191.458 97.3189L191.748 97.505L192.038 96.7342L192.327 99.6312L192.617 99.2326L192.907 94.6611L193.196 96.1229L193.486 97.0266L193.775 96.6811L194.065 96.3887L194.355 99.1528L194.644 98.9402L194.934 97.2392L195.224 97.0797L195.513 96.3621L195.803 97.7708L196.093 95.6445L196.382 99.8704L196.672 99.8173L196.962 96.8671L197.251 96.495L197.541 96.2027L197.831 97.8505L198.12 96.9203L198.41 99.1528L198.699 98.4618L198.989 96.5748L199.279 97.2392L199.568 95.9635L199.858 96.9468L200.148 98.4884L200.437 99.6312L200.727 98.887L201.017 97.7176L201.306 96.4153L201.596 97.7708L201.886 97.505L202.175 95.4851L202.465 100.243L202.755 100.482L203.044 98.2492L203.334 99.1262L203.624 97.4518L203.913 97.2126L204.203 96.7608L204.492 99.1528L204.782 99.2857L205.072 97.505L205.361 98.4884L205.651 99.6047L205.941 99.8173L206.23 96.9203L206.52 101.279L206.81 101.784L207.099 97.0266L207.389 97.2924L207.679 97.4253L207.968 97.5581L208.258 99.9236L208.548 100.375L208.837 101.12L209.127 98.3023L209.417 97.0266L209.706 96.4684L209.996 97.3987L210.285 98.8605L210.575 100.88L210.865 101.199L211.154 96.5482L211.444 95.4319L211.734 96.7608L212.023 96.9468L212.313 99.2326L212.603 100.003L212.892 98.0897L213.182 96.6013L213.472 101.093L213.761 94.1561L214.051 97.5316L214.341 99.5515L214.63 98.9934L214.92 100.88L215.21 99.7641L215.499 99.9767L215.789 98.3023L216.078 99.3389L216.368 98.6744L216.658 101.625L216.947 100.668L217.237 97.9834L217.527 98.9934L217.816 97.7442L218.106 98.7276L218.396 99.3654L218.685 100.748L218.975 100.934L219.265 100.11L219.554 99.5515L219.844 97.3987L220.134 98.887L220.423 97.2658L220.713 101.837L221.002 101.013L221.292 99.1794L221.582 99.1528L221.871 98.1694L222.161 98.4618L222.451 99.1794L222.74 101.784L223.03 102.05L223.32 98.2492L223.609 99.3123L223.899 97.505L224.189 97.3189L224.478 99.0465L224.768 101.678L225.058 101.837L225.347 99.4983L225.637 97.7708L225.927 97.9037L226.216 96.7874L226.506 99.1528L226.795 101.173L227.085 101.385L227.375 98.4352L227.664 97.2126L227.954 97.6379L228.244 98.1163L228.533 97.0266L228.823 100.535L229.113 100.774L229.402 98.3555L229.692 99.8439L229.982 98.196L230.271 98.515L230.561 99.9236L230.851 101.492L231.14 101.571L231.43 99.6844L231.72 98.5947L232.009 99.9236L232.299 100.163L232.588 99.897L232.878 101.944L233.168 101.199L233.457 99.2857L233.747 99.711L234.037 98.01L234.326 98.4618L234.616 98.701L234.906 101.12L235.195 100.535L235.485 97.5581L235.775 99.3654L236.064 96.9468L236.354 97.9302L236.644 97.3987L236.933 100.455L237.223 100.056L237.513 98.3555L237.802 98.2757L238.092 97.4518L238.381 97.2924L238.671 99.1262L238.961 101.199L239.25 102.475L239.54 98.7276L239.83 100.561L240.119 98.1694L240.409 98.3821L240.699 99.392L240.988 102.076L241.278 102.635L241.568 99.0199L241.857 99.5781L242.147 99.1262L242.437 99.9236L242.726 98.3289L243.016 101.944L243.305 102.236L243.595 97.691L243.885 99.206L244.174 98.9402L244.464 99.3389L244.754 100.402L245.043 102.13L245.333 102.369L245.623 99.4186L245.912 99.5515L246.202 99.8704L246.492 98.5947L246.781 97.8771L247.071 100.083L247.361 102.502L247.65 98.515L247.94 99.1528L248.23 97.2392L248.519 98.8073L248.809 98.1163L249.098 102.103L249.388 101.306L249.678 99.1794L249.967 99.3654L250.257 98.7542L250.547 97.6379L250.836 99.206L251.126 102.103L251.416 101.97L251.705 98.196L251.995 100.083L252.285 98.515L252.574 97.691L252.864 96.0432L253.154 101.013L253.443 101.598L253.733 98.3555L254.023 99.3654L254.312 97.0532L254.602 97.7708L254.891 97.1595L255.181 101.146L255.471 101.837L255.76 97.5847L256.05 98.5947L256.34 98.6744L256.629 97.5316L256.919 99.1262L257.209 101.252L257.498 102.449L257.788 98.3555L258.078 99.4718L258.367 99.9502L258.657 97.9037L258.947 98.4086L259.236 101.997L259.526 100.561L259.816 97.9568L260.105 98.01L260.395 97.4253L260.684 98.3555L260.974 97.8239L261.264 101.199L261.553 102.13L261.843 100.508L262.133 96.8405L262.422 97.4518L262.712 98.6213L263.002 96.5216L263.291 101.837L263.581 101.252L263.871 96.9734L264.16 97.691L264.45 98.4618L264.74 98.6744L265.029 99.7907L265.319 102.475L265.609 101.864L265.898 98.8073L266.188 98.9136L266.477 98.6744L266.767 97.3189L267.057 97.9037L267.346 101.226L267.636 100.694L267.926 99.1528L268.215 98.9402L268.505 95.804L268.795 96.3621L269.084 98.0897L269.374 101.97L269.664 102.183L269.953 97.7973L270.243 97.7176L270.533 97.186L270.822 97.7442L271.112 98.8339L271.401 102.236L271.691 102.847L271.981 101.226L272.27 101.518L272.56 101.226L272.85 100.668L273.139 100.083L273.429 101.784L273.719 103.272L274.008 101.173L274.298 100.615L274.588 99.5515L274.877 97.9834L275.167 100.721L275.457 100.774L275.746 102.502L276.036 99.206L276.326 98.7542L276.615 99.5249L276.905 98.5947L277.194 100.216L277.484 103.086L277.774 100.854L278.063 99.5249L278.353 98.515L278.643 99.0997L278.932 97.8239L279.222 101.12L279.512 102.076L279.801 102.555L280.091 100.296L280.381 98.887L280.67 98.701L280.96 100.375L281.25 100.003L281.539 101.837L281.829 102.183L282.119 99.206L282.408 98.0897L282.698 98.887L282.987 99.8704L283.277 100.163L283.567 102.209L283.856 102.156L284.146 97.5581L284.436 97.8505L284.725 97.3189L285.015 97.7442L285.305 97.7973L285.594 101.917L285.884 101.864L286.174 100.11L286.463 99.2326L286.753 99.9236L287.043 98.8605L287.332 99.392L287.622 100.668L287.912 102.821L288.201 99.6312L288.491 100.003L288.78 99.4186L289.07 97.7176L289.36 99.0199L289.649 101.332L289.939 102.422L290.229 99.5515L290.518 99.9767L290.808 100.748L291.098 100.322L291.387 100.402L291.677 102.528L291.967 101.651L292.256 98.3821L292.546 96.9734L292.836 99.1794L293.125 99.6047L293.415 100.189L293.704 102.794L293.994 101.97L294.284 99.4186L294.573 99.897L294.863 99.4983L295.153 98.8605L295.442 97.5847L295.732 102.183L296.022 102.874L296.311 100.375L296.601 99.392L296.891 100.056L297.18 100.216L297.47 98.9934L297.76 101.066L298.049 102.023L298.339 98.6213L298.629 97.1595L298.918 100.535L299.208 98.3555L299.497 99.2591L299.787 102.13L300.077 102.395L300.366 98.8073L300.656 99.4452L300.946 99.0731L301.235 99.4983L301.525 101.279L301.815 100.535L302.104 102.555L302.394 101.492L302.684 97.3189L302.973 99.2857L303.263 99.1528L303.553 99.3123L303.842 100.243L304.132 102.209L304.422 100.269L304.711 99.9767L305.001 99.1794L305.29 99.206L305.58 99.0997L305.87 102.635L306.159 102.076L306.449 98.7542L306.739 100.083L307.028 100.11L307.318 100.455L307.608 101.359L307.897 102.236L308.187 102.741L308.477 100.88L308.766 100.429L309.056 101.226L309.346 98.4884L309.635 100.508L309.925 102.103L310.215 100.163L310.504 99.6047L310.794 96.2027L311.083 98.6744L311.373 98.7276L311.663 98.8073L311.952 101.811L312.242 102.502L312.532 98.2226L312.821 96.3356L313.111 99.5249L313.401 98.6744L313.69 96.4153L313.98 102.103L314.27 102.714L314.559 99.8704L314.849 97.5581L315.139 98.7807L315.428 98.0365L315.718 98.3023L316.008 102.342L316.297 102.821L316.587 100.163L316.876 99.7375L317.166 97.1329L317.456 98.7807L317.745 99.206L318.035 101.518L318.325 102.103L318.614 97.3987L318.904 99.1262L319.194 97.7973L319.483 97.8505L319.773 99.4186L320.063 101.784L320.352 102.262L320.642 99.3654L320.932 99.0997L321.221 97.0532L321.511 99.1528L321.8 98.7276L322.09 101.625L322.38 101.704L322.669 99.9502L322.959 99.0199L323.249 99.206L323.538 101.093L323.828 100.375L324.118 102.821L324.407 101.89L324.697 97.2126L324.987 99.0199L325.276 96.2027L325.566 98.887L325.856 99.2326L326.145 102.741L326.435 102.289L326.725 98.8605L327.014 99.9236L327.304 97.9302L327.593 98.5415L327.883 98.4884L328.173 102.555L328.462 102.661L328.752 96.2027L329.042 98.9136L329.331 98.1694L329.621 99.4983L329.911 99.7907L330.2 101.944L330.49 101.837L330.78 99.7641L331.069 99.0465L331.359 98.7807L331.649 99.8704L331.938 97.9568L332.228 101.146L332.518 102.475L332.807 98.0365L333.097 99.2591L333.386 97.9302L333.676 99.206L333.966 100.641L334.255 101.598L334.545 102.236L334.835 100.269L335.124 100.056L335.414 99.6047L335.704 99.1262L335.993 99.0997L336.283 101.279L336.573 101.598L336.862 100.429L337.152 98.3023L337.442 98.4618L337.731 99.4718L338.021 101.173L338.311 103.033L338.6 102.581L338.89 100.402L339.179 101.518L339.469 100.269L339.759 100.056L340.048 98.8073L340.338 102.076L340.628 102.635L340.917 99.7907L341.207 97.8505L341.497 99.0465L341.786 100.827L342.076 99.392L342.366 102.953L342.655 102.103L342.945 99.4983L343.235 97.3189L343.524 99.9502L343.814 97.3987L344.103 99.1262L344.393 101.385L344.683 102.502L344.972 100.588L345.262 99.1262L345.552 100.189L345.841 100.083L346.131 98.2492L346.421 103.565L346.71 103.857L347 100.402" stroke="#CED4DA" style="stroke:#CED4DA;stroke:color(display-p3 0.8078 0.8314 0.8549);stroke-opacity:1;" stroke-width="0.5" stroke-linecap="round" stroke-linejoin="round"/>
</svg>
