<svg width="347" height="106" viewBox="0 0 347 106" fill="none" xmlns="http://www.w3.org/2000/svg">
<path d="M0 105H0.289649H0.579299H0.868948H1.1586H1.44825H1.7379H2.02755H2.3172H2.60684H2.89649H3.18614L3.47579 105L3.76544 105H4.05509L4.34474 105L4.63439 105L4.92404 105L5.21369 105H5.50334L5.79299 104.999L6.08264 105L6.37229 105L6.66194 105L6.95159 105L7.24124 105H7.53089L7.82053 105H8.11018L8.39983 105L8.68948 105L8.97913 105L9.26878 105L9.55843 105L9.84808 105L10.1377 105L10.4274 105L10.717 105L11.0067 105L11.2963 105L11.586 105L11.8756 104.999L12.1653 105L12.4549 105L12.7446 105L13.0342 105L13.3239 105L13.6135 105L13.9032 105L14.1928 104.982L14.4825 104.985L14.7721 104.992L15.0618 104.994L15.3514 104.991L15.6411 104.925L15.9307 104.996L16.2204 104.994L16.51 104.993L16.7997 104.996L17.0893 104.997L17.379 104.994L17.6686 104.995L17.9583 104.995L18.2479 104.996L18.5376 104.986L18.8272 104.989L19.1169 104.983L19.4065 104.99L19.6962 104.989L19.9858 104.989L20.2755 104.989L20.5651 104.987L20.8548 104.986L21.1444 104.987L21.4341 104.946L21.7237 104.984L22.0134 104.982L22.303 104.98L22.5927 104.935L22.8823 104.966L23.172 104.972L23.4616 104.982L23.7513 104.975L24.0409 104.99L24.3306 104.985L24.6202 104.985L24.9099 104.983L25.1995 104.98L25.4891 104.982L25.7788 104.978L26.0684 104.982L26.3581 104.975L26.6477 104.976L26.9374 104.976L27.227 104.947L27.5167 104.961L27.8063 104.969L28.096 104.967L28.3856 104.975L28.6753 104.975L28.9649 104.935L29.2546 104.968L29.5442 104.868L29.8339 104.959L30.1235 104.946L30.4132 104.915L30.7028 104.921L30.9925 104.917L31.2821 104.921L31.5718 104.943L31.8614 104.962L32.1511 104.895L32.4407 104.954L32.7304 104.935L33.02 104.952L33.3097 104.936L33.5993 104.861L33.889 103.549L34.1786 104.838L34.4683 104.808L34.7579 104.742L35.0476 104.806L35.3372 104.759L35.6269 104.687L35.9165 104.7L36.2062 104.805L36.4958 104.795L36.7855 104.774L37.0751 104.798L37.3648 104.794L37.6544 104.771L37.9441 104.778L38.2337 104.774L38.5234 104.783L38.813 104.775L39.1027 104.758L39.3923 104.788L39.682 104.799L39.9716 104.784L40.2613 104.778L40.5509 104.803L40.8406 104.838L41.1302 104.861L41.4199 104.853L41.7095 104.833L41.9992 104.835L42.2888 104.865L42.5785 104.86L42.8681 104.882L43.1578 104.893L43.4474 104.858L43.7371 104.863L44.0267 104.849L44.3164 104.866L44.606 104.774L44.8957 104.868L45.1853 104.832L45.475 104.712L45.7646 104.542L46.0543 104.495L46.3439 104.809L46.6336 104.83L46.9232 104.742L47.2129 104.689L47.5025 104.785L47.7922 104.741L48.0818 104.742L48.3715 104.76L48.6611 104.764L48.9508 104.792L49.2404 104.855L49.53 104.82L49.8197 104.823L50.1093 104.829L50.399 104.816L50.6887 104.798L50.9783 104.801L51.2679 104.783L51.5576 104.729L51.8472 104.659L52.1369 104.735L52.4265 104.768L52.7162 104.791L53.0058 104.65L53.2955 104.446L53.5851 103.518L53.8748 103.779L54.1644 103.591L54.4541 103.786L54.7437 103.715L55.0334 103.736L55.323 103.705L55.6127 103.45L55.9023 103.769L56.192 103.532L56.4816 103.543L56.7713 103.559L57.0609 103.595L57.3506 103.452L57.6402 103.529L57.9299 103.6L58.2195 103.848L58.5092 104.4L58.7988 104.413L59.0885 104.407L59.3781 104.402L59.6678 104.334L59.9574 104.429L60.2471 104.553L60.5367 104.568L60.8264 104.526L61.116 104.56L61.4057 104.568L61.6953 104.608L61.985 104.618L62.2746 104.614L62.5643 104.555L62.8539 104.544L63.1436 104.475L63.4332 104.499L63.7229 104.475L64.0125 104.507L64.3022 104.455L64.5918 104.531L64.8815 104.485L65.1711 104.338L65.4608 104.388L65.7504 104.385L66.0401 104.397L66.3297 104.45L66.6194 104.644L66.909 104.604L67.1987 104.341L67.4883 104.214L67.778 104.222L68.0676 102.61L68.3573 102.34L68.6469 104.385L68.9366 104.353L69.2262 104.356L69.5159 104.23L69.8055 104.232L70.0952 104.21L70.3848 103.998L70.6745 104.207L70.9641 104.254L71.2538 104.27L71.5434 104.291L71.8331 104.327L72.1227 104.31L72.4124 104.209L72.702 104.296L72.9917 104.267L73.2813 104.216L73.571 104.237L73.8606 104.065L74.1503 104.12L74.4399 104L74.7295 104.099L75.0192 104.234L75.3088 103.962L75.5985 103.788L75.8881 104.115L76.1778 104.07L76.4674 103.937L76.7571 104.007L77.0467 103.882L77.3364 103.709L77.626 103.719L77.9157 103.721L78.2053 103.657L78.495 103.79L78.7846 103.85L79.0743 103.612L79.3639 103.514L79.6536 102.858L79.9432 103.447L80.2329 103.293L80.5225 103.366L80.8122 103.509L81.1018 103.337L81.3915 103.384L81.6811 103.314L81.9708 103.321L82.2604 103.121L82.5501 103.179L82.8397 103.253L83.1294 103.001L83.419 102.977L83.7087 102.606L83.9983 101.662L84.288 101.983L84.5776 101.703L84.8673 102.007L85.1569 101.249L85.4466 101.513L85.7362 102.975L86.0259 102.422L86.3155 102.893L86.6052 103.096L86.8948 102.864L87.1845 102.835L87.4741 102.562L87.7638 103.137L88.0534 102.655L88.3431 102.478L88.6327 102.309L88.9224 102.555L89.212 102.917L89.5017 101.897L89.7913 102.607L90.081 102.094L90.3706 102.318L90.6603 102.202L90.9499 102.657L91.2396 102.368L91.5292 102.387L91.8189 101.813L92.1085 100.537L92.3982 101.556L92.6878 101.795L92.9775 102.553L93.2671 100.554L93.5568 101.021L93.8464 101.085L94.1361 101.531L94.4257 100.286L94.7154 97.7991L95.005 99.9322L95.2947 97.7757L95.5843 92.5305L95.874 91.24L96.1636 88.8805L96.4533 91.2327L96.7429 90.0618L97.0326 86.3879L97.3222 85.1314L97.6119 88.3552L97.9015 85.932L98.1912 89.9542L98.4808 88.4312L98.7704 73.6321L99.0601 71.6969L99.3498 70.373L99.6394 65.2943L99.9291 71.3342L100.219 64.4685L100.508 67.0541L100.798 62.0286L101.088 59.0107L101.377 62.5646L101.667 57.6186L101.957 42.204L102.246 27.2426L102.536 43.196L102.826 47.2145L103.115 39.7182L103.405 46.5869L103.694 43.0178L103.984 32.9589L104.274 35.9834L104.563 31.6051L104.853 23.5685L105.143 32.7015L105.432 23.5353L105.722 32.3279L106.012 28.1442L106.301 30.1088L106.591 38.8038L106.881 33.1721L107.17 21.5276L107.46 30.7406L107.75 35.06L108.039 33.2359L108.329 37.3874L108.619 29.2994L108.908 23.1982L109.198 34.752L109.487 24.647L109.777 22.2676L110.067 20.7673L110.356 1L110.646 4.42618L110.936 22.6923L111.225 26.9051L111.515 33.1632L111.805 12.5154L112.094 9.61821L112.384 29.0273L112.674 20.1073L112.963 46.9787L113.253 39.4454L113.543 36.9394L113.832 30.8011L114.122 15.3567L114.412 14.3971L114.701 11.7496L114.991 37.5219L115.28 34.2002L115.57 39.1851L115.86 49.0115L116.149 36.9198L116.439 47.3152L116.729 38.4198L117.018 27.6216L117.308 25.2148L117.598 29.8317L117.887 23.0875L118.177 35.3416L118.467 40.9778L118.756 42.3435L119.046 36.6807L119.336 41.7947L119.625 53.5499L119.915 44.7272L120.205 34.7795L120.494 39.5628L120.784 47.322L121.073 37.1513L121.363 43.7273L121.653 46.9796L121.942 33.5509L122.232 42.4975L122.522 38.1008L122.811 35.3813L123.101 43.4799L123.391 54.5153L123.68 55.6829L123.97 56.3903L124.26 51.0913L124.549 56.0747L124.839 52.2906L125.129 57.7061L125.418 50.5126L125.708 37.8662L125.997 34.564L126.287 39.4368L126.577 41.2251L126.866 52.025L127.156 47.7765L127.446 53.8929L127.735 55.716L128.025 49.5087L128.315 50.5806L128.604 49.86L128.894 48.4821L129.184 41.4794L129.473 44.531L129.763 36.4259L130.053 32.7113L130.342 26.1243L130.632 34.4538L130.922 41.2824L131.211 53.8176L131.501 44.329L131.79 41.2434L132.08 39.4612L132.37 35.4935L132.659 31.5012L132.949 30.3363L133.239 34.6456L133.528 38.4962L133.818 42.4052L134.108 31.0702L134.397 21.7747L134.687 29.4822L134.977 25.5024L135.266 29.3422L135.556 33.3214L135.846 37.3319L136.135 36.9494L136.425 34.0382L136.715 36.9444L137.004 41.5017L137.294 42.4655L137.583 43.031L137.873 42.9036L138.163 29.8108L138.452 30.0389L138.742 33.0496L139.032 37.0221L139.321 29.1603L139.611 32.5874L139.901 24.8164L140.19 26.7753L140.48 30.1826L140.77 39.5091L141.059 31.1731L141.349 36.8034L141.639 37.8447L141.928 36.2649L142.218 43.4123L142.508 49.7185L142.797 63.8478L143.087 63.3201L143.376 62.7908L143.666 71.9684L143.956 69.1789L144.245 68.4809L144.535 69.6655L144.825 66.0516L145.114 64.7163L145.404 60.8881L145.694 70.9863L145.983 72.3909L146.273 53.9292L146.563 57.6196L146.852 64.6184L147.142 67.4978L147.432 65.4223L147.721 67.6548L148.011 67.24L148.301 57.3002L148.59 59.9851L148.88 57.525L149.169 52.5184L149.459 30.7493L149.749 61.3369L150.038 66.4402L150.328 58.5203L150.618 57.431L150.907 57.9128L151.197 66.4148L151.487 66.7745L151.776 73.3336L152.066 72.6698L152.356 54.1145L152.645 64.9225L152.935 56.7566L153.225 58.7757L153.514 59.9419L153.804 68.1113L154.093 66.8895L154.383 59.4403L154.673 57.456L154.962 63.6012L155.252 59.2268L155.542 62.0337L155.831 66.5863L156.121 67.2128L156.411 60.3838L156.7 61.3406L156.99 57.6272L157.28 53.8148L157.569 50.6268L157.859 60.5263L158.149 60.1181L158.438 57.8363L158.728 57.0084L159.018 61.8769L159.307 57.8613L159.597 60.4036L159.886 55.3088L160.176 74.2029L160.466 66.3729L160.755 64.4686L161.045 66.8316L161.335 59.9356L161.624 62.4768L161.914 68.5731L162.204 69.8208L162.493 55.4823L162.783 65.34L163.073 61.9693L163.362 68.3462L163.652 69.9521L163.942 72.5172L164.231 62.0352L164.521 68.1439L164.811 69.7135L165.1 66.4924L165.39 66.487L165.679 66.299L165.969 75.9995L166.259 72.3075L166.548 68.6721L166.838 64.1672L167.128 66.0678L167.417 64.9137L167.707 58.8902L167.997 59.184L168.286 58.5003L168.576 53.4435L168.866 60.3L169.155 64.0872L169.445 63.2275L169.735 63.6488L170.024 72.5557L170.314 72.7382L170.604 66.0433L170.893 67.6994L171.183 57.4864L171.472 64.9499L171.762 68.9816L172.052 71.7682L172.341 69.191L172.631 67.3826L172.921 77.1374L173.21 79.2454L173.5 74.8519L173.79 73.0252L174.079 72.5354L174.369 72.4991L174.659 71.7656L174.948 72.392L175.238 70.036L175.528 67.708L175.817 69.6671L176.107 71.6596L176.396 72.8363L176.686 70.528L176.976 68.6904L177.265 67.2194L177.555 62.858L177.845 65.0556L178.134 70.5463L178.424 70.1584L178.714 65.4029L179.003 58.9255L179.293 65.3198L179.583 62.5146L179.872 65.9892L180.162 68.5592L180.452 67.9426L180.741 65.3275L181.031 67.7119L181.321 68.3723L181.61 73.2045L181.9 75.0375L182.189 73.7141L182.479 75.6623L182.769 73.5277L183.058 73.0178L183.348 77.0014L183.638 72.1722L183.927 76.3492L184.217 80.6334L184.507 76.1296L184.796 73.1994L185.086 69.4823L185.376 72.228L185.665 74.6162L185.955 70.1618L186.245 76.19L186.534 73.9682L186.824 72.7331L187.114 71.4553L187.403 70.7417L187.693 80.4693L187.982 78.3489L188.272 76.8363L188.562 78.2214L188.851 75.0172L189.141 73.5593L189.431 71.3898L189.72 72.1954L190.01 71.7222L190.3 72.0899L190.589 72.78L190.879 72.932L191.169 68.7724L191.458 69.427L191.748 68.4194L192.038 70.6463L192.327 75.6472L192.617 73.2501L192.907 69.6292L193.196 70.1588L193.486 71.683L193.775 70.324L194.065 70.8462L194.355 70.9836L194.644 70.1687L194.934 68.346L195.224 68.8518L195.513 68.3288L195.803 68.9001L196.093 67.8907L196.382 72.3236L196.672 72.0679L196.962 67.2855L197.251 66.9879L197.541 69.3006L197.831 68.1525L198.12 66.2679L198.41 66.8317L198.7 67.2428L198.989 65.6461L199.279 68.2478L199.568 67.8508L199.858 67.687L200.148 67.3395L200.437 71.6112L200.727 69.4949L201.017 65.6775L201.306 67.9253L201.596 66.0283L201.886 65.8575L202.175 61.2591L202.465 63.2367L202.755 68.9503L203.044 70.0594L203.334 71.3902L203.624 67.8387L203.913 65.3422L204.203 66.3644L204.492 69.9139L204.782 66.2161L205.072 57.789L205.361 67.1325L205.651 62.5754L205.941 59.0541L206.23 59.3279L206.52 66.5244L206.81 73.2319L207.099 68.0013L207.389 73.3926L207.679 71.904L207.968 72.1416L208.258 72.8845L208.548 76.0027L208.837 76.5941L209.127 73.0698L209.417 74.0043L209.706 71.4537L209.996 70.7654L210.285 64.8175L210.575 73.6222L210.865 77.8192L211.154 73.7573L211.444 72.955L211.734 71.8288L212.023 74.6438L212.313 75.3477L212.603 75.8612L212.892 75.6936L213.182 73.3066L213.472 72.1415L213.761 73.1486L214.051 73.4567L214.341 70.7869L214.63 69.9278L214.92 70.4017L215.21 61.7046L215.499 64.3566L215.789 65.1597L216.078 69.8908L216.368 73.5829L216.658 66.4334L216.947 71.1067L217.237 70.1939L217.527 70.1762L217.816 71.3885L218.106 69.9159L218.396 68.4905L218.685 74.3884L218.975 75.8372L219.265 71.1995L219.554 72.854L219.844 70.1852L220.134 69.0144L220.423 73.4559L220.713 78.4652L221.003 77.1083L221.292 74.2326L221.582 72.9249L221.871 73.9755L222.161 75.9832L222.451 73.3898L222.74 79.8408L223.03 80.4857L223.32 76.1083L223.609 73.1224L223.899 74.1287L224.189 73.4625L224.478 70.5819L224.768 76.703L225.058 74.4617L225.347 69.5457L225.637 72.0656L225.927 72.4328L226.216 71.8285L226.506 72.5737L226.795 74.6045L227.085 76.1825L227.375 71.0424L227.664 72.3976L227.954 73.1097L228.244 71.9091L228.533 70.6622L228.823 72.3284L229.113 73.8452L229.402 70.0491L229.692 75.9951L229.982 73.3695L230.271 74.3353L230.561 71.4544L230.851 75.8693L231.14 77.0848L231.43 71.6575L231.72 73.2195L232.009 70.5158L232.299 66.903L232.588 71.2848L232.878 70.0294L233.168 73.7341L233.457 69.9805L233.747 74.0433L234.037 70.1772L234.326 73.1717L234.616 67.2083L234.906 71.9118L235.195 73.7442L235.485 71.9343L235.775 71.367L236.064 72.26L236.354 70.6344L236.644 70.2125L236.933 75.3851L237.223 76.3183L237.513 74.8615L237.802 64.8805L238.092 73.3099L238.381 68.4492L238.671 74.953L238.961 76.7375L239.25 78.9359L239.54 74.387L239.83 73.7375L240.119 70.5012L240.409 74.8085L240.699 72.1569L240.988 77.147L241.278 77.5003L241.568 73.8533L241.857 73.1736L242.147 75.3063L242.437 71.0892L242.726 73.8387L243.016 79.7604L243.306 76.1338L243.595 75.037L243.885 75.5081L244.174 71.7349L244.464 73.8349L244.754 73.6741L245.043 78.3917L245.333 78.7063L245.623 73.7227L245.912 70.6775L246.202 70.6219L246.492 72.4118L246.781 71.1629L247.071 76.628L247.361 74.4765L247.65 71.2485L247.94 74.2659L248.23 73.944L248.519 74.4123L248.809 73.2682L249.099 74.957L249.388 76.1598L249.678 71.8401L249.967 71.6349L250.257 74.4586L250.547 70.51L250.836 72.0452L251.126 77.5363L251.416 73.5219L251.705 72.9219L251.995 76.6179L252.285 78.8658L252.574 81.1599L252.864 78.514L253.154 79.3175L253.443 80.018L253.733 79.2672L254.023 76.3558L254.312 75.8615L254.602 74.2303L254.891 75.3676L255.181 77.0693L255.471 76.0046L255.76 74.5123L256.05 75.6272L256.34 74.5525L256.629 76.8846L256.919 75.2414L257.209 76.2509L257.498 76.943L257.788 74.1857L258.078 73.3145L258.367 63.3758L258.657 63.0092L258.947 67.6997L259.236 73.0939L259.526 73.3942L259.816 70.5375L260.105 68.0531L260.395 69.4401L260.684 73.0499L260.974 73.3443L261.264 74.9569L261.553 73.8244L261.843 69.9717L262.133 73.0056L262.422 70.52L262.712 70.1802L263.002 69.7967L263.291 73.8333L263.581 73.8123L263.871 71.4037L264.16 71.4875L264.45 69.6787L264.74 69.9718L265.029 68.8263L265.319 69.5404L265.609 70.8425L265.898 71.0973L266.188 69.0956L266.477 69.6543L266.767 67.2717L267.057 69.3933L267.346 71.4294L267.636 72.0173L267.926 70.2332L268.215 68.5686L268.505 67.2562L268.795 70.2802L269.084 70.3672L269.374 69.4526L269.664 71.1933L269.953 70.654L270.243 69.835L270.533 69.6824L270.822 71.074L271.112 72.8066L271.402 72.7845L271.691 74.3389L271.981 73.2713L272.27 73.2312L272.56 71.9771L272.85 70.1432L273.139 70.3141L273.429 71.5162L273.719 75.4257L274.008 73.5517L274.298 77.4174L274.588 69.9328L274.877 69.7618L275.167 67.0072L275.457 71.5603L275.746 69.6014L276.036 67.7757L276.326 71.1087L276.615 70.1464L276.905 69.1806L277.194 71.1081L277.484 69.7842L277.774 72.1862L278.063 70.3042L278.353 70.7608L278.643 69.9814L278.932 69.4726L279.222 69.7458L279.512 71.6122L279.801 71.347L280.091 71.2786L280.381 70.9041L280.67 71.3838L280.96 70.1278L281.25 69.1694L281.539 70.2656L281.829 70.2539L282.119 68.9486L282.408 69.6743L282.698 68.3189L282.987 69.2231L283.277 71.1195L283.567 71.8241L283.856 72.9962L284.146 71.9356L284.436 70.8903L284.725 70.7383L285.015 69.9537L285.305 71.6124L285.594 76.3205L285.884 76.4286L286.174 73.3466L286.463 73.3375L286.753 71.5553L287.043 69.7568L287.332 71.624L287.622 74.0115L287.912 71.0814L288.201 72.3959L288.491 72.8081L288.78 73.7622L289.07 73.687L289.36 72.8968L289.649 74.0885L289.939 74.879L290.229 74.0917L290.518 76.9625L290.808 74.1778L291.098 73.025L291.387 73.545L291.677 75.1717L291.967 73.9102L292.256 72.9893L292.546 73.2615L292.836 73.4164L293.125 70.5672L293.415 70.5238L293.705 68.2353L293.994 73.1632L294.284 71.5128L294.573 70.9629L294.863 73.2776L295.153 73.0791L295.442 71.0224L295.732 70.9411L296.022 71.9951L296.311 68.916L296.601 72.5564L296.891 72.1198L297.18 72.1744L297.47 71.3735L297.76 72.2475L298.049 74.0345L298.339 72.2037L298.629 70.7061L298.918 72.2648L299.208 71.6436L299.498 69.5826L299.787 72.7801L300.077 74.6569L300.366 72.034L300.656 71.6546L300.946 71.5413L301.235 70.9846L301.525 72.3528L301.815 73.2037L302.104 73.0235L302.394 73.0457L302.684 73.1771L302.973 73.8628L303.263 75.3662L303.553 74.8524L303.842 78.0186L304.132 78.614L304.422 77.4625L304.711 76.8917L305.001 78.7341L305.29 78.6461L305.58 77.8733L305.87 80.8956L306.159 81.9095L306.449 79.269L306.739 78.086L307.028 79.1419L307.318 80.3019L307.608 81.2937L307.897 83.1321L308.187 82.2281L308.477 80.3875L308.766 79.8003L309.056 80.1735L309.346 82.1774L309.635 81.5976L309.925 82.6129L310.215 83.1489L310.504 79.6113L310.794 79.9926L311.083 77.6114L311.373 78.4751L311.663 78.6202L311.952 81.2605L312.242 81.5189L312.532 78.1655L312.821 77.4612L313.111 77.9156L313.401 76.6542L313.69 77.5646L313.98 78.4371L314.27 79.6264L314.559 78.1892L314.849 76.6391L315.139 75.9767L315.428 76.4483L315.718 74.7388L316.008 78.0606L316.297 79.5538L316.587 75.7395L316.876 75.1565L317.166 75.4772L317.456 76.7151L317.745 78.5281L318.035 80.6491L318.325 80.0825L318.614 77.1273L318.904 76.902L319.194 77.6792L319.483 78.6581L319.773 77.0501L320.063 73.9752L320.352 79.9646L320.642 77.5201L320.932 76.8758L321.221 75.1894L321.511 75.3926L321.801 77.8561L322.09 80.5501L322.38 82.0745L322.669 78.5323L322.959 77.9849L323.249 77.0329L323.538 78.1695L323.828 78.7154L324.118 80.158L324.407 79.4445L324.697 77.6053L324.987 77.4558L325.276 76.9466L325.566 76.7802L325.856 74.6121L326.145 79.4483L326.435 79.4945L326.725 77.0273L327.014 77.8393L327.304 78.5461L327.593 77.5525L327.883 79.4804L328.173 80.6476L328.462 79.7213L328.752 76.4333L329.042 76.1328L329.331 74.791L329.621 74.0029L329.911 74.2702L330.2 78.9171L330.49 78.948L330.78 76.0063L331.069 77.2222L331.359 76.5103L331.649 75.812L331.938 76.8041L332.228 78.5669L332.518 79.4371L332.807 76.8122L333.097 77.8262L333.386 75.5331L333.676 75.0681L333.966 76.0062L334.255 76.0516L334.545 76.7939L334.835 74.5773L335.124 75.4693L335.414 76.3139L335.704 75.0401L335.993 75.0566L336.283 77.7793L336.573 78.5805L336.862 75.9691L337.152 73.8031L337.442 74.5356L337.731 76.2997L338.021 76.864L338.311 78.9006L338.6 78.6932L338.89 78.6141L339.179 77.7291L339.469 77.2743L339.759 76.2045L340.048 77.0927L340.338 78.9968L340.628 80.8778L340.917 79.8029L341.207 79.6633L341.497 79.5889L341.786 80.3019L342.076 80.2642L342.366 82.4112L342.655 83.3947L342.945 81.1358L343.235 80.2387L343.524 80.1483L343.814 78.9697L344.104 80.1616L344.393 80.1661L344.683 80.4081L344.972 76.341L345.262 79.1683L345.552 79.3504L345.841 78.8616L346.131 78.1315L346.421 82.2902L346.71 83.1822L347 78.9508" stroke="#CED4DA" style="stroke:#CED4DA;stroke:color(display-p3 0.8078 0.8314 0.8549);stroke-opacity:1;" stroke-width="0.5" stroke-linecap="round" stroke-linejoin="round"/>
</svg>
