<svg width="347" height="105" viewBox="0 0 347 105" fill="none" xmlns="http://www.w3.org/2000/svg">
<path d="M0 104.278H0.282804H0.565607H0.848411H1.13121H1.41402H1.69682H1.97963H2.26243H2.54523H2.82804H3.11084H3.39364H3.67645H3.95925H4.24205H4.52486H4.80766H5.09046H5.37327H5.65607H5.93888H6.22168H6.50448H6.78729H7.07009H7.35289H7.6357H7.9185H8.2013H8.48411H8.76691H9.04971H9.33252H9.61532H9.89813H10.1809H10.4637H10.7465H11.0293H11.3121H11.5949H11.8778H12.1606H12.4434H12.7262H13.009H13.2918H13.5746H13.8574H14.1402H14.423H14.7058H14.9886H15.2714H15.5542H15.837H16.1198H16.4026H16.6854H16.9682H17.251H17.5338H17.8166H18.0994H18.3822H18.665H18.9478H19.2306H19.5134H19.7963H20.0791H20.3619L20.6447 103.917H20.9275H21.2103H21.4931H21.7759H22.0587H22.3415H22.6243H22.9071H23.1899H23.4727H23.7555H24.0383H24.3211H24.6039H24.8867H25.1695H25.4523H25.7351H26.0179H26.3007L26.5835 104.278H26.8663H27.1491H27.4319H27.7148H27.9976H28.2804H28.5632H28.846H29.1288H29.4116H29.6944H29.9772H30.26H30.5428H30.8256H31.1084H31.3912H31.674H31.9568H32.2396H32.5224H32.8052H33.088H33.3708H33.6536H33.9364H34.2192H34.502H34.7848H35.0676H35.3504H35.6333H35.9161H36.1989H36.4817H36.7645H37.0473H37.3301H37.6129H37.8957H38.1785H38.4613H38.7441H39.0269H39.3097H39.5925H39.8753H40.1581H40.4409H40.7237H41.0065H41.2893H41.5721H41.8549H42.1377H42.4205L42.7033 104.639H42.9861H43.2689H43.5518H43.8346H44.1174H44.4002H44.683L44.9658 104.278L45.2486 104.639L45.5314 104.278H45.8142H46.097H46.3798H46.6626H46.9454H47.2282H47.511H47.7938H48.0766H48.3594H48.6422H48.925H49.2078H49.4906H49.7734H50.0562H50.339H50.6218H50.9046H51.1874H51.4703H51.7531H52.0359H52.3187H52.6015H52.8843H53.1671H53.4499H53.7327H54.0155H54.2983H54.5811H54.8639H55.1467H55.4295H55.7123H55.9951H56.2779H56.5607H56.8435H57.1263H57.4091H57.6919H57.9747H58.2575H58.5403H58.8231H59.1059H59.3888H59.6716H59.9544H60.2372H60.52H60.8028H61.0856H61.3684H61.6512H61.934L62.2168 103.917H62.4996H62.7824H63.0652H63.348H63.6308H63.9136H64.1964H64.4792H64.762H65.0448H65.3276L65.6104 103.556L65.8932 103.917H66.176H66.4588H66.7416H67.0244H67.3073H67.5901L67.8729 103.556H68.1557H68.4385H68.7213H69.0041H69.2869H69.5697H69.8525H70.1353L70.4181 103.194H70.7009H70.9837L71.2665 102.472H71.5493L71.8321 101.389L72.1149 100.667H72.3977H72.6805L72.9633 101.028L73.2461 101.389L73.5289 101.028H73.8117H74.0945L74.3773 100.667L74.6601 99.2222L74.9429 99.9444L75.2258 99.2222L75.5086 99.5833L75.7914 99.9444L76.0742 99.2222L76.357 98.8611L76.6398 98.1389L76.9226 97.7778L77.2054 96.6944L77.4882 95.9722L77.771 96.6944L78.0538 97.0556L78.3366 97.7778L78.6194 97.4167H78.9022H79.185L79.4678 97.0556L79.7506 94.1667L80.0334 94.5278L80.3162 90.1944H80.599L80.8818 89.4722L81.1646 91.2778L81.4474 90.9167L81.7302 91.6389L82.013 90.5556L82.2958 90.9167L82.5786 90.1944L82.8615 91.2778H83.1443L83.4271 92.3611L83.7099 93.0833L83.9927 93.4444L84.2755 94.1667L84.5583 92.7222L84.8411 93.0833L85.1239 92.3611L85.4067 91.2778L85.6895 91.6389L85.9723 92H86.2551L86.5379 91.2778L86.8207 92.3611L87.1035 92L87.3863 91.6389H87.6691L87.9519 92.7222L88.2347 92L88.5175 91.6389L88.8003 92L89.0831 91.6389L89.3659 92L89.6487 89.8333L89.9315 90.1944L90.2143 89.1111H90.4971L90.78 90.5556L91.0628 92L91.3456 93.0833L91.6284 92.7222L91.9112 92L92.194 92.3611L92.4768 91.2778L92.7596 92.3611L93.0424 91.2778L93.3252 85.5L93.608 75.0278L93.8908 76.8333L94.1736 72.8611L94.4564 75.3889L94.7392 76.4722L95.022 75.3889L95.3048 76.1111L95.5876 79.7222L95.8704 75.75L96.1532 77.5556L96.436 77.9167L96.7188 74.3056L97.0016 69.9722L97.2844 73.2222L97.5672 66.3611L97.85 67.4444L98.1328 67.0833L98.4156 51.5556L98.6985 47.5833L98.9813 42.8889H99.2641L99.5469 16.8889L99.8297 46.1389L100.112 38.9167L100.395 51.1944L100.678 61.6667L100.961 66L101.244 41.8056L101.526 34.9444L101.809 25.1944L102.092 31.3333L102.375 39.2778L102.658 43.9722L102.941 37.4722H103.223L103.506 38.9167L103.789 40L104.072 39.2778L104.355 46.1389L104.637 49.75L104.92 47.9444L105.203 51.1944L105.486 51.5556L105.769 51.1944L106.051 55.8889L106.334 59.8611L106.617 56.6111L106.9 51.9167L107.183 49.0278L107.465 46.1389L107.748 51.5556L108.031 50.8333L108.314 55.1667L108.597 55.8889L108.879 54.4444L109.162 65.2778L109.445 66.3611L109.728 62.3889L110.011 61.6667L110.293 67.4444L110.576 66L110.859 64.9167L111.142 64.5556L111.425 62.75H111.707L111.99 66.3611L112.273 65.2778L112.556 64.5556L112.839 63.4722L113.121 65.2778L113.404 64.1944H113.687L113.97 67.4444L114.253 67.0833L114.535 67.8056L114.818 67.4444L115.101 68.8889L115.384 70.6944L115.667 71.4167L115.949 73.2222L116.232 75.75L116.515 76.1111L116.798 76.4722L117.081 78.6389L117.363 80.0833L117.646 72.8611L117.929 73.2222L118.212 70.6944H118.495L118.778 71.0556L119.06 68.1667L119.343 67.4444L119.626 68.1667L119.909 67.8056L120.192 66.3611L120.474 66L120.757 67.0833H121.04L121.323 68.1667L121.606 67.0833L121.888 66.3611L122.171 66L122.454 62.75L122.737 66L123.02 64.1944L123.302 63.1111L123.585 55.5278L123.868 57.3333L124.151 50.4722L124.434 53L124.716 51.9167L124.999 53.7222L125.282 56.25L125.565 56.9722L125.848 51.9167L126.13 49.0278L126.413 47.5833L126.696 46.1389L126.979 46.5L127.262 51.5556L127.544 49.75L127.827 55.5278L128.11 50.1111L128.393 52.2778L128.676 53.7222L128.958 57.3333L129.241 56.6111L129.524 51.9167L129.807 52.6389L130.09 52.2778L130.372 42.1667L130.655 44.3333L130.938 45.7778L131.221 55.8889L131.504 56.9722L131.786 55.5278L132.069 58.0556L132.352 57.3333L132.635 56.9722L132.918 59.8611L133.2 57.3333L133.483 53.7222L133.766 55.1667L134.049 53.7222L134.332 55.5278L134.615 57.6944L134.897 64.1944L135.18 67.0833L135.463 60.5833H135.746L136.029 64.1944L136.311 64.5556L136.594 64.1944L136.877 65.6389L137.16 67.0833L137.443 65.2778L137.725 64.1944L138.008 59.1389L138.291 58.0556L138.574 56.9722L138.857 58.7778L139.139 57.3333L139.422 59.5L139.705 58.7778L139.988 56.6111L140.271 56.25L140.553 59.8611L140.836 60.2222L141.119 60.9444L141.402 60.2222L141.685 59.1389L141.967 47.2222L142.25 50.4722L142.533 52.2778L142.816 51.5556H143.099L143.381 49.3889L143.664 50.4722L143.947 50.1111L144.23 45.7778L144.513 48.3056L144.795 44.3333L145.078 42.5278L145.361 41.4444L145.644 28.0833L145.927 32.0556L146.209 37.4722L146.492 34.9444L146.775 36.0278L147.058 34.9444L147.341 31.3333L147.623 35.6667L147.906 36.3889L148.189 36.75H148.472L148.755 36.3889L149.037 40.7222L149.32 43.6111L149.603 41.4444L149.886 42.8889L150.169 41.8056L150.452 42.5278L150.734 43.9722L151.017 48.6667L151.3 45.7778L151.583 50.8333L151.866 46.5L152.148 44.6944L152.431 47.2222L152.714 48.6667L152.997 41.8056L153.28 43.9722L153.562 35.3056L153.845 45.7778L154.128 46.8611L154.411 45.4167L154.694 39.2778L154.976 40.3611L155.259 32.4167L155.542 28.0833L155.825 22.6667L156.108 33.5L156.39 30.9722L156.673 22.6667L156.956 20.1389L157.239 17.6111L157.522 29.5278H157.804L158.087 27.7222L158.37 29.5278L158.653 39.2778L158.936 34.9444L159.218 28.0833L159.501 30.25L159.784 28.0833L160.067 24.4722L160.35 24.8333L160.632 28.0833L160.915 19.4167L161.198 14.7222L161.481 8.22223L161.764 15.8056L162.046 9.66667L162.329 1L162.612 6.41667L162.895 15.0833L163.178 15.8056L163.46 12.9167L163.743 13.6389L164.026 12.1944L164.309 12.9167L164.592 17.25L164.874 19.4167L165.157 26.2778L165.44 23.75L165.723 30.9722L166.006 33.1389L166.289 28.4444L166.571 30.25L166.854 19.7778L167.137 18.3333L167.42 23.3889L167.703 20.5L167.985 20.1389L168.268 20.8611L168.551 24.8333L168.834 28.4444L169.117 31.6944L169.399 34.2222L169.682 43.6111L169.965 49.3889L170.248 46.5L170.531 50.4722L170.813 48.6667L171.096 47.5833H171.379L171.662 44.3333L171.945 43.6111L172.227 46.8611L172.51 45.7778L172.793 45.4167L173.076 49.3889L173.359 48.6667L173.641 43.6111L173.924 43.25L174.207 42.1667L174.49 32.0556L174.773 34.9444L175.055 31.3333L175.338 36.3889L175.621 42.8889L175.904 43.6111L176.187 45.0556H176.469L176.752 37.4722L177.035 38.5556L177.318 45.0556L177.601 47.5833L177.883 46.1389L178.166 50.4722L178.449 54.0833L178.732 52.2778L179.015 53H179.297L179.58 49.0278L179.863 50.1111L180.146 52.6389L180.429 46.5H180.711L180.994 45.7778L181.277 47.5833L181.56 51.5556L181.843 50.4722L182.126 53L182.408 53.7222L182.691 52.6389L182.974 50.4722L183.257 53L183.54 54.0833L183.822 54.4444L184.105 55.8889L184.388 55.1667H184.671L184.954 51.9167L185.236 52.6389L185.519 50.8333L185.802 49.75L186.085 52.2778L186.368 51.9167L186.65 50.4722L186.933 48.6667L187.216 46.1389L187.499 47.9444L187.782 46.8611L188.064 43.6111L188.347 45.0556L188.63 44.3333H188.913L189.196 46.5L189.478 43.6111L189.761 45.4167L190.044 43.9722L190.327 45.4167L190.61 47.5833L190.892 52.2778L191.175 50.4722L191.458 53L191.741 52.2778L192.024 53.3611L192.306 56.9722L192.589 54.8056L192.872 53.7222L193.155 55.5278L193.438 54.4444L193.72 54.8056L194.003 56.6111L194.286 53.7222L194.569 53.3611L194.852 53.7222L195.134 55.1667L195.417 54.4444L195.7 55.8889L195.983 56.6111L196.266 56.25L196.548 59.8611L196.831 59.5L197.114 60.2222L197.397 63.8333L197.68 67.8056L197.963 65.2778L198.245 66H198.528L198.811 62.75L199.094 66.7222L199.377 67.4444L199.659 68.1667L199.942 69.6111L200.225 75.75L200.508 72.8611L200.791 80.8056L201.073 83.3333L201.356 80.8056L201.639 80.4444L201.922 78.2778L202.205 80.4444L202.487 78.6389L202.77 82.25L203.053 81.1667L203.336 82.25L203.619 81.5278L203.901 80.4444L204.184 81.8889L204.467 81.1667L204.75 81.8889L205.033 83.3333L205.315 84.4167L205.598 83.6944L205.881 83.3333L206.164 81.1667H206.447L206.729 83.3333L207.012 82.6111L207.295 83.6944L207.578 83.3333H207.861L208.143 82.25L208.426 82.6111L208.709 82.9722L208.992 82.25L209.275 83.6944L209.557 85.5L209.84 86.9444L210.123 89.4722L210.406 89.8333L210.689 89.1111L210.971 91.2778L211.254 90.5556L211.537 92.3611L211.82 91.2778L212.103 90.5556L212.385 89.8333L212.668 88.3889L212.951 84.7778L213.234 82.9722L213.517 83.3333L213.8 84.7778L214.082 85.8611L214.365 86.5833L214.648 86.9444L214.931 87.6667L215.214 88.3889L215.496 87.3056L215.779 88.3889L216.062 87.3056L216.345 86.5833L216.628 85.8611L216.91 84.7778L217.193 82.9722L217.476 83.6944L217.759 84.4167L218.042 84.7778L218.324 85.5L218.607 81.8889L218.89 79.3611L219.173 79.7222L219.456 78.6389L219.738 77.9167L220.021 70.3333L220.304 71.4167L220.587 75.0278L220.87 72.1389L221.152 74.3056L221.435 73.5833L221.718 73.2222L222.001 77.1944L222.284 76.8333L222.566 72.5L222.849 71.4167L223.132 71.0556L223.415 71.4167H223.698L223.98 72.8611L224.263 73.2222L224.546 72.8611H224.829L225.112 71.4167L225.394 72.1389H225.677L225.96 71.7778L226.243 72.8611L226.526 71.0556L226.808 71.7778L227.091 71.0556L227.374 67.8056L227.657 68.8889L227.94 70.6944L228.222 71.4167L228.505 73.2222L228.788 73.9444L229.071 77.1944L229.354 76.4722L229.637 75.3889L229.919 75.75L230.202 75.0278L230.485 75.75L230.768 75.3889L231.051 77.1944L231.333 75.75L231.616 76.8333L231.899 75.3889L232.182 75.75L232.465 75.0278L232.747 73.2222L233.03 73.5833L233.313 72.8611L233.596 72.5L233.879 73.2222L234.161 75.3889L234.444 74.6667L234.727 74.3056L235.01 72.8611L235.293 72.1389L235.575 72.8611L235.858 71.4167L236.141 74.3056L236.424 73.5833L236.707 75.3889L236.989 75.75L237.272 75.0278L237.555 77.9167L237.838 77.1944L238.121 78.6389L238.403 79.7222L238.686 77.9167L238.969 76.8333L239.252 77.9167L239.535 78.2778L239.817 77.5556L240.1 78.2778L240.383 77.9167L240.666 77.5556L240.949 76.8333L241.231 77.1944L241.514 77.5556L241.797 76.1111L242.08 74.6667L242.363 74.3056L242.645 75.0278H242.928L243.211 75.75L243.494 75.0278L243.777 75.75L244.059 76.4722L244.342 76.8333H244.625L244.908 76.4722H245.191L245.474 76.1111L245.756 74.3056L246.039 73.9444L246.322 74.6667L246.605 75.75L246.888 75.0278H247.17L247.453 72.5L247.736 72.8611L248.019 71.7778L248.302 71.0556L248.584 72.5L248.867 71.0556L249.15 71.4167L249.433 72.1389L249.716 72.5L249.998 73.5833H250.281L250.564 70.6944L250.847 62.75L251.13 62.0278L251.412 63.8333L251.695 59.5L251.978 67.4444L252.261 75.75L252.544 64.5556L252.826 66.7222L253.109 71.0556L253.392 72.8611L253.675 71.7778L253.958 71.0556L254.24 72.5L254.523 73.5833L254.806 73.2222H255.089L255.372 75.75L255.654 76.1111L255.937 74.3056L256.22 73.9444L256.503 74.3056L256.786 74.6667L257.068 74.3056L257.351 74.6667L257.634 75.3889L257.917 74.6667L258.2 71.4167L258.482 72.1389L258.765 70.6944L259.048 72.5L259.331 71.7778L259.614 72.1389L259.896 71.7778L260.179 72.5L260.462 71.4167L260.745 72.1389H261.028L261.311 72.8611L261.593 72.1389L261.876 71.7778L262.159 72.5L262.442 73.2222L262.725 76.4722L263.007 75.3889L263.29 75.75L263.573 77.1944L263.856 76.1111L264.139 76.4722L264.421 76.1111H264.704H264.987H265.27L265.553 75.75H265.835L266.118 76.8333H266.401L266.684 77.5556H266.967H267.249L267.532 76.8333H267.815L268.098 75.75L268.381 76.4722L268.663 76.1111L268.946 75.75L269.229 74.6667H269.512L269.795 73.9444L270.077 72.8611L270.36 71.7778L270.643 71.4167L270.926 68.8889L271.209 69.6111L271.491 68.1667L271.774 69.25L272.057 71.0556L272.34 70.6944L272.623 67.8056L272.905 69.25H273.188H273.471L273.754 70.3333L274.037 69.25L274.319 64.1944L274.602 63.1111L274.885 63.4722L275.168 62.3889L275.451 65.6389L275.733 64.9167L276.016 62.0278L276.299 62.3889L276.582 59.8611H276.865L277.148 61.6667L277.43 62.0278L277.713 59.1389L277.996 58.0556L278.279 60.5833H278.562L278.844 59.8611L279.127 60.2222L279.41 62.0278L279.693 59.5L279.976 56.9722L280.258 55.5278L280.541 49.75L280.824 51.1944L281.107 51.5556H281.39L281.672 54.8056L281.955 54.4444L282.238 56.25L282.521 59.1389L282.804 59.8611L283.086 58.7778L283.369 60.5833L283.652 61.6667L283.935 59.8611L284.218 60.5833L284.5 62.75L284.783 64.1944L285.066 63.8333L285.349 64.1944L285.632 63.4722L285.914 67.0833L286.197 68.1667L286.48 66.7222H286.763L287.046 63.1111L287.328 61.6667H287.611L287.894 64.5556L288.177 63.4722L288.46 60.5833L288.742 62.75H289.025L289.308 64.9167L289.591 63.1111L289.874 64.9167L290.156 63.8333L290.439 65.2778L290.722 66L291.005 64.9167L291.288 67.0833L291.57 65.6389L291.853 64.5556L292.136 65.6389L292.419 64.5556L292.702 64.9167L292.985 65.2778H293.267L293.55 63.8333H293.833L294.116 64.5556L294.399 64.9167L294.681 65.2778H294.964L295.247 64.5556L295.53 64.9167L295.813 65.2778L296.095 63.8333L296.378 63.1111L296.661 62.75L296.944 62.3889L297.227 63.4722L297.509 62.75L297.792 65.6389L298.075 67.0833L298.358 68.5278L298.641 67.8056L298.923 68.8889L299.206 69.25L299.489 68.5278L299.772 69.25L300.055 68.5278L300.337 68.8889H300.62L300.903 69.6111L301.186 70.3333L301.469 69.6111L301.751 68.5278L302.034 69.6111L302.317 68.8889L302.6 69.6111L302.883 70.3333L303.165 72.5L303.448 73.2222H303.731L304.014 74.6667L304.297 73.5833L304.579 74.3056L304.862 73.9444H305.145L305.428 74.3056L305.711 72.8611L305.993 73.5833H306.276L306.559 73.2222L306.842 73.9444L307.125 73.5833L307.407 72.8611L307.69 73.5833L307.973 72.8611L308.256 72.1389L308.539 71.7778L308.822 71.0556L309.104 72.1389L309.387 72.5L309.67 72.8611H309.953L310.236 72.5H310.518L310.801 72.8611L311.084 74.6667L311.367 75.3889L311.65 77.1944L311.932 76.8333L312.215 78.6389L312.498 82.9722L312.781 81.8889H313.064H313.346L313.629 82.6111L313.912 83.6944H314.195L314.478 82.9722L314.76 83.3333L315.043 82.9722L315.326 82.25L315.609 80.8056L315.892 81.1667L316.174 80.4444L316.457 81.5278L316.74 80.8056L317.023 81.5278L317.306 81.1667L317.588 82.9722L317.871 82.6111L318.154 81.1667L318.437 80.4444H318.72L319.002 79.3611L319.285 79.7222L319.568 80.8056L319.851 81.1667L320.134 80.4444H320.416L320.699 80.0833L320.982 78.2778H321.265L321.548 79L321.83 74.3056L322.113 75.75L322.396 76.1111L322.679 77.1944L322.962 76.8333L323.244 78.2778H323.527L323.81 77.1944H324.093L324.376 77.9167L324.659 77.5556L324.941 78.6389L325.224 79.3611L325.507 79H325.79L326.073 79.3611L326.355 79L326.638 79.7222L326.921 80.0833L327.204 79.7222L327.487 80.4444L327.769 80.8056L328.052 81.1667L328.335 80.8056H328.618H328.901L329.183 80.0833H329.466L329.749 80.4444H330.032H330.315H330.597H330.88L331.163 81.8889L331.446 82.6111L331.729 84.4167L332.011 84.0556H332.294H332.577L332.86 84.7778L333.143 85.1389L333.425 84.7778L333.708 85.1389H333.991H334.274L334.557 84.7778H334.839L335.122 83.6944L335.405 84.4167L335.688 85.1389L335.971 85.5H336.253H336.536L336.819 85.1389L337.102 84.7778H337.385H337.667L337.95 85.5H338.233L338.516 86.2222L338.799 86.9444L339.081 86.5833H339.364L339.647 86.2222L339.93 85.8611H340.213L340.496 86.2222L340.778 85.8611L341.061 85.5H341.344L341.627 86.2222H341.91H342.192L342.475 86.5833L342.758 86.2222L343.041 86.5833L343.324 86.9444L343.606 86.2222L343.889 85.8611H344.172L344.455 84.4167L344.738 85.1389L345.02 84.4167L345.303 84.7778L345.586 85.5L345.869 84.7778H346.152H346.434L346.717 85.8611L347 86.2222V105H346.717H346.434H346.152H345.869H345.586H345.303H345.02H344.738H344.455H344.172H343.889H343.606H343.324H343.041H342.758H342.475H342.192H341.91H341.627H341.344H341.061H340.778H340.496H340.213H339.93H339.647H339.364H339.081H338.799H338.516H338.233H337.95H337.667H337.385H337.102H336.819H336.536H336.253H335.971H335.688H335.405H335.122H334.839H334.557H334.274H333.991H333.708H333.425H333.143H332.86H332.577H332.294H332.011H331.729H331.446H331.163H330.88H330.597H330.315H330.032H329.749H329.466H329.183H328.901H328.618H328.335H328.052H327.769H327.487H327.204H326.921H326.638H326.355H326.073H325.79H325.507H325.224H324.941H324.659H324.376H324.093H323.81H323.527H323.244H322.962H322.679H322.396H322.113H321.83H321.548H321.265H320.982H320.699H320.416H320.134H319.851H319.568H319.285H319.002H318.72H318.437H318.154H317.871H317.588H317.306H317.023H316.74H316.457H316.174H315.892H315.609H315.326H315.043H314.76H314.478H314.195H313.912H313.629H313.346H313.064H312.781H312.498H312.215H311.932H311.65H311.367H311.084H310.801H310.518H310.236H309.953H309.67H309.387H309.104H308.822H308.539H308.256H307.973H307.69H307.407H307.125H306.842H306.559H306.276H305.993H305.711H305.428H305.145H304.862H304.579H304.297H304.014H303.731H303.448H303.165H302.883H302.6H302.317H302.034H301.751H301.469H301.186H300.903H300.62H300.337H300.055H299.772H299.489H299.206H298.923H298.641H298.358H298.075H297.792H297.509H297.227H296.944H296.661H296.378H296.095H295.813H295.53H295.247H294.964H294.681H294.399H294.116H293.833H293.55H293.267H292.985H292.702H292.419H292.136H291.853H291.57H291.288H291.005H290.722H290.439H290.156H289.874H289.591H289.308H289.025H288.742H288.46H288.177H287.894H287.611H287.328H287.046H286.763H286.48H286.197H285.914H285.632H285.349H285.066H284.783H284.5H284.218H283.935H283.652H283.369H283.086H282.804H282.521H282.238H281.955H281.672H281.39H281.107H280.824H280.541H280.258H279.976H279.693H279.41H279.127H278.844H278.562H278.279H277.996H277.713H277.43H277.148H276.865H276.582H276.299H276.016H275.733H275.451H275.168H274.885H274.602H274.319H274.037H273.754H273.471H273.188H272.905H272.623H272.34H272.057H271.774H271.491H271.209H270.926H270.643H270.36H270.077H269.795H269.512H269.229H268.946H268.663H268.381H268.098H267.815H267.532H267.249H266.967H266.684H266.401H266.118H265.835H265.553H265.27H264.987H264.704H264.421H264.139H263.856H263.573H263.29H263.007H262.725H262.442H262.159H261.876H261.593H261.311H261.028H260.745H260.462H260.179H259.896H259.614H259.331H259.048H258.765H258.482H258.2H257.917H257.634H257.351H257.068H256.786H256.503H256.22H255.937H255.654H255.372H255.089H254.806H254.523H254.24H253.958H253.675H253.392H253.109H252.826H252.544H252.261H251.978H251.695H251.412H251.13H250.847H250.564H250.281H249.998H249.716H249.433H249.15H248.867H248.584H248.302H248.019H247.736H247.453H247.17H246.888H246.605H246.322H246.039H245.756H245.474H245.191H244.908H244.625H244.342H244.059H243.777H243.494H243.211H242.928H242.645H242.363H242.08H241.797H241.514H241.231H240.949H240.666H240.383H240.1H239.817H239.535H239.252H238.969H238.686H238.403H238.121H237.838H237.555H237.272H236.989H236.707H236.424H236.141H235.858H235.575H235.293H235.01H234.727H234.444H234.161H233.879H233.596H233.313H233.03H232.747H232.465H232.182H231.899H231.616H231.333H231.051H230.768H230.485H230.202H229.919H229.637H229.354H229.071H228.788H228.505H228.222H227.94H227.657H227.374H227.091H226.808H226.526H226.243H225.96H225.677H225.394H225.112H224.829H224.546H224.263H223.98H223.698H223.415H223.132H222.849H222.566H222.284H222.001H221.718H221.435H221.152H220.87H220.587H220.304H220.021H219.738H219.456H219.173H218.89H218.607H218.324H218.042H217.759H217.476H217.193H216.91H216.628H216.345H216.062H215.779H215.496H215.214H214.931H214.648H214.365H214.082H213.8H213.517H213.234H212.951H212.668H212.385H212.103H211.82H211.537H211.254H210.971H210.689H210.406H210.123H209.84H209.557H209.275H208.992H208.709H208.426H208.143H207.861H207.578H207.295H207.012H206.729H206.447H206.164H205.881H205.598H205.315H205.033H204.75H204.467H204.184H203.901H203.619H203.336H203.053H202.77H202.487H202.205H201.922H201.639H201.356H201.073H200.791H200.508H200.225H199.942H199.659H199.377H199.094H198.811H198.528H198.245H197.963H197.68H197.397H197.114H196.831H196.548H196.266H195.983H195.7H195.417H195.134H194.852H194.569H194.286H194.003H193.72H193.438H193.155H192.872H192.589H192.306H192.024H191.741H191.458H191.175H190.892H190.61H190.327H190.044H189.761H189.478H189.196H188.913H188.63H188.347H188.064H187.782H187.499H187.216H186.933H186.65H186.368H186.085H185.802H185.519H185.236H184.954H184.671H184.388H184.105H183.822H183.54H183.257H182.974H182.691H182.408H182.126H181.843H181.56H181.277H180.994H180.711H180.429H180.146H179.863H179.58H179.297H179.015H178.732H178.449H178.166H177.883H177.601H177.318H177.035H176.752H176.469H176.187H175.904H175.621H175.338H175.055H174.773H174.49H174.207H173.924H173.641H173.359H173.076H172.793H172.51H172.227H171.945H171.662H171.379H171.096H170.813H170.531H170.248H169.965H169.682H169.399H169.117H168.834H168.551H168.268H167.985H167.703H167.42H167.137H166.854H166.571H166.289H166.006H165.723H165.44H165.157H164.874H164.592H164.309H164.026H163.743H163.46H163.178H162.895H162.612H162.329H162.046H161.764H161.481H161.198H160.915H160.632H160.35H160.067H159.784H159.501H159.218H158.936H158.653H158.37H158.087H157.804H157.522H157.239H156.956H156.673H156.39H156.108H155.825H155.542H155.259H154.976H154.694H154.411H154.128H153.845H153.562H153.28H152.997H152.714H152.431H152.148H151.866H151.583H151.3H151.017H150.734H150.452H150.169H149.886H149.603H149.32H149.037H148.755H148.472H148.189H147.906H147.623H147.341H147.058H146.775H146.492H146.209H145.927H145.644H145.361H145.078H144.795H144.513H144.23H143.947H143.664H143.381H143.099H142.816H142.533H142.25H141.967H141.685H141.402H141.119H140.836H140.553H140.271H139.988H139.705H139.422H139.139H138.857H138.574H138.291H138.008H137.725H137.443H137.16H136.877H136.594H136.311H136.029H135.746H135.463H135.18H134.897H134.615H134.332H134.049H133.766H133.483H133.2H132.918H132.635H132.352H132.069H131.786H131.504H131.221H130.938H130.655H130.372H130.09H129.807H129.524H129.241H128.958H128.676H128.393H128.11H127.827H127.544H127.262H126.979H126.696H126.413H126.13H125.848H125.565H125.282H124.999H124.716H124.434H124.151H123.868H123.585H123.302H123.02H122.737H122.454H122.171H121.888H121.606H121.323H121.04H120.757H120.474H120.192H119.909H119.626H119.343H119.06H118.778H118.495H118.212H117.929H117.646H117.363H117.081H116.798H116.515H116.232H115.949H115.667H115.384H115.101H114.818H114.535H114.253H113.97H113.687H113.404H113.121H112.839H112.556H112.273H111.99H111.707H111.425H111.142H110.859H110.576H110.293H110.011H109.728H109.445H109.162H108.879H108.597H108.314H108.031H107.748H107.465H107.183H106.9H106.617H106.334H106.051H105.769H105.486H105.203H104.92H104.637H104.355H104.072H103.789H103.506H103.223H102.941H102.658H102.375H102.092H101.809H101.526H101.244H100.961H100.678H100.395H100.112H99.8297H99.5469H99.2641H98.9813H98.6985H98.4156H98.1328H97.85H97.5672H97.2844H97.0016H96.7188H96.436H96.1532H95.8704H95.5876H95.3048H95.022H94.7392H94.4564H94.1736H93.8908H93.608H93.3252H93.0424H92.7596H92.4768H92.194H91.9112H91.6284H91.3456H91.0628H90.78H90.4971H90.2143H89.9315H89.6487H89.3659H89.0831H88.8003H88.5175H88.2347H87.9519H87.6691H87.3863H87.1035H86.8207H86.5379H86.2551H85.9723H85.6895H85.4067H85.1239H84.8411H84.5583H84.2755H83.9927H83.7099H83.4271H83.1443H82.8615H82.5786H82.2958H82.013H81.7302H81.4474H81.1646H80.8818H80.599H80.3162H80.0334H79.7506H79.4678H79.185H78.9022H78.6194H78.3366H78.0538H77.771H77.4882H77.2054H76.9226H76.6398H76.357H76.0742H75.7914H75.5086H75.2258H74.9429H74.6601H74.3773H74.0945H73.8117H73.5289H73.2461H72.9633H72.6805H72.3977H72.1149H71.8321H71.5493H71.2665H70.9837H70.7009H70.4181H70.1353H69.8525H69.5697H69.2869H69.0041H68.7213H68.4385H68.1557H67.8729H67.5901H67.3073H67.0244H66.7416H66.4588H66.176H65.8932H65.6104H65.3276H65.0448H64.762H64.4792H64.1964H63.9136H63.6308H63.348H63.0652H62.7824H62.4996H62.2168H61.934H61.6512H61.3684H61.0856H60.8028H60.52H60.2372H59.9544H59.6716H59.3888H59.1059H58.8231H58.5403H58.2575H57.9747H57.6919H57.4091H57.1263H56.8435H56.5607H56.2779H55.9951H55.7123H55.4295H55.1467H54.8639H54.5811H54.2983H54.0155H53.7327H53.4499H53.1671H52.8843H52.6015H52.3187H52.0359H51.7531H51.4703H51.1874H50.9046H50.6218H50.339H50.0562H49.7734H49.4906H49.2078H48.925H48.6422H48.3594H48.0766H47.7938H47.511H47.2282H46.9454H46.6626H46.3798H46.097H45.8142H45.5314H45.2486H44.9658H44.683H44.4002H44.1174H43.8346H43.5518H43.2689H42.9861H42.7033H42.4205H42.1377H41.8549H41.5721H41.2893H41.0065H40.7237H40.4409H40.1581H39.8753H39.5925H39.3097H39.0269H38.7441H38.4613H38.1785H37.8957H37.6129H37.3301H37.0473H36.7645H36.4817H36.1989H35.9161H35.6333H35.3504H35.0676H34.7848H34.502H34.2192H33.9364H33.6536H33.3708H33.088H32.8052H32.5224H32.2396H31.9568H31.674H31.3912H31.1084H30.8256H30.5428H30.26H29.9772H29.6944H29.4116H29.1288H28.846H28.5632H28.2804H27.9976H27.7148H27.4319H27.1491H26.8663H26.5835H26.3007H26.0179H25.7351H25.4523H25.1695H24.8867H24.6039H24.3211H24.0383H23.7555H23.4727H23.1899H22.9071H22.6243H22.3415H22.0587H21.7759H21.4931H21.2103H20.9275H20.6447H20.3619H20.0791H19.7963H19.5134H19.2306H18.9478H18.665H18.3822H18.0994H17.8166H17.5338H17.251H16.9682H16.6854H16.4026H16.1198H15.837H15.5542H15.2714H14.9886H14.7058H14.423H14.1402H13.8574H13.5746H13.2918H13.009H12.7262H12.4434H12.1606H11.8778H11.5949H11.3121H11.0293H10.7465H10.4637H10.1809H9.89813H9.61532H9.33252H9.04971H8.76691H8.48411H8.2013H7.9185H7.6357H7.35289H7.07009H6.78729H6.50448H6.22168H5.93888H5.65607H5.37327H5.09046H4.80766H4.52486H4.24205H3.95925H3.67645H3.39364H3.11084H2.82804H2.54523H2.26243H1.97963H1.69682H1.41402H1.13121H0.848411H0.565607H0.282804H0V104.278Z" fill="url(#paint0_linear_810_198)" style=""/>
<path d="M0 104.278H0.282804H0.565607H0.848411H1.13121H1.41402H1.69682H1.97963H2.26243H2.54523H2.82804H3.11084H3.39364H3.67645H3.95925H4.24205H4.52486H4.80766H5.09046H5.37327H5.65607H5.93888H6.22168H6.50448H6.78729H7.07009H7.35289H7.6357H7.9185H8.2013H8.48411H8.76691H9.04971H9.33252H9.61532H9.89813H10.1809H10.4637H10.7465H11.0293H11.3121H11.5949H11.8778H12.1606H12.4434H12.7262H13.009H13.2918H13.5746H13.8574H14.1402H14.423H14.7058H14.9886H15.2714H15.5542H15.837H16.1198H16.4026H16.6854H16.9682H17.251H17.5338H17.8166H18.0994H18.3822H18.665H18.9478H19.2306H19.5134H19.7963H20.0791H20.3619L20.6447 103.917H20.9275H21.2103H21.4931H21.7759H22.0587H22.3415H22.6243H22.9071H23.1899H23.4727H23.7555H24.0383H24.3211H24.6039H24.8867H25.1695H25.4523H25.7351H26.0179H26.3007L26.5835 104.278H26.8663H27.1491H27.4319H27.7148H27.9976H28.2804H28.5632H28.846H29.1288H29.4116H29.6944H29.9772H30.26H30.5428H30.8256H31.1084H31.3912H31.674H31.9568H32.2396H32.5224H32.8052H33.088H33.3708H33.6536H33.9364H34.2192H34.502H34.7848H35.0676H35.3504H35.6333H35.9161H36.1989H36.4817H36.7645H37.0473H37.3301H37.6129H37.8957H38.1785H38.4613H38.7441H39.0269H39.3097H39.5925H39.8753H40.1581H40.4409H40.7237H41.0065H41.2893H41.5721H41.8549H42.1377H42.4205L42.7033 104.639H42.9861H43.2689H43.5518H43.8346H44.1174H44.4002H44.683L44.9658 104.278L45.2486 104.639L45.5314 104.278H45.8142H46.097H46.3798H46.6626H46.9454H47.2282H47.511H47.7938H48.0766H48.3594H48.6422H48.925H49.2078H49.4906H49.7734H50.0562H50.339H50.6218H50.9046H51.1875H51.4703H51.7531H52.0359H52.3187H52.6015H52.8843H53.1671H53.4499H53.7327H54.0155H54.2983H54.5811H54.8639H55.1467H55.4295H55.7123H55.9951H56.2779H56.5607H56.8435H57.1263H57.4091H57.6919H57.9747H58.2575H58.5403H58.8231H59.1059H59.3888H59.6716H59.9544H60.2372H60.52H60.8028H61.0856H61.3684H61.6512H61.934L62.2168 103.917H62.4996H62.7824H63.0652H63.348H63.6308H63.9136H64.1964H64.4792H64.762H65.0448H65.3276L65.6104 103.556L65.8932 103.917H66.176H66.4588H66.7416H67.0245H67.3073H67.5901L67.8729 103.556H68.1557H68.4385H68.7213H69.0041H69.2869H69.5697H69.8525H70.1353L70.4181 103.194H70.7009H70.9837L71.2665 102.472H71.5493L71.8321 101.389L72.1149 100.667H72.3977H72.6805L72.9633 101.028L73.2461 101.389L73.5289 101.028H73.8117H74.0945L74.3773 100.667L74.6601 99.2222L74.9429 99.9444L75.2258 99.2222L75.5086 99.5833L75.7914 99.9444L76.0742 99.2222L76.357 98.8611L76.6398 98.1389L76.9226 97.7778L77.2054 96.6945L77.4882 95.9722L77.771 96.6945L78.0538 97.0555L78.3366 97.7778L78.6194 97.4167H78.9022H79.185L79.4678 97.0555L79.7506 94.1667L80.0334 94.5278L80.3162 90.1944H80.599L80.8818 89.4722L81.1646 91.2778L81.4474 90.9167L81.7302 91.6389L82.013 90.5556L82.2958 90.9167L82.5786 90.1944L82.8615 91.2778H83.1443L83.4271 92.3611L83.7099 93.0833L83.9927 93.4445L84.2755 94.1667L84.5583 92.7222L84.8411 93.0833L85.1239 92.3611L85.4067 91.2778L85.6895 91.6389L85.9723 92H86.2551L86.5379 91.2778L86.8207 92.3611L87.1035 92L87.3863 91.6389H87.6691L87.9519 92.7222L88.2347 92L88.5175 91.6389L88.8003 92L89.0831 91.6389L89.3659 92L89.6487 89.8333L89.9315 90.1944L90.2143 89.1111H90.4971L90.78 90.5556L91.0628 92L91.3456 93.0833L91.6284 92.7222L91.9112 92L92.194 92.3611L92.4768 91.2778L92.7596 92.3611L93.0424 91.2778L93.3252 85.5L93.608 75.0278L93.8908 76.8333L94.1736 72.8611L94.4564 75.3889L94.7392 76.4722L95.022 75.3889L95.3048 76.1111L95.5876 79.7222L95.8704 75.75L96.1532 77.5555L96.436 77.9167L96.7188 74.3055L97.0016 69.9722L97.2844 73.2222L97.5672 66.3611L97.85 67.4444L98.1328 67.0833L98.4156 51.5556L98.6984 47.5833L98.9813 42.8889H99.2641L99.5469 16.8889L99.8297 46.1389L100.112 38.9167L100.395 51.1944L100.678 61.6667L100.961 66L101.244 41.8056L101.526 34.9444L101.809 25.1944L102.092 31.3333L102.375 39.2778L102.658 43.9722L102.941 37.4722H103.223L103.506 38.9167L103.789 40L104.072 39.2778L104.355 46.1389L104.637 49.75L104.92 47.9444L105.203 51.1944L105.486 51.5556L105.769 51.1944L106.051 55.8889L106.334 59.8611L106.617 56.6111L106.9 51.9167L107.183 49.0278L107.465 46.1389L107.748 51.5556L108.031 50.8333L108.314 55.1667L108.597 55.8889L108.879 54.4445L109.162 65.2778L109.445 66.3611L109.728 62.3889L110.011 61.6667L110.293 67.4444L110.576 66L110.859 64.9167L111.142 64.5556L111.425 62.75H111.707L111.99 66.3611L112.273 65.2778L112.556 64.5556L112.839 63.4722L113.121 65.2778L113.404 64.1944H113.687L113.97 67.4444L114.253 67.0833L114.535 67.8056L114.818 67.4444L115.101 68.8889L115.384 70.6945L115.667 71.4167L115.949 73.2222L116.232 75.75L116.515 76.1111L116.798 76.4722L117.081 78.6389L117.363 80.0833L117.646 72.8611L117.929 73.2222L118.212 70.6945H118.495L118.778 71.0556L119.06 68.1667L119.343 67.4444L119.626 68.1667L119.909 67.8056L120.192 66.3611L120.474 66L120.757 67.0833H121.04L121.323 68.1667L121.606 67.0833L121.888 66.3611L122.171 66L122.454 62.75L122.737 66L123.02 64.1944L123.302 63.1111L123.585 55.5278L123.868 57.3333L124.151 50.4722L124.434 53L124.716 51.9167L124.999 53.7222L125.282 56.25L125.565 56.9722L125.848 51.9167L126.13 49.0278L126.413 47.5833L126.696 46.1389L126.979 46.5L127.262 51.5556L127.544 49.75L127.827 55.5278L128.11 50.1111L128.393 52.2778L128.676 53.7222L128.958 57.3333L129.241 56.6111L129.524 51.9167L129.807 52.6389L130.09 52.2778L130.372 42.1667L130.655 44.3333L130.938 45.7778L131.221 55.8889L131.504 56.9722L131.786 55.5278L132.069 58.0556L132.352 57.3333L132.635 56.9722L132.918 59.8611L133.2 57.3333L133.483 53.7222L133.766 55.1667L134.049 53.7222L134.332 55.5278L134.615 57.6944L134.897 64.1944L135.18 67.0833L135.463 60.5833H135.746L136.029 64.1944L136.311 64.5556L136.594 64.1944L136.877 65.6389L137.16 67.0833L137.443 65.2778L137.725 64.1944L138.008 59.1389L138.291 58.0556L138.574 56.9722L138.857 58.7778L139.139 57.3333L139.422 59.5L139.705 58.7778L139.988 56.6111L140.271 56.25L140.553 59.8611L140.836 60.2222L141.119 60.9444L141.402 60.2222L141.685 59.1389L141.967 47.2222L142.25 50.4722L142.533 52.2778L142.816 51.5556H143.099L143.381 49.3889L143.664 50.4722L143.947 50.1111L144.23 45.7778L144.513 48.3056L144.795 44.3333L145.078 42.5278L145.361 41.4444L145.644 28.0833L145.927 32.0556L146.209 37.4722L146.492 34.9444L146.775 36.0278L147.058 34.9444L147.341 31.3333L147.623 35.6667L147.906 36.3889L148.189 36.75H148.472L148.755 36.3889L149.037 40.7222L149.32 43.6111L149.603 41.4444L149.886 42.8889L150.169 41.8056L150.452 42.5278L150.734 43.9722L151.017 48.6667L151.3 45.7778L151.583 50.8333L151.866 46.5L152.148 44.6944L152.431 47.2222L152.714 48.6667L152.997 41.8056L153.28 43.9722L153.562 35.3056L153.845 45.7778L154.128 46.8611L154.411 45.4167L154.694 39.2778L154.976 40.3611L155.259 32.4167L155.542 28.0833L155.825 22.6667L156.108 33.5L156.39 30.9722L156.673 22.6667L156.956 20.1389L157.239 17.6111L157.522 29.5278H157.804L158.087 27.7222L158.37 29.5278L158.653 39.2778L158.936 34.9444L159.218 28.0833L159.501 30.25L159.784 28.0833L160.067 24.4722L160.35 24.8333L160.632 28.0833L160.915 19.4167L161.198 14.7222L161.481 8.22223L161.764 15.8056L162.046 9.66667L162.329 1L162.612 6.41667L162.895 15.0833L163.178 15.8056L163.46 12.9167L163.743 13.6389L164.026 12.1944L164.309 12.9167L164.592 17.25L164.874 19.4167L165.157 26.2778L165.44 23.75L165.723 30.9722L166.006 33.1389L166.289 28.4444L166.571 30.25L166.854 19.7778L167.137 18.3333L167.42 23.3889L167.703 20.5L167.985 20.1389L168.268 20.8611L168.551 24.8333L168.834 28.4444L169.117 31.6944L169.399 34.2222L169.682 43.6111L169.965 49.3889L170.248 46.5L170.531 50.4722L170.813 48.6667L171.096 47.5833H171.379L171.662 44.3333L171.945 43.6111L172.227 46.8611L172.51 45.7778L172.793 45.4167L173.076 49.3889L173.359 48.6667L173.641 43.6111L173.924 43.25L174.207 42.1667L174.49 32.0556L174.773 34.9444L175.055 31.3333L175.338 36.3889L175.621 42.8889L175.904 43.6111L176.187 45.0556H176.469L176.752 37.4722L177.035 38.5556L177.318 45.0556L177.601 47.5833L177.883 46.1389L178.166 50.4722L178.449 54.0833L178.732 52.2778L179.015 53H179.297L179.58 49.0278L179.863 50.1111L180.146 52.6389L180.429 46.5H180.711L180.994 45.7778L181.277 47.5833L181.56 51.5556L181.843 50.4722L182.126 53L182.408 53.7222L182.691 52.6389L182.974 50.4722L183.257 53L183.54 54.0833L183.822 54.4445L184.105 55.8889L184.388 55.1667H184.671L184.954 51.9167L185.236 52.6389L185.519 50.8333L185.802 49.75L186.085 52.2778L186.368 51.9167L186.65 50.4722L186.933 48.6667L187.216 46.1389L187.499 47.9444L187.782 46.8611L188.064 43.6111L188.347 45.0556L188.63 44.3333H188.913L189.196 46.5L189.478 43.6111L189.761 45.4167L190.044 43.9722L190.327 45.4167L190.61 47.5833L190.892 52.2778L191.175 50.4722L191.458 53L191.741 52.2778L192.024 53.3611L192.306 56.9722L192.589 54.8056L192.872 53.7222L193.155 55.5278L193.438 54.4445L193.72 54.8056L194.003 56.6111L194.286 53.7222L194.569 53.3611L194.852 53.7222L195.134 55.1667L195.417 54.4445L195.7 55.8889L195.983 56.6111L196.266 56.25L196.548 59.8611L196.831 59.5L197.114 60.2222L197.397 63.8333L197.68 67.8056L197.963 65.2778L198.245 66H198.528L198.811 62.75L199.094 66.7222L199.377 67.4444L199.659 68.1667L199.942 69.6111L200.225 75.75L200.508 72.8611L200.791 80.8056L201.073 83.3333L201.356 80.8056L201.639 80.4444L201.922 78.2778L202.205 80.4444L202.487 78.6389L202.77 82.25L203.053 81.1667L203.336 82.25L203.619 81.5278L203.901 80.4444L204.184 81.8889L204.467 81.1667L204.75 81.8889L205.033 83.3333L205.315 84.4167L205.598 83.6944L205.881 83.3333L206.164 81.1667H206.447L206.729 83.3333L207.012 82.6111L207.295 83.6944L207.578 83.3333H207.861L208.143 82.25L208.426 82.6111L208.709 82.9722L208.992 82.25L209.275 83.6944L209.557 85.5L209.84 86.9444L210.123 89.4722L210.406 89.8333L210.689 89.1111L210.971 91.2778L211.254 90.5556L211.537 92.3611L211.82 91.2778L212.103 90.5556L212.385 89.8333L212.668 88.3889L212.951 84.7778L213.234 82.9722L213.517 83.3333L213.8 84.7778L214.082 85.8611L214.365 86.5833L214.648 86.9444L214.931 87.6667L215.214 88.3889L215.496 87.3056L215.779 88.3889L216.062 87.3056L216.345 86.5833L216.628 85.8611L216.91 84.7778L217.193 82.9722L217.476 83.6944L217.759 84.4167L218.042 84.7778L218.324 85.5L218.607 81.8889L218.89 79.3611L219.173 79.7222L219.456 78.6389L219.738 77.9167L220.021 70.3333L220.304 71.4167L220.587 75.0278L220.87 72.1389L221.152 74.3055L221.435 73.5833L221.718 73.2222L222.001 77.1944L222.284 76.8333L222.566 72.5L222.849 71.4167L223.132 71.0556L223.415 71.4167H223.698L223.98 72.8611L224.263 73.2222L224.546 72.8611H224.829L225.112 71.4167L225.394 72.1389H225.677L225.96 71.7778L226.243 72.8611L226.526 71.0556L226.808 71.7778L227.091 71.0556L227.374 67.8056L227.657 68.8889L227.94 70.6945L228.222 71.4167L228.505 73.2222L228.788 73.9445L229.071 77.1944L229.354 76.4722L229.637 75.3889L229.919 75.75L230.202 75.0278L230.485 75.75L230.768 75.3889L231.051 77.1944L231.333 75.75L231.616 76.8333L231.899 75.3889L232.182 75.75L232.465 75.0278L232.747 73.2222L233.03 73.5833L233.313 72.8611L233.596 72.5L233.879 73.2222L234.161 75.3889L234.444 74.6667L234.727 74.3055L235.01 72.8611L235.293 72.1389L235.575 72.8611L235.858 71.4167L236.141 74.3055L236.424 73.5833L236.707 75.3889L236.989 75.75L237.272 75.0278L237.555 77.9167L237.838 77.1944L238.121 78.6389L238.403 79.7222L238.686 77.9167L238.969 76.8333L239.252 77.9167L239.535 78.2778L239.817 77.5555L240.1 78.2778L240.383 77.9167L240.666 77.5555L240.949 76.8333L241.231 77.1944L241.514 77.5555L241.797 76.1111L242.08 74.6667L242.363 74.3055L242.645 75.0278H242.928L243.211 75.75L243.494 75.0278L243.777 75.75L244.059 76.4722L244.342 76.8333H244.625L244.908 76.4722H245.191L245.474 76.1111L245.756 74.3055L246.039 73.9445L246.322 74.6667L246.605 75.75L246.888 75.0278H247.17L247.453 72.5L247.736 72.8611L248.019 71.7778L248.302 71.0556L248.584 72.5L248.867 71.0556L249.15 71.4167L249.433 72.1389L249.716 72.5L249.998 73.5833H250.281L250.564 70.6945L250.847 62.75L251.13 62.0278L251.412 63.8333L251.695 59.5L251.978 67.4444L252.261 75.75L252.544 64.5556L252.826 66.7222L253.109 71.0556L253.392 72.8611L253.675 71.7778L253.958 71.0556L254.24 72.5L254.523 73.5833L254.806 73.2222H255.089L255.372 75.75L255.654 76.1111L255.937 74.3055L256.22 73.9445L256.503 74.3055L256.786 74.6667L257.068 74.3055L257.351 74.6667L257.634 75.3889L257.917 74.6667L258.2 71.4167L258.482 72.1389L258.765 70.6945L259.048 72.5L259.331 71.7778L259.614 72.1389L259.896 71.7778L260.179 72.5L260.462 71.4167L260.745 72.1389H261.028L261.311 72.8611L261.593 72.1389L261.876 71.7778L262.159 72.5L262.442 73.2222L262.725 76.4722L263.007 75.3889L263.29 75.75L263.573 77.1944L263.856 76.1111L264.139 76.4722L264.421 76.1111H264.704H264.987H265.27L265.553 75.75H265.835L266.118 76.8333H266.401L266.684 77.5555H266.967H267.249L267.532 76.8333H267.815L268.098 75.75L268.381 76.4722L268.663 76.1111L268.946 75.75L269.229 74.6667H269.512L269.795 73.9445L270.077 72.8611L270.36 71.7778L270.643 71.4167L270.926 68.8889L271.209 69.6111L271.491 68.1667L271.774 69.25L272.057 71.0556L272.34 70.6945L272.623 67.8056L272.905 69.25H273.188H273.471L273.754 70.3333L274.037 69.25L274.319 64.1944L274.602 63.1111L274.885 63.4722L275.168 62.3889L275.451 65.6389L275.733 64.9167L276.016 62.0278L276.299 62.3889L276.582 59.8611H276.865L277.148 61.6667L277.43 62.0278L277.713 59.1389L277.996 58.0556L278.279 60.5833H278.562L278.844 59.8611L279.127 60.2222L279.41 62.0278L279.693 59.5L279.976 56.9722L280.258 55.5278L280.541 49.75L280.824 51.1944L281.107 51.5556H281.39L281.672 54.8056L281.955 54.4445L282.238 56.25L282.521 59.1389L282.804 59.8611L283.086 58.7778L283.369 60.5833L283.652 61.6667L283.935 59.8611L284.218 60.5833L284.5 62.75L284.783 64.1944L285.066 63.8333L285.349 64.1944L285.632 63.4722L285.914 67.0833L286.197 68.1667L286.48 66.7222H286.763L287.046 63.1111L287.328 61.6667H287.611L287.894 64.5556L288.177 63.4722L288.46 60.5833L288.742 62.75H289.025L289.308 64.9167L289.591 63.1111L289.874 64.9167L290.156 63.8333L290.439 65.2778L290.722 66L291.005 64.9167L291.288 67.0833L291.57 65.6389L291.853 64.5556L292.136 65.6389L292.419 64.5556L292.702 64.9167L292.984 65.2778H293.267L293.55 63.8333H293.833L294.116 64.5556L294.399 64.9167L294.681 65.2778H294.964L295.247 64.5556L295.53 64.9167L295.813 65.2778L296.095 63.8333L296.378 63.1111L296.661 62.75L296.944 62.3889L297.227 63.4722L297.509 62.75L297.792 65.6389L298.075 67.0833L298.358 68.5278L298.641 67.8056L298.923 68.8889L299.206 69.25L299.489 68.5278L299.772 69.25L300.055 68.5278L300.337 68.8889H300.62L300.903 69.6111L301.186 70.3333L301.469 69.6111L301.751 68.5278L302.034 69.6111L302.317 68.8889L302.6 69.6111L302.883 70.3333L303.165 72.5L303.448 73.2222H303.731L304.014 74.6667L304.297 73.5833L304.579 74.3055L304.862 73.9445H305.145L305.428 74.3055L305.711 72.8611L305.993 73.5833H306.276L306.559 73.2222L306.842 73.9445L307.125 73.5833L307.408 72.8611L307.69 73.5833L307.973 72.8611L308.256 72.1389L308.539 71.7778L308.822 71.0556L309.104 72.1389L309.387 72.5L309.67 72.8611H309.953L310.236 72.5H310.518L310.801 72.8611L311.084 74.6667L311.367 75.3889L311.65 77.1944L311.932 76.8333L312.215 78.6389L312.498 82.9722L312.781 81.8889H313.064H313.346L313.629 82.6111L313.912 83.6944H314.195L314.478 82.9722L314.76 83.3333L315.043 82.9722L315.326 82.25L315.609 80.8056L315.892 81.1667L316.174 80.4444L316.457 81.5278L316.74 80.8056L317.023 81.5278L317.306 81.1667L317.588 82.9722L317.871 82.6111L318.154 81.1667L318.437 80.4444H318.72L319.002 79.3611L319.285 79.7222L319.568 80.8056L319.851 81.1667L320.134 80.4444H320.416L320.699 80.0833L320.982 78.2778H321.265L321.548 79L321.83 74.3055L322.113 75.75L322.396 76.1111L322.679 77.1944L322.962 76.8333L323.244 78.2778H323.527L323.81 77.1944H324.093L324.376 77.9167L324.659 77.5555L324.941 78.6389L325.224 79.3611L325.507 79H325.79L326.073 79.3611L326.355 79L326.638 79.7222L326.921 80.0833L327.204 79.7222L327.487 80.4444L327.769 80.8056L328.052 81.1667L328.335 80.8056H328.618H328.901L329.183 80.0833H329.466L329.749 80.4444H330.032H330.315H330.597H330.88L331.163 81.8889L331.446 82.6111L331.729 84.4167L332.011 84.0556H332.294H332.577L332.86 84.7778L333.143 85.1389L333.425 84.7778L333.708 85.1389H333.991H334.274L334.557 84.7778H334.839L335.122 83.6944L335.405 84.4167L335.688 85.1389L335.971 85.5H336.253H336.536L336.819 85.1389L337.102 84.7778H337.385H337.667L337.95 85.5H338.233L338.516 86.2222L338.799 86.9444L339.081 86.5833H339.364L339.647 86.2222L339.93 85.8611H340.213L340.496 86.2222L340.778 85.8611L341.061 85.5H341.344L341.627 86.2222H341.91H342.192L342.475 86.5833L342.758 86.2222L343.041 86.5833L343.324 86.9444L343.606 86.2222L343.889 85.8611H344.172L344.455 84.4167L344.738 85.1389L345.02 84.4167L345.303 84.7778L345.586 85.5L345.869 84.7778H346.152H346.434L346.717 85.8611L347 86.2222" fill="url(#paint1_linear_810_198)" style=""/>
<path d="M0 104.278H0.282804H0.565607H0.848411H1.13121H1.41402H1.69682H1.97963H2.26243H2.54523H2.82804H3.11084H3.39364H3.67645H3.95925H4.24205H4.52486H4.80766H5.09046H5.37327H5.65607H5.93888H6.22168H6.50448H6.78729H7.07009H7.35289H7.6357H7.9185H8.2013H8.48411H8.76691H9.04971H9.33252H9.61532H9.89813H10.1809H10.4637H10.7465H11.0293H11.3121H11.5949H11.8778H12.1606H12.4434H12.7262H13.009H13.2918H13.5746H13.8574H14.1402H14.423H14.7058H14.9886H15.2714H15.5542H15.837H16.1198H16.4026H16.6854H16.9682H17.251H17.5338H17.8166H18.0994H18.3822H18.665H18.9478H19.2306H19.5134H19.7963H20.0791H20.3619L20.6447 103.917H20.9275H21.2103H21.4931H21.7759H22.0587H22.3415H22.6243H22.9071H23.1899H23.4727H23.7555H24.0383H24.3211H24.6039H24.8867H25.1695H25.4523H25.7351H26.0179H26.3007L26.5835 104.278H26.8663H27.1491H27.4319H27.7148H27.9976H28.2804H28.5632H28.846H29.1288H29.4116H29.6944H29.9772H30.26H30.5428H30.8256H31.1084H31.3912H31.674H31.9568H32.2396H32.5224H32.8052H33.088H33.3708H33.6536H33.9364H34.2192H34.502H34.7848H35.0676H35.3504H35.6333H35.9161H36.1989H36.4817H36.7645H37.0473H37.3301H37.6129H37.8957H38.1785H38.4613H38.7441H39.0269H39.3097H39.5925H39.8753H40.1581H40.4409H40.7237H41.0065H41.2893H41.5721H41.8549H42.1377H42.4205L42.7033 104.639H42.9861H43.2689H43.5518H43.8346H44.1174H44.4002H44.683L44.9658 104.278L45.2486 104.639L45.5314 104.278H45.8142H46.097H46.3798H46.6626H46.9454H47.2282H47.511H47.7938H48.0766H48.3594H48.6422H48.925H49.2078H49.4906H49.7734H50.0562H50.339H50.6218H50.9046H51.1875H51.4703H51.7531H52.0359H52.3187H52.6015H52.8843H53.1671H53.4499H53.7327H54.0155H54.2983H54.5811H54.8639H55.1467H55.4295H55.7123H55.9951H56.2779H56.5607H56.8435H57.1263H57.4091H57.6919H57.9747H58.2575H58.5403H58.8231H59.1059H59.3888H59.6716H59.9544H60.2372H60.52H60.8028H61.0856H61.3684H61.6512H61.934L62.2168 103.917H62.4996H62.7824H63.0652H63.348H63.6308H63.9136H64.1964H64.4792H64.762H65.0448H65.3276L65.6104 103.556L65.8932 103.917H66.176H66.4588H66.7416H67.0245H67.3073H67.5901L67.8729 103.556H68.1557H68.4385H68.7213H69.0041H69.2869H69.5697H69.8525H70.1353L70.4181 103.194H70.7009H70.9837L71.2665 102.472H71.5493L71.8321 101.389L72.1149 100.667H72.3977H72.6805L72.9633 101.028L73.2461 101.389L73.5289 101.028H73.8117H74.0945L74.3773 100.667L74.6601 99.2222L74.9429 99.9444L75.2258 99.2222L75.5086 99.5833L75.7914 99.9444L76.0742 99.2222L76.357 98.8611L76.6398 98.1389L76.9226 97.7778L77.2054 96.6945L77.4882 95.9722L77.771 96.6945L78.0538 97.0555L78.3366 97.7778L78.6194 97.4167H78.9022H79.185L79.4678 97.0555L79.7506 94.1667L80.0334 94.5278L80.3162 90.1944H80.599L80.8818 89.4722L81.1646 91.2778L81.4474 90.9167L81.7302 91.6389L82.013 90.5556L82.2958 90.9167L82.5786 90.1944L82.8615 91.2778H83.1443L83.4271 92.3611L83.7099 93.0833L83.9927 93.4445L84.2755 94.1667L84.5583 92.7222L84.8411 93.0833L85.1239 92.3611L85.4067 91.2778L85.6895 91.6389L85.9723 92H86.2551L86.5379 91.2778L86.8207 92.3611L87.1035 92L87.3863 91.6389H87.6691L87.9519 92.7222L88.2347 92L88.5175 91.6389L88.8003 92L89.0831 91.6389L89.3659 92L89.6487 89.8333L89.9315 90.1944L90.2143 89.1111H90.4971L90.78 90.5556L91.0628 92L91.3456 93.0833L91.6284 92.7222L91.9112 92L92.194 92.3611L92.4768 91.2778L92.7596 92.3611L93.0424 91.2778L93.3252 85.5L93.608 75.0278L93.8908 76.8333L94.1736 72.8611L94.4564 75.3889L94.7392 76.4722L95.022 75.3889L95.3048 76.1111L95.5876 79.7222L95.8704 75.75L96.1532 77.5555L96.436 77.9167L96.7188 74.3055L97.0016 69.9722L97.2844 73.2222L97.5672 66.3611L97.85 67.4444L98.1328 67.0833L98.4156 51.5556L98.6984 47.5833L98.9813 42.8889H99.2641L99.5469 16.8889L99.8297 46.1389L100.112 38.9167L100.395 51.1944L100.678 61.6667L100.961 66L101.244 41.8056L101.526 34.9444L101.809 25.1944L102.092 31.3333L102.375 39.2778L102.658 43.9722L102.941 37.4722H103.223L103.506 38.9167L103.789 40L104.072 39.2778L104.355 46.1389L104.637 49.75L104.92 47.9444L105.203 51.1944L105.486 51.5556L105.769 51.1944L106.051 55.8889L106.334 59.8611L106.617 56.6111L106.9 51.9167L107.183 49.0278L107.465 46.1389L107.748 51.5556L108.031 50.8333L108.314 55.1667L108.597 55.8889L108.879 54.4445L109.162 65.2778L109.445 66.3611L109.728 62.3889L110.011 61.6667L110.293 67.4444L110.576 66L110.859 64.9167L111.142 64.5556L111.425 62.75H111.707L111.99 66.3611L112.273 65.2778L112.556 64.5556L112.839 63.4722L113.121 65.2778L113.404 64.1944H113.687L113.97 67.4444L114.253 67.0833L114.535 67.8056L114.818 67.4444L115.101 68.8889L115.384 70.6945L115.667 71.4167L115.949 73.2222L116.232 75.75L116.515 76.1111L116.798 76.4722L117.081 78.6389L117.363 80.0833L117.646 72.8611L117.929 73.2222L118.212 70.6945H118.495L118.778 71.0556L119.06 68.1667L119.343 67.4444L119.626 68.1667L119.909 67.8056L120.192 66.3611L120.474 66L120.757 67.0833H121.04L121.323 68.1667L121.606 67.0833L121.888 66.3611L122.171 66L122.454 62.75L122.737 66L123.02 64.1944L123.302 63.1111L123.585 55.5278L123.868 57.3333L124.151 50.4722L124.434 53L124.716 51.9167L124.999 53.7222L125.282 56.25L125.565 56.9722L125.848 51.9167L126.13 49.0278L126.413 47.5833L126.696 46.1389L126.979 46.5L127.262 51.5556L127.544 49.75L127.827 55.5278L128.11 50.1111L128.393 52.2778L128.676 53.7222L128.958 57.3333L129.241 56.6111L129.524 51.9167L129.807 52.6389L130.09 52.2778L130.372 42.1667L130.655 44.3333L130.938 45.7778L131.221 55.8889L131.504 56.9722L131.786 55.5278L132.069 58.0556L132.352 57.3333L132.635 56.9722L132.918 59.8611L133.2 57.3333L133.483 53.7222L133.766 55.1667L134.049 53.7222L134.332 55.5278L134.615 57.6944L134.897 64.1944L135.18 67.0833L135.463 60.5833H135.746L136.029 64.1944L136.311 64.5556L136.594 64.1944L136.877 65.6389L137.16 67.0833L137.443 65.2778L137.725 64.1944L138.008 59.1389L138.291 58.0556L138.574 56.9722L138.857 58.7778L139.139 57.3333L139.422 59.5L139.705 58.7778L139.988 56.6111L140.271 56.25L140.553 59.8611L140.836 60.2222L141.119 60.9444L141.402 60.2222L141.685 59.1389L141.967 47.2222L142.25 50.4722L142.533 52.2778L142.816 51.5556H143.099L143.381 49.3889L143.664 50.4722L143.947 50.1111L144.23 45.7778L144.513 48.3056L144.795 44.3333L145.078 42.5278L145.361 41.4444L145.644 28.0833L145.927 32.0556L146.209 37.4722L146.492 34.9444L146.775 36.0278L147.058 34.9444L147.341 31.3333L147.623 35.6667L147.906 36.3889L148.189 36.75H148.472L148.755 36.3889L149.037 40.7222L149.32 43.6111L149.603 41.4444L149.886 42.8889L150.169 41.8056L150.452 42.5278L150.734 43.9722L151.017 48.6667L151.3 45.7778L151.583 50.8333L151.866 46.5L152.148 44.6944L152.431 47.2222L152.714 48.6667L152.997 41.8056L153.28 43.9722L153.562 35.3056L153.845 45.7778L154.128 46.8611L154.411 45.4167L154.694 39.2778L154.976 40.3611L155.259 32.4167L155.542 28.0833L155.825 22.6667L156.108 33.5L156.39 30.9722L156.673 22.6667L156.956 20.1389L157.239 17.6111L157.522 29.5278H157.804L158.087 27.7222L158.37 29.5278L158.653 39.2778L158.936 34.9444L159.218 28.0833L159.501 30.25L159.784 28.0833L160.067 24.4722L160.35 24.8333L160.632 28.0833L160.915 19.4167L161.198 14.7222L161.481 8.22223L161.764 15.8056L162.046 9.66667L162.329 1L162.612 6.41667L162.895 15.0833L163.178 15.8056L163.46 12.9167L163.743 13.6389L164.026 12.1944L164.309 12.9167L164.592 17.25L164.874 19.4167L165.157 26.2778L165.44 23.75L165.723 30.9722L166.006 33.1389L166.289 28.4444L166.571 30.25L166.854 19.7778L167.137 18.3333L167.42 23.3889L167.703 20.5L167.985 20.1389L168.268 20.8611L168.551 24.8333L168.834 28.4444L169.117 31.6944L169.399 34.2222L169.682 43.6111L169.965 49.3889L170.248 46.5L170.531 50.4722L170.813 48.6667L171.096 47.5833H171.379L171.662 44.3333L171.945 43.6111L172.227 46.8611L172.51 45.7778L172.793 45.4167L173.076 49.3889L173.359 48.6667L173.641 43.6111L173.924 43.25L174.207 42.1667L174.49 32.0556L174.773 34.9444L175.055 31.3333L175.338 36.3889L175.621 42.8889L175.904 43.6111L176.187 45.0556H176.469L176.752 37.4722L177.035 38.5556L177.318 45.0556L177.601 47.5833L177.883 46.1389L178.166 50.4722L178.449 54.0833L178.732 52.2778L179.015 53H179.297L179.58 49.0278L179.863 50.1111L180.146 52.6389L180.429 46.5H180.711L180.994 45.7778L181.277 47.5833L181.56 51.5556L181.843 50.4722L182.126 53L182.408 53.7222L182.691 52.6389L182.974 50.4722L183.257 53L183.54 54.0833L183.822 54.4445L184.105 55.8889L184.388 55.1667H184.671L184.954 51.9167L185.236 52.6389L185.519 50.8333L185.802 49.75L186.085 52.2778L186.368 51.9167L186.65 50.4722L186.933 48.6667L187.216 46.1389L187.499 47.9444L187.782 46.8611L188.064 43.6111L188.347 45.0556L188.63 44.3333H188.913L189.196 46.5L189.478 43.6111L189.761 45.4167L190.044 43.9722L190.327 45.4167L190.61 47.5833L190.892 52.2778L191.175 50.4722L191.458 53L191.741 52.2778L192.024 53.3611L192.306 56.9722L192.589 54.8056L192.872 53.7222L193.155 55.5278L193.438 54.4445L193.72 54.8056L194.003 56.6111L194.286 53.7222L194.569 53.3611L194.852 53.7222L195.134 55.1667L195.417 54.4445L195.7 55.8889L195.983 56.6111L196.266 56.25L196.548 59.8611L196.831 59.5L197.114 60.2222L197.397 63.8333L197.68 67.8056L197.963 65.2778L198.245 66H198.528L198.811 62.75L199.094 66.7222L199.377 67.4444L199.659 68.1667L199.942 69.6111L200.225 75.75L200.508 72.8611L200.791 80.8056L201.073 83.3333L201.356 80.8056L201.639 80.4444L201.922 78.2778L202.205 80.4444L202.487 78.6389L202.77 82.25L203.053 81.1667L203.336 82.25L203.619 81.5278L203.901 80.4444L204.184 81.8889L204.467 81.1667L204.75 81.8889L205.033 83.3333L205.315 84.4167L205.598 83.6944L205.881 83.3333L206.164 81.1667H206.447L206.729 83.3333L207.012 82.6111L207.295 83.6944L207.578 83.3333H207.861L208.143 82.25L208.426 82.6111L208.709 82.9722L208.992 82.25L209.275 83.6944L209.557 85.5L209.84 86.9444L210.123 89.4722L210.406 89.8333L210.689 89.1111L210.971 91.2778L211.254 90.5556L211.537 92.3611L211.82 91.2778L212.103 90.5556L212.385 89.8333L212.668 88.3889L212.951 84.7778L213.234 82.9722L213.517 83.3333L213.8 84.7778L214.082 85.8611L214.365 86.5833L214.648 86.9444L214.931 87.6667L215.214 88.3889L215.496 87.3056L215.779 88.3889L216.062 87.3056L216.345 86.5833L216.628 85.8611L216.91 84.7778L217.193 82.9722L217.476 83.6944L217.759 84.4167L218.042 84.7778L218.324 85.5L218.607 81.8889L218.89 79.3611L219.173 79.7222L219.456 78.6389L219.738 77.9167L220.021 70.3333L220.304 71.4167L220.587 75.0278L220.87 72.1389L221.152 74.3055L221.435 73.5833L221.718 73.2222L222.001 77.1944L222.284 76.8333L222.566 72.5L222.849 71.4167L223.132 71.0556L223.415 71.4167H223.698L223.98 72.8611L224.263 73.2222L224.546 72.8611H224.829L225.112 71.4167L225.394 72.1389H225.677L225.96 71.7778L226.243 72.8611L226.526 71.0556L226.808 71.7778L227.091 71.0556L227.374 67.8056L227.657 68.8889L227.94 70.6945L228.222 71.4167L228.505 73.2222L228.788 73.9445L229.071 77.1944L229.354 76.4722L229.637 75.3889L229.919 75.75L230.202 75.0278L230.485 75.75L230.768 75.3889L231.051 77.1944L231.333 75.75L231.616 76.8333L231.899 75.3889L232.182 75.75L232.465 75.0278L232.747 73.2222L233.03 73.5833L233.313 72.8611L233.596 72.5L233.879 73.2222L234.161 75.3889L234.444 74.6667L234.727 74.3055L235.01 72.8611L235.293 72.1389L235.575 72.8611L235.858 71.4167L236.141 74.3055L236.424 73.5833L236.707 75.3889L236.989 75.75L237.272 75.0278L237.555 77.9167L237.838 77.1944L238.121 78.6389L238.403 79.7222L238.686 77.9167L238.969 76.8333L239.252 77.9167L239.535 78.2778L239.817 77.5555L240.1 78.2778L240.383 77.9167L240.666 77.5555L240.949 76.8333L241.231 77.1944L241.514 77.5555L241.797 76.1111L242.08 74.6667L242.363 74.3055L242.645 75.0278H242.928L243.211 75.75L243.494 75.0278L243.777 75.75L244.059 76.4722L244.342 76.8333H244.625L244.908 76.4722H245.191L245.474 76.1111L245.756 74.3055L246.039 73.9445L246.322 74.6667L246.605 75.75L246.888 75.0278H247.17L247.453 72.5L247.736 72.8611L248.019 71.7778L248.302 71.0556L248.584 72.5L248.867 71.0556L249.15 71.4167L249.433 72.1389L249.716 72.5L249.998 73.5833H250.281L250.564 70.6945L250.847 62.75L251.13 62.0278L251.412 63.8333L251.695 59.5L251.978 67.4444L252.261 75.75L252.544 64.5556L252.826 66.7222L253.109 71.0556L253.392 72.8611L253.675 71.7778L253.958 71.0556L254.24 72.5L254.523 73.5833L254.806 73.2222H255.089L255.372 75.75L255.654 76.1111L255.937 74.3055L256.22 73.9445L256.503 74.3055L256.786 74.6667L257.068 74.3055L257.351 74.6667L257.634 75.3889L257.917 74.6667L258.2 71.4167L258.482 72.1389L258.765 70.6945L259.048 72.5L259.331 71.7778L259.614 72.1389L259.896 71.7778L260.179 72.5L260.462 71.4167L260.745 72.1389H261.028L261.311 72.8611L261.593 72.1389L261.876 71.7778L262.159 72.5L262.442 73.2222L262.725 76.4722L263.007 75.3889L263.29 75.75L263.573 77.1944L263.856 76.1111L264.139 76.4722L264.421 76.1111H264.704H264.987H265.27L265.553 75.75H265.835L266.118 76.8333H266.401L266.684 77.5555H266.967H267.249L267.532 76.8333H267.815L268.098 75.75L268.381 76.4722L268.663 76.1111L268.946 75.75L269.229 74.6667H269.512L269.795 73.9445L270.077 72.8611L270.36 71.7778L270.643 71.4167L270.926 68.8889L271.209 69.6111L271.491 68.1667L271.774 69.25L272.057 71.0556L272.34 70.6945L272.623 67.8056L272.905 69.25H273.188H273.471L273.754 70.3333L274.037 69.25L274.319 64.1944L274.602 63.1111L274.885 63.4722L275.168 62.3889L275.451 65.6389L275.733 64.9167L276.016 62.0278L276.299 62.3889L276.582 59.8611H276.865L277.148 61.6667L277.43 62.0278L277.713 59.1389L277.996 58.0556L278.279 60.5833H278.562L278.844 59.8611L279.127 60.2222L279.41 62.0278L279.693 59.5L279.976 56.9722L280.258 55.5278L280.541 49.75L280.824 51.1944L281.107 51.5556H281.39L281.672 54.8056L281.955 54.4445L282.238 56.25L282.521 59.1389L282.804 59.8611L283.086 58.7778L283.369 60.5833L283.652 61.6667L283.935 59.8611L284.218 60.5833L284.5 62.75L284.783 64.1944L285.066 63.8333L285.349 64.1944L285.632 63.4722L285.914 67.0833L286.197 68.1667L286.48 66.7222H286.763L287.046 63.1111L287.328 61.6667H287.611L287.894 64.5556L288.177 63.4722L288.46 60.5833L288.742 62.75H289.025L289.308 64.9167L289.591 63.1111L289.874 64.9167L290.156 63.8333L290.439 65.2778L290.722 66L291.005 64.9167L291.288 67.0833L291.57 65.6389L291.853 64.5556L292.136 65.6389L292.419 64.5556L292.702 64.9167L292.984 65.2778H293.267L293.55 63.8333H293.833L294.116 64.5556L294.399 64.9167L294.681 65.2778H294.964L295.247 64.5556L295.53 64.9167L295.813 65.2778L296.095 63.8333L296.378 63.1111L296.661 62.75L296.944 62.3889L297.227 63.4722L297.509 62.75L297.792 65.6389L298.075 67.0833L298.358 68.5278L298.641 67.8056L298.923 68.8889L299.206 69.25L299.489 68.5278L299.772 69.25L300.055 68.5278L300.337 68.8889H300.62L300.903 69.6111L301.186 70.3333L301.469 69.6111L301.751 68.5278L302.034 69.6111L302.317 68.8889L302.6 69.6111L302.883 70.3333L303.165 72.5L303.448 73.2222H303.731L304.014 74.6667L304.297 73.5833L304.579 74.3055L304.862 73.9445H305.145L305.428 74.3055L305.711 72.8611L305.993 73.5833H306.276L306.559 73.2222L306.842 73.9445L307.125 73.5833L307.408 72.8611L307.69 73.5833L307.973 72.8611L308.256 72.1389L308.539 71.7778L308.822 71.0556L309.104 72.1389L309.387 72.5L309.67 72.8611H309.953L310.236 72.5H310.518L310.801 72.8611L311.084 74.6667L311.367 75.3889L311.65 77.1944L311.932 76.8333L312.215 78.6389L312.498 82.9722L312.781 81.8889H313.064H313.346L313.629 82.6111L313.912 83.6944H314.195L314.478 82.9722L314.76 83.3333L315.043 82.9722L315.326 82.25L315.609 80.8056L315.892 81.1667L316.174 80.4444L316.457 81.5278L316.74 80.8056L317.023 81.5278L317.306 81.1667L317.588 82.9722L317.871 82.6111L318.154 81.1667L318.437 80.4444H318.72L319.002 79.3611L319.285 79.7222L319.568 80.8056L319.851 81.1667L320.134 80.4444H320.416L320.699 80.0833L320.982 78.2778H321.265L321.548 79L321.83 74.3055L322.113 75.75L322.396 76.1111L322.679 77.1944L322.962 76.8333L323.244 78.2778H323.527L323.81 77.1944H324.093L324.376 77.9167L324.659 77.5555L324.941 78.6389L325.224 79.3611L325.507 79H325.79L326.073 79.3611L326.355 79L326.638 79.7222L326.921 80.0833L327.204 79.7222L327.487 80.4444L327.769 80.8056L328.052 81.1667L328.335 80.8056H328.618H328.901L329.183 80.0833H329.466L329.749 80.4444H330.032H330.315H330.597H330.88L331.163 81.8889L331.446 82.6111L331.729 84.4167L332.011 84.0556H332.294H332.577L332.86 84.7778L333.143 85.1389L333.425 84.7778L333.708 85.1389H333.991H334.274L334.557 84.7778H334.839L335.122 83.6944L335.405 84.4167L335.688 85.1389L335.971 85.5H336.253H336.536L336.819 85.1389L337.102 84.7778H337.385H337.667L337.95 85.5H338.233L338.516 86.2222L338.799 86.9444L339.081 86.5833H339.364L339.647 86.2222L339.93 85.8611H340.213L340.496 86.2222L340.778 85.8611L341.061 85.5H341.344L341.627 86.2222H341.91H342.192L342.475 86.5833L342.758 86.2222L343.041 86.5833L343.324 86.9444L343.606 86.2222L343.889 85.8611H344.172L344.455 84.4167L344.738 85.1389L345.02 84.4167L345.303 84.7778L345.586 85.5L345.869 84.7778H346.152H346.434L346.717 85.8611L347 86.2222" stroke="#CED4DA" style="stroke:#CED4DA;stroke:color(display-p3 0.8078 0.8314 0.8549);stroke-opacity:1;" stroke-width="0.5" stroke-linecap="round" stroke-linejoin="round"/>
<defs>
<linearGradient id="paint0_linear_810_198" x1="168.363" y1="41.0833" x2="162.236" y2="104.574" gradientUnits="userSpaceOnUse">
<stop stop-color="#F4F6F8" style="stop-color:#F4F6F8;stop-color:color(display-p3 0.9569 0.9647 0.9725);stop-opacity:1;"/>
<stop offset="1" stop-color="#F4F6F8" stop-opacity="0" style="stop-color:none;stop-color:none;stop-opacity:0;"/>
</linearGradient>
<linearGradient id="paint1_linear_810_198" x1="168.363" y1="40.9442" x2="162.278" y2="104.218" gradientUnits="userSpaceOnUse">
<stop stop-color="#F4F6F8" style="stop-color:#F4F6F8;stop-color:color(display-p3 0.9569 0.9647 0.9725);stop-opacity:1;"/>
<stop offset="1" stop-color="#F4F6F8" stop-opacity="0" style="stop-color:none;stop-color:none;stop-opacity:0;"/>
</linearGradient>
</defs>
</svg>
