<svg width="347" height="105" viewBox="0 0 347 105" fill="none" xmlns="http://www.w3.org/2000/svg">
<path d="M0 104.414L0.289408 104.414H0.578816H0.868224H1.15763H1.44704H1.73645H2.02585H2.31526H2.60467H2.89408H3.18349H3.47289L3.7623 104.414L4.05171 104.414H4.34112L4.63053 104.414L4.91993 104.414H5.20934L5.49875 104.414L5.78816 104.414L6.07756 104.414L6.36697 104.414L6.65638 104.414L6.94579 104.414H7.2352L7.5246 104.414H7.81401H8.10342H8.39283L8.68224 104.414L8.97164 104.414L9.26105 104.414L9.55046 104.414L9.83987 104.414L10.1293 104.414L10.4187 104.414L10.7081 104.414H10.9975L11.2869 104.414L11.5763 104.414L11.8657 104.414L12.1551 104.414L12.4445 104.414L12.7339 104.414L13.0234 104.414L13.3128 104.414L13.6022 104.414L13.8916 104.414L14.181 104.414L14.4704 104.414L14.7598 104.414L15.0492 104.414L15.3386 104.414L15.628 104.413L15.9174 104.414L16.2068 104.413L16.4962 104.414L16.7857 104.414L17.0751 104.414H17.3645H17.6539L17.9433 104.414L18.2327 104.413L18.5221 104.414L18.8115 104.414L19.1009 104.414L19.3903 104.413L19.6797 104.414L19.9691 104.414L20.2585 104.414L20.548 104.414L20.8374 104.414L21.1268 104.414L21.4162 104.414L21.7056 104.414L21.995 104.414L22.2844 104.414L22.5738 104.414L22.8632 104.411L23.1526 104.413L23.442 104.413L23.7314 104.414L24.0209 104.413L24.3103 104.413L24.5997 104.413L24.8891 104.414L25.1785 104.414L25.4679 104.414L25.7573 104.414L26.0467 104.413L26.3361 104.414L26.6255 104.414L26.9149 104.413H27.2043L27.4937 104.413L27.7832 104.413L28.0726 104.413L28.362 104.413L28.6514 104.414L28.9408 104.413L29.2302 104.413L29.5196 104.413L29.809 104.413L30.0984 104.413L30.3878 104.413L30.6772 104.413L30.9666 104.413L31.256 104.413L31.5455 104.413L31.8349 104.413L32.1243 104.413L32.4137 104.413L32.7031 104.413L32.9925 104.413L33.2819 104.34L33.5713 104.413L33.8607 104.37L34.1501 103.096L34.4395 104.412L34.7289 104.412L35.0183 104.322L35.3078 104.411L35.5972 104.404L35.8866 104.344L36.176 104.343L36.4654 104.408L36.7548 104.408L37.0442 104.408L37.3336 104.409L37.623 104.408L37.9124 104.405L38.2018 104.408L38.4912 104.408L38.7807 104.407L39.0701 104.406L39.3595 104.408L39.6489 104.408L39.9383 104.408L40.2277 104.408L40.5171 104.409L40.8065 104.409L41.0959 104.408L41.3853 104.407L41.6747 104.407L41.9641 104.406L42.2535 104.405L42.543 104.407L42.8324 104.408L43.1218 104.407L43.4112 104.405L43.7006 104.406L43.99 104.405L44.2794 104.405L44.5688 104.406L44.8582 104.33L45.1476 104.402L45.437 104.4L45.7264 104.398L46.0158 104.401L46.3053 104.403L46.5947 104.404L46.8841 104.405L47.1735 104.403L47.4629 104.404L47.7523 104.405L48.0417 104.404L48.3311 104.405L48.6205 104.407L48.9099 104.407L49.1993 104.405L49.4887 104.406L49.7782 104.405L50.0676 104.402L50.357 104.402L50.6464 104.404L50.9358 104.404L51.2252 104.403L51.5146 104.402L51.804 104.402L52.0934 104.404L52.3828 104.404L52.6722 104.405L52.9616 104.405L53.251 104.403L53.5404 104.403L53.8299 104.403L54.1193 104.404L54.4087 104.403L54.6981 104.405L54.9875 104.405L55.2769 104.402L55.5663 104.402L55.8557 104.403L56.1451 104.405L56.4345 104.404L56.7239 104.405L57.0133 104.403L57.3028 104.403L57.5922 104.401L57.8816 104.402L58.171 104.403L58.4604 104.401L58.7498 104.402L59.0392 104.403L59.3286 104.403L59.618 104.401L59.9074 104.403L60.1968 104.404L60.4862 104.405L60.7756 104.403L61.0651 104.403L61.3545 104.404L61.6439 104.403L61.9333 104.403L62.2227 104.404L62.5121 104.403L62.8015 104.403L63.0909 104.404L63.3803 104.402L63.6697 104.402L63.9591 104.399L64.2485 104.399L64.5379 104.4L64.8274 104.401L65.1168 104.402L65.4062 104.346L65.6956 104.401L65.985 104.4L66.2744 104.399L66.5638 104.399L66.8532 104.401L67.1426 104.399L67.432 104.395L67.7214 104.395L68.0108 104.385L68.3003 104.357L68.5897 104.371L68.8791 104.389L69.1685 104.393L69.4579 104.392L69.7473 104.39L70.0367 104.393L70.3261 104.392L70.6155 104.388L70.9049 104.394L71.1943 104.394L71.4837 104.394L71.7731 104.389L72.0626 104.393L72.352 104.395L72.6414 104.38L72.9308 104.393L73.2202 104.394L73.5096 104.386L73.799 104.389L74.0884 104.388L74.3778 104.388L74.6672 104.382L74.9566 104.371L75.246 104.388L75.5354 104.386L75.8249 104.383L76.1143 104.384L76.4037 104.382L76.6931 104.384L76.9825 104.381L77.2719 104.376L77.5613 104.375L77.8507 104.378L78.1401 104.375L78.4295 104.372L78.7189 104.37L79.0083 104.369L79.2977 104.363L79.5872 104.351L79.8766 104.289L80.166 104.33L80.4554 104.348L80.7448 104.358L81.0342 104.358L81.3236 104.347L81.613 104.351L81.9024 104.352L82.1918 104.358L82.4812 104.356L82.7706 104.354L83.0601 104.361L83.3495 104.348L83.6389 104.348L83.9283 104.356L84.2177 104.352L84.5071 104.356L84.7965 104.353L85.0859 104.35L85.3753 104.341L85.6647 104.343L85.9541 104.347L86.2435 104.34L86.5329 104.34L86.8224 104.346L87.1117 104.346L87.4012 104.278L87.6906 104.317L87.98 104.329L88.2694 104.269L88.5588 104.315L88.8482 104.328L89.1376 104.342L89.427 104.335L89.7164 104.318L90.0058 104.324L90.2952 104.309L90.5846 104.316L90.8741 104.31L91.1635 104.254L91.4529 104.303L91.7423 104.304L92.0317 104.15L92.3211 104.279L92.6105 104.283L92.8999 104.233L93.1893 104.315L93.4787 104.305L93.7681 104.302L94.0575 104.295L94.347 104.293L94.6364 104.291L94.9258 104.281L95.2152 104.148L95.5046 104.272L95.794 104.241L96.0834 104.174L96.3728 104.172L96.6622 104.188L96.9516 104.126L97.241 104.136L97.5304 104.078L97.8198 104.058L98.1093 103.998L98.3987 104.044L98.6881 104.035L98.9775 103.958L99.2669 104.061L99.5563 104.041L99.8457 103.464L100.135 103.146L100.425 103.606L100.714 103.909L101.003 103.941L101.293 103.952L101.582 103.716L101.872 103.866L102.161 103.819L102.45 103.721L102.74 103.912L103.029 103.839L103.319 103.977L103.608 103.846L103.897 103.927L104.187 103.891L104.476 103.652L104.766 103.627L105.055 103.516L105.344 103.672L105.634 103.792L105.923 103.76L106.213 103.724L106.502 103.473L106.791 103.201L107.081 103.34L107.37 103.611L107.66 103.433L107.949 103.481L108.239 103.419L108.528 103.541L108.817 101.954L109.107 102.862L109.396 101.777L109.686 102.672L109.975 103.153L110.264 102.992L110.554 102.612L110.843 102.917L111.133 103.267L111.422 103.432L111.711 103.433L112.001 103.043L112.29 102.986L112.58 102.62L112.869 103.392L113.158 103.465L113.448 102.627L113.737 101.954L114.027 102.981L114.316 102.646L114.605 102.678L114.895 102.43L115.184 103.105L115.474 101.23L115.763 101.778L116.053 102.243L116.342 102.942L116.631 102.944L116.921 103.292L117.21 102.996L117.5 103.195L117.789 103.181L118.078 102.877L118.368 102.787L118.657 102.361L118.947 102.806L119.236 100.755L119.525 102.777L119.815 103.423L120.104 103.137L120.394 103.102L120.683 101.645L120.972 102.301L121.262 102.89L121.551 102.05L121.841 101.978L122.13 103.28L122.42 103.085L122.709 102.923L122.998 102.477L123.288 101.106L123.577 102.468L123.867 101.777L124.156 102.465L124.445 101.832L124.735 102.696L125.024 103.014L125.314 102.456L125.603 101.911L125.892 101.669L126.182 102.296L126.471 102.8L126.761 102.173L127.05 102.711L127.339 102.736L127.629 102.219L127.918 102.113L128.208 102.377L128.497 101.946L128.786 102.257L129.076 101.833L129.365 101.68L129.655 101.195L129.944 101.566L130.234 102.276L130.523 102.565L130.812 101.759L131.102 101.942L131.391 102.084L131.681 102.717L131.97 102.61L132.259 102.177L132.549 102.525L132.838 102.442L133.128 102.251L133.417 102.181L133.706 101.218L133.996 101.818L134.285 102.01L134.575 101.641L134.864 102.054L135.153 101.349L135.443 100.064L135.732 101.059L136.022 101.389L136.311 99.6183L136.6 101.085L136.89 101.422L137.179 102.091L137.469 85.3132L137.758 98.42L138.048 97.3109L138.337 94.138L138.626 101.607L138.916 75.6445L139.205 54.158L139.495 93.6682L139.784 99.1901L140.073 99.8086L140.363 100.183L140.652 99.4123L140.942 100.818L141.231 99.7914L141.52 100.06L141.81 100.469L142.099 100.968L142.389 100.074L142.678 100.193L142.967 101.419L143.257 101.471L143.546 101.432L143.836 101.814L144.125 101.538L144.415 100.16L144.704 100.725L144.993 101.307L145.283 101.552L145.572 101.927L145.862 101.605L146.151 101.532L146.44 100.284L146.73 99.6986L147.019 101.361L147.309 100.692L147.598 101.269L147.887 101.552L148.177 101.406L148.466 100.233L148.756 101.05L149.045 101.282L149.334 100.376L149.624 101.726L149.913 101.696L150.203 101.687L150.492 100.003L150.781 101.276L151.071 100.998L151.36 101.491L151.65 100.972L151.939 100.916L152.229 101.666L152.518 0.413818L152.807 71.9221L153.097 100.16L153.386 100.003L153.676 100.731L153.965 100.469L154.254 67.7529L154.544 64.8834L154.833 100.997L155.123 90.8852L155.412 101.181L155.701 100.168L155.991 99.8778L156.28 100.85L156.57 97.6426L156.859 99.4335L157.148 100.431L157.438 100.748L157.727 100.954L158.017 100.74L158.306 101.361L158.595 99.9033L158.885 100.278L159.174 99.9783L159.464 99.0171L159.753 99.724L160.043 100.638L160.332 100.702L160.621 100.558L160.911 100.575L161.2 100.889L161.49 100.529L161.779 100.531L162.068 100.051L162.358 100.515L162.647 100.003L162.937 98.8206L163.226 100.543L163.515 98.0366L163.805 101.419L164.094 101.481L164.384 100.825L164.673 100.03L164.962 100.475L165.252 100.843L165.541 101.138L165.831 101.162L166.12 101.54L166.41 101.061L166.699 100.535L166.988 100.998L167.278 101.017L167.567 101.271L167.857 101.232L168.146 101.161L168.435 100.375L168.725 98.9606L169.014 98.323L169.304 97.8565L169.593 97.7375L169.882 98.1804L170.172 101.247L170.461 101.48L170.751 101.663L171.04 101.416L171.329 82.9714L171.619 86.4276L171.908 39.3037L172.198 23.6497L172.487 101.408L172.776 101.3L173.066 102.185L173.355 101.911L173.645 101.709L173.934 102.08L174.224 102.051L174.513 102.069L174.802 101.324L175.092 101.864L175.381 101.146L175.671 101.035L175.96 101.313L176.249 101.301L176.539 101.11L176.828 101.671L177.118 101.186L177.407 100.709L177.696 100.812L177.986 99.7335L178.275 98.2625L178.565 100.006L178.854 95.6795L179.143 98.6637L179.433 101.349L179.722 101.238L180.012 101.216L180.301 101.497L180.59 101.539L180.88 100.818L181.169 94.7413L181.459 95.3947L181.748 100.467L182.038 101.151L182.327 101.404L182.616 101.548L182.906 101.349L183.195 101.372L183.485 101.66L183.774 101.841L184.063 101.726L184.353 101.973L184.642 101.64L184.932 101.236L185.221 101.27L185.51 101.36L185.8 100.766L186.089 101.39L186.379 101.742L186.668 100.946L186.957 100.663L187.247 95.5156L187.536 101.297L187.826 102.298L188.115 102.215L188.405 102.316L188.694 101.922L188.983 101.776L189.273 101.355L189.562 101.135L189.852 101.105L190.141 101.501L190.43 100.4L190.72 101.811L191.009 101.474L191.299 101.03L191.588 94.0949L191.877 101.408L192.167 101.069L192.456 101.867L192.746 101.96L193.035 101.302L193.324 101.192L193.614 101.388L193.903 101.127L194.193 99.6109L194.482 99.7935L194.771 100.847L195.061 101.236L195.35 99.9498L195.64 100.519L195.929 93.885L196.219 101.275L196.508 101.225L196.797 101.396L197.087 101.108L197.376 101.011L197.666 101.234L197.955 101.386L198.244 101.14L198.534 101.385L198.823 101.232L199.113 100.736L199.402 100.552L199.691 100.499L199.981 98.0625L200.27 98.8861L200.56 100.189L200.849 100.204L201.138 95.8442L201.428 95.6319L201.717 94.9836L202.007 96.7682L202.296 97.0765L202.585 101.214L202.875 98.1669L203.164 98.4827L203.454 100.4L203.743 97.8883L204.033 97.1914L204.322 92.7266L204.611 94.8922L204.901 100.398L205.19 100.005L205.48 100.421L205.769 99.9767L206.058 101.05L206.348 101.25L206.637 101.014L206.927 98.2564L207.216 95.8199L207.505 101.294L207.795 101.63L208.084 101.649L208.374 101.574L208.663 101.921L208.952 101.888L209.242 101.335L209.531 101.279L209.821 101.04L210.11 99.7704L210.399 101.599L210.689 101.495L210.978 101.5L211.268 101.158L211.557 101.281L211.847 101.131L212.136 100.814L212.425 101.672L212.715 101.683L213.004 101.301L213.294 100.486L213.583 101.435L213.872 100.363L214.162 100.74L214.451 100.694L214.741 101.489L215.03 101.743L215.319 101.249L215.609 101.067L215.898 101.602L216.188 101.523L216.477 101.867L216.766 100.932L217.056 101.597L217.345 101.704L217.635 101.335L217.924 101.07L218.214 101.548L218.503 100.96L218.792 99.0868L219.082 101.227L219.371 99.645L219.661 100.68L219.95 100.908L220.239 100.653L220.529 101.076L220.818 100.889L221.108 101.488L221.397 101.292L221.686 101.425L221.976 101.513L222.265 101.151L222.555 101.269L222.844 100.465L223.133 100.354L223.423 101.37L223.712 101.136L224.002 101.388L224.291 101.286L224.58 100.873L224.87 101.182L225.159 101.125L225.449 101.042L225.738 101.253L226.028 101.45L226.317 101.226L226.606 101.242L226.896 101.741L227.185 101.488L227.475 101.409L227.764 101.578L228.053 101.012L228.343 100.953L228.632 98.6812L228.922 97.9436L229.211 99.7122L229.5 100.627L229.79 101.436L230.079 100.54L230.369 101.337L230.658 101.305L230.947 101.194L231.237 101.41L231.526 100.826L231.816 100.384L232.105 100.619L232.394 99.4732L232.684 96.4897L232.973 101.389L233.263 100.23L233.552 92.9776L233.842 98.9973L234.131 99.0386L234.42 100.139L234.71 100.939L234.999 101.128L235.289 101.323L235.578 100.728L235.867 97.4919L236.157 100.542L236.446 100.391L236.736 98.577L237.025 101.721L237.314 101.623L237.604 101.092L237.893 100.375L238.183 101.015L238.472 100.954L238.761 100.144L239.051 100.441L239.34 101.784L239.63 101.273L239.919 101.384L240.208 101.665L240.498 98.2357L240.787 93.2687L241.077 101.039L241.366 101.952L241.656 101.752L241.945 101.211L242.234 101.394L242.524 101.349L242.813 101.97L243.103 102.071L243.392 101.341L243.681 98.9791L243.971 99.9607L244.26 101.75L244.55 101.291L244.839 101.792L245.128 101.268L245.418 101.011L245.707 100.066L245.997 100.372L246.286 99.741L246.575 100.473L246.865 101.179L247.154 101.124L247.444 100.51L247.733 100.77L248.023 100.446L248.312 100.413L248.601 100.682L248.891 100.37L249.18 99.9634L249.47 100.566L249.759 99.7009L250.048 98.7278L250.338 101.295L250.627 101.284L250.917 96.9274L251.206 92.3947L251.495 81.441L251.785 91.1561L252.074 98.0372L252.364 96.8027L252.653 98.016L252.942 98.5332L253.232 99.1521L253.521 98.6909L253.811 99.6974L254.1 98.5863L254.389 98.1657L254.679 98.6413L254.968 97.406L255.258 99.7532L255.547 90.1891L255.837 93.8927L256.126 97.111L256.415 98.9679L256.705 98.7957L256.994 96.8573L257.284 93.9661L257.573 93.9716L257.862 99.9618L258.152 100.385L258.441 96.3042L258.731 95.7482L259.02 96.8897L259.309 94.8293L259.599 98.2119L259.888 98.2679L260.178 99.4079L260.467 98.4347L260.756 98.4208L261.046 98.7296L261.335 99.4402L261.625 87.5225L261.914 90.1043L262.203 94.1951L262.493 91.4567L262.782 97.9919L263.072 92.638L263.361 97.9048L263.651 94.2791L263.94 96.2565L264.229 81.9514L264.519 80.1534L264.808 96.2762L265.098 96.0993L265.387 98.0665L265.676 97.8274L265.966 99.5819L266.255 97.2853L266.545 98.4357L266.834 99.6614L267.123 99.4234L267.413 99.6726L267.702 99.8954L267.992 99.2916L268.281 99.357L268.57 97.6596L268.86 100.083L269.149 99.4642L269.439 97.0152L269.728 98.3459L270.018 100.207L270.307 96.7329L270.596 99.4845L270.886 98.8692L271.175 98.6108L271.465 100.085L271.754 99.5474L272.043 99.2988L272.333 99.5237L272.622 96.1851L272.912 97.2389L273.201 99.4447L273.49 99.0057L273.78 99.7183L274.069 99.4746L274.359 100.133L274.648 99.1682L274.937 97.523L275.227 100.455L275.516 100.217L275.806 100.067L276.095 100.249L276.384 100.328L276.674 99.4971L276.963 97.3794L277.253 96.6265L277.542 98.9847L277.832 99.0475L278.121 97.3406L278.41 94.0957L278.7 99.4924L278.989 96.4319L279.279 98.9915L279.568 96.8518L279.857 97.5586L280.147 97.202L280.436 99.7751L280.726 93.6436L281.015 94.8455L281.304 98.4124L281.594 97.34L281.883 90.5447L282.173 91.9597L282.462 97.3652L282.751 99.6787L283.041 100.357L283.33 96.2039L283.62 97.9499L283.909 99.9293L284.198 100.156L284.488 98.6479L284.777 100.394L285.067 101.14L285.356 99.9991L285.646 100.994L285.935 100.577L286.224 99.7338L286.514 100.786L286.803 98.9708L287.093 98.6357L287.382 99.3815L287.671 98.1397L287.961 98.1282L288.25 96.0283L288.54 99.1944L288.829 99.6448L289.118 100.554L289.408 99.9617L289.697 98.7768L289.987 98.4509L290.276 99.9257L290.565 100.838L290.855 100.003L291.144 98.177L291.434 98.7339L291.723 98.798L292.013 98.3787L292.302 99.2924L292.591 100.245L292.881 99.0384L293.17 100.186L293.46 99.1527L293.749 98.5327L294.038 96.3691L294.328 97.9555L294.617 98.4037L294.907 97.7534L295.196 99.1059L295.485 99.7697L295.775 98.8994L296.064 99.1569L296.354 98.8732L296.643 99.0229L296.932 99.4202L297.222 99.1647L297.511 97.9589L297.801 99.1237L298.09 99.5777L298.379 98.9409L298.669 99.2681L298.958 98.9313L299.248 97.3522L299.537 97.5482L299.827 93.9713L300.116 95.9634L300.405 99.1291L300.695 98.7745L300.984 96.3147L301.274 98.3739L301.563 99.0383L301.852 98.6427L302.142 98.633L302.431 98.5124L302.721 99.2572L303.01 99.0995L303.299 98.9309L303.589 98.882L303.878 98.5512L304.168 97.797L304.457 98.2051L304.746 99.5291L305.036 99.7989L305.325 99.5375L305.615 99.4718L305.904 96.0401L306.193 99.3241L306.483 99.7605L306.772 97.8671L307.062 100.109L307.351 99.6233L307.641 100.366L307.93 100.199L308.219 99.8045L308.509 99.3086L308.798 99.3153L309.088 98.8306L309.377 98.6522L309.666 98.0269L309.956 93.8034L310.245 99.1481L310.535 97.2993L310.824 98.2885L311.113 98.7353L311.403 89.9645L311.692 88.0846L311.982 81.7164L312.271 72.2088L312.56 96.5863L312.85 97.0642L313.139 97.8493L313.429 95.0068L313.718 88.2114L314.007 96.6548L314.297 74.0941L314.586 97.5548L314.876 97.1252L315.165 94.7021L315.455 97.9408L315.744 97.736L316.033 95.0544L316.323 93.5264L316.612 93.8545L316.902 94.6737L317.191 94.371L317.48 94.5928L317.77 94.7101L318.059 96.5869L318.349 96.8145L318.638 84.3375L318.927 95.6504L319.217 96.623L319.506 91.186L319.796 97.6193L320.085 97.5736L320.374 94.8981L320.664 96.4106L320.953 95.7597L321.243 97.5465L321.532 96.3616L321.822 96.4202L322.111 96.0052L322.4 95.107L322.69 92.8569L322.979 94.5043L323.269 92.9757L323.558 95.7748L323.847 94.869L324.137 96.4021L324.426 94.9564L324.716 94.5763L325.005 95.9992L325.294 95.2618L325.584 94.6253L325.873 93.1214L326.163 93.8253L326.452 92.8148L326.741 94.5033L327.031 94.6865L327.32 97.1489L327.61 95.4035L327.899 93.7582L328.188 93.264L328.478 94.1586L328.767 93.0394L329.057 94.9059L329.346 94.9973L329.636 96.1301L329.925 88.9032L330.214 93.8025L330.504 94.0565L330.793 91.7391L331.083 93.5187L331.372 93.2335L331.661 94.6604L331.951 93.6287L332.24 90.4564L332.53 94.3259L332.819 94.0201L333.108 87.5112L333.398 94.2622L333.687 97.2411L333.977 95.5135L334.266 94.817L334.555 95.1198L334.845 93.3898L335.134 90.2286L335.424 89.3225L335.713 92.8205L336.002 92.3991L336.292 95.3345L336.581 92.2914L336.871 87.9075L337.16 79.4432L337.45 94.0469L337.739 92.7422L338.028 93.978L338.318 94.9372L338.607 91.7816L338.897 92.7517L339.186 90.3662L339.475 90.7346L339.765 93.5504L340.054 88.37L340.344 95.5224L340.633 87.1331L340.922 92.386L341.212 92.1976L341.501 91.0238L341.791 93.3948L342.08 92.4814L342.369 92.699L342.659 91.9037L342.948 90.1817L343.238 87.9065L343.527 91.7457L343.816 90.5452L344.106 90.9809L344.395 94.1097L344.685 90.9021L344.974 93.1303L345.264 93.0701L345.553 96.1571L345.842 94.8181L346.132 94.482L346.421 90.5489L346.711 92.159L347 84.4749" stroke="#CED4DA" style="stroke:#CED4DA;stroke:color(display-p3 0.8078 0.8314 0.8549);stroke-opacity:1;" stroke-width="0.5" stroke-linecap="round" stroke-linejoin="round"/>
</svg>
