<svg width="347" height="105" viewBox="0 0 347 105" fill="none" xmlns="http://www.w3.org/2000/svg">
<path d="M0 104.334L0.289408 104.336H0.578816H0.868223H1.15763H1.44704H1.73645H2.02585H2.31526H2.60467H2.89408H3.18349H3.47289L3.7623 104.335L4.05171 104.336H4.34112L4.63053 104.336L4.91993 104.336L5.20934 104.336L5.49875 104.336L5.78816 104.335L6.07756 104.334L6.36697 104.335L6.65638 104.336L6.94579 104.336L7.2352 104.336L7.5246 104.336H7.81401L8.10342 104.336L8.39283 104.336L8.68224 104.336L8.97164 104.335L9.26105 104.336L9.55046 104.336L9.83987 104.335L10.1293 104.336H10.4187L10.7081 104.336L10.9975 104.335L11.2869 104.335L11.5763 104.335L11.8657 104.336L12.1551 104.334L12.4445 104.335L12.7339 104.335L13.0234 104.336L13.3128 104.335L13.6022 104.335L13.8916 104.335L14.181 104.335L14.4704 104.334L14.7598 104.332L15.0492 104.335L15.3386 104.335L15.628 104.324L15.9174 103.7L16.2068 104.332L16.4962 104.331L16.7857 104.325L17.0751 104.331L17.3645 104.329L17.6539 104.33L17.9433 104.328L18.2327 104.32L18.5221 104.326L18.8115 104.309L19.1009 104.312L19.3903 104.313L19.6797 104.31L19.9691 104.311L20.2586 104.313H20.548L20.8374 104.311L21.1268 104.31L21.4162 104.308L21.7056 104.312L21.995 104.31L22.2844 104.309L22.5738 104.307L22.8632 104.275L23.1526 104.297L23.442 104.309L23.7314 104.307L24.0208 104.305L24.3103 104.311L24.5997 104.306L24.8891 104.307L25.1785 104.303L25.4679 104.303L25.7573 104.305L26.0467 104.302L26.3361 104.304L26.6255 104.298L26.9149 104.304L27.2043 104.298L27.4937 104.298L27.7832 104.298L28.0726 104.3L28.362 104.298L28.6514 104.303L28.9408 104.296L29.2302 104.301L29.5196 104.3L29.809 104.294H30.0984L30.3878 104.289L30.6772 104.289L30.9666 104.282L31.256 104.29L31.5455 104.294L31.8349 104.299L32.1243 104.299L32.4137 104.287L32.7031 104.296L32.9925 104.298L33.2819 104.285L33.5713 104.285L33.8607 103.876L34.1501 91.3084L34.4395 104.286L34.7289 104.282L35.0184 104.285L35.3078 104.276L35.5972 104.221L35.8866 103.975L36.176 104.068L36.4654 104.247L36.7548 104.249L37.0442 104.251H37.3336L37.623 104.24L37.9124 104.214L38.2018 104.236L38.4912 104.244L38.7806 104.241L39.0701 104.235L39.3595 104.244L39.6489 104.248L39.9383 104.251L40.2277 104.256L40.5171 104.268L40.8065 104.253L41.0959 104.254L41.3853 104.211L41.6747 104.216L41.9641 104.23L42.2535 104.222L42.543 104.238L42.8324 104.245L43.1218 104.25L43.4112 104.23L43.7006 103.887L43.99 104.24L44.2794 104.228L44.5688 104.237L44.8582 104.243L45.1476 104.242L45.437 104.227L45.7264 104.213L46.0158 104.242L46.3053 104.238L46.5947 104.248L46.8841 104.221L47.1735 104.22L47.4629 104.228L47.7523 104.237L48.0417 104.246L48.3311 104.237L48.6205 104.25L48.9099 104.252L49.1993 104.244L49.4887 104.248L49.7782 104.246L50.0676 104.212L50.357 104.235L50.6464 104.249L50.9358 104.25L51.2252 104.234L51.5146 104.246L51.804 104.234L52.0934 104.25L52.3828 104.252L52.6722 104.254L52.9616 104.247L53.251 104.242L53.5404 104.243L53.8299 104.239L54.1193 104.239L54.4087 104.239L54.6981 104.247L54.9875 104.238L55.2769 104.223L55.5663 104.23L55.8557 104.231L56.1451 104.25L56.4345 104.245L56.7239 104.251L57.0133 104.247L57.3028 104.234L57.5922 104.204L57.8816 104.23L58.171 104.225L58.4604 104.2L58.7498 104.203L59.0392 104.199L59.3286 104.222L59.618 104.213L59.9074 104.217L60.1968 104.236L60.4862 104.25L60.7756 104.234L61.0651 104.221L61.3545 104.227L61.6439 104.236L61.9333 104.251L62.2227 104.23L62.5121 104.235L62.8015 104.242L63.0909 104.24L63.3803 104.247L63.6697 104.207L63.9591 104.22L64.2485 104.223L64.538 104.233L64.8274 104.218L65.1168 104.229L65.4062 104.244L65.6956 104.208L65.985 104.214L66.2744 104.207L66.5638 104.225L66.8532 104.199L67.1426 104.2L67.432 104.175L67.7214 104.174L68.0108 104.154L68.3002 103.979L68.5897 103.95L68.8791 104.123L69.1685 104.179L69.4579 104.148L69.7473 104.147L70.0367 104.16L70.3261 104.171L70.6155 104.097L70.9049 104.138L71.1943 104.163L71.4837 104.165L71.7731 104.183L72.0626 104.169L72.352 104.179L72.6414 104.032L72.9308 104.154L73.2202 104.157L73.5096 104.13L73.799 104.115L74.0884 104.09L74.3778 104.094L74.6672 103.913L74.9566 104.072L75.246 104.113L75.5354 104.086L75.8249 104.073L76.1143 104.09L76.4037 104.07L76.6931 104.054L76.9825 103.979L77.2719 103.871L77.5613 103.927L77.8507 103.971L78.1401 103.898L78.4295 103.859L78.7189 103.883L79.0083 103.83L79.2977 103.77L79.5872 103.672L79.8766 103.343L80.166 103.547L80.4554 103.614L80.7448 103.719L81.0342 103.705L81.3236 103.582L81.613 103.594L81.9024 103.578L82.1918 103.592L82.4812 103.599L82.7706 103.588L83.06 103.622L83.3495 103.533L83.6389 103.545L83.9283 103.601L84.2177 103.6L84.5071 103.611L84.7965 103.587L85.0859 103.529L85.3753 103.386L85.6647 103.427L85.9541 103.363L86.2435 103.32L86.5329 103.527L86.8223 103.582L87.1118 103.546L87.4012 103.365L87.6906 103.253L87.98 103.41L88.2694 103.11L88.5588 103.266L88.8482 102.947L89.1376 103.499L89.427 103.451L89.7164 103.274L90.0058 103.356L90.2953 103.435L90.5847 103.373L90.8741 103.266L91.1635 103.326L91.4529 103.187L91.7423 103.23L92.0317 103.281L92.3211 103.011L92.6105 103.049L92.8999 103.233L93.1893 103.359L93.4787 103.019L93.7681 103.138L94.0575 102.918L94.347 103.041L94.6364 102.74L94.9258 102.881L95.2152 103.017L95.5046 102.807L95.794 102.304L96.0834 101.641L96.3728 101.33L96.6622 101.404L96.9516 100.704L97.241 100.745L97.5304 100.631L97.8198 100.371L98.1093 100.581L98.3987 100.672L98.6881 100.418L98.9775 100.1L99.2669 100.659L99.5563 100.209L99.8457 100.405L100.135 100.174L100.425 99.537L100.714 99.9231L101.003 96.3371L101.293 98.5253L101.582 98.5201L101.872 98.489L102.161 96.9853L102.45 97.7622L102.74 97.7319L103.029 98.1322L103.319 98.7928L103.608 99.0724L103.897 98.1107L104.187 97.8333L104.476 96.9905L104.766 96.7367L105.055 96.5726L105.344 97.2855L105.634 97.0388L105.923 96.2217L106.213 95.5071L106.502 92.7928L106.791 94.0533L107.081 94.7013L107.37 94.9933L107.66 95.6133L107.949 93.1026L108.239 93.7585L108.528 93.8798L108.817 92.3437L109.107 90.0156L109.396 93.6646L109.686 92.8363L109.975 89.6924L110.264 86.506L110.554 85.8657L110.843 84.9137L111.133 89.4466L111.422 91.2151L111.711 91.1066L112.001 89.9395L112.29 89.9574L112.58 90.4224L112.869 90.7808L113.158 90.7713L113.448 92.4159L113.737 90.6751L114.027 90.2711L114.316 88.0202L114.606 90.3168L114.895 89.4713L115.184 90.5672L115.474 90.5567L115.763 90.1219L116.053 86.6628L116.342 87.6301L116.631 89.3766L116.921 91.0787L117.21 87.8014L117.5 90.3518L117.789 90.5088L118.078 85.5319L118.368 88.1666L118.657 89.7542L118.947 89.0533L119.236 89.0954L119.525 89.4491L119.815 89.4549L120.104 87.3262L120.394 88.2239L120.683 87.7219L120.972 87.231L121.262 87.3063L121.551 87.7249L121.841 88.8294L122.13 87.7781L122.42 88.8154L122.709 85.5896L122.998 79.9624L123.288 85.8061L123.577 84.1151L123.867 78.8065L124.156 83.9069L124.445 81.8476L124.735 81.6192L125.024 85.4596L125.314 85.2926L125.603 84.1865L125.892 81.6216L126.182 84.0606L126.471 83.9815L126.761 84.105L127.05 85.311L127.339 84.5519L127.629 86.5156L127.918 85.1767L128.208 84.3378L128.497 84.8971L128.786 85.591L129.076 85.9844L129.365 85.1363L129.655 83.8261L129.944 84.8561L130.234 82.9045L130.523 84.3914L130.812 85.102L131.102 83.9635L131.391 83.9348L131.681 84.9214L131.97 84.6867L132.259 82.7169L132.549 81.8043L132.838 81.9004L133.128 80.1928L133.417 77.777L133.706 80.1324L133.996 82.0109L134.285 81.7778L134.575 81.3358L134.864 81.1363L135.153 80.7774L135.443 78.8981L135.732 80.9824L136.022 80.4281L136.311 81.3981L136.6 77.0401L136.89 75.0743L137.179 75.464L137.469 75.1308L137.758 76.2593L138.048 76.6572L138.337 75.7753L138.626 70.5709L138.916 69.7268L139.205 67.5136L139.495 65.0878L139.784 57.6042L140.073 56.2837L140.363 48.0159L140.652 53.0467L140.942 50.7123L141.231 50.2488L141.52 34.114L141.81 29.0118L142.099 33.0917L142.389 37.472L142.678 43.1419L142.967 46.1006L143.257 41.6739L143.546 45.3171L143.836 50.4402L144.125 47.3048L144.415 47.2317L144.704 60.8854L144.993 38.5688L145.283 41.6753L145.572 51.7603L145.862 49.189L146.151 48.1034L146.44 34.3832L146.73 42.6663L147.019 68.7717L147.309 67.4743L147.598 67.8349L147.887 66.8446L148.177 66.9732L148.466 55.4936L148.756 61.9605L149.045 64.6025L149.334 66.4819L149.624 69.3425L149.913 70.6324L150.203 70.709L150.492 51.6806L150.781 56.4538L151.071 61.618L151.36 65.3226L151.65 67.7039L151.939 70.3364L152.229 65.67L152.518 39.4297L152.807 58.9046L153.097 61.8704L153.386 62.2722L153.676 59.7788L153.965 62.5874L154.254 61.6642L154.544 52.7498L154.833 60.8098L155.123 63.1536L155.412 65.0037L155.701 62.4214L155.991 65.3984L156.28 64.6792L156.57 51.6655L156.859 59.3823L157.148 57.6054L157.438 59.3314L157.727 61.1051L158.017 62.3484L158.306 62.4896L158.595 52.4028L158.885 61.3815L159.174 61.2604L159.464 49.1675L159.753 50.4052L160.043 59.9435L160.332 66.7647L160.621 61.5815L160.911 63.0031L161.2 63.2098L161.49 60.9926L161.779 58.7361L162.068 52.1818L162.358 59.7646L162.647 52.9897L162.937 54.7184L163.226 56.2036L163.515 58.2636L163.805 62.3046L164.094 60.3064L164.384 62.5442L164.673 51.8241L164.962 58.928L165.252 57.0645L165.541 61.3469L165.831 64.8914L166.12 67.4025L166.41 64.0952L166.699 51.2201L166.988 56.8224L167.278 53.9119L167.567 60.8298L167.857 60.5466L168.146 59.0214L168.435 50.1374L168.725 37.1118L169.014 33.3891L169.304 30.6543L169.593 25.5875L169.882 29.5261L170.172 53.8799L170.461 62.1931L170.751 53.8602L171.04 60.2898L171.329 59.1664L171.619 57.6242L171.908 59.4026L172.198 57.5696L172.487 56.9824L172.776 58.1407L173.066 63.0996L173.355 68.3611L173.645 69.6937L173.934 69.1065L174.224 69.0251L174.513 66.5288L174.802 66.9522L175.092 64.1024L175.381 61.736L175.671 54.8697L175.96 60.2174L176.249 64.4415L176.539 66.0134L176.828 64.1487L177.118 61.4674L177.407 60.1466L177.696 57.929L177.986 60.0418L178.275 62.5509L178.565 61.5692L178.854 57.7456L179.143 56.8099L179.433 59.3456L179.722 58.582L180.012 57.5034L180.301 58.3867L180.591 60.237L180.88 54.0974L181.169 54.841L181.459 53.6848L181.748 61.4203L182.038 59.2929L182.327 59.952L182.616 63.3733L182.906 58.5726L183.195 62.2961L183.485 61.24L183.774 60.8514L184.063 63.8962L184.353 67.2178L184.642 63.4877L184.932 60.0381L185.221 52.7579L185.51 53.5871L185.8 47.0026L186.089 48.7548L186.379 54.6054L186.668 51.9695L186.957 49.0927L187.247 42.1737L187.536 49.8113L187.826 60.5274L188.115 57.4677L188.405 51.3206L188.694 57.8431L188.983 53.097L189.273 54.7254L189.562 48.8499L189.852 46.2121L190.141 50.5731L190.43 51.4441L190.72 50.5836L191.009 49.4656L191.299 48.3257L191.588 44.2325L191.877 47.8047L192.167 47.9038L192.456 51.7912L192.746 54.4326L193.035 52.1909L193.324 53.6111L193.614 57.2918L193.903 56.7158L194.193 59.5411L194.482 60.4865L194.771 62.2517L195.061 61.7519L195.35 59.4008L195.64 60.3851L195.929 56.1491L196.219 55.292L196.508 61.8382L196.797 61.4155L197.087 57.7466L197.376 57.1383L197.666 58.7353L197.955 58.6017L198.244 58.2686L198.534 56.8876L198.823 56.8534L199.113 51.8977L199.402 53.8509L199.691 50.1133L199.981 51.913L200.27 55.1109L200.56 56.8954L200.849 55.1655L201.138 53.6509L201.428 56.2821L201.717 53.8729L202.007 54.8341L202.296 55.6782L202.585 38.6455L202.875 63.169L203.164 57.3698L203.454 57.2068L203.743 51.9619L204.033 51.5487L204.322 59.152L204.611 57.3306L204.901 61.667L205.19 59.0726L205.48 61.5099L205.769 66.5271L206.058 67.5015L206.348 55.0196L206.637 61.6228L206.927 72.4463L207.216 52.2221L207.505 65.0375L207.795 67.3538L208.084 69.0488L208.374 68.2084L208.663 71.9551L208.952 73.3805L209.242 67.3641L209.531 67.3062L209.821 68.396L210.11 69.6154L210.4 68.297L210.689 72.1647L210.978 71.7712L211.268 65.2044L211.557 68.5273L211.847 67.6154L212.136 70.5479L212.425 71.674L212.715 73.0975L213.004 72.5624L213.294 67.2344L213.583 67.4857L213.872 67.6623L214.162 62.5492L214.451 61.6471L214.741 71.2605L215.03 70.7752L215.319 69.7994L215.609 66.0955L215.898 67.9326L216.188 68.798L216.477 71.7609L216.766 71.7506L217.056 70.277L217.345 68.2901L217.635 68.4691L217.924 67.4057L218.214 65.656L218.503 57.9613L218.792 62.6998L219.082 62.7342L219.371 45.468L219.661 65.5864L219.95 66.1291L220.239 64.0129L220.529 69.3712L220.818 74.6758L221.108 74.9973L221.397 70.6555L221.686 69.7514L221.976 66.8558L222.265 69.4981L222.555 70.6615L222.844 74.2605L223.133 72.9013L223.423 67.6889L223.712 69.244L224.002 69.6656L224.291 69.2807L224.58 69.5001L224.87 73.5818L225.159 73.3973L225.449 64.8191L225.738 67.8514L226.028 70.9985L226.317 66.9798L226.606 70.1129L226.896 73.3336L227.185 73.3461L227.475 68.2588L227.764 72.6551L228.053 69.2513L228.343 67.6959L228.632 69.3813L228.922 70.7286L229.211 69.5841L229.5 65.3585L229.79 73.3313L230.079 67.0076L230.369 69.3702L230.658 67.8119L230.947 72.0594L231.237 71.8496L231.526 68.6794L231.816 71.0597L232.105 62.5593L232.395 65.8107L232.684 68.139L232.973 66.998L233.263 69.7556L233.552 66.4246L233.842 68.4355L234.131 67.8261L234.42 68.7134L234.71 70.0658L234.999 72.3266L235.289 70.3764L235.578 66.2028L235.867 63.7006L236.157 68.5663L236.446 71.249L236.736 71.8898L237.025 72.9923L237.314 72.1284L237.604 66.9551L237.893 61.9417L238.183 66.0834L238.472 63.7777L238.761 67.2798L239.051 70.8248L239.34 69.5821L239.63 65.4787L239.919 63.8132L240.209 64.6236L240.498 66.6179L240.787 67.0595L241.077 69.7624L241.366 68.5783L241.656 63.2985L241.945 65.8692L242.234 67.6687L242.524 65.3206L242.813 63.6009L243.103 66.9038L243.392 65.9552L243.681 60.3505L243.971 64.7711L244.26 63.2274L244.55 65.0406L244.839 67.1975L245.128 67.5066L245.418 61.1612L245.707 54.6863L245.997 52.7587L246.286 50.657L246.575 52.5739L246.865 55.6909L247.154 58.2648L247.444 54.598L247.733 52.2375L248.023 53.1983L248.312 49.2708L248.601 54.9873L248.891 49.2498L249.18 46.1107L249.47 49.9247L249.759 38.5479L250.048 41.2405L250.338 41.5704L250.627 0.336182L250.917 10.3444L251.206 25.842L251.495 20.2875L251.785 11.9576L252.074 18.1234L252.364 28.8848L252.653 55.8834L252.942 51.3483L253.232 46.5851L253.521 48.3311L253.811 57.6009L254.1 45.2117L254.389 47.7194L254.679 48.1937L254.968 52.64L255.258 63.9649L255.547 57.7755L255.837 44.652L256.126 50.0039L256.415 54.4661L256.705 60.0842L256.994 60.5707L257.284 57.1137L257.573 60.4258L257.862 51.4484L258.152 56.9587L258.441 36.9379L258.731 27.8427L259.02 49.8476L259.309 54.028L259.599 55.9341L259.888 51.8433L260.178 55.0007L260.467 45.468L260.756 55.1329L261.046 53.6222L261.335 50.9938L261.625 52.834L261.914 49.694L262.204 57.4586L262.493 51.9041L262.782 51.3516L263.072 51.6274L263.361 54.359L263.651 52.2108L263.94 47.1171L264.229 48.4124L264.519 50.1229L264.808 47.5076L265.098 46.1316L265.387 42.9226L265.676 51.3497L265.966 56.5516L266.255 57.5537L266.545 55.3775L266.834 52.6178L267.123 47.5487L267.413 50.7916L267.702 49.0002L267.992 49.546L268.281 45.3621L268.57 40.7977L268.86 48.0325L269.149 46.2963L269.439 43.7623L269.728 44.5384L270.018 44.8215L270.307 45.995L270.596 47.2986L270.886 44.6374L271.175 46.0229L271.465 47.443L271.754 47.3857L272.043 49.089L272.333 53.1131L272.622 53.4009L272.912 56.0972L273.201 51.2173L273.49 47.1633L273.78 50.5831L274.069 48.2342L274.359 40.8461L274.648 43.6177L274.937 28.2737L275.227 11.7648L275.516 26.9925L275.806 23.2505L276.095 26.6725L276.384 50.9648L276.674 42.5775L276.963 54.4043L277.253 58.4342L277.542 59.7014L277.832 60.5432L278.121 55.8841L278.41 55.8544L278.7 54.0527L278.989 55.9312L279.279 54.9994L279.568 55.1196L279.857 53.3483L280.147 54.1987L280.436 52.8188L280.726 51.9884L281.015 51.1588L281.304 51.9854L281.594 51.7396L281.883 51.4116L282.173 49.9998L282.462 49.65L282.751 48.3494L283.041 56.3767L283.33 58.5481L283.62 60.6596L283.909 60.3284L284.199 61.4165L284.488 59.6356L284.777 56.2743L285.067 62.7486L285.356 58.8865L285.646 61.3481L285.935 62.1819L286.224 55.7313L286.514 62.5494L286.803 60.4214L287.093 60.534L287.382 59.4481L287.671 60.576L287.961 62.6761L288.25 57.4954L288.54 61.2757L288.829 60.3133L289.118 62.5803L289.408 57.7392L289.697 59.4496L289.987 51.7771L290.276 52.8323L290.565 62.864L290.855 44.9624L291.144 52.0376L291.434 54.8604L291.723 57.0032L292.013 55.4296L292.302 56.0725L292.591 56.7295L292.881 57.0088L293.17 53.9398L293.46 44.548L293.749 56.4811L294.038 57.9403L294.328 51.0314L294.617 51.4973L294.907 52.3499L295.196 49.9172L295.485 45.9483L295.775 45.0342L296.064 46.1437L296.354 40.3974L296.643 49.2317L296.932 48.64L297.222 47.0179L297.511 43.2023L297.801 45.3237L298.09 49.6795L298.379 47.1625L298.669 39.3776L298.958 42.717L299.248 44.5124L299.537 32.6759L299.827 42.6484L300.116 48.6061L300.405 40.0759L300.695 41.2523L300.984 41.9195L301.274 38.6674L301.563 42.831L301.852 45.6687L302.142 49.5741L302.431 49.5132L302.721 47.7389L303.01 49.9531L303.299 50.9388L303.589 52.2022L303.878 53.9632L304.168 51.312L304.457 52.632L304.746 51.913L305.036 52.5441L305.325 55.4392L305.615 56.8525L305.904 60.6511L306.193 64.1347L306.483 54.7537L306.772 47.2192L307.062 58.7241L307.351 53.437L307.641 56.4197L307.93 61.193L308.219 59.1178L308.509 54.047L308.798 53.7933L309.088 55.4078L309.377 58.6599L309.666 58.622L309.956 57.7066L310.245 62.315L310.535 57.7974L310.824 55.6654L311.113 47.4723L311.403 44.0759L311.692 51.8111L311.982 55.4593L312.271 55.302L312.56 46.2738L312.85 43.1235L313.139 44.2742L313.429 37.3817L313.718 36.6077L314.008 39.2263L314.297 46.1318L314.586 46.1251L314.876 44.8214L315.165 42.7038L315.455 45.555L315.744 38.7113L316.033 43.9464L316.323 49.4555L316.612 41.9418L316.902 39.4644L317.191 43.1095L317.48 42.3241L317.77 46.9852L318.059 48.7581L318.349 45.4485L318.638 48.5642L318.927 46.4052L319.217 51.0348L319.506 53.3561L319.796 48.8618L320.085 51.2553L320.374 53.8481L320.664 46.5344L320.953 40.7387L321.243 33.4075L321.532 34.878L321.822 44.0974L322.111 52.6699L322.4 56.7607L322.69 47.6671L322.979 43.0212L323.269 45.041L323.558 48.0869L323.847 51.1189L324.137 52.789L324.426 51.5713L324.716 49.2754L325.005 48.5765L325.294 46.4644L325.584 42.7245L325.873 40.2047L326.163 49.3311L326.452 49.9572L326.741 50.22L327.031 50.4237L327.32 52.3301L327.61 52.0091L327.899 54.5544L328.188 53.1068L328.478 52.434L328.767 48.0188L329.057 47.565L329.346 42.0218L329.636 38.6164L329.925 38.998L330.214 48.4504L330.504 49.3927L330.793 40.5169L331.083 44.5706L331.372 41.1757L331.661 38.4418L331.951 35.917L332.24 39.9199L332.53 45.1883L332.819 40.2736L333.108 44.2639L333.398 35.7681L333.687 31.4326L333.977 40.2122L334.266 44.836L334.555 46.7606L334.845 37.2923L335.134 38.4567L335.424 40.7899L335.713 38.3746L336.003 37.046L336.292 44.8399L336.581 46.7344L336.871 44.6452L337.16 44.3615L337.45 40.9238L337.739 45.7595L338.028 46.4692L338.318 51.8188L338.607 51.9646L338.897 48.6945L339.186 47.2519L339.475 50.3653L339.765 50.3964L340.054 51.4504L340.344 53.8273L340.633 56.3253L340.922 55.5452L341.212 58.0532L341.501 58.8378L341.791 57.364L342.08 57.2817L342.369 60.0623L342.659 61.8453L342.948 54.5691L343.238 52.8061L343.527 52.1655L343.817 53.2717L344.106 55.5046L344.395 50.8989L344.685 49.0587L344.974 42.5035L345.264 51.4851L345.553 52.183L345.842 43.2586L346.132 35.6541L346.421 51.3727L346.711 55.572L347 39.2259" stroke="#CED4DA" style="stroke:#CED4DA;stroke:color(display-p3 0.8078 0.8314 0.8549);stroke-opacity:1;" stroke-width="0.5" stroke-linecap="round" stroke-linejoin="round"/>
</svg>
