<svg width="347" height="118" viewBox="0 0 347 118" fill="none" xmlns="http://www.w3.org/2000/svg">
<g clip-path="url(#clip0_802_452)">
<path d="M173.702 0.00415039C189.175 0.188346 203.955 6.44345 214.86 17.4217C225.764 28.4 231.919 43.2226 231.999 58.6959L215.479 58.781C215.422 47.6403 210.99 36.968 203.139 29.0636C195.288 21.1593 184.646 16.6556 173.506 16.523L173.702 0.00415039Z" fill="#ADB5BD" style="fill:#ADB5BD;fill:color(display-p3 0.6784 0.7098 0.7412);fill-opacity:1;"/>
<path d="M231.743 64.5055C230.976 72.6842 228.51 80.6127 224.503 87.7834C220.495 94.9541 215.034 101.209 208.47 106.147L198.538 92.9461C203.265 89.3904 207.196 84.8869 210.082 79.724C212.967 74.5612 214.743 68.8526 215.295 62.964L231.743 64.5055Z" fill="#CED4DA" style="fill:#CED4DA;fill:color(display-p3 0.8078 0.8314 0.8549);fill-opacity:1;"/>
<path d="M203.337 109.603C196.256 113.848 188.363 116.56 180.168 117.563C171.973 118.566 163.659 117.838 155.763 115.426C147.867 113.014 140.565 108.972 134.33 103.56C128.094 98.1489 123.064 91.4892 119.564 84.0116L134.526 77.0084C137.046 82.3922 140.668 87.1872 145.157 91.0834C149.647 94.9795 154.904 97.89 160.589 99.6267C166.274 101.363 172.261 101.888 178.161 101.165C184.061 100.443 189.745 98.4906 194.843 95.434L203.337 109.603Z" fill="#E9ECEF" style="fill:#E9ECEF;fill:color(display-p3 0.9137 0.9255 0.9373);fill-opacity:1;"/>
<path d="M117.527 79.0936C114.449 70.595 113.364 61.5027 114.357 52.5185C115.35 43.5343 118.394 34.8983 123.254 27.2771C128.114 19.6559 134.66 13.2533 142.387 8.5633C150.114 3.87335 158.816 1.0215 167.82 0.227844L169.27 16.6841C162.787 17.2555 156.522 19.3088 150.959 22.6856C145.395 26.0624 140.682 30.6723 137.183 36.1595C133.684 41.6468 131.492 47.8647 130.777 54.3333C130.062 60.802 130.843 67.3484 133.059 73.4674L117.527 79.0936Z" fill="#E5E7EB" style="fill:#E5E7EB;fill:color(display-p3 0.8980 0.9059 0.9216);fill-opacity:1;"/>
<path d="M107.438 43H78.5625C76.595 43 75 44.595 75 46.5625V58.9375C75 60.905 76.595 62.5 78.5625 62.5H107.438C109.405 62.5 111 60.905 111 58.9375V46.5625C111 44.595 109.405 43 107.438 43Z" fill="#495057" style="fill:#495057;fill:color(display-p3 0.2863 0.3137 0.3412);fill-opacity:1;"/>
<path d="M83.3125 55.125C84.6242 55.125 85.6875 54.0617 85.6875 52.75C85.6875 51.4383 84.6242 50.375 83.3125 50.375C82.0008 50.375 80.9375 51.4383 80.9375 52.75C80.9375 54.0617 82.0008 55.125 83.3125 55.125Z" fill="#CED4DA" style="fill:#CED4DA;fill:color(display-p3 0.8078 0.8314 0.8549);fill-opacity:1;"/>
<path d="M90.8709 49.5682V54.75H90.0865V50.3525H90.0561L88.8164 51.1622V50.4133L90.1093 49.5682H90.8709ZM92.3082 54.75V54.1832L94.0616 52.3666C94.2489 52.1692 94.4032 51.9963 94.5247 51.8479C94.6478 51.6978 94.7397 51.5552 94.8004 51.4203C94.8612 51.2853 94.8915 51.142 94.8915 50.9901C94.8915 50.8181 94.851 50.6697 94.7701 50.5448C94.6891 50.4183 94.5786 50.3213 94.4386 50.2539C94.2986 50.1847 94.1409 50.1501 93.9655 50.1501C93.7799 50.1501 93.618 50.1881 93.4797 50.264C93.3414 50.3399 93.2351 50.447 93.1609 50.5853C93.0867 50.7236 93.0496 50.8856 93.0496 51.0711H92.3031C92.3031 50.7557 92.3757 50.4799 92.5207 50.2437C92.6658 50.0076 92.8649 49.8246 93.1179 49.6947C93.3709 49.5631 93.6585 49.4973 93.9807 49.4973C94.3062 49.4973 94.593 49.5623 94.8409 49.6922C95.0906 49.8204 95.2854 49.9958 95.4254 50.2184C95.5654 50.4394 95.6354 50.6891 95.6354 50.9674C95.6354 51.1597 95.5991 51.3477 95.5266 51.5316C95.4558 51.7155 95.3318 51.9204 95.1547 52.1464C94.9776 52.3708 94.7313 52.6432 94.4159 52.9637L93.3861 54.0415V54.0795H95.7189V54.75H92.3082ZM98.4644 54.8208C98.1017 54.8208 97.7812 54.7584 97.5029 54.6336C97.2262 54.5088 97.0095 54.3367 96.8526 54.1175C96.6958 53.8982 96.6182 53.6485 96.6198 53.3685C96.6182 53.1492 96.6629 52.9477 96.7539 52.7638C96.8467 52.5783 96.9724 52.4239 97.1309 52.3008C97.2895 52.176 97.4666 52.0967 97.6623 52.0629V52.0326C97.4042 51.9702 97.1976 51.8319 97.0424 51.6176C96.8872 51.4034 96.8105 51.1571 96.8121 50.8788C96.8105 50.614 96.8805 50.3778 97.0221 50.1704C97.1655 49.9612 97.362 49.7967 97.6117 49.677C97.8613 49.5572 98.1455 49.4973 98.4644 49.4973C98.7798 49.4973 99.0615 49.5581 99.3094 49.6795C99.5591 49.7993 99.7556 49.9637 99.899 50.1729C100.042 50.3804 100.115 50.6157 100.117 50.8788C100.115 51.1571 100.036 51.4034 99.8787 51.6176C99.7219 51.8319 99.5178 51.9702 99.2664 52.0326V52.0629C99.4604 52.0967 99.635 52.176 99.7902 52.3008C99.947 52.4239 100.072 52.5783 100.165 52.7638C100.259 52.9477 100.307 53.1492 100.309 53.3685C100.307 53.6485 100.228 53.8982 100.071 54.1175C99.9141 54.3367 99.6966 54.5088 99.4182 54.6336C99.1416 54.7584 98.8236 54.8208 98.4644 54.8208ZM98.4644 54.1807C98.6786 54.1807 98.8641 54.1453 99.021 54.0744C99.1779 54.0019 99.2993 53.9015 99.3853 53.7733C99.4714 53.6435 99.5152 53.4917 99.5169 53.3179C99.5152 53.1374 99.468 52.978 99.3752 52.8397C99.2841 52.7014 99.1602 52.5926 99.0033 52.5133C98.8464 52.434 98.6668 52.3944 98.4644 52.3944C98.2602 52.3944 98.0789 52.434 97.9204 52.5133C97.7618 52.5926 97.637 52.7014 97.5459 52.8397C97.4548 52.978 97.4101 53.1374 97.4118 53.3179C97.4101 53.4917 97.4514 53.6435 97.5358 53.7733C97.6218 53.9015 97.7441 54.0019 97.9027 54.0744C98.0612 54.1453 98.2484 54.1807 98.4644 54.1807ZM98.4644 51.7694C98.6364 51.7694 98.7891 51.7349 98.9223 51.6657C99.0556 51.5965 99.1602 51.5004 99.2361 51.3773C99.3137 51.2541 99.3533 51.1099 99.355 50.9446C99.3533 50.7827 99.3145 50.641 99.2386 50.5195C99.1644 50.3981 99.0606 50.3045 98.9274 50.2387C98.7941 50.1712 98.6398 50.1375 98.4644 50.1375C98.2856 50.1375 98.1287 50.1712 97.9937 50.2387C97.8605 50.3045 97.7567 50.3981 97.6825 50.5195C97.6083 50.641 97.572 50.7827 97.5737 50.9446C97.572 51.1099 97.6091 51.2541 97.6851 51.3773C97.761 51.5004 97.8655 51.5965 97.9988 51.6657C98.1337 51.7349 98.2889 51.7694 98.4644 51.7694ZM101.957 53.4318L101.952 52.5083H102.083L103.632 50.8636H104.538L102.772 52.736H102.653L101.957 53.4318ZM101.261 54.75V49.5682H102.018V54.75H101.261ZM103.715 54.75L102.324 52.903L102.845 52.3742L104.644 54.75H103.715Z" fill="#F8F9FA" style="fill:#F8F9FA;fill:color(display-p3 0.9725 0.9765 0.9804);fill-opacity:1;"/>
<path d="M117.326 52.0295C117.635 52.2672 117.635 52.7328 117.326 52.9705L110.878 57.9346C110.487 58.2351 109.922 57.9568 109.922 57.4641V47.5359C109.922 47.0432 110.487 46.7649 110.878 47.0654L117.326 52.0295Z" fill="#495057" style="fill:#495057;fill:color(display-p3 0.2863 0.3137 0.3412);fill-opacity:1;"/>
<path d="M248.926 11H225.444C223.542 11 222 12.5421 222 14.4444V26.7408C222 28.6431 223.542 30.1852 225.444 30.1852H248.926C250.828 30.1852 252.37 28.6431 252.37 26.7408V14.4444C252.37 12.5421 250.828 11 248.926 11Z" fill="#495057" style="fill:#495057;fill:color(display-p3 0.2863 0.3137 0.3412);fill-opacity:1;"/>
<path d="M230.037 22.8889C231.305 22.8889 232.333 21.8608 232.333 20.5926C232.333 19.3244 231.305 18.2963 230.037 18.2963C228.769 18.2963 227.741 19.3244 227.741 20.5926C227.741 21.8608 228.769 22.8889 230.037 22.8889Z" fill="#CED4DA" style="fill:#CED4DA;fill:color(display-p3 0.8078 0.8314 0.8549);fill-opacity:1;"/>
<path d="M237.32 17.5825V22.5926H236.562V18.3409H236.532L235.334 19.1237V18.3996L236.584 17.5825H237.32ZM238.71 22.5926V22.0446L240.405 20.2881C240.586 20.0973 240.735 19.9302 240.853 19.7866C240.972 19.6415 241.061 19.5037 241.12 19.3732C241.178 19.2427 241.208 19.1041 241.208 18.9573C241.208 18.791 241.168 18.6475 241.09 18.5268C241.012 18.4045 240.905 18.3107 240.77 18.2454C240.634 18.1786 240.482 18.1451 240.312 18.1451C240.133 18.1451 239.976 18.1818 239.843 18.2552C239.709 18.3286 239.606 18.4322 239.534 18.5659C239.463 18.6997 239.427 18.8562 239.427 19.0356H238.705C238.705 18.7306 238.775 18.464 238.915 18.2357C239.056 18.0073 239.248 17.8304 239.493 17.7048C239.737 17.5776 240.015 17.514 240.327 17.514C240.642 17.514 240.919 17.5768 241.159 17.7024C241.4 17.8263 241.588 17.9959 241.724 18.2112C241.859 18.4248 241.927 18.6662 241.927 18.9353C241.927 19.1212 241.892 19.3031 241.822 19.4808C241.753 19.6586 241.633 19.8568 241.462 20.0753C241.291 20.2922 241.053 20.5556 240.748 20.8655L239.752 21.9076V21.9443H242.008V22.5926H238.71ZM243.652 21.318L243.647 20.4251H243.774L245.271 18.835H246.147L244.439 20.6453H244.324L243.652 21.318ZM242.979 22.5926V17.5825H243.71V22.5926H242.979ZM245.352 22.5926L244.006 20.8068L244.51 20.2955L246.25 22.5926H245.352Z" fill="#F8F9FA" style="fill:#F8F9FA;fill:color(display-p3 0.9725 0.9765 0.9804);fill-opacity:1;"/>
<path d="M216.716 20.7635C216.47 20.9908 216.47 21.3796 216.716 21.6069L221.754 26.261C222.122 26.6006 222.718 26.3399 222.718 25.8393V16.5311C222.718 16.0305 222.122 15.7697 221.754 16.1094L216.716 20.7635Z" fill="#495057" style="fill:#495057;fill:color(display-p3 0.2863 0.3137 0.3412);fill-opacity:1;"/>
</g>
<defs>
<clipPath id="clip0_802_452">
<rect width="316" height="118" fill="white" style="fill:white;fill:white;fill-opacity:1;" transform="translate(15)"/>
</clipPath>
</defs>
</svg>
