<svg width="347" height="106" viewBox="0 0 347 106" fill="none" xmlns="http://www.w3.org/2000/svg">
<path d="M0 105.167L0.289408 105.167H0.578816H0.868224H1.15763H1.44704H1.73645H2.02585H2.31526H2.60467H2.89408H3.18349H3.47289L3.7623 105.167L4.05171 105.167H4.34112L4.63053 105.167L4.91993 105.167H5.20934L5.49875 105.167L5.78816 105.167L6.07757 105.167L6.36697 105.167L6.65638 105.167L6.94579 105.167L7.2352 105.167L7.5246 105.167H7.81401H8.10342H8.39283L8.68224 105.167L8.97164 105.167L9.26105 105.167L9.55046 105.167L9.83987 105.167L10.1293 105.167L10.4187 105.167L10.7081 105.167H10.9975L11.2869 105.167L11.5763 105.167L11.8657 105.167L12.1551 105.167L12.4445 105.167L12.7339 105.167L13.0234 105.167L13.3128 105.167L13.6022 105.167H13.8916L14.181 105.167L14.4704 105.166L14.7598 105.167L15.0492 105.167L15.3386 105.167L15.628 105.164L15.9174 105.165L16.2068 105.165L16.4962 105.165L16.7857 105.165L17.0751 105.166L17.3645 105.166L17.6539 105.165L17.9433 105.165L18.2327 105.166L18.5221 105.166L18.8115 105.166L19.1009 105.166L19.3903 105.165L19.6797 105.166L19.9691 105.166L20.2585 105.166L20.548 105.166L20.8374 105.166L21.1268 105.166L21.4162 105.166L21.7056 105.167L21.995 105.166L22.2844 105.166L22.5738 105.166L22.8632 105.157L23.1526 105.164L23.442 105.166L23.7314 105.166L24.0209 105.166L24.3103 105.166L24.5997 105.166L24.8891 105.166L25.1785 105.166L25.4679 105.166L25.7573 105.167L26.0467 105.166L26.3361 105.166L26.6255 105.166L26.9149 105.166L27.2043 105.166L27.4937 105.164L27.7832 105.161L28.0726 105.166L28.362 105.166L28.6514 105.166L28.9408 105.166L29.2302 105.154L29.5196 105.166L29.809 105.126L30.0984 105.165L30.3878 105.165L30.6772 105.165L30.9666 105.146L31.256 105.132L31.5455 105.136L31.8349 105.138L32.1243 105.156L32.4137 105.143L32.7031 105.154L32.9925 105.141L33.2819 105.113L33.5713 105.152L33.8607 105.107L34.1501 104.129L34.4395 105.061L34.7289 105.027L35.0183 105.008L35.3078 105.003L35.5972 105.01L35.8866 104.993L36.176 104.998L36.4654 105.056L36.7548 105.019L37.0442 104.981L37.3336 105.019L37.623 104.992L37.9124 104.953L38.2018 105.035L38.4912 104.966L38.7807 104.937L39.0701 105.011L39.3595 105.014L39.6489 105.044L39.9383 105.103L40.2277 105.098L40.5171 105.108L40.8065 105.105L41.0959 105.12L41.3853 105.109L41.6747 105.111L41.9641 105.108L42.2535 105.084L42.543 105.114L42.8324 105.088L43.1218 105.099L43.4112 105.113L43.7006 105.122L43.99 105.113L44.2794 105.109L44.5688 105.114L44.8582 105.07L45.1476 105.104L45.437 105.094L45.7264 105.032L46.0158 105.066L46.3053 105.053L46.5947 105.09L46.8841 105.113L47.1735 105.044L47.4629 104.991L47.7523 105.057L48.0417 105.017L48.3311 105.033L48.6205 105.046L48.9099 105.034L49.1993 105.059L49.4887 105.122L49.7782 105.093L50.0676 105.092L50.357 105.078L50.6464 105.098L50.9358 105.082L51.2252 105.075L51.5146 105.078L51.804 105.092L52.0934 105.093L52.3828 105.095L52.6722 105.1L52.9616 105.121L53.251 105.106L53.5404 105.089L53.8299 104.8L54.1193 104.6L54.4087 104.938L54.6981 104.996L54.9875 105.054L55.2769 105.079L55.5663 105.061L55.8557 104.935L56.1451 105.102L56.4345 105.087L56.7239 105.103L57.0133 105.11L57.3028 105.1L57.5922 105.083L57.8816 105.079L58.171 105.091L58.4604 105.081L58.7498 105.113L59.0392 105.098L59.3286 105.101L59.618 105.103L59.9074 105.097L60.1968 105.056L60.4862 105.088L60.7756 105.116L61.0651 105.015L61.3545 105.086L61.6439 105.057L61.9333 105.075L62.2227 105.098L62.5121 105.097L62.8015 105.056L63.0909 105.092L63.3803 105.058L63.6697 105.08L63.9591 105.034L64.2485 105.049L64.5379 105.041L64.8274 105.063L65.1168 105.006L65.4062 104.931L65.6956 104.884L65.985 104.826L66.2744 104.841L66.5638 104.92L66.8532 104.972L67.1426 104.928L67.432 104.682L67.7214 104.259L68.0108 104.321L68.3003 103.536L68.5897 103.044L68.8791 104.656L69.1685 104.571L69.4579 104.529L69.7473 104.428L70.0367 104.544L70.3261 104.406L70.6155 104.118L70.9049 104.458L71.1943 104.627L71.4837 104.73L71.7731 104.765L72.0626 104.79L72.352 104.84L72.6414 104.641L72.9308 104.725L73.2202 104.741L73.5096 104.731L73.799 104.655L74.0884 104.53L74.3778 104.639L74.6672 104.398L74.9566 104.517L75.246 104.831L75.5354 104.568L75.8249 104.361L76.1143 104.705L76.4037 104.537L76.6931 104.31L76.9825 104.471L77.2719 104.288L77.5613 104.086L77.8507 104.318L78.1401 104.192L78.4295 103.824L78.7189 104.044L79.0083 104.086L79.2978 103.915L79.5872 103.847L79.8766 103.426L80.166 103.925L80.4554 103.84L80.7448 104.042L81.0342 103.795L81.3236 103.518L81.613 103.585L81.9024 103.794L82.1918 103.947L82.4812 103.695L82.7706 103.729L83.06 103.742L83.3495 103.688L83.6389 103.478L83.9283 103.828L84.2177 103.688L84.5071 103.957L84.7965 103.531L85.0859 103.602L85.3753 103.242L85.6647 103.077L85.9541 103.62L86.2435 103.556L86.5329 103.571L86.8224 103.679L87.1118 103.341L87.4012 103.198L87.6906 102.986L87.98 103.601L88.2694 103.332L88.5588 103.11L88.8482 102.905L89.1376 103.42L89.427 103.241L89.7164 102.578L90.0058 102.811L90.2952 102.541L90.5847 102.481L90.8741 102.609L91.1635 103.002L91.4529 102.887L91.7423 102.961L92.0317 102.35L92.3211 101.557L92.6105 102.203L92.8999 102.543L93.1893 103.338L93.4787 101.591L93.7681 102.044L94.0576 102.053L94.347 102.423L94.6364 101.877L94.9258 101.716L95.2152 102.04L95.5046 100.438L95.794 98.6082L96.0834 97.5683L96.3728 97.7917L96.6622 97.8884L96.9516 96.7951L97.241 98.2009L97.5304 94.3041L97.8199 94.6442L98.1093 96.7782L98.3987 97.1546L98.6881 95.9681L98.9775 94.7304L99.2669 96.6618L99.5563 96.1417L99.8457 94.7829L100.135 92.97L100.425 90.0304L100.714 90.8689L101.003 89.1501L101.293 87.2456L101.582 87.6118L101.872 87.8576L102.161 86.6707L102.45 85.9141L102.74 87.9025L103.029 89.2609L103.319 93.1163L103.608 89.8026L103.897 89.2854L104.187 89.9108L104.476 88.7472L104.766 90.1156L105.055 86.3531L105.344 88.5744L105.634 86.5532L105.923 86.4656L106.213 84.1027L106.502 84.0677L106.791 80.386L107.081 82.5068L107.37 83.5066L107.66 85.726L107.949 81.9232L108.239 78.1826L108.528 76.3267L108.817 77.1801L109.107 75.0299L109.396 64.0326L109.686 54.9139L109.975 55.9998L110.264 54.0709L110.554 52.5549L110.843 65.7881L111.133 74.5775L111.422 76.3232L111.711 76.9795L112.001 70.6626L112.29 69.3427L112.58 72.8842L112.869 71.5148L113.158 70.5064L113.448 71.5095L113.737 71.6344L114.027 71.0742L114.316 71.5194L114.606 73.9305L114.895 71.8303L115.184 73.6099L115.474 70.0037L115.763 70.2105L116.053 65.0872L116.342 69.1946L116.631 70.5216L116.921 74.4112L117.21 74.7651L117.5 73.6188L117.789 76.2299L118.078 69.0281L118.368 71.5524L118.657 76.2191L118.947 78.942L119.236 76.5019L119.525 73.8978L119.815 76.2484L120.104 74.1596L120.394 72.3796L120.683 68.2344L120.972 72.6667L121.262 71.0485L121.551 73.0753L121.841 72.9889L122.13 75.3924L122.42 72.7807L122.709 75.1921L122.998 73.7248L123.288 74.1511L123.577 74.7885L123.867 66.4541L124.156 70.0813L124.445 65.5558L124.735 65.3695L125.024 70.9291L125.314 70.094L125.603 68.42L125.892 67.4043L126.182 68.3769L126.471 70.0464L126.761 69.0314L127.05 66.111L127.339 68.3312L127.629 66.8712L127.918 67.1274L128.208 63.8735L128.497 65.0413L128.786 65.6725L129.076 67.0933L129.365 68.1699L129.655 65.8928L129.944 69.3999L130.234 72.0997L130.523 75.5011L130.812 74.015L131.102 72.3509L131.391 72.5568L131.681 73.0461L131.97 74.2436L132.259 69.3412L132.549 69.5573L132.838 68.8314L133.128 68.6828L133.417 67.5513L133.706 66.8738L133.996 68.3373L134.285 69.1957L134.575 71.7453L134.864 71.2859L135.153 69.6776L135.443 69.369L135.732 71.1898L136.022 72.2113L136.311 69.6501L136.601 68.9547L136.89 74.5266L137.179 75.589L137.469 55.5296L137.758 73.3651L138.048 67.7381L138.337 61.2512L138.626 70.818L138.916 52.8564L139.205 36.1149L139.495 56.409L139.784 62.1033L140.073 61.6386L140.363 61.7217L140.652 63.0887L140.942 69.5213L141.231 64.529L141.52 64.7072L141.81 61.0753L142.099 65.166L142.389 58.8247L142.678 65.6302L142.967 75.1016L143.257 78.8589L143.546 77.5207L143.836 81.3663L144.125 77.2471L144.415 64.5263L144.704 67.8821L144.993 78.3872L145.283 81.1023L145.572 79.5437L145.862 79.0036L146.151 77.9883L146.44 64.1767L146.73 72.1733L147.019 77.5271L147.309 76.4284L147.598 78.6033L147.887 79.7406L148.177 78.2665L148.466 65.2583L148.756 73.2004L149.045 72.399L149.334 74.0171L149.624 75.0373L149.913 77.9112L150.203 78.3683L150.492 65.0791L150.781 76.5098L151.071 77.2188L151.36 80.5345L151.65 79.6559L151.939 82.0877L152.229 80.9223L152.518 1.16675L152.807 57.4924L153.097 75.6619L153.386 75.4856L153.676 74.8752L153.965 78.9935L154.254 56.2925L154.544 45.5009L154.833 72.5713L155.123 68.1836L155.412 76.4598L155.701 77.4861L155.991 76.1683L156.28 77.7162L156.57 60.0748L156.859 71.5691L157.148 72.5491L157.438 74.9879L157.727 75.8088L158.017 78.3162L158.306 76.921L158.596 64.9513L158.885 72.3705L159.174 71.7677L159.464 70.219L159.753 71.3202L160.043 71.3262L160.332 77.7204L160.621 66.1461L160.911 76.8223L161.2 78.4677L161.49 76.1596L161.779 74.6584L162.068 77.1419L162.358 78.7996L162.647 71.517L162.937 72.5903L163.226 76.0994L163.515 73.0392L163.805 81.485L164.094 82.3543L164.384 82.9752L164.673 72.3783L164.962 78.8847L165.252 78.4726L165.541 80.4744L165.831 83.3025L166.12 83.9313L166.41 82.1269L166.699 73.4271L166.988 75.5109L167.278 77.6786L167.567 79.3569L167.857 78.315L168.146 80.5105L168.435 80.0605L168.725 76.0374L169.014 80.1329L169.304 83.6443L169.593 81.8629L169.882 82.8229L170.172 87.7945L170.461 88.3574L170.751 86.4873L171.04 86.9105L171.329 75.3705L171.619 76.6429L171.908 46.5917L172.198 37.1733L172.487 87.2611L172.776 85.8899L173.066 91.2977L173.355 91.9243L173.645 90.5319L173.934 89.6572L174.224 89.0688L174.513 90.3448L174.802 88.9664L175.092 89.8271L175.381 87.2932L175.671 86.0026L175.96 86.5535L176.249 87.3626L176.539 87.1646L176.828 87.8901L177.118 86.5639L177.407 85.5546L177.696 86.2007L177.986 85.2998L178.275 84.9331L178.565 86.8874L178.854 80.5705L179.143 82.2511L179.433 86.7161L179.722 85.9213L180.012 85.8849L180.301 87.688L180.59 88.1866L180.88 86.1091L181.169 82.2677L181.459 83.6768L181.748 89.087L182.038 91.336L182.327 90.8981L182.616 90.948L182.906 90.0428L183.195 90.7147L183.485 92.8431L183.774 90.4618L184.063 92.7112L184.353 95.088L184.642 91.8103L184.932 89.1894L185.221 89.8364L185.51 91.2616L185.8 92.3238L186.089 92.0955L186.379 94.8671L186.668 92.8644L186.957 90.5354L187.247 87.7757L187.536 91.7877L187.826 95.9818L188.115 95.5141L188.405 95.9079L188.694 95.3888L188.983 93.5095L189.273 92.7095L189.562 90.9666L189.852 92.2935L190.141 92.3613L190.43 91.7358L190.72 92.0251L191.009 92.2819L191.299 90.7905L191.588 85.713L191.877 90.1956L192.167 90.6354L192.456 93.7293L192.746 93.2495L193.035 90.5108L193.324 89.883L193.614 90.2837L193.903 89.3438L194.193 87.2419L194.482 87.154L194.771 88.113L195.061 86.6661L195.35 86.8578L195.64 86.1268L195.929 82.9084L196.219 88.566L196.508 90.5725L196.797 89.9475L197.087 87.6627L197.376 87.2726L197.666 87.9698L197.955 87.3582L198.244 85.0532L198.534 87.8733L198.823 88.1906L199.113 84.6373L199.402 87.8739L199.691 87.4365L199.981 84.9643L200.27 84.8822L200.56 88.6265L200.849 88.4967L201.138 82.4892L201.428 83.6645L201.717 83.2431L202.007 84.3078L202.296 83.8943L202.585 87.04L202.875 87.6242L203.164 87.5993L203.454 85.3404L203.743 80.7175L204.033 79.6497L204.322 75.4084L204.611 79.1973L204.901 85.6293L205.19 78.6846L205.48 80.7062L205.769 78.8658L206.058 80.5355L206.348 82.4142L206.637 86.0878L206.927 87.9545L207.216 83.1034L207.505 89.431L207.795 86.5415L208.084 85.5303L208.374 86.3247L208.663 89.0608L208.952 88.906L209.242 85.4486L209.531 87.4173L209.821 86.4875L210.11 83.6815L210.4 85.3023L210.689 88.9964L210.978 91.5079L211.268 88.6909L211.557 86.4883L211.847 86.6075L212.136 87.8467L212.425 89.4703L212.715 89.7354L213.004 89.4082L213.294 87.2132L213.583 87.7463L213.872 87.5525L214.162 88.2816L214.451 87.3214L214.741 87.8255L215.03 86.6894L215.319 80.122L215.609 81.9462L215.898 80.9691L216.188 84.9793L216.477 88.6116L216.766 87.8992L217.056 87.2L217.345 87.1335L217.635 87.785L217.924 85.5584L218.214 84.8541L218.503 85.2901L218.792 86.1817L219.082 87.2704L219.371 82.0434L219.661 87.6491L219.95 84.9511L220.239 84.2335L220.529 88.0177L220.818 91.6613L221.108 92.5845L221.397 91.9722L221.686 88.8298L221.976 89.5201L222.265 90.5858L222.555 88.5884L222.844 91.0961L223.133 91.8359L223.423 90.1209L223.712 89.4656L224.002 88.8391L224.291 86.4723L224.58 86.031L224.87 89.7279L225.159 88.9271L225.449 83.2637L225.738 86.5502L226.028 83.8715L226.317 84.908L226.606 88.043L226.896 89.8209L227.185 89.9108L227.475 89.2512L227.764 89.4128L228.053 87.8214L228.343 86.2458L228.632 83.9417L228.922 86.9362L229.211 87.4769L229.5 88.6621L229.79 90.7129L230.079 89.7488L230.369 90.6904L230.658 90.1606L230.947 91.4155L231.237 91.9313L231.526 90.1471L231.816 90.2962L232.105 89.5243L232.395 88.5501L232.684 86.9505L232.973 88.0875L233.263 89.0228L233.552 82.7656L233.842 86.7687L234.131 85.5627L234.42 85.7543L234.71 85.1126L234.999 88.2347L235.289 89.413L235.578 87.013L235.867 85.4206L236.157 88.9039L236.446 90.0529L236.736 86.7776L237.025 90.9077L237.314 91.0819L237.604 89.3055L237.893 87.3215L238.183 88.6984L238.472 87.9496L238.761 88.8111L239.051 90.9364L239.34 92.1312L239.63 90.2107L239.919 87.9625L240.209 89.4086L240.498 87.6249L240.787 84.4444L241.077 91.7551L241.366 92.8332L241.656 89.4806L241.945 88.0809L242.234 89.9064L242.524 88.8129L242.813 90.8556L243.103 93.4566L243.392 90.021L243.681 86.1331L243.971 88.3457L244.26 86.9916L244.55 87.0977L244.839 85.6123L245.128 88.7591L245.418 87.7317L245.707 82.0897L245.997 80.4043L246.286 80.7708L246.575 80.8325L246.865 85.3228L247.154 87.3491L247.444 81.8939L247.733 81.7624L248.023 82.7077L248.312 81.7659L248.601 82.7524L248.891 82.8318L249.18 81.6079L249.47 84.7755L249.759 79.6824L250.048 82.0026L250.338 89.6399L250.627 90.2572L250.917 87.2456L251.206 84.4188L251.495 73.3493L251.785 80.1652L252.074 87.177L252.364 86.7523L252.653 88.4837L252.942 88.8605L253.232 90.2908L253.521 88.7481L253.811 89.1865L254.1 87.0844L254.39 86.9918L254.679 86.322L254.968 84.7401L255.258 87.3293L255.547 80.7639L255.837 81.5926L256.126 85.6681L256.415 85.8149L256.705 86.056L256.994 83.41L257.284 83.2768L257.573 85.3813L257.862 86.5819L258.152 83.9675L258.441 74.5839L258.731 74.9248L259.02 79.7173L259.309 82.2082L259.599 84.536L259.888 82.6264L260.178 86.2406L260.467 86.3431L260.756 86.8739L261.046 87.4696L261.335 87.8201L261.625 77.0403L261.914 75.8735L262.204 82.9663L262.493 79.8925L262.782 87.3967L263.072 84.0691L263.361 86.5654L263.651 82.806L263.94 85.535L264.229 74.4494L264.519 73.2087L264.808 84.931L265.098 84.2574L265.387 84.7746L265.676 84.6926L265.966 89.117L266.255 88.2162L266.545 87.5352L266.834 88.3285L267.123 89.3859L267.413 90.7591L267.702 91.1517L267.992 89.4756L268.281 87.7482L268.57 87.5415L268.86 90.6046L269.149 88.4177L269.439 87.3023L269.728 88.355L270.018 89.471L270.307 86.5208L270.596 88.2119L270.886 89.8402L271.175 91.495L271.465 93.3782L271.754 91.9612L272.043 90.961L272.333 90.693L272.622 87.9684L272.912 88.6153L273.201 91.0103L273.49 91.6084L273.78 93.0518L274.069 91.547L274.359 91.3297L274.648 89.1191L274.937 89.7634L275.227 90.736L275.516 91.1666L275.806 91.0053L276.095 89.3274L276.384 90.1549L276.674 88.6981L276.963 85.6755L277.253 86.7477L277.542 84.5402L277.832 89.0764L278.121 85.3842L278.41 84.1616L278.7 86.5597L278.989 87.0113L279.279 87.9531L279.568 86.5979L279.857 86.9658L280.147 87.9245L280.436 88.7087L280.726 83.732L281.015 84.5129L281.304 84.6641L281.594 85.7163L281.883 80.0384L282.173 80.0197L282.462 83.2503L282.751 85.37L283.041 87.8928L283.33 86.7676L283.62 88.0167L283.909 89.5514L284.199 89.4707L284.488 88.0731L284.777 88.9782L285.067 88.9722L285.356 88.5753L285.646 93.6247L285.935 93.452L286.224 91.2685L286.514 93.5228L286.803 91.5751L287.093 89.1468L287.382 88.2452L287.671 89.1608L287.961 88.0183L288.25 87.3614L288.54 89.0224L288.829 90.0214L289.118 92.6005L289.408 91.084L289.697 89.5748L289.987 89.4922L290.276 90.4641L290.565 93.0033L290.855 91.2041L291.144 89.2493L291.434 88.7791L291.723 90.6557L292.013 91.0847L292.302 91.2219L292.591 90.3096L292.881 89.9598L293.17 89.4814L293.46 87.217L293.749 82.3872L294.038 81.8943L294.328 84.7628L294.617 84.4536L294.907 86.5389L295.196 88.6452L295.485 89.5911L295.775 88.2633L296.064 89.3636L296.354 85.9506L296.643 88.518L296.932 87.3701L297.222 89.84L297.511 89.7746L297.801 90.8946L298.09 91.9857L298.379 89.6948L298.669 90.0664L298.958 90.0968L299.248 88.1854L299.537 88.4488L299.827 83.8808L300.116 84.6491L300.405 89.4067L300.695 85.5889L300.984 86.1237L301.274 81.0124L301.563 84.9189L301.852 83.56L302.142 87.2359L302.431 85.4232L302.721 85.0949L303.01 90.2186L303.299 90.183L303.589 89.2278L303.878 90.2235L304.168 90.1569L304.457 90.3901L304.746 91.1774L305.036 91.7905L305.325 91.0343L305.615 91.0443L305.904 90.699L306.194 92.8984L306.483 89.6351L306.772 89.5423L307.062 88.8622L307.351 91.0368L307.641 93.5202L307.93 94.1454L308.219 93.3661L308.509 92.0247L308.798 86.7243L309.088 88.3507L309.377 91.0187L309.666 90.3907L309.956 87.8802L310.245 92.6003L310.535 87.4294L310.824 90.5108L311.113 90.3426L311.403 80.1827L311.692 81.8832L311.982 80.3964L312.271 74.1528L312.56 86.3557L312.85 89.0334L313.139 88.9525L313.429 86.8052L313.718 83.8501L314.008 88.8818L314.297 74.2041L314.586 86.9468L314.876 87.3797L315.165 85.1114L315.455 85.1786L315.744 86.4016L316.033 85.6525L316.323 83.4445L316.612 85.1171L316.902 84.9263L317.191 84.6672L317.48 85.4358L317.77 85.8431L318.059 89.0025L318.349 88.9117L318.638 77.7556L318.927 86.3112L319.217 85.1879L319.506 83.3642L319.796 86.861L320.085 82.1148L320.374 82.9871L320.664 85.6254L320.953 85.0675L321.243 88.1234L321.532 85.3944L321.822 85.6937L322.111 85.9136L322.4 85.317L322.69 82.2818L322.979 83.4291L323.269 80.2876L323.558 84.4151L323.847 83.7485L324.137 87.0415L324.426 83.9117L324.716 83.3839L325.005 85.5803L325.294 84.5779L325.584 84.4551L325.873 80.8647L326.163 83.7975L326.452 82.8116L326.741 83.414L327.031 84.0665L327.32 87.1063L327.61 83.21L327.899 83.2742L328.188 84.4388L328.478 84.106L328.767 81.377L329.057 84.4116L329.346 84.58L329.636 83.1615L329.925 78.2365L330.214 84.6588L330.504 83.9549L330.793 79.9525L331.083 83.4752L331.372 83.0963L331.661 83.9537L331.951 83.8366L332.24 79.6632L332.53 85.7908L332.819 84.4031L333.108 81.2013L333.398 84.6609L333.687 88.9083L333.977 86.6675L334.266 86.1634L334.555 85.5311L334.845 83.5673L335.134 79.4018L335.424 80.0491L335.713 80.6611L336.003 80.8196L336.292 86.7979L336.581 84.2096L336.871 80.2833L337.16 74.1406L337.45 85.7239L337.739 84.8264L338.028 86.861L338.318 87.4303L338.607 84.0662L338.897 85.0111L339.186 82.4875L339.475 82.3312L339.765 83.1858L340.054 80.6161L340.344 87.4442L340.633 81.8218L340.922 83.415L341.212 83.4741L341.501 82.9249L341.791 85.233L342.08 85.5234L342.369 86.6282L342.659 85.3397L342.948 83.5522L343.238 80.5054L343.527 83.8724L343.817 82.3327L344.106 83.0146L344.395 87.636L344.685 85.2015L344.974 83.7685L345.264 85.015L345.553 88.1334L345.842 87.0046L346.132 86.2155L346.421 84.8094L346.711 85.2885L347 77.5772" stroke="#CED4DA" style="stroke:#CED4DA;stroke:color(display-p3 0.8078 0.8314 0.8549);stroke-opacity:1;" stroke-width="0.5" stroke-linecap="round" stroke-linejoin="round"/>
</svg>
