<svg width="347" height="105" viewBox="0 0 347 105" fill="none" xmlns="http://www.w3.org/2000/svg">
<path d="M0.387794 104.519H0.677444H0.967093H1.25674H1.54639H1.83604H2.12569H2.41534H2.70499H2.99464H3.28429H3.57394H3.86359H4.15324H4.44289H4.73254H5.02218H5.31183H5.60148H5.89113H6.18078H6.47043H6.76008H7.04973H7.33938H7.62903H7.91868H8.20833H8.49798H8.78763H9.07728H9.36693H9.65658H9.94622H10.2359H10.5255H10.8152H11.1048H11.3945H11.6841H11.9738H12.2634H12.5531H12.8427H13.1324H13.422H13.7117H14.0013L14.291 104.498H14.5806L14.8703 104.508H15.1599L15.4496 104.498L15.7392 104.487L16.0289 104.508H16.3185L16.6082 104.487L16.8978 104.508L17.1875 104.519L17.4771 104.508L17.7668 104.519L18.0564 104.508L18.3461 104.519L18.6357 104.487L18.9254 104.498L19.215 104.487L19.5047 104.498H19.7943H20.084L20.3736 104.508L20.6633 104.498H20.9529H21.2426L21.5322 103.55L21.8219 104.498L22.1115 104.487H22.4012L22.6908 104.382L22.9804 104.477H23.2701L23.5597 104.456L23.8494 104.477L24.139 104.498L24.4287 104.487L24.7183 104.498L25.008 104.487H25.2976L25.5873 104.477L25.8769 104.466L26.1666 104.487L26.4562 104.477H26.7459H27.0355L27.3252 104.424L27.6148 104.329L27.9045 104.466H28.1941L28.4838 104.477L28.7734 104.456L29.0631 104.192L29.3527 104.466L29.6424 103.971L29.932 104.456L30.2217 104.445L30.5113 104.413L30.801 104.403L31.0906 104.413L31.3803 104.435L31.6699 104.466H31.9596L32.2492 104.224L32.5389 104.435H32.8285L33.1182 104.392L33.4078 104.003L33.6975 104.35L33.9871 102.644L34.2768 103.803L34.5664 103.434L34.8561 103.276L35.1457 103.592L35.4354 103.581L35.725 103.666L36.0147 103.803H36.3043L36.594 103.244L36.8836 103.371L37.1733 103.55L37.4629 103.444L37.7526 103.329L38.0422 103.539L38.3319 103.35L38.6215 103.255L38.9112 103.729L39.2008 103.687L39.4905 103.855L39.7801 104.234L40.0698 104.192L40.3594 104.224L40.6491 104.182L40.9387 104.308L41.2284 104.34L41.518 104.319L41.8077 104.287L42.0973 104.213L42.387 104.277L42.6766 104.298L42.9663 104.329H43.2559L43.5456 104.319L43.8352 104.266L44.1249 104.255L44.4145 104.245L44.7042 104.255L44.9938 104.319L45.2835 104.234L45.5731 103.95L45.8628 103.75L46.1524 103.56L46.4421 104.192L46.7317 104.213L47.0214 104.15L47.311 104.097L47.6007 104.203L47.8903 104.15H48.1799L48.4696 104.203L48.7593 104.213L49.0489 104.203L49.3385 104.266L49.6282 104.192L49.9178 104.213H50.2075L50.4971 104.203L50.7868 104.15L51.0764 104.14L51.3661 104.129L51.6557 104.076L51.9454 103.982L52.235 104.024L52.5247 104.087L52.8143 104.14L53.104 103.845L53.3936 103.602L53.6833 102.044L53.9729 102.023L54.2626 102.391H54.5522L54.8419 102.465L55.1315 102.623L55.4212 102.602L55.7108 100.79L56.0005 102.77L56.2901 102.412L56.5798 102.454L56.8694 102.486L57.1591 102.423L57.4487 102.128L57.7384 102.286L58.028 102.36L58.3177 102.728L58.6073 103.423L58.897 103.413L59.1866 103.402L59.4763 103.35L59.7659 103.244L60.0556 103.339L60.3452 103.529L60.6349 103.539L60.9245 103.371L61.2142 103.476L61.5038 103.497L61.7935 103.487L62.0831 103.581L62.3728 103.55L62.6624 103.476L62.9521 103.455L63.2417 103.371L63.5314 103.392H63.821L64.1107 103.444L64.4003 103.35L64.69 103.476L64.9796 103.35L65.2693 103.16L65.5589 103.097L65.8486 102.981L66.1382 102.918L66.4279 103.139L66.7175 103.444L67.0072 103.423L67.2968 102.791L67.5865 102.075L67.8761 102.149L68.1658 101.949L68.4554 101.675L68.7451 103.223L69.0347 101.938L69.3244 102.56L69.614 102.265L69.9037 102.223L70.1933 102.054L70.483 101.696L70.7726 102.012L71.0623 102.296L71.3519 102.591L71.6416 102.56L71.9312 102.718L72.2209 102.612L72.5105 102.655L72.8002 102.707L73.0898 102.718L73.3795 102.507L73.6691 102.528L73.9587 102.254L74.2484 102.044L74.538 102.012L74.8277 102.233L75.1173 102.549L75.407 101.98L75.6966 101.686L75.9863 101.833L76.2759 101.749L76.5656 101.643L76.8552 102.117L77.1449 101.528L77.4345 101.391L77.7242 101.728H78.0138L78.3035 101.454L78.5931 101.433L78.8828 101.707L79.1724 101.38L79.4621 100.801L79.7517 99.0629L80.0414 100.074L80.331 99.9476L80.6207 99.7475L80.9103 100.148L81.2 99.8633L81.4896 99.8844L81.7793 100.232L82.0689 100.337L82.3586 99.8107L82.6482 99.9581L82.9379 99.8317L83.2275 99.3051L83.5172 98.7679L83.8068 98.9681L84.0965 97.7041L84.3861 97.7147L84.6758 96.9142L84.9654 97.9043L85.2551 96.7878L85.5447 96.8194L85.8344 99.2524L86.124 99.3894L86.4137 99.4526L86.7033 99.442L86.993 99.1471L87.2826 99.2735L87.5723 98.6205L87.8619 99.3367L88.1516 98.7469L88.4412 98.3466L88.7309 97.6831L89.0205 98.8838L89.3102 99.3999L89.5998 97.8411L89.8895 98.6205L90.1791 97.5777L90.4688 97.5988L90.7584 97.6831L91.0481 98.8311L91.3377 97.3566L91.6274 97.9885L91.917 97.5145L92.2067 94.7866L92.4963 96.9879L92.786 97.3144L93.0756 98.4941L93.3653 95.7135L93.6549 96.3244L93.9446 96.5771L94.2342 96.0821L94.5239 95.0604L94.8135 94.0177L95.1032 95.7977L95.3928 91.7532L95.6825 87.0766L95.9721 87.3189L96.2618 85.7074L96.5514 85.9602L96.8411 85.6547L97.1307 80.3778L97.4203 81.0519L97.71 85.0965L97.9997 83.7167L98.2893 83.9589L98.579 82.5897L98.8686 55.9419L99.1583 52.3924L99.4479 56.7635L99.7375 54.7833L100.027 55.8471L100.317 55.1625L100.606 56.3527L100.896 45.7884L101.186 46.0412L101.475 45.5251L101.765 59.1017L102.055 47.4104L102.344 29.6207L102.634 42.5865L102.924 43.1236L103.213 51.3813L103.503 45.978L103.793 43.4817L104.082 39.8795L104.372 41.9861L104.662 44.8721L104.951 36.9409L105.241 44.7246L105.531 39.0159L105.82 43.9768L106.11 42.0177L106.399 40.3535L106.689 47.6632L106.979 42.8076L107.268 34.4973L107.558 33.3493L107.848 32.6857L108.137 30.2737L108.427 15.1593L108.717 10.9567L109.006 7.73371L109.296 19.2144L109.586 12.9369L109.875 10.23L110.165 4.73188L110.455 0.992771L110.744 6.28019L111.034 5.75356L111.324 5.65876L111.613 6.1538L111.903 4.18418L112.192 5.65876L112.482 2.24616L112.772 3.85767L113.061 5.15319L113.351 13.4846L113.641 28.7465L113.93 20.2992L114.22 14.3377L114.51 10.3248L114.799 11.4307L115.089 23.2695L115.379 21.0155L115.668 19.6462L115.958 24.0489L116.248 17.7819L116.537 22.9956L116.827 14.2324L117.117 2.52001L117.406 6.0906L117.696 8.93444L117.985 7.09121L118.275 7.94436L118.565 6.91216L118.854 15.4226L119.144 12.8105L119.434 17.8346L119.723 16.8234L120.013 13.7163L120.303 11.9047L120.592 14.0533L120.882 14.5905L121.172 8.60792L121.461 14.3167L121.751 15.0013L122.041 5.37438L122.33 20.1623L122.62 13.2318L122.91 14.3061L123.199 9.10296L123.489 25.1759L123.778 27.1034L124.068 23.6802L124.358 23.28L124.647 27.0507L124.937 19.1196L125.227 25.7868L125.516 24.7651L125.806 15.9703L126.096 16.0651L126.385 16.0335L126.675 12.0732L126.965 18.298L127.254 14.1903L127.544 11.1674L127.834 15.707L128.123 20.531L128.413 16.8024L128.702 18.4139L128.992 19.8463L129.282 10.3142L129.571 9.82972L129.861 8.83964L130.151 10.0298L130.44 8.72378L130.73 6.06954L131.02 11.3148L131.309 17.6555L131.599 15.8544L131.889 8.9871L132.178 13.8111L132.468 13.453L132.758 12.2628L133.047 17.5397L133.337 16.4021L133.627 14.4957L133.916 16.2441L134.206 12.326L134.495 8.69218L134.785 5.62716L135.075 2.7728L135.364 1.90912L135.654 2.08817L135.944 1.82486L136.233 2.68854L136.523 6.31179L136.813 7.65998L137.102 4.90041L137.392 5.64823L137.682 5.61663L137.971 5.47971L138.261 4.82668L138.551 6.54351L138.84 2.62534L139.13 1.19289L139.42 3.8366L139.709 4.18418L139.999 1.79326L140.288 0.887444L140.578 0.961173L140.868 0.518799L141.157 1.42461L141.447 5.99581L141.737 7.7969L142.026 9.4716L142.316 11.3043L142.606 23.0167L142.895 39.7216L143.185 41.944L143.475 45.1775L143.764 51.0864L144.054 44.1453L144.344 35.0977L144.633 40.3746L144.923 41.8176L145.213 36.151L145.502 35.0977L145.792 40.3009L146.081 39.8269L146.371 14.8328L146.661 23.5433L146.95 30.0209L147.24 39.553L147.53 36.33L147.819 38.2048L148.109 42.0493L148.399 24.3649L148.688 30.2421L148.978 28.9677L149.268 25.1337L149.557 16.3073L149.847 40.4694L150.137 37.9942L150.426 28.9993L150.716 33.7811L151.005 33.5704L151.295 43.8293L151.585 45.6515L151.874 50.9705L152.164 50.7282L152.454 22.2794L152.743 38.742L153.033 35.0029L153.323 25.6709L153.612 19.3092L153.902 26.5241L154.192 26.1028L154.481 17.013L154.771 23.0377L155.061 31.1269L155.35 30.9162L155.64 37.2042L155.93 39.7005L156.219 39.0159L156.509 20.0991L156.798 13.8427L157.088 21.4894L157.378 19.1406L157.667 14.7485L157.957 25.6604L158.247 17.4449L158.536 9.49267L158.826 23.7961L159.116 20.8153L159.405 24.744L159.695 30.4633L159.985 27.5352L160.274 40.2798L160.564 18.7931L160.854 35.8244L161.143 37.2464L161.433 30.8425L161.723 33.3282L162.012 41.1435L162.302 40.7327L162.591 20.6995L162.881 31.6746L163.171 30.0104L163.46 39.5636L163.75 37.4044L164.04 42.0177L164.329 40.6906L164.619 32.3487L164.909 40.7327L165.198 29.9051L165.488 36.7197L165.778 36.0562L166.067 49.8962L166.357 44.535L166.647 34.6448L166.936 34.1392L167.226 35.8876L167.516 32.7489L167.805 6.89109L168.095 5.6061L168.384 13.7795L168.674 5.39544L168.964 10.7461L169.253 15.5068L169.543 11.8204L169.833 7.05961L170.122 33.2123L170.412 32.2539L170.702 20.0991L170.991 27.156L171.281 15.865L171.571 22.8481L171.86 25.2707L172.15 23.5222L172.44 29.6417L172.729 22.8271L173.019 47.2946L173.309 51.2338L173.598 51.1917L173.888 51.0864L174.177 51.0969L174.467 51.0442H174.757L175.046 51.2233L175.336 52.3292L175.626 55.5838L175.915 57.722L176.205 57.3112L176.495 55.647L176.784 56.279L177.074 58.0379L177.364 60.0076L177.653 55.3626L177.943 57.1005L178.233 57.3217L178.522 59.997L178.812 57.5218L179.101 53.4562L179.391 57.7641L179.681 55.8471L179.97 54.9729L180.26 54.8781L180.55 54.4358L180.839 52.3713L181.129 55.0045L181.419 54.6991L181.708 65.632L181.998 65.4319L182.288 62.5881L182.577 71.0564L182.867 68.8656L183.157 60.3446L183.446 60.6711L183.736 61.0398L184.026 61.6823L184.315 68.7181L184.605 59.4915L184.894 58.6278L185.184 59.1965L185.474 60.3867L185.763 67.5384L186.053 63.8941L186.343 70.7931L186.632 67.1382L186.922 69.3079L187.212 65.7163L187.501 64.2101L187.791 64.0732L188.081 62.6197L188.37 64.8526L188.66 65.8953L188.95 65.5162L189.239 59.9654L189.529 56.6582L189.819 59.6705L190.108 61.7244L190.398 62.1352L190.687 64.2838L190.977 63.3254L191.267 61.4611L191.556 60.5026L191.846 61.3873L192.136 62.8409L192.425 64.505L192.715 67.391L193.005 64.2733L193.294 63.378L193.584 64.7262L193.874 62.3985L194.163 62.5881L194.453 64.4313L194.743 65.4846L195.032 59.9654L195.322 63.3043L195.612 59.8917L195.901 56.7319L196.191 57.9431L196.48 64.0627L196.77 63.9363L197.06 59.6705L197.349 58.9122L197.639 59.6389L197.929 57.1637L198.218 53.1613L198.508 56.2579L198.798 57.5113L199.087 51.8658L199.377 52.6452L199.667 52.9717L199.956 52.2134L200.246 55.9946L200.536 58.9648L200.825 58.4698L201.115 52.0975L201.404 53.5405L201.694 55.4048L201.984 54.5516L202.273 52.898L202.563 56.5423L202.853 57.4902L203.142 57.3007L203.432 52.4135L203.722 55.5628L204.011 54.2356L204.301 51.4129L204.591 53.1929L204.88 55.5101L205.17 51.2654L205.46 50.9389L205.749 50.96L206.039 50.8546L206.329 51.4339L206.618 56.6792L206.908 61.2399L207.197 53.6037L207.487 58.8806L207.777 57.248L208.066 54.0144L208.356 56.6687L208.646 59.4809L208.935 60.6501L209.225 55.6575L209.515 56.6266L209.804 53.8459L210.094 55.0782L210.384 51.2338L210.673 60.787L210.963 67.6016L211.253 59.9128L211.542 60.1655L211.832 59.6389L212.122 61.7771L212.411 55.4153L212.701 63.3148L212.99 63.3359L213.28 57.8062L213.57 58.2275L213.859 59.344L214.149 61.5875L214.439 55.7418L214.728 59.3545L215.018 58.2381L215.308 51.0232L215.597 51.5603L215.887 52.1712L216.177 53.7827L216.466 59.3545L216.756 54.6675L217.046 58.0379L217.335 53.2666L217.625 56.8899L217.915 56.0894L218.204 53.6669L218.494 52.6979L218.783 56.616L219.073 57.9958L219.363 53.6563L219.652 57.7746L219.942 52.6979L220.232 51.3813L220.521 56.6582L220.811 55.0256L221.101 52.8032L221.39 51.3286L221.68 54.025L221.97 55.7629L222.259 60.3867L222.549 58.6804L222.839 64.5577L223.128 69.1184L223.418 62.5459L223.708 59.3861L223.997 56.2579L224.287 53.2772L224.576 53.2877L224.866 57.6482L225.156 57.5745L225.445 51.6972L225.735 53.7827L226.025 55.2257L226.314 53.1086L226.604 54.7939L226.894 55.9735L227.183 56.6371L227.473 51.1495L227.763 52.5188L228.052 57.1953L228.342 55.8471L228.632 53.4667L228.921 57.8168L229.211 60.7343L229.5 60.1866L229.79 50.7177L230.08 54.6464L230.369 59.4915L230.659 57.0057L230.949 61.2715L231.238 59.1649L231.528 53.6037L231.818 56.9109L232.107 53.9512L232.397 55.4364L232.687 56.5844L232.976 57.5534L233.266 62.1668L233.556 54.2462L233.845 58.0906L234.135 55.6997L234.425 57.8273L234.714 55.3205L235.004 58.8068L235.293 62.3985L235.583 57.3217L235.873 57.9537L236.162 58.5962L236.452 60.313L236.742 53.6985L237.031 59.7653L237.321 61.0608L237.611 57.7641L237.9 53.5615L238.19 55.6681L238.48 61.5664L238.769 65.5899L239.059 70.4033L239.349 70.2032L239.638 66.9381L239.928 63.7572L240.218 61.8929L240.507 64.4945L240.797 61.2294L241.086 60.3657L241.376 62.072L241.666 64.6841L241.955 61.9877L242.245 63.9047L242.535 58.712L242.824 61.1662L243.114 70.1611L243.404 66.6116L243.693 63.3043L243.983 63.515L244.273 58.712L244.562 61.8508L244.852 60.4289L245.142 68.9393L245.431 69.7714L245.721 61.6191L246.011 59.1755L246.3 58.5856L246.59 60.808L246.879 59.5125L247.169 68.7076L247.459 65.7479L247.748 61.6085L248.038 63.2306L248.328 63.0515L248.617 62.1352L248.907 61.8297L249.197 65.2107L249.486 63.041L249.776 61.2926L250.066 59.4177L250.355 58.1643L250.645 51.4234L250.935 50.2648L251.224 50.2753L251.514 50.4439L251.803 50.2227L252.093 50.012L252.383 50.3069L252.672 50.2227L252.962 50.4755L253.252 50.6334H253.541L253.831 50.9705L254.121 50.7388L254.41 50.6018L254.7 50.981L254.99 51.8658L255.279 53.7406L255.569 57.6904L255.859 53.056L256.148 51.0969L256.438 50.96L256.728 51.2022L257.017 51.3075L257.307 51.1811L257.596 51.1706L257.886 51.297L258.176 51.3075L258.465 51.1917L258.755 51.1706L259.045 51.1285L259.334 51.139L259.624 52.5083L259.914 50.9073L260.203 54.341L260.493 52.266L260.783 52.8453L261.072 55.3416L261.362 56.0157L261.652 54.9203L261.941 52.0975L262.231 52.8348L262.521 52.7189L262.81 55.2152L263.1 54.1619L263.389 56.5107L263.679 56.5528L263.969 52.2871L264.258 51.8552L264.548 51.929L264.838 54.1092L265.127 52.2134L265.417 52.4029L265.707 53.1929L265.996 54.3094L266.286 52.5715L266.576 51.7394L266.865 51.3918L267.155 51.8342L267.445 53.4246L267.734 51.6867L268.024 51.1917L268.314 51.6762L268.603 51.3075L268.893 51.0864L269.182 51.2549H269.472L269.762 51.1495L270.051 51.3813L270.341 51.3075L270.631 51.3286L270.92 51.2338L271.21 51.1917L271.5 51.2759L271.789 51.1495L272.079 51.2233L272.369 51.1917L272.658 51.1811L272.948 51.2654L273.238 51.2443L273.527 51.0758L273.817 50.9916L274.106 51.0442L274.396 51.2865H274.686L274.975 51.2022L275.265 51.2759L275.555 51.0864L275.844 51.2127L276.134 51.2654L276.424 51.2443L276.713 51.1495L277.003 51.2338H277.293L277.582 51.2233L277.872 51.1706L278.162 51.2022L278.451 51.3497L278.741 51.5182L279.031 51.5498L279.32 51.5287L279.61 51.5182L279.899 51.5077L280.189 51.5393L280.479 51.4971L280.768 51.5182L281.058 51.4971L281.348 51.5709L281.637 51.4971L281.927 51.455L282.217 51.5182L282.506 51.5603L282.796 51.5709H283.086L283.375 51.6025L283.665 51.5603L283.955 51.5498L284.244 51.5603L284.534 51.5709H284.824H285.113L285.403 51.5393L285.692 51.4234L285.982 51.3918L286.272 51.3813L286.561 51.297L286.851 51.3181L287.141 51.2443L287.43 51.4023L287.72 51.3181L288.01 51.4023L288.299 51.5182L288.589 51.5287H288.879H289.168L289.458 51.5393L289.748 51.5182L290.037 51.5077L290.327 51.5182L290.617 51.3602L290.906 51.5077L291.196 51.4971H291.485L291.775 51.4761L292.065 51.5498L292.354 51.5182L292.644 51.5393L292.934 51.4971L293.223 51.5603L293.513 51.4866H293.803L294.092 51.5393L294.382 51.4971H294.672L294.961 51.5287L295.251 51.4971L295.541 51.5182L295.83 51.5709L296.12 51.5287L296.409 51.5709L296.699 51.4655L296.989 51.5287L297.278 51.5603H297.568L297.858 51.5498L298.147 51.5182L298.437 51.5603L298.727 51.5498L299.016 51.4866L299.306 51.5077L299.596 51.5603L299.885 51.5182L300.175 51.4761L300.465 51.5077L300.754 51.5393H301.044L301.334 51.5709L301.623 51.5287H301.913L302.202 51.4971L302.492 51.4866L302.782 51.5077L303.071 51.4866L303.361 51.4339L303.651 51.4761L303.94 51.4234L304.23 51.3813L304.52 51.3918L304.809 51.4445L305.099 51.3391L305.389 51.3918L305.678 51.3602L305.968 51.3181L306.258 51.297L306.547 51.3813L306.837 51.3391H307.127L307.416 51.3286L307.706 51.2654H307.995L308.285 51.2549L308.575 51.3075H308.864L309.154 51.3602L309.444 51.3391L309.733 51.3497L310.023 51.3075L310.313 51.2759L310.602 51.3707L310.892 51.3497L311.182 51.4234L311.471 51.3813H311.761L312.051 51.3497L312.34 51.3391L312.63 51.4234L312.92 51.4339H313.209L313.499 51.455L313.788 51.4129L314.078 51.4339L314.368 51.4129L314.657 51.4761H314.947L315.237 51.4971H315.526L315.816 51.5077L316.106 51.4655L316.395 51.4234L316.685 51.4866H316.975L317.264 51.5077L317.554 51.455L317.844 51.4445L318.133 51.4023L318.423 51.4129L318.712 51.455L319.002 51.4655L319.292 51.4761L319.581 51.455L319.871 51.4655L320.161 51.4761L320.45 51.4234L320.74 51.4971L321.03 51.4866L321.319 51.5182L321.609 51.4761L321.899 51.4129L322.188 51.3813L322.478 51.3707L322.768 51.4234L323.057 51.4445L323.347 51.4655L323.637 51.4445L323.926 51.455L324.216 51.4129H324.505L324.795 51.4761L325.085 51.4866L325.374 51.4971L325.664 51.5077L325.954 51.5182L326.243 51.4445L326.533 51.4339L326.823 51.4761L327.112 51.4866L327.402 51.4655L327.692 51.4445H327.981H328.271L328.561 51.4234L328.85 51.4761L329.14 51.4971L329.43 51.5287H329.719L330.009 51.5077L330.298 51.4445H330.588L330.878 51.4971L331.167 51.4866L331.457 51.4971H331.747L332.036 51.4761L332.326 51.4866L332.616 51.4023L332.905 51.4761L333.195 51.4445L333.485 51.4655L333.774 51.455L334.064 51.4971L334.354 51.5182L334.643 51.4655L334.933 51.455L335.223 51.4234L335.512 51.455L335.802 51.4339L336.091 51.4866L336.381 51.3918L336.671 51.4129L336.96 51.4339L337.25 51.4761H337.54H337.829L338.119 51.4445H338.409L338.698 51.4234L338.988 51.3707L339.278 51.4445L339.567 51.4339L339.857 51.4655L340.147 51.4129L340.436 51.4339L340.726 51.3813L341.016 51.4339L341.305 51.4445L341.595 51.4234L341.884 51.4129L342.174 51.4445L342.464 51.4761L342.753 51.4445L343.043 51.4655L343.333 51.4129L343.622 51.4761L343.912 51.4971L344.202 51.4445L344.491 51.4339L344.781 51.4445L345.071 51.4971H345.36L345.65 51.4761L345.94 51.5182L346.229 51.4866L346.519 51.4339L346.809 51.4234L347.098 51.4655V104.519H346.809H346.519H346.229H345.94H345.65H345.36H345.071H344.781H344.491H344.202H343.912H343.622H343.333H343.043H342.753H342.464H342.174H341.884H341.595H341.305H341.016H340.726H340.436H340.147H339.857H339.567H339.278H338.988H338.698H338.409H338.119H337.829H337.54H337.25H336.96H336.671H336.381H336.091H335.802H335.512H335.223H334.933H334.643H334.354H334.064H333.774H333.485H333.195H332.905H332.616H332.326H332.036H331.747H331.457H331.167H330.878H330.588H330.298H330.009H329.719H329.43H329.14H328.85H328.561H328.271H327.981H327.692H327.402H327.112H326.823H326.533H326.243H325.954H325.664H325.374H325.085H324.795H324.505H324.216H323.926H323.637H323.347H323.057H322.768H322.478H322.188H321.899H321.609H321.319H321.03H320.74H320.45H320.161H319.871H319.581H319.292H319.002H318.712H318.423H318.133H317.844H317.554H317.264H316.975H316.685H316.395H316.106H315.816H315.526H315.237H314.947H314.657H314.368H314.078H313.788H313.499H313.209H312.92H312.63H312.34H312.051H311.761H311.471H311.182H310.892H310.602H310.313H310.023H309.733H309.444H309.154H308.864H308.575H308.285H307.995H307.706H307.416H307.127H306.837H306.547H306.258H305.968H305.678H305.389H305.099H304.809H304.52H304.23H303.94H303.651H303.361H303.071H302.782H302.492H302.202H301.913H301.623H301.334H301.044H300.754H300.465H300.175H299.885H299.596H299.306H299.016H298.727H298.437H298.147H297.858H297.568H297.278H296.989H296.699H296.409H296.12H295.83H295.541H295.251H294.961H294.672H294.382H294.092H293.803H293.513H293.223H292.934H292.644H292.354H292.065H291.775H291.485H291.196H290.906H290.617H290.327H290.037H289.748H289.458H289.168H288.879H288.589H288.299H288.01H287.72H287.43H287.141H286.851H286.561H286.272H285.982H285.692H285.403H285.113H284.824H284.534H284.244H283.955H283.665H283.375H283.086H282.796H282.506H282.217H281.927H281.637H281.348H281.058H280.768H280.479H280.189H279.899H279.61H279.32H279.031H278.741H278.451H278.162H277.872H277.582H277.293H277.003H276.713H276.424H276.134H275.844H275.555H275.265H274.975H274.686H274.396H274.106H273.817H273.527H273.238H272.948H272.658H272.369H272.079H271.789H271.5H271.21H270.92H270.631H270.341H270.051H269.762H269.472H269.182H268.893H268.603H268.314H268.024H267.734H267.445H267.155H266.865H266.576H266.286H265.996H265.707H265.417H265.127H264.838H264.548H264.258H263.969H263.679H263.389H263.1H262.81H262.521H262.231H261.941H261.652H261.362H261.072H260.783H260.493H260.203H259.914H259.624H259.334H259.045H258.755H258.465H258.176H257.886H257.596H257.307H257.017H256.728H256.438H256.148H255.859H255.569H255.279H254.99H254.7H254.41H254.121H253.831H253.541H253.252H252.962H252.672H252.383H252.093H251.803H251.514H251.224H250.935H250.645H250.355H250.066H249.776H249.486H249.197H248.907H248.617H248.328H248.038H247.748H247.459H247.169H246.879H246.59H246.3H246.011H245.721H245.431H245.142H244.852H244.562H244.273H243.983H243.693H243.404H243.114H242.824H242.535H242.245H241.955H241.666H241.376H241.086H240.797H240.507H240.218H239.928H239.638H239.349H239.059H238.769H238.48H238.19H237.9H237.611H237.321H237.031H236.742H236.452H236.162H235.873H235.583H235.293H235.004H234.714H234.425H234.135H233.845H233.556H233.266H232.976H232.687H232.397H232.107H231.818H231.528H231.238H230.949H230.659H230.369H230.08H229.79H229.5H229.211H228.921H228.632H228.342H228.052H227.763H227.473H227.183H226.894H226.604H226.314H226.025H225.735H225.445H225.156H224.866H224.576H224.287H223.997H223.708H223.418H223.128H222.839H222.549H222.259H221.97H221.68H221.39H221.101H220.811H220.521H220.232H219.942H219.652H219.363H219.073H218.783H218.494H218.204H217.915H217.625H217.335H217.046H216.756H216.466H216.177H215.887H215.597H215.308H215.018H214.728H214.439H214.149H213.859H213.57H213.28H212.99H212.701H212.411H212.122H211.832H211.542H211.253H210.963H210.673H210.384H210.094H209.804H209.515H209.225H208.935H208.646H208.356H208.066H207.777H207.487H207.197H206.908H206.618H206.329H206.039H205.749H205.46H205.17H204.88H204.591H204.301H204.011H203.722H203.432H203.142H202.853H202.563H202.273H201.984H201.694H201.404H201.115H200.825H200.536H200.246H199.956H199.667H199.377H199.087H198.798H198.508H198.218H197.929H197.639H197.349H197.06H196.77H196.48H196.191H195.901H195.612H195.322H195.032H194.743H194.453H194.163H193.874H193.584H193.294H193.005H192.715H192.425H192.136H191.846H191.556H191.267H190.977H190.687H190.398H190.108H189.819H189.529H189.239H188.95H188.66H188.37H188.081H187.791H187.501H187.212H186.922H186.632H186.343H186.053H185.763H185.474H185.184H184.894H184.605H184.315H184.026H183.736H183.446H183.157H182.867H182.577H182.288H181.998H181.708H181.419H181.129H180.839H180.55H180.26H179.97H179.681H179.391H179.101H178.812H178.522H178.233H177.943H177.653H177.364H177.074H176.784H176.495H176.205H175.915H175.626H175.336H175.046H174.757H174.467H174.177H173.888H173.598H173.309H173.019H172.729H172.44H172.15H171.86H171.571H171.281H170.991H170.702H170.412H170.122H169.833H169.543H169.253H168.964H168.674H168.384H168.095H167.805H167.516H167.226H166.936H166.647H166.357H166.067H165.778H165.488H165.198H164.909H164.619H164.329H164.04H163.75H163.46H163.171H162.881H162.591H162.302H162.012H161.723H161.433H161.143H160.854H160.564H160.274H159.985H159.695H159.405H159.116H158.826H158.536H158.247H157.957H157.667H157.378H157.088H156.798H156.509H156.219H155.93H155.64H155.35H155.061H154.771H154.481H154.192H153.902H153.612H153.323H153.033H152.743H152.454H152.164H151.874H151.585H151.295H151.005H150.716H150.426H150.137H149.847H149.557H149.268H148.978H148.688H148.399H148.109H147.819H147.53H147.24H146.95H146.661H146.371H146.081H145.792H145.502H145.213H144.923H144.633H144.344H144.054H143.764H143.475H143.185H142.895H142.606H142.316H142.026H141.737H141.447H141.157H140.868H140.578H140.288H139.999H139.709H139.42H139.13H138.84H138.551H138.261H137.971H137.682H137.392H137.102H136.813H136.523H136.233H135.944H135.654H135.364H135.075H134.785H134.495H134.206H133.916H133.627H133.337H133.047H132.758H132.468H132.178H131.889H131.599H131.309H131.02H130.73H130.44H130.151H129.861H129.571H129.282H128.992H128.702H128.413H128.123H127.834H127.544H127.254H126.965H126.675H126.385H126.096H125.806H125.516H125.227H124.937H124.647H124.358H124.068H123.778H123.489H123.199H122.91H122.62H122.33H122.041H121.751H121.461H121.172H120.882H120.592H120.303H120.013H119.723H119.434H119.144H118.854H118.565H118.275H117.985H117.696H117.406H117.117H116.827H116.537H116.248H115.958H115.668H115.379H115.089H114.799H114.51H114.22H113.93H113.641H113.351H113.061H112.772H112.482H112.192H111.903H111.613H111.324H111.034H110.744H110.455H110.165H109.875H109.586H109.296H109.006H108.717H108.427H108.137H107.848H107.558H107.268H106.979H106.689H106.399H106.11H105.82H105.531H105.241H104.951H104.662H104.372H104.082H103.793H103.503H103.213H102.924H102.634H102.344H102.055H101.765H101.475H101.186H100.896H100.606H100.317H100.027H99.7375H99.4479H99.1583H98.8686H98.579H98.2893H97.9997H97.71H97.4203H97.1307H96.8411H96.5514H96.2618H95.9721H95.6825H95.3928H95.1032H94.8135H94.5239H94.2342H93.9446H93.6549H93.3653H93.0756H92.786H92.4963H92.2067H91.917H91.6274H91.3377H91.0481H90.7584H90.4688H90.1791H89.8895H89.5998H89.3102H89.0205H88.7309H88.4412H88.1516H87.8619H87.5723H87.2826H86.993H86.7033H86.4137H86.124H85.8344H85.5447H85.2551H84.9654H84.6758H84.3861H84.0965H83.8068H83.5172H83.2275H82.9379H82.6482H82.3586H82.0689H81.7793H81.4896H81.2H80.9103H80.6207H80.331H80.0414H79.7517H79.4621H79.1724H78.8828H78.5931H78.3035H78.0138H77.7242H77.4345H77.1449H76.8552H76.5656H76.2759H75.9863H75.6966H75.407H75.1173H74.8277H74.538H74.2484H73.9587H73.6691H73.3795H73.0898H72.8002H72.5105H72.2209H71.9312H71.6416H71.3519H71.0623H70.7726H70.483H70.1933H69.9037H69.614H69.3244H69.0347H68.7451H68.4554H68.1658H67.8761H67.5865H67.2968H67.0072H66.7175H66.4279H66.1382H65.8486H65.5589H65.2693H64.9796H64.69H64.4003H64.1107H63.821H63.5314H63.2417H62.9521H62.6624H62.3728H62.0831H61.7935H61.5038H61.2142H60.9245H60.6349H60.3452H60.0556H59.7659H59.4763H59.1866H58.897H58.6073H58.3177H58.028H57.7384H57.4487H57.1591H56.8694H56.5798H56.2901H56.0005H55.7108H55.4212H55.1315H54.8419H54.5522H54.2626H53.9729H53.6833H53.3936H53.104H52.8143H52.5247H52.235H51.9454H51.6557H51.3661H51.0764H50.7868H50.4971H50.2075H49.9178H49.6282H49.3385H49.0489H48.7593H48.4696H48.1799H47.8903H47.6007H47.311H47.0214H46.7317H46.4421H46.1524H45.8628H45.5731H45.2835H44.9938H44.7042H44.4145H44.1249H43.8352H43.5456H43.2559H42.9663H42.6766H42.387H42.0973H41.8077H41.518H41.2284H40.9387H40.6491H40.3594H40.0698H39.7801H39.4905H39.2008H38.9112H38.6215H38.3319H38.0422H37.7526H37.4629H37.1733H36.8836H36.594H36.3043H36.0147H35.725H35.4354H35.1457H34.8561H34.5664H34.2768H33.9871H33.6975H33.4078H33.1182H32.8285H32.5389H32.2492H31.9596H31.6699H31.3803H31.0906H30.801H30.5113H30.2217H29.932H29.6424H29.3527H29.0631H28.7734H28.4838H28.1941H27.9045H27.6148H27.3252H27.0355H26.7459H26.4562H26.1666H25.8769H25.5873H25.2976H25.008H24.7183H24.4287H24.139H23.8494H23.5597H23.2701H22.9804H22.6908H22.4012H22.1115H21.8219H21.5322H21.2426H20.9529H20.6633H20.3736H20.084H19.7943H19.5047H19.215H18.9254H18.6357H18.3461H18.0564H17.7668H17.4771H17.1875H16.8978H16.6082H16.3185H16.0289H15.7392H15.4496H15.1599H14.8703H14.5806H14.291H14.0013H13.7117H13.422H13.1324H12.8427H12.5531H12.2634H11.9738H11.6841H11.3945H11.1048H10.8152H10.5255H10.2359H9.94622H9.65658H9.36693H9.07728H8.78763H8.49798H8.20833H7.91868H7.62903H7.33938H7.04973H6.76008H6.47043H6.18078H5.89113H5.60148H5.31183H5.02218H4.73254H4.44289H4.15324H3.86359H3.57394H3.28429H2.99464H2.70499H2.41534H2.12569H1.83604H1.54639H1.25674H0.967093H0.677444H0.387794Z" fill="url(#paint0_linear_802_31655)" style=""/>
<path d="M0.0981445 104.519H0.387794H0.677444H0.967093H1.25674H1.54639H1.83604H2.12569H2.41534H2.70499H2.99464H3.28429H3.57394H3.86359H4.15324H4.44289H4.73254H5.02218H5.31183H5.60148H5.89113H6.18078H6.47043H6.76008H7.04973H7.33938H7.62903H7.91868H8.20833H8.49798H8.78763H9.07728H9.36693H9.65658H9.94622H10.2359H10.5255H10.8152H11.1048H11.3945H11.6841H11.9738H12.2634H12.5531H12.8427H13.1324H13.422H13.7117H14.0013L14.291 104.498H14.5806L14.8703 104.508H15.1599L15.4496 104.498L15.7392 104.487L16.0289 104.508H16.3185L16.6082 104.487L16.8978 104.508L17.1875 104.519L17.4771 104.508L17.7668 104.519L18.0564 104.508L18.3461 104.519L18.6357 104.487L18.9254 104.498L19.215 104.487L19.5047 104.498H19.7943H20.084L20.3736 104.508L20.6633 104.498H20.9529H21.2426L21.5322 103.55L21.8219 104.498L22.1115 104.487H22.4012L22.6908 104.382L22.9804 104.477H23.2701L23.5597 104.456L23.8494 104.477L24.139 104.498L24.4287 104.487L24.7183 104.498L25.008 104.487H25.2976L25.5873 104.477L25.8769 104.466L26.1666 104.487L26.4562 104.477H26.7459H27.0355L27.3252 104.424L27.6148 104.329L27.9045 104.466H28.1941L28.4838 104.477L28.7734 104.456L29.0631 104.192L29.3527 104.466L29.6424 103.971L29.932 104.456L30.2217 104.445L30.5113 104.413L30.801 104.403L31.0906 104.413L31.3803 104.435L31.6699 104.466H31.9596L32.2492 104.224L32.5389 104.435H32.8285L33.1182 104.392L33.4078 104.003L33.6975 104.35L33.9871 102.644L34.2768 103.803L34.5664 103.434L34.8561 103.276L35.1457 103.592L35.4354 103.581L35.725 103.666L36.0147 103.803H36.3043L36.594 103.244L36.8836 103.371L37.1733 103.55L37.4629 103.444L37.7526 103.329L38.0422 103.539L38.3319 103.35L38.6215 103.255L38.9112 103.729L39.2008 103.687L39.4905 103.855L39.7801 104.234L40.0698 104.192L40.3594 104.224L40.6491 104.182L40.9387 104.308L41.2284 104.34L41.518 104.319L41.8077 104.287L42.0973 104.213L42.387 104.277L42.6766 104.298L42.9663 104.329H43.2559L43.5456 104.319L43.8352 104.266L44.1249 104.255L44.4145 104.245L44.7042 104.255L44.9938 104.319L45.2835 104.234L45.5731 103.95L45.8628 103.75L46.1524 103.56L46.4421 104.192L46.7317 104.213L47.0214 104.15L47.311 104.097L47.6007 104.203L47.8903 104.15H48.1799L48.4696 104.203L48.7593 104.213L49.0489 104.203L49.3385 104.266L49.6282 104.192L49.9178 104.213H50.2075L50.4971 104.203L50.7868 104.15L51.0764 104.14L51.3661 104.129L51.6557 104.076L51.9454 103.982L52.235 104.024L52.5247 104.087L52.8143 104.14L53.104 103.845L53.3936 103.602L53.6833 102.044L53.9729 102.023L54.2626 102.391H54.5522L54.8419 102.465L55.1315 102.623L55.4212 102.602L55.7108 100.79L56.0005 102.77L56.2901 102.412L56.5798 102.454L56.8694 102.486L57.1591 102.423L57.4487 102.128L57.7384 102.286L58.028 102.36L58.3177 102.728L58.6073 103.423L58.897 103.413L59.1866 103.402L59.4763 103.35L59.7659 103.244L60.0556 103.339L60.3452 103.529L60.6349 103.539L60.9245 103.371L61.2142 103.476L61.5038 103.497L61.7935 103.487L62.0831 103.581L62.3728 103.55L62.6624 103.476L62.9521 103.455L63.2417 103.371L63.5314 103.392H63.821L64.1107 103.444L64.4003 103.35L64.69 103.476L64.9796 103.35L65.2693 103.16L65.5589 103.097L65.8486 102.981L66.1382 102.918L66.4279 103.139L66.7175 103.444L67.0072 103.423L67.2968 102.791L67.5865 102.075L67.8761 102.149L68.1658 101.949L68.4554 101.675L68.7451 103.223L69.0347 101.938L69.3244 102.56L69.614 102.265L69.9037 102.223L70.1933 102.054L70.483 101.696L70.7726 102.012L71.0623 102.296L71.3519 102.591L71.6416 102.56L71.9312 102.718L72.2209 102.612L72.5105 102.655L72.8002 102.707L73.0898 102.718L73.3795 102.507L73.6691 102.528L73.9587 102.254L74.2484 102.044L74.538 102.012L74.8277 102.233L75.1173 102.549L75.407 101.98L75.6966 101.686L75.9863 101.833L76.2759 101.749L76.5656 101.643L76.8552 102.117L77.1449 101.528L77.4345 101.391L77.7242 101.728H78.0138L78.3035 101.454L78.5931 101.433L78.8828 101.707L79.1724 101.38L79.4621 100.801L79.7517 99.0629L80.0414 100.074L80.331 99.9476L80.6207 99.7475L80.9103 100.148L81.2 99.8633L81.4896 99.8844L81.7793 100.232L82.0689 100.337L82.3586 99.8107L82.6482 99.9581L82.9379 99.8317L83.2275 99.3051L83.5172 98.7679L83.8068 98.9681L84.0965 97.7041L84.3861 97.7147L84.6758 96.9142L84.9654 97.9043L85.2551 96.7878L85.5447 96.8194L85.8344 99.2524L86.124 99.3894L86.4137 99.4526L86.7033 99.442L86.993 99.1471L87.2826 99.2735L87.5723 98.6205L87.8619 99.3367L88.1516 98.7469L88.4412 98.3466L88.7309 97.6831L89.0205 98.8838L89.3102 99.3999L89.5998 97.8411L89.8895 98.6205L90.1791 97.5777L90.4688 97.5988L90.7584 97.6831L91.0481 98.8311L91.3377 97.3566L91.6274 97.9885L91.917 97.5145L92.2067 94.7866L92.4963 96.9879L92.786 97.3144L93.0756 98.4941L93.3653 95.7135L93.6549 96.3244L93.9446 96.5771L94.2342 96.0821L94.5239 95.0604L94.8135 94.0177L95.1032 95.7977L95.3928 91.7532L95.6825 87.0766L95.9721 87.3189L96.2618 85.7074L96.5514 85.9602L96.8411 85.6547L97.1307 80.3778L97.4203 81.0519L97.71 85.0965L97.9997 83.7167L98.2893 83.9589L98.579 82.5897L98.8686 55.9419L99.1583 52.3924L99.4479 56.7635L99.7375 54.7833L100.027 55.8471L100.317 55.1625L100.606 56.3527L100.896 45.7884L101.186 46.0412L101.475 45.5251L101.765 59.1017L102.055 47.4104L102.344 29.6207L102.634 42.5865L102.924 43.1236L103.213 51.3813L103.503 45.978L103.793 43.4817L104.082 39.8795L104.372 41.9861L104.662 44.8721L104.951 36.9409L105.241 44.7246L105.531 39.0159L105.82 43.9768L106.11 42.0177L106.399 40.3535L106.689 47.6632L106.979 42.8076L107.268 34.4973L107.558 33.3493L107.848 32.6857L108.137 30.2737L108.427 15.1593L108.717 10.9567L109.006 7.73371L109.296 19.2144L109.586 12.9369L109.875 10.23L110.165 4.73188L110.455 0.992771L110.744 6.28019L111.034 5.75356L111.324 5.65876L111.613 6.1538L111.903 4.18418L112.192 5.65876L112.482 2.24616L112.772 3.85767L113.061 5.15319L113.351 13.4846L113.641 28.7465L113.93 20.2992L114.22 14.3377L114.51 10.3248L114.799 11.4307L115.089 23.2695L115.379 21.0155L115.668 19.6462L115.958 24.0489L116.248 17.7819L116.537 22.9956L116.827 14.2324L117.117 2.52001L117.406 6.0906L117.696 8.93444L117.985 7.09121L118.275 7.94436L118.565 6.91216L118.854 15.4226L119.144 12.8105L119.434 17.8346L119.723 16.8234L120.013 13.7163L120.303 11.9047L120.592 14.0533L120.882 14.5905L121.172 8.60792L121.461 14.3167L121.751 15.0013L122.041 5.37438L122.33 20.1623L122.62 13.2318L122.91 14.3061L123.199 9.10296L123.489 25.1759L123.778 27.1034L124.068 23.6802L124.358 23.28L124.647 27.0507L124.937 19.1196L125.227 25.7868L125.516 24.7651L125.806 15.9703L126.096 16.0651L126.385 16.0335L126.675 12.0732L126.965 18.298L127.254 14.1903L127.544 11.1674L127.834 15.707L128.123 20.531L128.413 16.8024L128.702 18.4139L128.992 19.8463L129.282 10.3142L129.571 9.82972L129.861 8.83964L130.151 10.0298L130.44 8.72378L130.73 6.06954L131.02 11.3148L131.309 17.6555L131.599 15.8544L131.889 8.9871L132.178 13.8111L132.468 13.453L132.758 12.2628L133.047 17.5397L133.337 16.4021L133.627 14.4957L133.916 16.2441L134.206 12.326L134.495 8.69218L134.785 5.62716L135.075 2.7728L135.364 1.90912L135.654 2.08817L135.944 1.82486L136.233 2.68854L136.523 6.31179L136.813 7.65998L137.102 4.90041L137.392 5.64823L137.682 5.61663L137.971 5.47971L138.261 4.82668L138.551 6.54351L138.84 2.62534L139.13 1.19289L139.42 3.8366L139.709 4.18418L139.999 1.79326L140.288 0.887444L140.578 0.961173L140.868 0.518799L141.157 1.42461L141.447 5.99581L141.737 7.7969L142.026 9.4716L142.316 11.3043L142.606 23.0167L142.895 39.7216L143.185 41.944L143.475 45.1775L143.764 51.0864L144.054 44.1453L144.344 35.0977L144.633 40.3746L144.923 41.8176L145.213 36.151L145.502 35.0977L145.792 40.3009L146.081 39.8269L146.371 14.8328L146.661 23.5433L146.95 30.0209L147.24 39.553L147.53 36.33L147.819 38.2048L148.109 42.0493L148.399 24.3649L148.688 30.2421L148.978 28.9677L149.268 25.1337L149.557 16.3073L149.847 40.4694L150.137 37.9942L150.426 28.9993L150.716 33.7811L151.005 33.5704L151.295 43.8293L151.585 45.6515L151.874 50.9705L152.164 50.7282L152.454 22.2794L152.743 38.742L153.033 35.0029L153.323 25.6709L153.612 19.3092L153.902 26.5241L154.192 26.1028L154.481 17.013L154.771 23.0377L155.061 31.1269L155.35 30.9162L155.64 37.2042L155.93 39.7005L156.219 39.0159L156.509 20.0991L156.798 13.8427L157.088 21.4894L157.378 19.1406L157.667 14.7485L157.957 25.6604L158.247 17.4449L158.536 9.49267L158.826 23.7961L159.116 20.8153L159.405 24.744L159.695 30.4633L159.985 27.5352L160.274 40.2798L160.564 18.7931L160.854 35.8244L161.143 37.2464L161.433 30.8425L161.723 33.3282L162.012 41.1435L162.302 40.7327L162.591 20.6995L162.881 31.6746L163.171 30.0104L163.46 39.5636L163.75 37.4044L164.04 42.0177L164.329 40.6906L164.619 32.3487L164.909 40.7327L165.198 29.9051L165.488 36.7197L165.778 36.0562L166.067 49.8962L166.357 44.535L166.647 34.6448L166.936 34.1392L167.226 35.8876L167.516 32.7489L167.805 6.89109L168.095 5.6061L168.384 13.7795L168.674 5.39544L168.964 10.7461L169.253 15.5068L169.543 11.8204L169.833 7.05961L170.122 33.2123L170.412 32.2539L170.702 20.0991L170.991 27.156L171.281 15.865L171.571 22.8481L171.86 25.2707L172.15 23.5222L172.44 29.6417L172.729 22.8271L173.019 47.2946L173.309 51.2338L173.598 51.1917L173.888 51.0864L174.177 51.0969L174.467 51.0442H174.757L175.046 51.2233L175.336 52.3292L175.626 55.5838L175.915 57.722L176.205 57.3112L176.495 55.647L176.784 56.279L177.074 58.0379L177.364 60.0076L177.653 55.3626L177.943 57.1005L178.233 57.3217L178.522 59.997L178.812 57.5218L179.101 53.4562L179.391 57.7641L179.681 55.8471L179.97 54.9729L180.26 54.8781L180.55 54.4358L180.839 52.3713L181.129 55.0045L181.419 54.6991L181.708 65.632L181.998 65.4319L182.288 62.5881L182.577 71.0564L182.867 68.8656L183.157 60.3446L183.446 60.6711L183.736 61.0398L184.026 61.6823L184.315 68.7181L184.605 59.4915L184.894 58.6278L185.184 59.1965L185.474 60.3867L185.763 67.5384L186.053 63.8941L186.343 70.7931L186.632 67.1382L186.922 69.3079L187.212 65.7163L187.501 64.2101L187.791 64.0732L188.081 62.6197L188.37 64.8526L188.66 65.8953L188.95 65.5162L189.239 59.9654L189.529 56.6582L189.819 59.6705L190.108 61.7244L190.398 62.1352L190.687 64.2838L190.977 63.3254L191.267 61.4611L191.556 60.5026L191.846 61.3873L192.136 62.8409L192.425 64.505L192.715 67.391L193.005 64.2733L193.294 63.378L193.584 64.7262L193.874 62.3985L194.163 62.5881L194.453 64.4313L194.743 65.4846L195.032 59.9654L195.322 63.3043L195.612 59.8917L195.901 56.7319L196.191 57.9431L196.48 64.0627L196.77 63.9363L197.06 59.6705L197.349 58.9122L197.639 59.6389L197.929 57.1637L198.218 53.1613L198.508 56.2579L198.798 57.5113L199.087 51.8658L199.377 52.6452L199.667 52.9717L199.956 52.2134L200.246 55.9946L200.536 58.9648L200.825 58.4698L201.115 52.0975L201.404 53.5405L201.694 55.4048L201.984 54.5516L202.273 52.898L202.563 56.5423L202.853 57.4902L203.142 57.3007L203.432 52.4135L203.722 55.5628L204.011 54.2356L204.301 51.4129L204.591 53.1929L204.88 55.5101L205.17 51.2654L205.46 50.9389L205.749 50.96L206.039 50.8546L206.329 51.4339L206.618 56.6792L206.908 61.2399L207.197 53.6037L207.487 58.8806L207.777 57.248L208.066 54.0144L208.356 56.6687L208.646 59.4809L208.935 60.6501L209.225 55.6575L209.515 56.6266L209.804 53.8459L210.094 55.0782L210.384 51.2338L210.673 60.787L210.963 67.6016L211.253 59.9128L211.542 60.1655L211.832 59.6389L212.122 61.7771L212.411 55.4153L212.701 63.3148L212.99 63.3359L213.28 57.8062L213.57 58.2275L213.859 59.344L214.149 61.5875L214.439 55.7418L214.728 59.3545L215.018 58.2381L215.308 51.0232L215.597 51.5603L215.887 52.1712L216.177 53.7827L216.466 59.3545L216.756 54.6675L217.046 58.0379L217.335 53.2666L217.625 56.8899L217.915 56.0894L218.204 53.6669L218.494 52.6979L218.783 56.616L219.073 57.9958L219.363 53.6563L219.652 57.7746L219.942 52.6979L220.232 51.3813L220.521 56.6582L220.811 55.0256L221.101 52.8032L221.39 51.3286L221.68 54.025L221.97 55.7629L222.259 60.3867L222.549 58.6804L222.839 64.5577L223.128 69.1184L223.418 62.5459L223.708 59.3861L223.997 56.2579L224.287 53.2772L224.576 53.2877L224.866 57.6482L225.156 57.5745L225.445 51.6972L225.735 53.7827L226.025 55.2257L226.314 53.1086L226.604 54.7939L226.894 55.9735L227.183 56.6371L227.473 51.1495L227.763 52.5188L228.052 57.1953L228.342 55.8471L228.632 53.4667L228.921 57.8168L229.211 60.7343L229.5 60.1866L229.79 50.7177L230.08 54.6464L230.369 59.4915L230.659 57.0057L230.949 61.2715L231.238 59.1649L231.528 53.6037L231.818 56.9109L232.107 53.9512L232.397 55.4364L232.687 56.5844L232.976 57.5534L233.266 62.1668L233.556 54.2462L233.845 58.0906L234.135 55.6997L234.425 57.8273L234.714 55.3205L235.004 58.8068L235.293 62.3985L235.583 57.3217L235.873 57.9537L236.162 58.5962L236.452 60.313L236.742 53.6985L237.031 59.7653L237.321 61.0608L237.611 57.7641L237.9 53.5615L238.19 55.6681L238.48 61.5664L238.769 65.5899L239.059 70.4033L239.349 70.2032L239.638 66.9381L239.928 63.7572L240.218 61.8929L240.507 64.4945L240.797 61.2294L241.086 60.3657L241.376 62.072L241.666 64.6841L241.955 61.9877L242.245 63.9047L242.535 58.712L242.824 61.1662L243.114 70.1611L243.404 66.6116L243.693 63.3043L243.983 63.515L244.273 58.712L244.562 61.8508L244.852 60.4289L245.142 68.9393L245.431 69.7714L245.721 61.6191L246.011 59.1755L246.3 58.5856L246.59 60.808L246.879 59.5125L247.169 68.7076L247.459 65.7479L247.748 61.6085L248.038 63.2306L248.328 63.0515L248.617 62.1352L248.907 61.8297L249.197 65.2107L249.486 63.041L249.776 61.2926L250.066 59.4177L250.355 58.1643L250.645 51.4234L250.935 50.2648L251.224 50.2753L251.514 50.4439L251.803 50.2227L252.093 50.012L252.383 50.3069L252.672 50.2227L252.962 50.4755L253.252 50.6334H253.541L253.831 50.9705L254.121 50.7388L254.41 50.6018L254.7 50.981L254.99 51.8658L255.279 53.7406L255.569 57.6904L255.859 53.056L256.148 51.0969L256.438 50.96L256.728 51.2022L257.017 51.3075L257.307 51.1811L257.596 51.1706L257.886 51.297L258.176 51.3075L258.465 51.1917L258.755 51.1706L259.045 51.1285L259.334 51.139L259.624 52.5083L259.914 50.9073L260.203 54.341L260.493 52.266L260.783 52.8453L261.072 55.3416L261.362 56.0157L261.652 54.9203L261.941 52.0975L262.231 52.8348L262.521 52.7189L262.81 55.2152L263.1 54.1619L263.389 56.5107L263.679 56.5528L263.969 52.2871L264.258 51.8552L264.548 51.929L264.838 54.1092L265.127 52.2134L265.417 52.4029L265.707 53.1929L265.996 54.3094L266.286 52.5715L266.576 51.7394L266.865 51.3918L267.155 51.8342L267.445 53.4246L267.734 51.6867L268.024 51.1917L268.314 51.6762L268.603 51.3075L268.893 51.0864L269.182 51.2549H269.472L269.762 51.1495L270.051 51.3813L270.341 51.3075L270.631 51.3286L270.92 51.2338L271.21 51.1917L271.5 51.2759L271.789 51.1495L272.079 51.2233L272.369 51.1917L272.658 51.1811L272.948 51.2654L273.238 51.2443L273.527 51.0758L273.817 50.9916L274.106 51.0442L274.396 51.2865H274.686L274.975 51.2022L275.265 51.2759L275.555 51.0864L275.844 51.2127L276.134 51.2654L276.424 51.2443L276.713 51.1495L277.003 51.2338H277.293L277.582 51.2233L277.872 51.1706L278.162 51.2022L278.451 51.3497L278.741 51.5182L279.031 51.5498L279.32 51.5287L279.61 51.5182L279.899 51.5077L280.189 51.5393L280.479 51.4971L280.768 51.5182L281.058 51.4971L281.348 51.5709L281.637 51.4971L281.927 51.455L282.217 51.5182L282.506 51.5603L282.796 51.5709H283.086L283.375 51.6025L283.665 51.5603L283.955 51.5498L284.244 51.5603L284.534 51.5709H284.824H285.113L285.403 51.5393L285.692 51.4234L285.982 51.3918L286.272 51.3813L286.561 51.297L286.851 51.3181L287.141 51.2443L287.43 51.4023L287.72 51.3181L288.01 51.4023L288.299 51.5182L288.589 51.5287H288.879H289.168L289.458 51.5393L289.748 51.5182L290.037 51.5077L290.327 51.5182L290.617 51.3602L290.906 51.5077L291.196 51.4971H291.485L291.775 51.4761L292.065 51.5498L292.354 51.5182L292.644 51.5393L292.934 51.4971L293.223 51.5603L293.513 51.4866H293.803L294.092 51.5393L294.382 51.4971H294.672L294.961 51.5287L295.251 51.4971L295.541 51.5182L295.83 51.5709L296.12 51.5287L296.409 51.5709L296.699 51.4655L296.989 51.5287L297.278 51.5603H297.568L297.858 51.5498L298.147 51.5182L298.437 51.5603L298.727 51.5498L299.016 51.4866L299.306 51.5077L299.596 51.5603L299.885 51.5182L300.175 51.4761L300.465 51.5077L300.754 51.5393H301.044L301.334 51.5709L301.623 51.5287H301.913L302.202 51.4971L302.492 51.4866L302.782 51.5077L303.071 51.4866L303.361 51.4339L303.651 51.4761L303.94 51.4234L304.23 51.3813L304.52 51.3918L304.809 51.4445L305.099 51.3391L305.389 51.3918L305.678 51.3602L305.968 51.3181L306.258 51.297L306.547 51.3813L306.837 51.3391H307.127L307.416 51.3286L307.706 51.2654H307.995L308.285 51.2549L308.575 51.3075H308.864L309.154 51.3602L309.444 51.3391L309.733 51.3497L310.023 51.3075L310.313 51.2759L310.602 51.3707L310.892 51.3497L311.182 51.4234L311.471 51.3813H311.761L312.051 51.3497L312.34 51.3391L312.63 51.4234L312.92 51.4339H313.209L313.499 51.455L313.788 51.4129L314.078 51.4339L314.368 51.4129L314.657 51.4761H314.947L315.237 51.4971H315.526L315.816 51.5077L316.106 51.4655L316.395 51.4234L316.685 51.4866H316.975L317.264 51.5077L317.554 51.455L317.844 51.4445L318.133 51.4023L318.423 51.4129L318.712 51.455L319.002 51.4655L319.292 51.4761L319.581 51.455L319.871 51.4655L320.161 51.4761L320.45 51.4234L320.74 51.4971L321.03 51.4866L321.319 51.5182L321.609 51.4761L321.899 51.4129L322.188 51.3813L322.478 51.3707L322.768 51.4234L323.057 51.4445L323.347 51.4655L323.637 51.4445L323.926 51.455L324.216 51.4129H324.505L324.795 51.4761L325.085 51.4866L325.374 51.4971L325.664 51.5077L325.954 51.5182L326.243 51.4445L326.533 51.4339L326.823 51.4761L327.112 51.4866L327.402 51.4655L327.692 51.4445H327.981H328.271L328.561 51.4234L328.85 51.4761L329.14 51.4971L329.43 51.5287H329.719L330.009 51.5077L330.298 51.4445H330.588L330.878 51.4971L331.167 51.4866L331.457 51.4971H331.747L332.036 51.4761L332.326 51.4866L332.616 51.4023L332.905 51.4761L333.195 51.4445L333.485 51.4655L333.774 51.455L334.064 51.4971L334.354 51.5182L334.643 51.4655L334.933 51.455L335.223 51.4234L335.512 51.455L335.802 51.4339L336.091 51.4866L336.381 51.3918L336.671 51.4129L336.96 51.4339L337.25 51.4761H337.54H337.829L338.119 51.4445H338.409L338.698 51.4234L338.988 51.3707L339.278 51.4445L339.567 51.4339L339.857 51.4655L340.147 51.4129L340.436 51.4339L340.726 51.3813L341.016 51.4339L341.305 51.4445L341.595 51.4234L341.884 51.4129L342.174 51.4445L342.464 51.4761L342.753 51.4445L343.043 51.4655L343.333 51.4129L343.622 51.4761L343.912 51.4971L344.202 51.4445L344.491 51.4339L344.781 51.4445L345.071 51.4971H345.36L345.65 51.4761L345.94 51.5182L346.229 51.4866L346.519 51.4339L346.809 51.4234L347.098 51.4655" stroke="#CED4DA" style="stroke:#CED4DA;stroke:color(display-p3 0.8078 0.8314 0.8549);stroke-opacity:1;" stroke-width="0.5" stroke-linecap="round" stroke-linejoin="round"/>
<defs>
<linearGradient id="paint0_linear_802_31655" x1="168.462" y1="40.6021" x2="162.334" y2="104.093" gradientUnits="userSpaceOnUse">
<stop stop-color="#F4F6F8" style="stop-color:#F4F6F8;stop-color:color(display-p3 0.9569 0.9647 0.9725);stop-opacity:1;"/>
<stop offset="1" stop-color="#F4F6F8" stop-opacity="0" style="stop-color:none;stop-color:none;stop-opacity:0;"/>
</linearGradient>
</defs>
</svg>
