<svg width="347" height="106" viewBox="0 0 347 106" fill="none" xmlns="http://www.w3.org/2000/svg">
<path d="M0.28965 104.967H0.579299H0.868948H1.1586H1.44825H1.7379H2.02755H2.31719H2.60684H2.89649H3.18614H3.47579H3.76544H4.05509H4.34474H4.63439H4.92404H5.21369H5.50334L5.79299 104.967H6.08264H6.37229H6.66194H6.95159H7.24124H7.53089H7.82053H8.11018H8.39983H8.68948H8.97913H9.26878H9.55843H9.84808H10.1377H10.4274L10.717 104.967H11.0067H11.2963H11.586H11.8756H12.1653H12.4549H12.7446L13.0342 104.967H13.3239H13.6135L13.9032 104.967H14.1928H14.4825H14.7721L15.0618 104.967L15.3514 104.967L15.6411 104.965H15.9307L16.2204 104.965L16.51 104.965H16.7997H17.0893H17.379L17.6686 104.965L17.9583 104.965H18.2479L18.5376 104.965L18.8272 104.965L19.1169 104.965L19.4065 104.965L19.6962 104.965L19.9858 104.965L20.2755 104.965L20.5651 104.965L20.8548 104.965L21.1444 104.965L21.4341 104.965L21.7237 104.965L22.0134 104.965L22.303 104.965L22.5927 104.965L22.8823 104.965L23.172 104.965L23.4616 104.965L23.7512 104.965H24.0409L24.3305 104.965L24.6202 104.965L24.9098 104.965L25.1995 104.965L25.4891 104.965L25.7788 104.965L26.0684 104.965L26.3581 104.965L26.6477 104.965L26.9374 104.965L27.227 104.965L27.5167 104.965L27.8063 104.965L28.096 104.965L28.3856 104.965L28.6753 104.965L28.9649 104.965L29.2546 104.965L29.5442 104.965L29.8339 104.965L30.1235 104.965L30.4132 104.964L30.7028 104.964L30.9925 104.964L31.2821 104.964L31.5718 104.964L31.8614 104.964L32.1511 104.964L32.4407 104.964L32.7304 104.964L33.02 104.964L33.3097 104.964L33.5993 104.963L33.889 104.935L34.1786 104.935L34.4683 104.935L34.7579 104.935L35.0476 104.935L35.3372 104.935L35.6269 104.934L35.9165 104.934L36.2062 104.934L36.4958 104.934L36.7855 104.934L37.0751 104.934L37.3648 104.934L37.6544 104.933L37.9441 104.933L38.2337 104.933L38.5234 104.933L38.813 104.933L39.1027 104.933L39.3923 104.933L39.682 104.933L39.9716 104.933L40.2613 104.933L40.5509 104.933L40.8406 104.933L41.1302 104.933L41.4199 104.933L41.7095 104.933L41.9992 104.933L42.2888 104.933L42.5785 104.933L42.8681 104.933L43.1578 104.933L43.4474 104.932L43.7371 104.932L44.0267 104.932L44.3164 104.932L44.606 104.932L44.8957 104.932L45.1853 104.932L45.475 104.931L45.7646 104.931L46.0543 104.931L46.3439 104.931L46.6336 104.931L46.9232 104.931L47.2129 104.931L47.5025 104.931L47.7921 104.931L48.0818 104.931L48.3715 104.931L48.6611 104.931L48.9507 104.931L49.2404 104.931L49.53 104.931L49.8197 104.931L50.1093 104.931L50.399 104.931L50.6886 104.931L50.9783 104.931L51.2679 104.931L51.5576 104.931L51.8472 104.931L52.1369 104.931L52.4265 104.931L52.7162 104.93L53.0058 104.93L53.2955 104.93L53.5851 104.93L53.8748 104.93L54.1644 104.93L54.4541 104.93L54.7437 104.93L55.0334 104.93L55.323 104.93L55.6127 104.93L55.9023 104.93L56.192 104.93L56.4816 104.93L56.7713 104.93L57.0609 104.93L57.3506 104.93L57.6402 104.93L57.9299 104.93L58.2195 104.929L58.5092 104.929L58.7988 104.929L59.0885 104.929L59.3781 104.929L59.6678 104.929L59.9574 104.929L60.2471 104.929L60.5367 104.929L60.8264 104.929L61.116 104.929L61.4057 104.929L61.6953 104.929L61.985 104.929L62.2746 104.929L62.5643 104.929L62.8539 104.929L63.1436 104.929L63.4332 104.928L63.7229 104.928L64.0125 104.928L64.3022 104.928L64.5918 104.928L64.8815 104.928L65.1711 104.928L65.4608 104.928L65.7504 104.928L66.0401 104.928L66.3297 104.928L66.6194 104.928L66.909 104.928L67.1987 104.928L67.4883 104.928L67.778 104.928L68.0676 104.927L68.3573 104.927L68.6469 104.927L68.9366 104.926L69.2262 104.926L69.5159 104.926L69.8055 104.926L70.0952 104.926L70.3848 104.926L70.6745 104.926L70.9641 104.926L71.2538 104.926L71.5434 104.926L71.8331 104.926L72.1227 104.926L72.4123 104.925L72.702 104.925L72.9916 104.925L73.2813 104.925L73.5709 104.925L73.8606 104.925L74.1502 104.925L74.4399 104.925L74.7295 104.925L75.0192 104.924L75.3088 104.924L75.5985 104.924L75.8881 104.924L76.1778 104.924L76.4674 104.924L76.7571 104.924L77.0467 104.923L77.3364 104.923L77.626 104.923L77.9157 104.923L78.2053 104.922L78.495 104.922L78.7846 104.922L79.0743 104.921L79.3639 104.921L79.6536 104.919L79.9432 104.918L80.2329 104.918L80.5225 104.918L80.8122 104.917L81.1018 104.917L81.3915 104.915L81.6811 104.914L81.9708 104.914L82.2604 104.913L82.5501 104.913L82.8397 104.912L83.1294 104.912L83.419 104.912L83.7087 104.911L83.9983 104.911L84.288 104.911L84.5776 104.91L84.8673 104.91L85.1569 104.909L85.4466 104.908L85.7362 104.908L86.0259 104.907L86.3155 104.906L86.6052 104.906L86.8948 104.905L87.1845 104.905L87.4741 104.904L87.7638 104.904L88.0534 104.903L88.3431 104.902L88.6327 104.901L88.9224 104.9L89.212 104.9L89.5017 104.899L89.7913 104.899L90.081 104.898L90.3706 104.897L90.6603 104.897L90.9499 104.896L91.2396 104.895L91.5292 104.894L91.8189 104.894L92.1085 104.893L92.3982 104.892L92.6878 104.891L92.9775 104.891L93.2671 104.89L93.5568 104.889L93.8464 104.888L94.1361 104.887L94.4257 104.886L94.7154 104.884L95.005 104.883L95.2947 104.882L95.5843 104.881L95.874 104.879L96.1636 104.876L96.4533 104.873L96.7429 104.87L97.0325 104.867L97.3222 104.864L97.6119 104.861L97.9015 104.856L98.1912 104.846L98.4808 104.843L98.7705 104.838L99.0601 104.836L99.3497 104.833L99.6394 104.83L99.929 104.809L100.219 104.805L100.508 104.802L100.798 104.792L101.088 104.677L101.377 104.673L101.667 104.577L101.957 104.296L102.246 104.291L102.536 104.183L102.826 104.147L103.115 104.143L103.405 104.14L103.694 104.136L103.984 104.132L104.274 104.128L104.563 104.123L104.853 104.117L105.143 104.113L105.432 104.108L105.722 104.103L106.012 104.097L106.301 104.09L106.591 104.081L106.881 104.073L107.17 104.065L107.46 104.059L107.75 104.052L108.039 103.984L108.329 103.967L108.619 103.74L108.908 103.633L109.198 103.171L109.487 103.016L109.777 103.011L110.067 102.985L110.356 102.972L110.646 102.854L110.936 102.697L111.225 102.661L111.515 102.528L111.805 102.468L112.094 102.256L112.384 102.052L112.674 101.742L112.963 101.397L113.253 101.139L113.543 100.93L113.832 100.749L114.122 100.638L114.412 100.434L114.701 100.351L114.991 100.305L115.28 100.134L115.57 99.9401L115.86 99.9186L116.149 99.8587L116.439 99.8305L116.729 99.7138L117.018 99.5788L117.308 99.407L117.598 99.1447L117.887 98.9677L118.177 98.7802L118.467 98.393L118.756 98.1692L119.046 97.9096L119.336 97.8441L119.625 97.6103L119.915 97.3904L120.205 97.1455L120.494 96.9264L120.784 96.8406L121.073 96.4883L121.363 95.9263L121.653 95.3525L121.942 95.1804L122.232 95.0498L122.522 94.9448L122.811 94.8419L123.101 94.5794L123.391 94.3458L123.68 94.2717L123.97 93.8458L124.26 93.554L124.549 93.4191L124.839 93.3243L125.129 93.1476L125.418 93.0473L125.708 92.9531L125.997 92.8762L126.287 92.7816L126.577 92.6349L126.866 92.4354L127.156 92.2824L127.446 91.5553L127.735 91.3083L128.025 91.1234L128.315 90.9792L128.604 90.8425L128.894 90.7021L129.184 90.4928L129.473 90.2712L129.763 90.1792L130.053 90.023L130.342 89.9389L130.632 89.8627L130.922 89.6623L131.211 89.4394L131.501 89.0815L131.79 88.9029L132.08 88.7987L132.37 88.7366L132.659 88.6703L132.949 88.5036L133.239 88.3688L133.528 88.1918L133.818 88.0926L134.108 87.9711L134.397 87.9251L134.687 87.7624L134.977 87.4093L135.266 87.0685L135.556 86.4053L135.846 85.6928L136.135 85.1767L136.425 84.6895L136.715 84.566L137.004 84.4417L137.294 84.0746L137.583 83.39L137.873 82.6421L138.163 82.2938L138.452 81.8436L138.742 81.312L139.032 80.5607L139.321 80.102L139.611 79.5228L139.901 79.2189L140.19 78.9605L140.48 78.5452L140.77 78.1996L141.059 77.655L141.349 76.9748L141.639 76.4154L141.928 75.9245L142.218 75.8841L142.508 75.7042L142.797 75.6764L143.087 75.6143L143.376 75.5176L143.666 75.3421L143.956 75.078L144.245 75.0555L144.535 75.0183L144.825 74.9662L145.114 74.9166L145.404 74.8887L145.694 74.8361L145.983 74.7055L146.273 74.6767L146.563 74.6026L146.852 74.5419L147.142 74.4054L147.432 74.3369L147.721 74.2818L148.011 74.1475L148.3 74.0877L148.59 74.0021L148.88 73.955L149.169 73.9014L149.459 73.8717L149.749 73.7375L150.038 73.6279L150.328 73.556L150.618 73.4768L150.907 73.3658L151.197 73.2472L151.487 73.0991L151.776 72.8833L152.066 72.7395L152.356 72.6207L152.645 72.5095L152.935 72.3963L153.225 72.1436L153.514 72.0602L153.804 71.5447L154.093 70.9709L154.383 70.9192L154.673 70.8576L154.962 70.7954L155.252 70.6705L155.542 70.5528L155.831 70.4004L156.121 70.2941L156.411 70.231L156.7 70.1234L156.99 70.0634L157.28 70.0134L157.569 69.9339L157.859 69.8751L158.149 69.8002L158.438 69.7602L158.728 69.7008L159.018 69.6056L159.307 69.5143L159.597 69.4246L159.886 69.3343L160.176 69.0382L160.466 68.685L160.755 68.562L161.045 68.4691L161.335 68.3299L161.624 68.1858L161.914 68.0336L162.204 67.8713L162.493 67.7926L162.783 67.7116L163.073 67.5999L163.362 67.4772L163.652 67.3026L163.942 67.1377L164.231 67.0236L164.521 66.929L164.811 66.842L165.1 66.7699L165.39 66.6949L165.679 66.6111L165.969 66.5126L166.259 66.375L166.548 66.279L166.838 66.1851L167.128 66.0754L167.417 66.0139L167.707 65.9754L167.997 65.9496L168.286 65.9063L168.576 65.8565L168.866 65.8154L169.155 65.7919L169.445 65.774L169.735 65.7489L170.024 65.7043L170.314 65.6708L170.603 65.6399L170.893 65.5859L171.183 65.569L171.472 65.5269L171.762 65.4998L172.052 65.465L172.341 65.4094L172.631 65.346L172.921 65.3205L173.21 65.31L173.5 65.3002L173.79 65.2901L174.079 65.2803L174.369 65.2665L174.659 65.2495L174.948 65.2322L175.238 65.209L175.528 65.1706L175.817 65.1379L176.107 65.0112L176.396 64.6333L176.686 64.3421L176.976 64.1781L177.265 64.1171L177.555 64.0969L177.845 64.0742L178.134 64.0448L178.424 64.0304L178.714 64.014L179.003 63.9913L179.293 63.9698L179.583 63.9275L179.872 63.8973L180.162 63.8601L180.452 63.8413L180.741 63.8151L181.031 63.7952L181.321 63.7745L181.61 63.7593L181.9 63.7459L182.189 63.7324L182.479 63.7091L182.769 63.6922L183.058 63.6758L183.348 63.6622L183.638 63.6423L183.927 63.615L184.217 63.5934L184.507 63.5484L184.796 63.4915L185.086 63.4501L185.376 63.4039L185.665 63.376L185.955 63.3608L186.245 63.3471L186.534 63.3298L186.824 63.311L187.114 63.2933L187.403 63.2795L187.693 63.2707L187.982 63.2608L188.272 63.2518L188.562 63.243L188.851 63.2305L189.141 63.2154L189.431 63.1987L189.72 63.1788L190.01 63.1633L190.3 63.1474L190.589 63.132L190.879 63.1034L191.169 63.0824L191.458 63.0632L191.748 63.0489L192.038 63.0343L192.327 63.0202L192.617 63.0065L192.906 62.9897L193.196 62.9708L193.486 62.9505L193.775 62.9322L194.065 62.9126L194.355 62.8935L194.644 62.878L194.934 62.8633L195.224 62.8414L195.513 62.8207L195.803 62.7929L196.093 62.7677L196.382 62.7503L196.672 62.7331L196.962 62.7139L197.251 62.6927L197.541 62.6709L197.831 62.6528L198.12 62.6338L198.41 62.611L198.699 62.5957L198.989 62.5803L199.279 62.562L199.568 62.5262L199.858 62.4951L200.148 62.4743L200.437 62.4573L200.727 62.4315L201.017 62.4121L201.306 62.393L201.596 62.3716L201.886 62.3503L202.175 62.3185L202.465 62.3012L202.755 62.28L203.044 62.2588L203.334 62.2354L203.624 62.2071L203.913 62.1848L204.203 62.164L204.492 62.1413L204.782 62.1243L205.072 62.1123L205.361 62.0962L205.651 62.0845L205.941 62.0729L206.23 62.0469L206.52 62.0111L206.81 61.9718L207.099 61.9527L207.389 61.9387L207.679 61.9262L207.968 61.9137L208.258 61.8986L208.548 61.8838L208.837 61.8677L209.127 61.8462L209.417 61.8279L209.706 61.8082L209.996 61.7874L210.285 61.7672L210.575 61.7483L210.865 61.7311L211.154 61.6934L211.444 61.6687L211.734 61.6465L212.023 61.6306L212.313 61.5774L212.603 61.4647L212.892 61.4064L213.182 61.3505L213.472 61.2964L213.761 61.2398L214.051 61.1987L214.341 61.1555L214.63 61.1156L214.92 61.0643L215.21 61.0435L215.499 61.0203L215.789 60.9856L216.078 60.9471L216.368 60.9157L216.658 60.8825L216.947 60.8352L217.237 60.7796L217.527 60.7416L217.816 60.697L218.106 60.6486L218.396 60.6021L218.685 60.5442L218.975 60.4875L219.265 60.421L219.554 60.3916L219.844 60.3634L220.134 60.3355L220.423 60.2744L220.713 60.224L221.002 60.1988L221.292 60.1712L221.582 60.1133L221.871 60.0406L222.161 59.9126L222.451 59.7727L222.74 59.5635L223.03 59.4879L223.32 59.4053L223.609 59.2976L223.899 59.2224L224.189 59.1306L224.478 59.0706L224.768 58.9643L225.058 58.855L225.347 58.7756L225.637 58.6543L225.927 58.5953L226.216 58.5095L226.506 58.4521L226.795 58.4149L227.085 58.2428L227.375 58.1845L227.664 58.1361L227.954 58.059L228.244 57.9369L228.533 57.8569L228.823 57.6935L229.113 57.6421L229.402 57.5329L229.692 57.4943L229.982 57.395L230.271 57.3297L230.561 57.1712L230.851 57.0256L231.14 56.8639L231.43 56.726L231.72 56.616L232.009 56.4913L232.299 56.3374L232.588 56.1618L232.878 56.0855L233.168 55.9408L233.457 55.8225L233.747 55.6381L234.037 55.563L234.326 55.4101L234.616 55.3381L234.906 55.0892L235.195 54.8783L235.485 54.6925L235.775 54.5741L236.064 54.4941L236.354 54.4465L236.644 54.4226L236.933 54.3953L237.223 54.3427L237.513 54.2784L237.802 54.2378L238.092 54.1914L238.381 54.1167L238.671 54.0655L238.961 53.9894L239.25 53.9343L239.54 53.8636L239.83 53.8219L240.119 53.7212L240.409 53.6631L240.699 53.6041L240.988 53.5862L241.278 53.5662L241.568 53.5457L241.857 53.5255L242.147 53.5062L242.437 53.4795L242.726 53.4558L243.016 53.4275L243.306 53.4054L243.595 53.3777L243.885 53.3547L244.174 53.3347L244.464 53.316L244.754 53.2965L245.043 53.2741L245.333 53.2451L245.623 53.2064L245.912 53.1631L246.202 53.1138L246.492 53.0662L246.781 53.0367L247.071 53.0049L247.361 52.9664L247.65 52.9272L247.94 52.8877L248.23 52.8374L248.519 52.8003L248.809 52.741L249.098 52.684L249.388 52.6234L249.678 52.5643L249.967 52.5249L250.257 52.3777L250.547 52.1621L250.836 51.8532L251.126 51.5602L251.416 51.3622L251.705 51.1073L251.995 50.8511L252.285 50.7057L252.574 50.5118L252.864 50.3378L253.154 50.1487L253.443 49.9369L253.733 49.815L254.023 49.681L254.312 49.5007L254.602 49.3825L254.891 49.2298L255.181 49.1207L255.471 49.072L255.76 49.0135L256.05 48.9211L256.34 48.8238L256.629 48.7219L256.919 48.6805L257.209 48.5526L257.498 48.4689L257.788 48.4165L258.078 48.3897L258.367 48.3507L258.657 48.2624L258.947 48.1715L259.236 48.0177L259.526 47.766L259.816 47.5963L260.105 47.5044L260.395 47.3963L260.684 47.248L260.974 47.1272L261.264 46.9469L261.553 46.7896L261.843 46.7171L262.133 46.656L262.422 46.5489L262.712 46.4601L263.002 46.3863L263.291 46.2804L263.581 46.1927L263.871 46.1402L264.16 46.026L264.45 45.9689L264.74 45.8873L265.029 45.8246L265.319 45.7355L265.609 45.6583L265.898 45.5879L266.188 45.5026L266.477 45.4249L266.767 45.3616L267.057 45.3067L267.346 45.2449L267.636 45.1515L267.926 45.0943L268.215 45.0384L268.505 44.9747L268.795 44.9407L269.084 44.9075L269.374 44.8276L269.664 44.7288L269.953 44.6875L270.243 44.6406L270.533 44.5692L270.822 44.5076L271.112 44.4462L271.402 44.3338L271.691 44.1537L271.981 44.0237L272.27 43.886L272.56 43.7303L272.85 43.6038L273.139 43.4385L273.429 43.2483L273.719 42.9567L274.008 42.7517L274.298 42.6523L274.588 42.5593L274.877 42.4416L275.167 42.3148L275.457 42.0935L275.746 41.9238L276.036 41.8274L276.326 41.6856L276.615 41.5281L276.905 41.3962L277.194 41.2579L277.484 41.1502L277.774 40.9751L278.063 40.855L278.353 40.7302L278.643 40.6433L278.932 40.559L279.222 40.472L279.512 40.3368L279.801 40.2142L280.091 40.0932L280.381 39.9767L280.67 39.8665L280.96 39.782L281.25 39.7434L281.539 39.669L281.829 39.5866L282.119 39.5234L282.408 39.4771L282.698 39.4378L282.987 39.415L283.277 39.3918L283.567 39.3664L283.856 39.3413L284.146 39.3222L284.436 39.3033L284.725 39.2798L285.015 39.262L285.305 39.2415L285.594 39.1312L285.884 39.064L286.174 39.0123L286.463 38.9813L286.753 38.9507L287.043 38.9265L287.332 38.8949L287.622 38.8524L287.912 38.8051L288.201 38.7474L288.491 38.6936L288.78 38.6497L289.07 38.6238L289.36 38.5856L289.649 38.5061L289.939 38.4703L290.229 38.4156L290.518 38.3808L290.808 38.3533L291.098 38.3126L291.387 38.2607L291.677 38.1851L291.967 38.097L292.256 38.0526L292.546 38.0155L292.836 37.9795L293.125 37.9529L293.415 37.9167L293.704 37.8934L293.994 37.8671L294.284 37.8398L294.573 37.8096L294.863 37.7415L295.153 37.6365L295.442 37.5945L295.732 37.5324L296.022 37.4884L296.311 37.4126L296.601 37.3459L296.891 37.3132L297.18 37.2497L297.47 37.1823L297.76 37.0869L298.049 37.0242L298.339 36.9823L298.629 36.934L298.918 36.8869L299.208 36.8065L299.497 36.675L299.787 36.5554L300.077 36.4139L300.366 36.3157L300.656 36.2222L300.946 36.1281L301.235 36.0308L301.525 35.9117L301.815 35.8008L302.104 35.6601L302.394 35.5252L302.684 35.405L302.973 35.2436L303.263 35.1284L303.553 35.0156L303.842 34.8L304.132 34.5225L304.422 34.3036L304.711 34.1116L305.001 33.8718L305.29 33.5174L305.58 33.154L305.87 32.7305L306.159 32.2837L306.449 31.9833L306.739 31.5854L307.028 31.2295L307.318 30.8558L307.608 30.4195L307.897 29.9365L308.187 29.472L308.477 29.062L308.766 28.6952L309.056 28.2934L309.346 27.877L309.635 27.4627L309.925 27.0186L310.215 26.584L310.504 26.2369L310.794 25.8892L311.083 25.597L311.373 25.2674L311.663 24.9473L311.952 24.5378L312.242 24.1255L312.532 23.8547L312.821 23.5674L313.111 23.2861L313.401 23.0063L313.69 22.6678L313.98 22.3459L314.27 22.0121L314.559 21.786L314.849 21.5384L315.139 21.3027L315.428 21.056L315.718 20.8353L316.007 20.6009L316.297 20.3146L316.587 20.1031L316.876 19.9368L317.166 19.7378L317.456 19.5076L317.745 19.2952L318.035 18.9925L318.325 18.6788L318.614 18.452L318.904 18.2136L319.194 17.9469L319.483 17.666L319.773 17.4446L320.063 17.2754L320.352 17.0062L320.642 16.844L320.932 16.6935L321.221 16.596L321.511 16.472L321.8 16.2578L322.09 15.9706L322.38 15.6592L322.669 15.405L322.959 15.1918L323.249 15.0025L323.538 14.7803L323.828 14.5215L324.118 14.2387L324.407 13.9659L324.697 13.7521L324.987 13.5766L325.276 13.389L325.566 13.1786L325.856 13.0022L326.145 12.733L326.435 12.4361L326.725 12.2303L327.014 12.0043L327.304 11.7331L327.593 11.4702L327.883 11.1562L328.173 10.8382L328.462 10.5073L328.752 10.3774L329.042 10.2402L329.331 10.1727L329.621 10.0925L329.911 9.96632L330.2 9.72237L330.49 9.46769L330.78 9.31594L331.069 9.22545L331.359 9.12167L331.649 9.00317L331.938 8.87462L332.228 8.70989L332.518 8.40957L332.807 8.15042L333.097 7.91352L333.386 7.74576L333.676 7.64402L333.966 7.48815L334.255 7.302L334.545 7.04888L334.835 6.91051L335.124 6.80658L335.414 6.64452L335.704 6.51459L335.993 6.3744L336.283 6.21039L336.573 5.94561L336.862 5.76069L337.152 5.62659L337.442 5.50767L337.731 5.42884L338.021 5.32967L338.31 5.27424L338.6 5.03218L338.89 4.89987L339.179 4.75898L339.469 4.52645L339.759 4.35818L340.048 4.25064L340.338 4.07883L340.628 3.8113L340.917 3.65017L341.207 3.41655L341.497 3.2066L341.786 3.05995L342.076 2.96771L342.366 2.84776L342.655 2.68462L342.945 2.60482L343.235 2.50292L343.524 2.48038L343.814 2.39904L344.103 2.25917L344.393 2.04785L344.683 1.85815L344.972 1.73176L345.262 1.62788L345.552 1.5541L345.841 1.50229L346.131 1.39782L346.421 1.21226L346.71 1.07108L347 0.966797V104.967H346.71H346.421H346.131H345.841H345.552H345.262H344.972H344.683H344.393H344.103H343.814H343.524H343.235H342.945H342.655H342.366H342.076H341.786H341.497H341.207H340.917H340.628H340.338H340.048H339.759H339.469H339.179H338.89H338.6H338.31H338.021H337.731H337.442H337.152H336.862H336.573H336.283H335.993H335.704H335.414H335.124H334.835H334.545H334.255H333.966H333.676H333.386H333.097H332.807H332.518H332.228H331.938H331.649H331.359H331.069H330.78H330.49H330.2H329.911H329.621H329.331H329.042H328.752H328.462H328.173H327.883H327.593H327.304H327.014H326.725H326.435H326.145H325.856H325.566H325.276H324.987H324.697H324.407H324.118H323.828H323.538H323.249H322.959H322.669H322.38H322.09H321.8H321.511H321.221H320.932H320.642H320.352H320.063H319.773H319.483H319.194H318.904H318.614H318.325H318.035H317.745H317.456H317.166H316.876H316.587H316.297H316.007H315.718H315.428H315.139H314.849H314.559H314.27H313.98H313.69H313.401H313.111H312.821H312.532H312.242H311.952H311.663H311.373H311.083H310.794H310.504H310.215H309.925H309.635H309.346H309.056H308.766H308.477H308.187H307.897H307.608H307.318H307.028H306.739H306.449H306.159H305.87H305.58H305.29H305.001H304.711H304.422H304.132H303.842H303.553H303.263H302.973H302.684H302.394H302.104H301.815H301.525H301.235H300.946H300.656H300.366H300.077H299.787H299.497H299.208H298.918H298.629H298.339H298.049H297.76H297.47H297.18H296.891H296.601H296.311H296.022H295.732H295.442H295.153H294.863H294.573H294.284H293.994H293.704H293.415H293.125H292.836H292.546H292.256H291.967H291.677H291.387H291.098H290.808H290.518H290.229H289.939H289.649H289.36H289.07H288.78H288.491H288.201H287.912H287.622H287.332H287.043H286.753H286.463H286.174H285.884H285.594H285.305H285.015H284.725H284.436H284.146H283.856H283.567H283.277H282.987H282.698H282.408H282.119H281.829H281.539H281.25H280.96H280.67H280.381H280.091H279.801H279.512H279.222H278.932H278.643H278.353H278.063H277.774H277.484H277.194H276.905H276.615H276.326H276.036H275.746H275.457H275.167H274.877H274.588H274.298H274.008H273.719H273.429H273.139H272.85H272.56H272.27H271.981H271.691H271.402H271.112H270.822H270.533H270.243H269.953H269.664H269.374H269.084H268.795H268.505H268.215H267.926H267.636H267.346H267.057H266.767H266.477H266.188H265.898H265.609H265.319H265.029H264.74H264.45H264.16H263.871H263.581H263.291H263.002H262.712H262.422H262.133H261.843H261.553H261.264H260.974H260.684H260.395H260.105H259.816H259.526H259.236H258.947H258.657H258.367H258.078H257.788H257.498H257.209H256.919H256.629H256.34H256.05H255.76H255.471H255.181H254.891H254.602H254.312H254.023H253.733H253.443H253.154H252.864H252.574H252.285H251.995H251.705H251.416H251.126H250.836H250.547H250.257H249.967H249.678H249.388H249.098H248.809H248.519H248.23H247.94H247.65H247.361H247.071H246.781H246.492H246.202H245.912H245.623H245.333H245.043H244.754H244.464H244.174H243.885H243.595H243.306H243.016H242.726H242.437H242.147H241.857H241.568H241.278H240.988H240.699H240.409H240.119H239.83H239.54H239.25H238.961H238.671H238.381H238.092H237.802H237.513H237.223H236.933H236.644H236.354H236.064H235.775H235.485H235.195H234.906H234.616H234.326H234.037H233.747H233.457H233.168H232.878H232.588H232.299H232.009H231.72H231.43H231.14H230.851H230.561H230.271H229.982H229.692H229.402H229.113H228.823H228.533H228.244H227.954H227.664H227.375H227.085H226.795H226.506H226.216H225.927H225.637H225.347H225.058H224.768H224.478H224.189H223.899H223.609H223.32H223.03H222.74H222.451H222.161H221.871H221.582H221.292H221.002H220.713H220.423H220.134H219.844H219.554H219.265H218.975H218.685H218.396H218.106H217.816H217.527H217.237H216.947H216.658H216.368H216.078H215.789H215.499H215.21H214.92H214.63H214.341H214.051H213.761H213.472H213.182H212.892H212.603H212.313H212.023H211.734H211.444H211.154H210.865H210.575H210.285H209.996H209.706H209.417H209.127H208.837H208.548H208.258H207.968H207.679H207.389H207.099H206.81H206.52H206.23H205.941H205.651H205.361H205.072H204.782H204.492H204.203H203.913H203.624H203.334H203.044H202.755H202.465H202.175H201.886H201.596H201.306H201.017H200.727H200.437H200.148H199.858H199.568H199.279H198.989H198.699H198.41H198.12H197.831H197.541H197.251H196.962H196.672H196.382H196.093H195.803H195.513H195.224H194.934H194.644H194.355H194.065H193.775H193.486H193.196H192.906H192.617H192.327H192.038H191.748H191.458H191.169H190.879H190.589H190.3H190.01H189.72H189.431H189.141H188.851H188.562H188.272H187.982H187.693H187.403H187.114H186.824H186.534H186.245H185.955H185.665H185.376H185.086H184.796H184.507H184.217H183.927H183.638H183.348H183.058H182.769H182.479H182.189H181.9H181.61H181.321H181.031H180.741H180.452H180.162H179.872H179.583H179.293H179.003H178.714H178.424H178.134H177.845H177.555H177.265H176.976H176.686H176.396H176.107H175.817H175.528H175.238H174.948H174.659H174.369H174.079H173.79H173.5H173.21H172.921H172.631H172.341H172.052H171.762H171.472H171.183H170.893H170.603H170.314H170.024H169.735H169.445H169.155H168.866H168.576H168.286H167.997H167.707H167.417H167.128H166.838H166.548H166.259H165.969H165.679H165.39H165.1H164.811H164.521H164.231H163.942H163.652H163.362H163.073H162.783H162.493H162.204H161.914H161.624H161.335H161.045H160.755H160.466H160.176H159.886H159.597H159.307H159.018H158.728H158.438H158.149H157.859H157.569H157.28H156.99H156.7H156.411H156.121H155.831H155.542H155.252H154.962H154.673H154.383H154.093H153.804H153.514H153.225H152.935H152.645H152.356H152.066H151.776H151.487H151.197H150.907H150.618H150.328H150.038H149.749H149.459H149.169H148.88H148.59H148.3H148.011H147.721H147.432H147.142H146.852H146.563H146.273H145.983H145.694H145.404H145.114H144.825H144.535H144.245H143.956H143.666H143.376H143.087H142.797H142.508H142.218H141.928H141.639H141.349H141.059H140.77H140.48H140.19H139.901H139.611H139.321H139.032H138.742H138.452H138.163H137.873H137.583H137.294H137.004H136.715H136.425H136.135H135.846H135.556H135.266H134.977H134.687H134.397H134.108H133.818H133.528H133.239H132.949H132.659H132.37H132.08H131.79H131.501H131.211H130.922H130.632H130.342H130.053H129.763H129.473H129.184H128.894H128.604H128.315H128.025H127.735H127.446H127.156H126.866H126.577H126.287H125.997H125.708H125.418H125.129H124.839H124.549H124.26H123.97H123.68H123.391H123.101H122.811H122.522H122.232H121.942H121.653H121.363H121.073H120.784H120.494H120.205H119.915H119.625H119.336H119.046H118.756H118.467H118.177H117.887H117.598H117.308H117.018H116.729H116.439H116.149H115.86H115.57H115.28H114.991H114.701H114.412H114.122H113.832H113.543H113.253H112.963H112.674H112.384H112.094H111.805H111.515H111.225H110.936H110.646H110.356H110.067H109.777H109.487H109.198H108.908H108.619H108.329H108.039H107.75H107.46H107.17H106.881H106.591H106.301H106.012H105.722H105.432H105.143H104.853H104.563H104.274H103.984H103.694H103.405H103.115H102.826H102.536H102.246H101.957H101.667H101.377H101.088H100.798H100.508H100.219H99.929H99.6394H99.3497H99.0601H98.7705H98.4808H98.1912H97.9015H97.6119H97.3222H97.0325H96.7429H96.4533H96.1636H95.874H95.5843H95.2947H95.005H94.7154H94.4257H94.1361H93.8464H93.5568H93.2671H92.9775H92.6878H92.3982H92.1085H91.8189H91.5292H91.2396H90.9499H90.6603H90.3706H90.081H89.7913H89.5017H89.212H88.9224H88.6327H88.3431H88.0534H87.7638H87.4741H87.1845H86.8948H86.6052H86.3155H86.0259H85.7362H85.4466H85.1569H84.8673H84.5776H84.288H83.9983H83.7087H83.419H83.1294H82.8397H82.5501H82.2604H81.9708H81.6811H81.3915H81.1018H80.8122H80.5225H80.2329H79.9432H79.6536H79.3639H79.0743H78.7846H78.495H78.2053H77.9157H77.626H77.3364H77.0467H76.7571H76.4674H76.1778H75.8881H75.5985H75.3088H75.0192H74.7295H74.4399H74.1502H73.8606H73.5709H73.2813H72.9916H72.702H72.4123H72.1227H71.8331H71.5434H71.2538H70.9641H70.6745H70.3848H70.0952H69.8055H69.5159H69.2262H68.9366H68.6469H68.3573H68.0676H67.778H67.4883H67.1987H66.909H66.6194H66.3297H66.0401H65.7504H65.4608H65.1711H64.8815H64.5918H64.3022H64.0125H63.7229H63.4332H63.1436H62.8539H62.5643H62.2746H61.985H61.6953H61.4057H61.116H60.8264H60.5367H60.2471H59.9574H59.6678H59.3781H59.0885H58.7988H58.5092H58.2195H57.9299H57.6402H57.3506H57.0609H56.7713H56.4816H56.192H55.9023H55.6127H55.323H55.0334H54.7437H54.4541H54.1644H53.8748H53.5851H53.2955H53.0058H52.7162H52.4265H52.1369H51.8472H51.5576H51.2679H50.9783H50.6886H50.399H50.1093H49.8197H49.53H49.2404H48.9507H48.6611H48.3715H48.0818H47.7921H47.5025H47.2129H46.9232H46.6336H46.3439H46.0543H45.7646H45.475H45.1853H44.8957H44.606H44.3164H44.0267H43.7371H43.4474H43.1578H42.8681H42.5785H42.2888H41.9992H41.7095H41.4199H41.1302H40.8406H40.5509H40.2613H39.9716H39.682H39.3923H39.1027H38.813H38.5234H38.2337H37.9441H37.6544H37.3648H37.0751H36.7855H36.4958H36.2062H35.9165H35.6269H35.3372H35.0476H34.7579H34.4683H34.1786H33.889H33.5993H33.3097H33.02H32.7304H32.4407H32.1511H31.8614H31.5718H31.2821H30.9925H30.7028H30.4132H30.1235H29.8339H29.5442H29.2546H28.9649H28.6753H28.3856H28.096H27.8063H27.5167H27.227H26.9374H26.6477H26.3581H26.0684H25.7788H25.4891H25.1995H24.9098H24.6202H24.3305H24.0409H23.7512H23.4616H23.172H22.8823H22.5927H22.303H22.0134H21.7237H21.4341H21.1444H20.8548H20.5651H20.2755H19.9858H19.6962H19.4065H19.1169H18.8272H18.5376H18.2479H17.9583H17.6686H17.379H17.0893H16.7997H16.51H16.2204H15.9307H15.6411L15.3514 104.967L15.0618 104.967L14.7721 104.967H14.4825H14.1928H13.9032L13.6135 104.967H13.3239H13.0342L12.7446 104.967H12.4549H12.1653H11.8756H11.586H11.2963H11.0067H10.717L10.4274 104.967H10.1377H9.84808H9.55843H9.26878H8.97913H8.68948H8.39983H8.11018H7.82053H7.53089H7.24124H6.95159H6.66194H6.37229H6.08264H5.79299L5.50334 104.967H5.21369H4.92404H4.63439H4.34474H4.05509H3.76544H3.47579H3.18614H2.89649H2.60684H2.31719H2.02755H1.7379H1.44825H1.1586H0.868948H0.579299H0.28965Z" fill="url(#paint0_linear_802_5493)" style=""/>
<path d="M0 104.967H0.28965H0.579299H0.868948H1.1586H1.44825H1.7379H2.02755H2.31719H2.60684H2.89649H3.18614H3.47579H3.76544H4.05509H4.34474H4.63439H4.92404H5.21369H5.50334L5.79299 104.967H6.08264H6.37229H6.66194H6.95159H7.24124H7.53089H7.82053H8.11018H8.39983H8.68948H8.97913H9.26878H9.55843H9.84808H10.1377H10.4274L10.717 104.967H11.0067H11.2963H11.586H11.8756H12.1653H12.4549H12.7446L13.0342 104.967H13.3239H13.6135L13.9032 104.967H14.1928H14.4825H14.7721L15.0618 104.967L15.3514 104.967L15.6411 104.965H15.9307L16.2204 104.965L16.51 104.965H16.7997H17.0893H17.379L17.6686 104.965L17.9583 104.965H18.2479L18.5376 104.965L18.8272 104.965L19.1169 104.965L19.4065 104.965L19.6962 104.965L19.9858 104.965L20.2755 104.965L20.5651 104.965L20.8548 104.965L21.1444 104.965L21.4341 104.965L21.7237 104.965L22.0134 104.965L22.303 104.965L22.5927 104.965L22.8823 104.965L23.172 104.965L23.4616 104.965L23.7512 104.965H24.0409L24.3305 104.965L24.6202 104.965L24.9098 104.965L25.1995 104.965L25.4891 104.965L25.7788 104.965L26.0684 104.965L26.3581 104.965L26.6477 104.965L26.9374 104.965L27.227 104.965L27.5167 104.965L27.8063 104.965L28.096 104.965L28.3856 104.965L28.6753 104.965L28.9649 104.965L29.2546 104.965L29.5442 104.965L29.8339 104.965L30.1235 104.965L30.4132 104.964L30.7028 104.964L30.9925 104.964L31.2821 104.964L31.5718 104.964L31.8614 104.964L32.1511 104.964L32.4407 104.964L32.7304 104.964L33.02 104.964L33.3097 104.964L33.5993 104.963L33.889 104.935L34.1786 104.935L34.4683 104.935L34.7579 104.935L35.0476 104.935L35.3372 104.935L35.6269 104.934L35.9165 104.934L36.2062 104.934L36.4958 104.934L36.7855 104.934L37.0751 104.934L37.3648 104.934L37.6544 104.933L37.9441 104.933L38.2337 104.933L38.5234 104.933L38.813 104.933L39.1027 104.933L39.3923 104.933L39.682 104.933L39.9716 104.933L40.2613 104.933L40.5509 104.933L40.8406 104.933L41.1302 104.933L41.4199 104.933L41.7095 104.933L41.9992 104.933L42.2888 104.933L42.5785 104.933L42.8681 104.933L43.1578 104.933L43.4474 104.932L43.7371 104.932L44.0267 104.932L44.3164 104.932L44.606 104.932L44.8957 104.932L45.1853 104.932L45.475 104.931L45.7646 104.931L46.0543 104.931L46.3439 104.931L46.6336 104.931L46.9232 104.931L47.2129 104.931L47.5025 104.931L47.7921 104.931L48.0818 104.931L48.3715 104.931L48.6611 104.931L48.9507 104.931L49.2404 104.931L49.53 104.931L49.8197 104.931L50.1093 104.931L50.399 104.931L50.6886 104.931L50.9783 104.931L51.2679 104.931L51.5576 104.931L51.8472 104.931L52.1369 104.931L52.4265 104.931L52.7162 104.93L53.0058 104.93L53.2955 104.93L53.5851 104.93L53.8748 104.93L54.1644 104.93L54.4541 104.93L54.7437 104.93L55.0334 104.93L55.323 104.93L55.6127 104.93L55.9023 104.93L56.192 104.93L56.4816 104.93L56.7713 104.93L57.0609 104.93L57.3506 104.93L57.6402 104.93L57.9299 104.93L58.2195 104.929L58.5092 104.929L58.7988 104.929L59.0885 104.929L59.3781 104.929L59.6678 104.929L59.9574 104.929L60.2471 104.929L60.5367 104.929L60.8264 104.929L61.116 104.929L61.4057 104.929L61.6953 104.929L61.985 104.929L62.2746 104.929L62.5643 104.929L62.8539 104.929L63.1436 104.929L63.4332 104.928L63.7229 104.928L64.0125 104.928L64.3022 104.928L64.5918 104.928L64.8815 104.928L65.1711 104.928L65.4608 104.928L65.7504 104.928L66.0401 104.928L66.3297 104.928L66.6194 104.928L66.909 104.928L67.1987 104.928L67.4883 104.928L67.778 104.928L68.0676 104.927L68.3573 104.927L68.6469 104.927L68.9366 104.926L69.2262 104.926L69.5159 104.926L69.8055 104.926L70.0952 104.926L70.3848 104.926L70.6745 104.926L70.9641 104.926L71.2538 104.926L71.5434 104.926L71.8331 104.926L72.1227 104.926L72.4123 104.925L72.702 104.925L72.9916 104.925L73.2813 104.925L73.5709 104.925L73.8606 104.925L74.1502 104.925L74.4399 104.925L74.7295 104.925L75.0192 104.924L75.3088 104.924L75.5985 104.924L75.8881 104.924L76.1778 104.924L76.4674 104.924L76.7571 104.924L77.0467 104.923L77.3364 104.923L77.626 104.923L77.9157 104.923L78.2053 104.922L78.495 104.922L78.7846 104.922L79.0743 104.921L79.3639 104.921L79.6536 104.919L79.9432 104.918L80.2329 104.918L80.5225 104.918L80.8122 104.917L81.1018 104.917L81.3915 104.915L81.6811 104.914L81.9708 104.914L82.2604 104.913L82.5501 104.913L82.8397 104.912L83.1294 104.912L83.419 104.912L83.7087 104.911L83.9983 104.911L84.288 104.911L84.5776 104.91L84.8673 104.91L85.1569 104.909L85.4466 104.908L85.7362 104.908L86.0259 104.907L86.3155 104.906L86.6052 104.906L86.8948 104.905L87.1845 104.905L87.4741 104.904L87.7638 104.904L88.0534 104.903L88.3431 104.902L88.6327 104.901L88.9224 104.9L89.212 104.9L89.5017 104.899L89.7913 104.899L90.081 104.898L90.3706 104.897L90.6603 104.897L90.9499 104.896L91.2396 104.895L91.5292 104.894L91.8189 104.894L92.1085 104.893L92.3982 104.892L92.6878 104.891L92.9775 104.891L93.2671 104.89L93.5568 104.889L93.8464 104.888L94.1361 104.887L94.4257 104.886L94.7154 104.884L95.005 104.883L95.2947 104.882L95.5843 104.881L95.874 104.879L96.1636 104.876L96.4533 104.873L96.7429 104.87L97.0325 104.867L97.3222 104.864L97.6119 104.861L97.9015 104.856L98.1912 104.846L98.4808 104.843L98.7705 104.838L99.0601 104.836L99.3497 104.833L99.6394 104.83L99.929 104.809L100.219 104.805L100.508 104.802L100.798 104.792L101.088 104.677L101.377 104.673L101.667 104.577L101.957 104.296L102.246 104.291L102.536 104.183L102.826 104.147L103.115 104.143L103.405 104.14L103.694 104.136L103.984 104.132L104.274 104.128L104.563 104.123L104.853 104.117L105.143 104.113L105.432 104.108L105.722 104.103L106.012 104.097L106.301 104.09L106.591 104.081L106.881 104.073L107.17 104.065L107.46 104.059L107.75 104.052L108.039 103.984L108.329 103.967L108.619 103.74L108.908 103.633L109.198 103.171L109.487 103.016L109.777 103.011L110.067 102.985L110.356 102.972L110.646 102.854L110.936 102.697L111.225 102.661L111.515 102.528L111.805 102.468L112.094 102.256L112.384 102.052L112.674 101.742L112.963 101.397L113.253 101.139L113.543 100.93L113.832 100.749L114.122 100.638L114.412 100.434L114.701 100.351L114.991 100.305L115.28 100.134L115.57 99.9401L115.86 99.9186L116.149 99.8587L116.439 99.8305L116.729 99.7138L117.018 99.5788L117.308 99.407L117.598 99.1447L117.887 98.9677L118.177 98.7802L118.467 98.393L118.756 98.1692L119.046 97.9096L119.336 97.8441L119.625 97.6103L119.915 97.3904L120.205 97.1455L120.494 96.9264L120.784 96.8406L121.073 96.4883L121.363 95.9263L121.653 95.3525L121.942 95.1804L122.232 95.0498L122.522 94.9448L122.811 94.8419L123.101 94.5794L123.391 94.3458L123.68 94.2717L123.97 93.8458L124.26 93.554L124.549 93.4191L124.839 93.3243L125.129 93.1476L125.418 93.0473L125.708 92.9531L125.997 92.8762L126.287 92.7816L126.577 92.6349L126.866 92.4354L127.156 92.2824L127.446 91.5553L127.735 91.3083L128.025 91.1234L128.315 90.9792L128.604 90.8425L128.894 90.7021L129.184 90.4928L129.473 90.2712L129.763 90.1792L130.053 90.023L130.342 89.9389L130.632 89.8627L130.922 89.6623L131.211 89.4394L131.501 89.0815L131.79 88.9029L132.08 88.7987L132.37 88.7366L132.659 88.6703L132.949 88.5036L133.239 88.3688L133.528 88.1918L133.818 88.0926L134.108 87.9711L134.397 87.9251L134.687 87.7624L134.977 87.4093L135.266 87.0685L135.556 86.4053L135.846 85.6928L136.135 85.1767L136.425 84.6895L136.715 84.566L137.004 84.4417L137.294 84.0746L137.583 83.39L137.873 82.6421L138.163 82.2938L138.452 81.8436L138.742 81.312L139.032 80.5607L139.321 80.102L139.611 79.5228L139.901 79.2189L140.19 78.9605L140.48 78.5452L140.77 78.1996L141.059 77.655L141.349 76.9748L141.639 76.4154L141.928 75.9245L142.218 75.8841L142.508 75.7042L142.797 75.6764L143.087 75.6143L143.376 75.5176L143.666 75.3421L143.956 75.078L144.245 75.0555L144.535 75.0183L144.825 74.9662L145.114 74.9166L145.404 74.8887L145.694 74.8361L145.983 74.7055L146.273 74.6767L146.563 74.6026L146.852 74.5419L147.142 74.4054L147.432 74.3369L147.721 74.2818L148.011 74.1475L148.3 74.0877L148.59 74.0021L148.88 73.955L149.169 73.9014L149.459 73.8717L149.749 73.7375L150.038 73.6279L150.328 73.556L150.618 73.4768L150.907 73.3658L151.197 73.2472L151.487 73.0991L151.776 72.8833L152.066 72.7395L152.356 72.6207L152.645 72.5095L152.935 72.3963L153.225 72.1436L153.514 72.0602L153.804 71.5447L154.093 70.9709L154.383 70.9192L154.673 70.8576L154.962 70.7954L155.252 70.6705L155.542 70.5528L155.831 70.4004L156.121 70.2941L156.411 70.231L156.7 70.1234L156.99 70.0634L157.28 70.0134L157.569 69.9339L157.859 69.8751L158.149 69.8002L158.438 69.7602L158.728 69.7008L159.018 69.6056L159.307 69.5143L159.597 69.4246L159.886 69.3343L160.176 69.0382L160.466 68.685L160.755 68.562L161.045 68.4691L161.335 68.3299L161.624 68.1858L161.914 68.0336L162.204 67.8713L162.493 67.7926L162.783 67.7116L163.073 67.5999L163.362 67.4772L163.652 67.3026L163.942 67.1377L164.231 67.0236L164.521 66.929L164.811 66.842L165.1 66.7699L165.39 66.6949L165.679 66.6111L165.969 66.5126L166.259 66.375L166.548 66.279L166.838 66.1851L167.128 66.0754L167.417 66.0139L167.707 65.9754L167.997 65.9496L168.286 65.9063L168.576 65.8565L168.866 65.8154L169.155 65.7919L169.445 65.774L169.735 65.7489L170.024 65.7043L170.314 65.6708L170.603 65.6399L170.893 65.5859L171.183 65.569L171.472 65.5269L171.762 65.4998L172.052 65.465L172.341 65.4094L172.631 65.346L172.921 65.3205L173.21 65.31L173.5 65.3002L173.79 65.2901L174.079 65.2803L174.369 65.2665L174.659 65.2495L174.948 65.2322L175.238 65.209L175.528 65.1706L175.817 65.1379L176.107 65.0112L176.396 64.6333L176.686 64.3421L176.976 64.1781L177.265 64.1171L177.555 64.0969L177.845 64.0742L178.134 64.0448L178.424 64.0304L178.714 64.014L179.003 63.9913L179.293 63.9698L179.583 63.9275L179.872 63.8973L180.162 63.8601L180.452 63.8413L180.741 63.8151L181.031 63.7952L181.321 63.7745L181.61 63.7593L181.9 63.7459L182.189 63.7324L182.479 63.7091L182.769 63.6922L183.058 63.6758L183.348 63.6622L183.638 63.6423L183.927 63.615L184.217 63.5934L184.507 63.5484L184.796 63.4915L185.086 63.4501L185.376 63.4039L185.665 63.376L185.955 63.3608L186.245 63.3471L186.534 63.3298L186.824 63.311L187.114 63.2933L187.403 63.2795L187.693 63.2707L187.982 63.2608L188.272 63.2518L188.562 63.243L188.851 63.2305L189.141 63.2154L189.431 63.1987L189.72 63.1788L190.01 63.1633L190.3 63.1474L190.589 63.132L190.879 63.1034L191.169 63.0824L191.458 63.0632L191.748 63.0489L192.038 63.0343L192.327 63.0202L192.617 63.0065L192.906 62.9897L193.196 62.9708L193.486 62.9505L193.775 62.9322L194.065 62.9126L194.355 62.8935L194.644 62.878L194.934 62.8633L195.224 62.8414L195.513 62.8207L195.803 62.7929L196.093 62.7677L196.382 62.7503L196.672 62.7331L196.962 62.7139L197.251 62.6927L197.541 62.6709L197.831 62.6528L198.12 62.6338L198.41 62.611L198.699 62.5957L198.989 62.5803L199.279 62.562L199.568 62.5262L199.858 62.4951L200.148 62.4743L200.437 62.4573L200.727 62.4315L201.017 62.4121L201.306 62.393L201.596 62.3716L201.886 62.3503L202.175 62.3185L202.465 62.3012L202.755 62.28L203.044 62.2588L203.334 62.2354L203.624 62.2071L203.913 62.1848L204.203 62.164L204.492 62.1413L204.782 62.1243L205.072 62.1123L205.361 62.0962L205.651 62.0845L205.941 62.0729L206.23 62.0469L206.52 62.0111L206.81 61.9718L207.099 61.9527L207.389 61.9387L207.679 61.9262L207.968 61.9137L208.258 61.8986L208.548 61.8838L208.837 61.8677L209.127 61.8462L209.417 61.8279L209.706 61.8082L209.996 61.7874L210.285 61.7672L210.575 61.7483L210.865 61.7311L211.154 61.6934L211.444 61.6687L211.734 61.6465L212.023 61.6306L212.313 61.5774L212.603 61.4647L212.892 61.4064L213.182 61.3505L213.472 61.2964L213.761 61.2398L214.051 61.1987L214.341 61.1555L214.63 61.1156L214.92 61.0643L215.21 61.0435L215.499 61.0203L215.789 60.9856L216.078 60.9471L216.368 60.9157L216.658 60.8825L216.947 60.8352L217.237 60.7796L217.527 60.7416L217.816 60.697L218.106 60.6486L218.396 60.6021L218.685 60.5442L218.975 60.4875L219.265 60.421L219.554 60.3916L219.844 60.3634L220.134 60.3355L220.423 60.2744L220.713 60.224L221.002 60.1988L221.292 60.1712L221.582 60.1133L221.871 60.0406L222.161 59.9126L222.451 59.7727L222.74 59.5635L223.03 59.4879L223.32 59.4053L223.609 59.2976L223.899 59.2224L224.189 59.1306L224.478 59.0706L224.768 58.9643L225.058 58.855L225.347 58.7756L225.637 58.6543L225.927 58.5953L226.216 58.5095L226.506 58.4521L226.795 58.4149L227.085 58.2428L227.375 58.1845L227.664 58.1361L227.954 58.059L228.244 57.9369L228.533 57.8569L228.823 57.6935L229.113 57.6421L229.402 57.5329L229.692 57.4943L229.982 57.395L230.271 57.3297L230.561 57.1712L230.851 57.0256L231.14 56.8639L231.43 56.726L231.72 56.616L232.009 56.4913L232.299 56.3374L232.588 56.1618L232.878 56.0855L233.168 55.9408L233.457 55.8225L233.747 55.6381L234.037 55.563L234.326 55.4101L234.616 55.3381L234.906 55.0892L235.195 54.8783L235.485 54.6925L235.775 54.5741L236.064 54.4941L236.354 54.4465L236.644 54.4226L236.933 54.3953L237.223 54.3427L237.513 54.2784L237.802 54.2378L238.092 54.1914L238.381 54.1167L238.671 54.0655L238.961 53.9894L239.25 53.9343L239.54 53.8636L239.83 53.8219L240.119 53.7212L240.409 53.6631L240.699 53.6041L240.988 53.5862L241.278 53.5662L241.568 53.5457L241.857 53.5255L242.147 53.5062L242.437 53.4795L242.726 53.4558L243.016 53.4275L243.306 53.4054L243.595 53.3777L243.885 53.3547L244.174 53.3347L244.464 53.316L244.754 53.2965L245.043 53.2741L245.333 53.2451L245.623 53.2064L245.912 53.1631L246.202 53.1138L246.492 53.0662L246.781 53.0367L247.071 53.0049L247.361 52.9664L247.65 52.9272L247.94 52.8877L248.23 52.8374L248.519 52.8003L248.809 52.741L249.098 52.684L249.388 52.6234L249.678 52.5643L249.967 52.5249L250.257 52.3777L250.547 52.1621L250.836 51.8532L251.126 51.5602L251.416 51.3622L251.705 51.1073L251.995 50.8511L252.285 50.7057L252.574 50.5118L252.864 50.3378L253.154 50.1487L253.443 49.9369L253.733 49.815L254.023 49.681L254.312 49.5007L254.602 49.3825L254.891 49.2298L255.181 49.1207L255.471 49.072L255.76 49.0135L256.05 48.9211L256.34 48.8238L256.629 48.7219L256.919 48.6805L257.209 48.5526L257.498 48.4689L257.788 48.4165L258.078 48.3897L258.367 48.3507L258.657 48.2624L258.947 48.1715L259.236 48.0177L259.526 47.766L259.816 47.5963L260.105 47.5044L260.395 47.3963L260.684 47.248L260.974 47.1272L261.264 46.9469L261.553 46.7896L261.843 46.7171L262.133 46.656L262.422 46.5489L262.712 46.4601L263.002 46.3863L263.291 46.2804L263.581 46.1927L263.871 46.1402L264.16 46.026L264.45 45.9689L264.74 45.8873L265.029 45.8246L265.319 45.7355L265.609 45.6583L265.898 45.5879L266.188 45.5026L266.477 45.4249L266.767 45.3616L267.057 45.3067L267.346 45.2449L267.636 45.1515L267.926 45.0943L268.215 45.0384L268.505 44.9747L268.795 44.9407L269.084 44.9075L269.374 44.8276L269.664 44.7288L269.953 44.6875L270.243 44.6406L270.533 44.5692L270.822 44.5076L271.112 44.4462L271.402 44.3338L271.691 44.1537L271.981 44.0237L272.27 43.886L272.56 43.7303L272.85 43.6038L273.139 43.4385L273.429 43.2483L273.719 42.9567L274.008 42.7517L274.298 42.6523L274.588 42.5593L274.877 42.4416L275.167 42.3148L275.457 42.0935L275.746 41.9238L276.036 41.8274L276.326 41.6856L276.615 41.5281L276.905 41.3962L277.194 41.2579L277.484 41.1502L277.774 40.9751L278.063 40.855L278.353 40.7302L278.643 40.6433L278.932 40.559L279.222 40.472L279.512 40.3368L279.801 40.2142L280.091 40.0932L280.381 39.9767L280.67 39.8665L280.96 39.782L281.25 39.7434L281.539 39.669L281.829 39.5866L282.119 39.5234L282.408 39.4771L282.698 39.4378L282.987 39.415L283.277 39.3918L283.567 39.3664L283.856 39.3413L284.146 39.3222L284.436 39.3033L284.725 39.2798L285.015 39.262L285.305 39.2415L285.594 39.1312L285.884 39.064L286.174 39.0123L286.463 38.9813L286.753 38.9507L287.043 38.9265L287.332 38.8949L287.622 38.8524L287.912 38.8051L288.201 38.7474L288.491 38.6936L288.78 38.6497L289.07 38.6238L289.36 38.5856L289.649 38.5061L289.939 38.4703L290.229 38.4156L290.518 38.3808L290.808 38.3533L291.098 38.3126L291.387 38.2607L291.677 38.1851L291.967 38.097L292.256 38.0526L292.546 38.0155L292.836 37.9795L293.125 37.9529L293.415 37.9167L293.704 37.8934L293.994 37.8671L294.284 37.8398L294.573 37.8096L294.863 37.7415L295.153 37.6365L295.442 37.5945L295.732 37.5324L296.022 37.4884L296.311 37.4126L296.601 37.3459L296.891 37.3132L297.18 37.2497L297.47 37.1823L297.76 37.0869L298.049 37.0242L298.339 36.9823L298.629 36.934L298.918 36.8869L299.208 36.8065L299.497 36.675L299.787 36.5554L300.077 36.4139L300.366 36.3157L300.656 36.2222L300.946 36.1281L301.235 36.0308L301.525 35.9117L301.815 35.8008L302.104 35.6601L302.394 35.5252L302.684 35.405L302.973 35.2436L303.263 35.1284L303.553 35.0156L303.842 34.8L304.132 34.5225L304.422 34.3036L304.711 34.1116L305.001 33.8718L305.29 33.5174L305.58 33.154L305.87 32.7305L306.159 32.2837L306.449 31.9833L306.739 31.5854L307.028 31.2295L307.318 30.8558L307.608 30.4195L307.897 29.9365L308.187 29.472L308.477 29.062L308.766 28.6952L309.056 28.2934L309.346 27.877L309.635 27.4627L309.925 27.0186L310.215 26.584L310.504 26.2369L310.794 25.8892L311.083 25.597L311.373 25.2674L311.663 24.9473L311.952 24.5378L312.242 24.1255L312.532 23.8547L312.821 23.5674L313.111 23.2861L313.401 23.0063L313.69 22.6678L313.98 22.3459L314.27 22.0121L314.559 21.786L314.849 21.5384L315.139 21.3027L315.428 21.056L315.718 20.8353L316.007 20.6009L316.297 20.3146L316.587 20.1031L316.876 19.9368L317.166 19.7378L317.456 19.5076L317.745 19.2952L318.035 18.9925L318.325 18.6788L318.614 18.452L318.904 18.2136L319.194 17.9469L319.483 17.666L319.773 17.4446L320.063 17.2754L320.352 17.0062L320.642 16.844L320.932 16.6935L321.221 16.596L321.511 16.472L321.8 16.2578L322.09 15.9706L322.38 15.6592L322.669 15.405L322.959 15.1918L323.249 15.0025L323.538 14.7803L323.828 14.5215L324.118 14.2387L324.407 13.9659L324.697 13.7521L324.987 13.5766L325.276 13.389L325.566 13.1786L325.856 13.0022L326.145 12.733L326.435 12.4361L326.725 12.2303L327.014 12.0043L327.304 11.7331L327.593 11.4702L327.883 11.1562L328.173 10.8382L328.462 10.5073L328.752 10.3774L329.042 10.2402L329.331 10.1727L329.621 10.0925L329.911 9.96632L330.2 9.72237L330.49 9.46769L330.78 9.31594L331.069 9.22545L331.359 9.12167L331.649 9.00317L331.938 8.87462L332.228 8.70989L332.518 8.40957L332.807 8.15042L333.097 7.91352L333.386 7.74576L333.676 7.64402L333.966 7.48815L334.255 7.302L334.545 7.04888L334.835 6.91051L335.124 6.80658L335.414 6.64452L335.704 6.51459L335.993 6.3744L336.283 6.21039L336.573 5.94561L336.862 5.76069L337.152 5.62659L337.442 5.50767L337.731 5.42884L338.021 5.32967L338.31 5.27424L338.6 5.03218L338.89 4.89987L339.179 4.75898L339.469 4.52645L339.759 4.35818L340.048 4.25064L340.338 4.07883L340.628 3.8113L340.917 3.65017L341.207 3.41655L341.497 3.2066L341.786 3.05995L342.076 2.96771L342.366 2.84776L342.655 2.68462L342.945 2.60482L343.235 2.50292L343.524 2.48038L343.814 2.39904L344.103 2.25917L344.393 2.04785L344.683 1.85815L344.972 1.73176L345.262 1.62788L345.552 1.5541L345.841 1.50229L346.131 1.39782L346.421 1.21226L346.71 1.07108L347 0.966797" stroke="#CED4DA" style="stroke:#CED4DA;stroke:color(display-p3 0.8078 0.8314 0.8549);stroke-opacity:1;" stroke-width="0.5" stroke-linecap="round" stroke-linejoin="round"/>
<defs>
<linearGradient id="paint0_linear_802_5493" x1="168.363" y1="41.0501" x2="162.236" y2="104.541" gradientUnits="userSpaceOnUse">
<stop stop-color="#F4F6F8" style="stop-color:#F4F6F8;stop-color:color(display-p3 0.9569 0.9647 0.9725);stop-opacity:1;"/>
<stop offset="1" stop-color="#F4F6F8" stop-opacity="0" style="stop-color:none;stop-color:none;stop-opacity:0;"/>
</linearGradient>
</defs>
</svg>
