<svg width="316" height="118" viewBox="0 0 316 118" fill="none" xmlns="http://www.w3.org/2000/svg">
<g clip-path="url(#clip0_815_103)">
<path d="M158.702 0.00418091C174.175 0.188376 188.955 6.44348 199.86 17.4217C210.764 28.4 216.919 43.2226 216.999 58.6959L200.479 58.781C200.422 47.6403 195.99 36.968 188.139 29.0636C180.288 21.1593 169.646 16.6556 158.506 16.523L158.702 0.00418091Z" fill="#ADB5BD"/>
<path d="M216.743 64.5055C215.976 72.6842 213.51 80.6127 209.503 87.7834C205.495 94.9541 200.034 101.209 193.47 106.147L183.538 92.9461C188.265 89.3904 192.196 84.8869 195.082 79.724C197.967 74.5612 199.743 68.8526 200.295 62.964L216.743 64.5055Z" fill="#CED4DA"/>
<path d="M188.337 109.603C181.256 113.848 173.363 116.56 165.168 117.563C156.973 118.566 148.659 117.838 140.763 115.426C132.867 113.014 125.565 108.972 119.33 103.56C113.094 98.1489 108.064 91.4892 104.564 84.0116L119.526 77.0084C122.046 82.3922 125.668 87.1872 130.157 91.0834C134.647 94.9795 139.904 97.89 145.589 99.6267C151.274 101.363 157.261 101.888 163.161 101.165C169.061 100.443 174.745 98.4906 179.843 95.434L188.337 109.603Z" fill="#E9ECEF"/>
<path d="M102.527 79.0936C99.4487 70.595 98.3641 61.5027 99.3571 52.5185C100.35 43.5343 103.394 34.8983 108.254 27.2771C113.114 19.6559 119.66 13.2533 127.387 8.56333C135.114 3.87338 143.816 1.02153 152.82 0.227875L154.27 16.6841C147.787 17.2555 141.522 19.3088 135.959 22.6856C130.395 26.0624 125.682 30.6723 122.183 36.1595C118.684 41.6468 116.492 47.8647 115.777 54.3333C115.062 60.802 115.843 67.3484 118.059 73.4674L102.527 79.0936Z" fill="#E5E7EB"/>
<path d="M221.044 14C218.384 14 210.954 20.042 208.477 22.056L206 24.07" stroke="#CED4DA"/>
<path d="M208 91C210.66 91 218.09 97.042 220.567 99.056L223.044 101.07" stroke="#CED4DA"/>
<path d="M223.707 11.6364L225.003 15.3097H225.054L226.349 11.6364H226.903L225.301 16H224.756L223.153 11.6364H223.707ZM228.173 16.0767C227.966 16.0767 227.778 16.0376 227.609 15.9595C227.44 15.88 227.305 15.7656 227.206 15.6165C227.107 15.4659 227.057 15.2841 227.057 15.071C227.057 14.8835 227.094 14.7315 227.168 14.6151C227.241 14.4972 227.34 14.4048 227.464 14.3381C227.587 14.2713 227.724 14.2216 227.873 14.1889C228.023 14.1548 228.175 14.1278 228.327 14.108C228.526 14.0824 228.687 14.0632 228.81 14.0504C228.935 14.0362 229.026 14.0128 229.083 13.9801C229.141 13.9474 229.17 13.8906 229.17 13.8097V13.7926C229.17 13.5824 229.113 13.419 228.998 13.3026C228.884 13.1861 228.712 13.1278 228.48 13.1278C228.24 13.1278 228.052 13.1804 227.915 13.2855C227.779 13.3906 227.683 13.5028 227.628 13.6222L227.151 13.4517C227.236 13.2528 227.349 13.098 227.491 12.9872C227.635 12.875 227.791 12.7969 227.96 12.7528C228.131 12.7074 228.298 12.6847 228.463 12.6847C228.568 12.6847 228.689 12.6974 228.825 12.723C228.963 12.7472 229.096 12.7976 229.224 12.8743C229.353 12.951 229.46 13.0668 229.545 13.2216C229.631 13.3764 229.673 13.5838 229.673 13.8438V16H229.17V15.5568H229.145C229.111 15.6278 229.054 15.7038 228.974 15.7848C228.895 15.8658 228.789 15.9347 228.657 15.9915C228.525 16.0483 228.364 16.0767 228.173 16.0767ZM228.25 15.625C228.449 15.625 228.616 15.5859 228.753 15.5078C228.891 15.4297 228.994 15.3288 229.064 15.2053C229.135 15.0817 229.17 14.9517 229.17 14.8153V14.3551C229.149 14.3807 229.102 14.4041 229.03 14.4254C228.959 14.4453 228.876 14.4631 228.783 14.4787C228.69 14.4929 228.6 14.5057 228.512 14.517C228.425 14.527 228.355 14.5355 228.301 14.5426C228.17 14.5597 228.048 14.5874 227.935 14.6257C227.822 14.6626 227.732 14.7187 227.662 14.794C227.594 14.8679 227.56 14.9687 227.56 15.0966C227.56 15.2713 227.624 15.4034 227.754 15.4929C227.884 15.581 228.05 15.625 228.25 15.625ZM231.094 11.6364V16H230.591V11.6364H231.094ZM232.015 16V12.7273H232.518V16H232.015ZM232.271 12.1818C232.173 12.1818 232.088 12.1484 232.017 12.0817C231.947 12.0149 231.913 11.9347 231.913 11.8409C231.913 11.7472 231.947 11.6669 232.017 11.6001C232.088 11.5334 232.173 11.5 232.271 11.5C232.369 11.5 232.452 11.5334 232.522 11.6001C232.593 11.6669 232.629 11.7472 232.629 11.8409C232.629 11.9347 232.593 12.0149 232.522 12.0817C232.452 12.1484 232.369 12.1818 232.271 12.1818ZM234.675 16.0682C234.402 16.0682 234.161 15.9993 233.952 15.8615C233.743 15.7223 233.58 15.5263 233.462 15.2734C233.344 15.0192 233.285 14.7188 233.285 14.3722C233.285 14.0284 233.344 13.7301 233.462 13.4773C233.58 13.2244 233.744 13.0291 233.954 12.8913C234.165 12.7536 234.407 12.6847 234.683 12.6847C234.896 12.6847 235.064 12.7202 235.188 12.7912C235.313 12.8608 235.408 12.9403 235.474 13.0298C235.54 13.1179 235.592 13.1903 235.629 13.2472H235.672V11.6364H236.175V16H235.689V15.4972H235.629C235.592 15.5568 235.54 15.6321 235.471 15.723C235.403 15.8125 235.306 15.8928 235.18 15.9638C235.053 16.0334 234.885 16.0682 234.675 16.0682ZM234.743 15.6165C234.944 15.6165 235.115 15.5639 235.254 15.4588C235.393 15.3523 235.499 15.2053 235.572 15.0178C235.644 14.8288 235.68 14.6108 235.68 14.3636C235.68 14.1193 235.645 13.9055 235.574 13.7223C235.503 13.5376 235.398 13.3942 235.258 13.2919C235.119 13.1882 234.947 13.1364 234.743 13.1364C234.53 13.1364 234.352 13.1911 234.21 13.3004C234.069 13.4084 233.964 13.5554 233.893 13.7415C233.823 13.9261 233.788 14.1335 233.788 14.3636C233.788 14.5966 233.824 14.8082 233.895 14.9986C233.967 15.1875 234.074 15.3381 234.214 15.4503C234.356 15.5611 234.532 15.6165 234.743 15.6165ZM238.128 16.0767C237.921 16.0767 237.733 16.0376 237.564 15.9595C237.395 15.88 237.26 15.7656 237.161 15.6165C237.062 15.4659 237.012 15.2841 237.012 15.071C237.012 14.8835 237.049 14.7315 237.123 14.6151C237.197 14.4972 237.295 14.4048 237.419 14.3381C237.542 14.2713 237.679 14.2216 237.828 14.1889C237.979 14.1548 238.13 14.1278 238.282 14.108C238.481 14.0824 238.642 14.0632 238.765 14.0504C238.89 14.0362 238.981 14.0128 239.038 13.9801C239.096 13.9474 239.126 13.8906 239.126 13.8097V13.7926C239.126 13.5824 239.068 13.419 238.953 13.3026C238.839 13.1861 238.667 13.1278 238.435 13.1278C238.195 13.1278 238.007 13.1804 237.871 13.2855C237.734 13.3906 237.638 13.5028 237.583 13.6222L237.106 13.4517C237.191 13.2528 237.305 13.098 237.447 12.9872C237.59 12.875 237.746 12.7969 237.915 12.7528C238.086 12.7074 238.253 12.6847 238.418 12.6847C238.523 12.6847 238.644 12.6974 238.78 12.723C238.918 12.7472 239.051 12.7976 239.179 12.8743C239.308 12.951 239.415 13.0668 239.501 13.2216C239.586 13.3764 239.628 13.5838 239.628 13.8438V16H239.126V15.5568H239.1C239.066 15.6278 239.009 15.7038 238.93 15.7848C238.85 15.8658 238.744 15.9347 238.612 15.9915C238.48 16.0483 238.319 16.0767 238.128 16.0767ZM238.205 15.625C238.404 15.625 238.572 15.5859 238.708 15.5078C238.846 15.4297 238.949 15.3288 239.019 15.2053C239.09 15.0817 239.126 14.9517 239.126 14.8153V14.3551C239.104 14.3807 239.057 14.4041 238.985 14.4254C238.914 14.4453 238.831 14.4631 238.738 14.4787C238.645 14.4929 238.555 14.5057 238.467 14.517C238.381 14.527 238.31 14.5355 238.256 14.5426C238.126 14.5597 238.003 14.5874 237.89 14.6257C237.778 14.6626 237.687 14.7187 237.617 14.794C237.549 14.8679 237.515 14.9687 237.515 15.0966C237.515 15.2713 237.579 15.4034 237.709 15.4929C237.839 15.581 238.005 15.625 238.205 15.625ZM241.969 12.7273V13.1534H240.273V12.7273H241.969ZM240.768 11.9432H241.271V15.0625C241.271 15.2045 241.291 15.3111 241.332 15.3821C241.375 15.4517 241.429 15.4986 241.494 15.5227C241.561 15.5455 241.631 15.5568 241.705 15.5568C241.761 15.5568 241.806 15.554 241.842 15.5483C241.877 15.5412 241.906 15.5355 241.927 15.5312L242.029 15.983C241.995 15.9957 241.947 16.0085 241.886 16.0213C241.825 16.0355 241.748 16.0426 241.654 16.0426C241.512 16.0426 241.373 16.0121 241.237 15.951C241.102 15.8899 240.989 15.7969 240.9 15.6719C240.812 15.5469 240.768 15.3892 240.768 15.1989V11.9432ZM244.02 16.0682C243.725 16.0682 243.466 15.9979 243.243 15.8572C243.021 15.7166 242.848 15.5199 242.723 15.267C242.599 15.0142 242.537 14.7187 242.537 14.3807C242.537 14.0398 242.599 13.7422 242.723 13.4879C242.848 13.2337 243.021 13.0362 243.243 12.8956C243.466 12.755 243.725 12.6847 244.02 12.6847C244.316 12.6847 244.574 12.755 244.796 12.8956C245.019 13.0362 245.192 13.2337 245.316 13.4879C245.441 13.7422 245.503 14.0398 245.503 14.3807C245.503 14.7187 245.441 15.0142 245.316 15.267C245.192 15.5199 245.019 15.7166 244.796 15.8572C244.574 15.9979 244.316 16.0682 244.02 16.0682ZM244.02 15.6165C244.245 15.6165 244.429 15.5589 244.574 15.4439C244.719 15.3288 244.826 15.1776 244.896 14.9901C244.966 14.8026 245 14.5994 245 14.3807C245 14.1619 244.966 13.9581 244.896 13.7692C244.826 13.5803 244.719 13.4276 244.574 13.3111C244.429 13.1946 244.245 13.1364 244.02 13.1364C243.796 13.1364 243.611 13.1946 243.466 13.3111C243.321 13.4276 243.214 13.5803 243.145 13.7692C243.075 13.9581 243.04 14.1619 243.04 14.3807C243.04 14.5994 243.075 14.8026 243.145 14.9901C243.214 15.1776 243.321 15.3288 243.466 15.4439C243.611 15.5589 243.796 15.6165 244.02 15.6165ZM246.271 16V12.7273H246.757V13.2216H246.791C246.85 13.0597 246.958 12.9283 247.115 12.8274C247.271 12.7266 247.447 12.6761 247.643 12.6761C247.68 12.6761 247.726 12.6768 247.781 12.6783C247.837 12.6797 247.879 12.6818 247.907 12.6847V13.196C247.89 13.1918 247.851 13.1854 247.79 13.1768C247.73 13.1669 247.667 13.1619 247.6 13.1619C247.441 13.1619 247.299 13.1953 247.174 13.2621C247.051 13.3274 246.953 13.4183 246.88 13.5348C246.809 13.6499 246.774 13.7812 246.774 13.929V16H246.271ZM248.87 16.0341C248.765 16.0341 248.674 15.9964 248.599 15.9212C248.524 15.8459 248.486 15.7557 248.486 15.6506C248.486 15.5455 248.524 15.4553 248.599 15.38C248.674 15.3047 248.765 15.267 248.87 15.267C248.975 15.267 249.065 15.3047 249.14 15.38C249.216 15.4553 249.253 15.5455 249.253 15.6506C249.253 15.7202 249.235 15.7841 249.2 15.8423C249.166 15.9006 249.12 15.9474 249.061 15.983C249.005 16.017 248.941 16.0341 248.87 16.0341ZM248.87 13.6051C248.765 13.6051 248.674 13.5675 248.599 13.4922C248.524 13.4169 248.486 13.3267 248.486 13.2216C248.486 13.1165 248.524 13.0263 248.599 12.951C248.674 12.8757 248.765 12.8381 248.87 12.8381C248.975 12.8381 249.065 12.8757 249.14 12.951C249.216 13.0263 249.253 13.1165 249.253 13.2216C249.253 13.2912 249.235 13.3551 249.2 13.4134C249.166 13.4716 249.12 13.5185 249.061 13.554C249.005 13.5881 248.941 13.6051 248.87 13.6051ZM251.681 11.6364V16H251.153V12.1903H251.127L250.062 12.8977V12.3608L251.153 11.6364H251.681ZM254.811 13.8182C254.811 13.2812 254.881 12.7876 255.02 12.3374C255.161 11.8857 255.361 11.4702 255.621 11.0909H256.064C255.962 11.2315 255.866 11.4048 255.776 11.6108C255.688 11.8153 255.611 12.0405 255.544 12.2862C255.477 12.5305 255.425 12.7834 255.386 13.0447C255.349 13.3061 255.331 13.5639 255.331 13.8182C255.331 14.1562 255.364 14.4993 255.429 14.8473C255.494 15.1953 255.582 15.5185 255.693 15.8168C255.804 16.1151 255.928 16.358 256.064 16.5455H255.621C255.361 16.1662 255.161 15.7514 255.02 15.3011C254.881 14.8494 254.811 14.3551 254.811 13.8182ZM256.797 16V15.6165L258.238 14.0398C258.407 13.8551 258.546 13.6946 258.655 13.5582C258.765 13.4205 258.846 13.2912 258.898 13.1705C258.952 13.0483 258.979 12.9205 258.979 12.7869C258.979 12.6335 258.942 12.5007 258.868 12.3885C258.796 12.2763 258.697 12.1896 258.57 12.1286C258.444 12.0675 258.302 12.0369 258.144 12.0369C257.976 12.0369 257.83 12.0717 257.705 12.1413C257.581 12.2095 257.486 12.3054 257.417 12.429C257.351 12.5526 257.317 12.6974 257.317 12.8636H256.814C256.814 12.608 256.873 12.3835 256.991 12.1903C257.109 11.9972 257.27 11.8466 257.473 11.7386C257.677 11.6307 257.907 11.5767 258.161 11.5767C258.417 11.5767 258.643 11.6307 258.841 11.7386C259.038 11.8466 259.193 11.9922 259.305 12.1754C259.417 12.3587 259.474 12.5625 259.474 12.7869C259.474 12.9474 259.444 13.1044 259.386 13.2578C259.329 13.4098 259.23 13.5795 259.088 13.767C258.947 13.9531 258.752 14.1804 258.502 14.4489L257.522 15.4972V15.5312H259.55V16H256.797ZM260.567 16L262.518 12.1392V12.1051H260.268V11.6364H263.064V12.1307L261.121 16H260.567ZM263.483 16.0341C263.378 16.0341 263.288 15.9964 263.212 15.9212C263.137 15.8459 263.099 15.7557 263.099 15.6506C263.099 15.5455 263.137 15.4553 263.212 15.38C263.288 15.3047 263.378 15.267 263.483 15.267C263.588 15.267 263.678 15.3047 263.754 15.38C263.829 15.4553 263.866 15.5455 263.866 15.6506C263.866 15.7202 263.849 15.7841 263.813 15.8423C263.779 15.9006 263.733 15.9474 263.675 15.983C263.618 16.017 263.554 16.0341 263.483 16.0341ZM264.658 15.1051V14.6705L266.576 11.6364H266.891V12.3097H266.678L265.229 14.6023V14.6364H267.811V15.1051H264.658ZM266.712 16V14.973V14.7706V11.6364H267.215V16H266.712ZM268.61 16V15.6165L270.05 14.0398C270.219 13.8551 270.358 13.6946 270.468 13.5582C270.577 13.4205 270.658 13.2912 270.711 13.1705C270.765 13.0483 270.792 12.9205 270.792 12.7869C270.792 12.6335 270.755 12.5007 270.681 12.3885C270.608 12.2763 270.509 12.1896 270.383 12.1286C270.256 12.0675 270.114 12.0369 269.956 12.0369C269.789 12.0369 269.643 12.0717 269.518 12.1413C269.394 12.2095 269.298 12.3054 269.23 12.429C269.163 12.5526 269.13 12.6974 269.13 12.8636H268.627C268.627 12.608 268.686 12.3835 268.804 12.1903C268.922 11.9972 269.082 11.8466 269.285 11.7386C269.49 11.6307 269.719 11.5767 269.974 11.5767C270.229 11.5767 270.456 11.6307 270.653 11.7386C270.851 11.8466 271.006 11.9922 271.118 12.1754C271.23 12.3587 271.286 12.5625 271.286 12.7869C271.286 12.9474 271.257 13.1044 271.199 13.2578C271.142 13.4098 271.042 13.5795 270.9 13.767C270.76 13.9531 270.564 14.1804 270.314 14.4489L269.334 15.4972V15.5312H271.363V16H268.61ZM273.717 16.0597C273.436 16.0597 273.185 16.0114 272.965 15.9148C272.746 15.8182 272.572 15.6839 272.443 15.5121C272.315 15.3388 272.246 15.1378 272.234 14.9091H272.771C272.782 15.0497 272.831 15.1712 272.916 15.2734C273.001 15.3743 273.113 15.4524 273.251 15.5078C273.388 15.5632 273.541 15.5909 273.709 15.5909C273.896 15.5909 274.062 15.5582 274.207 15.4929C274.352 15.4276 274.466 15.3366 274.548 15.2202C274.631 15.1037 274.672 14.9688 274.672 14.8153C274.672 14.6548 274.632 14.5135 274.552 14.3913C274.473 14.2678 274.356 14.1712 274.203 14.1016C274.05 14.032 273.862 13.9972 273.64 13.9972H273.291V13.5284H273.64C273.814 13.5284 273.966 13.4972 274.096 13.4347C274.229 13.3722 274.331 13.2841 274.405 13.1705C274.481 13.0568 274.518 12.9233 274.518 12.7699C274.518 12.6222 274.486 12.4936 274.42 12.3842C274.355 12.2749 274.263 12.1896 274.143 12.1286C274.025 12.0675 273.886 12.0369 273.726 12.0369C273.575 12.0369 273.433 12.0646 273.3 12.12C273.167 12.174 273.059 12.2528 272.976 12.3565C272.892 12.4588 272.846 12.5824 272.839 12.7273H272.328C272.336 12.4986 272.405 12.2983 272.535 12.1264C272.664 11.9531 272.833 11.8182 273.042 11.7216C273.252 11.625 273.483 11.5767 273.734 11.5767C274.004 11.5767 274.236 11.6314 274.429 11.7408C274.622 11.8487 274.77 11.9915 274.874 12.169C274.978 12.3466 275.03 12.5384 275.03 12.7443C275.03 12.9901 274.965 13.1996 274.836 13.3729C274.708 13.5462 274.534 13.6662 274.314 13.733V13.767C274.589 13.8125 274.805 13.9297 274.959 14.1186C275.114 14.3061 275.192 14.5384 275.192 14.8153C275.192 15.0526 275.127 15.2656 274.998 15.4545C274.87 15.642 274.695 15.7898 274.474 15.8977C274.252 16.0057 274 16.0597 273.717 16.0597ZM275.961 15.1051V14.6705L277.878 11.6364H278.194V12.3097H277.981L276.532 14.6023V14.6364H279.114V15.1051H275.961ZM278.015 16V14.973V14.7706V11.6364H278.518V16H278.015ZM282.137 15.1818V14.9517C282.137 14.7926 282.17 14.647 282.235 14.5149C282.302 14.3814 282.398 14.2749 282.525 14.1953C282.653 14.1143 282.808 14.0739 282.989 14.0739C283.174 14.0739 283.329 14.1143 283.454 14.1953C283.579 14.2749 283.673 14.3814 283.737 14.5149C283.801 14.647 283.833 14.7926 283.833 14.9517V15.1818C283.833 15.3409 283.8 15.4872 283.735 15.6207C283.671 15.7528 283.576 15.8594 283.45 15.9403C283.325 16.0199 283.171 16.0597 282.989 16.0597C282.805 16.0597 282.649 16.0199 282.523 15.9403C282.396 15.8594 282.3 15.7528 282.235 15.6207C282.17 15.4872 282.137 15.3409 282.137 15.1818ZM282.572 14.9517V15.1818C282.572 15.3139 282.603 15.4325 282.665 15.5376C282.728 15.6413 282.836 15.6932 282.989 15.6932C283.138 15.6932 283.244 15.6413 283.305 15.5376C283.367 15.4325 283.398 15.3139 283.398 15.1818V14.9517C283.398 14.8196 283.369 14.7017 283.309 14.598C283.249 14.4929 283.143 14.4403 282.989 14.4403C282.84 14.4403 282.733 14.4929 282.668 14.598C282.604 14.7017 282.572 14.8196 282.572 14.9517ZM279.964 12.6847V12.4545C279.964 12.2955 279.996 12.1499 280.062 12.0178C280.129 11.8842 280.225 11.7777 280.352 11.6982C280.479 11.6172 280.634 11.5767 280.816 11.5767C281.001 11.5767 281.156 11.6172 281.281 11.6982C281.406 11.7777 281.5 11.8842 281.564 12.0178C281.628 12.1499 281.66 12.2955 281.66 12.4545V12.6847C281.66 12.8437 281.627 12.9901 281.562 13.1236C281.498 13.2557 281.403 13.3622 281.276 13.4432C281.151 13.5227 280.998 13.5625 280.816 13.5625C280.631 13.5625 280.476 13.5227 280.349 13.4432C280.223 13.3622 280.127 13.2557 280.062 13.1236C279.996 12.9901 279.964 12.8437 279.964 12.6847ZM280.398 12.4545V12.6847C280.398 12.8168 280.43 12.9354 280.492 13.0405C280.555 13.1442 280.663 13.196 280.816 13.196C280.965 13.196 281.07 13.1442 281.131 13.0405C281.194 12.9354 281.225 12.8168 281.225 12.6847V12.4545C281.225 12.3224 281.195 12.2045 281.136 12.1009C281.076 11.9957 280.969 11.9432 280.816 11.9432C280.667 11.9432 280.56 11.9957 280.494 12.1009C280.43 12.2045 280.398 12.3224 280.398 12.4545ZM280.126 16L283.126 11.6364H283.612L280.612 16H280.126ZM285.87 13.8182C285.87 14.3551 285.8 14.8494 285.659 15.3011C285.52 15.7514 285.32 16.1662 285.06 16.5455H284.617C284.719 16.4048 284.815 16.2315 284.903 16.0256C284.992 15.821 285.07 15.5966 285.137 15.3523C285.204 15.1065 285.256 14.853 285.293 14.5916C285.331 14.3288 285.35 14.071 285.35 13.8182C285.35 13.4801 285.317 13.1371 285.252 12.7891C285.187 12.4411 285.099 12.1179 284.988 11.8196C284.877 11.5213 284.754 11.2784 284.617 11.0909H285.06C285.32 11.4702 285.52 11.8857 285.659 12.3374C285.8 12.7876 285.87 13.2812 285.87 13.8182Z" fill="#6C757D"/>
<path d="M224.707 99.6364L226.003 103.31H226.054L227.349 99.6364H227.903L226.301 104H225.756L224.153 99.6364H224.707ZM229.173 104.077C228.966 104.077 228.778 104.038 228.609 103.96C228.44 103.88 228.305 103.766 228.206 103.616C228.107 103.466 228.057 103.284 228.057 103.071C228.057 102.884 228.094 102.732 228.168 102.615C228.241 102.497 228.34 102.405 228.464 102.338C228.587 102.271 228.724 102.222 228.873 102.189C229.023 102.155 229.175 102.128 229.327 102.108C229.526 102.082 229.687 102.063 229.81 102.05C229.935 102.036 230.026 102.013 230.083 101.98C230.141 101.947 230.17 101.891 230.17 101.81V101.793C230.17 101.582 230.113 101.419 229.998 101.303C229.884 101.186 229.712 101.128 229.48 101.128C229.24 101.128 229.052 101.18 228.915 101.286C228.779 101.391 228.683 101.503 228.628 101.622L228.151 101.452C228.236 101.253 228.349 101.098 228.491 100.987C228.635 100.875 228.791 100.797 228.96 100.753C229.131 100.707 229.298 100.685 229.463 100.685C229.568 100.685 229.689 100.697 229.825 100.723C229.963 100.747 230.096 100.798 230.224 100.874C230.353 100.951 230.46 101.067 230.545 101.222C230.631 101.376 230.673 101.584 230.673 101.844V104H230.17V103.557H230.145C230.111 103.628 230.054 103.704 229.974 103.785C229.895 103.866 229.789 103.935 229.657 103.991C229.525 104.048 229.364 104.077 229.173 104.077ZM229.25 103.625C229.449 103.625 229.616 103.586 229.753 103.508C229.891 103.43 229.994 103.329 230.064 103.205C230.135 103.082 230.17 102.952 230.17 102.815V102.355C230.149 102.381 230.102 102.404 230.03 102.425C229.959 102.445 229.876 102.463 229.783 102.479C229.69 102.493 229.6 102.506 229.512 102.517C229.425 102.527 229.355 102.536 229.301 102.543C229.17 102.56 229.048 102.587 228.935 102.626C228.822 102.663 228.732 102.719 228.662 102.794C228.594 102.868 228.56 102.969 228.56 103.097C228.56 103.271 228.624 103.403 228.754 103.493C228.884 103.581 229.05 103.625 229.25 103.625ZM232.094 99.6364V104H231.591V99.6364H232.094ZM233.015 104V100.727H233.518V104H233.015ZM233.271 100.182C233.173 100.182 233.088 100.148 233.017 100.082C232.947 100.015 232.913 99.9347 232.913 99.8409C232.913 99.7472 232.947 99.6669 233.017 99.6001C233.088 99.5334 233.173 99.5 233.271 99.5C233.369 99.5 233.452 99.5334 233.522 99.6001C233.593 99.6669 233.629 99.7472 233.629 99.8409C233.629 99.9347 233.593 100.015 233.522 100.082C233.452 100.148 233.369 100.182 233.271 100.182ZM235.675 104.068C235.402 104.068 235.161 103.999 234.952 103.862C234.743 103.722 234.58 103.526 234.462 103.273C234.344 103.019 234.285 102.719 234.285 102.372C234.285 102.028 234.344 101.73 234.462 101.477C234.58 101.224 234.744 101.029 234.954 100.891C235.165 100.754 235.407 100.685 235.683 100.685C235.896 100.685 236.064 100.72 236.188 100.791C236.313 100.861 236.408 100.94 236.474 101.03C236.54 101.118 236.592 101.19 236.629 101.247H236.672V99.6364H237.175V104H236.689V103.497H236.629C236.592 103.557 236.54 103.632 236.471 103.723C236.403 103.812 236.306 103.893 236.18 103.964C236.053 104.033 235.885 104.068 235.675 104.068ZM235.743 103.616C235.944 103.616 236.115 103.564 236.254 103.459C236.393 103.352 236.499 103.205 236.572 103.018C236.644 102.829 236.68 102.611 236.68 102.364C236.68 102.119 236.645 101.906 236.574 101.722C236.503 101.538 236.398 101.394 236.258 101.292C236.119 101.188 235.947 101.136 235.743 101.136C235.53 101.136 235.352 101.191 235.21 101.3C235.069 101.408 234.964 101.555 234.893 101.741C234.823 101.926 234.788 102.134 234.788 102.364C234.788 102.597 234.824 102.808 234.895 102.999C234.967 103.187 235.074 103.338 235.214 103.45C235.356 103.561 235.532 103.616 235.743 103.616ZM239.128 104.077C238.921 104.077 238.733 104.038 238.564 103.96C238.395 103.88 238.26 103.766 238.161 103.616C238.062 103.466 238.012 103.284 238.012 103.071C238.012 102.884 238.049 102.732 238.123 102.615C238.197 102.497 238.295 102.405 238.419 102.338C238.542 102.271 238.679 102.222 238.828 102.189C238.979 102.155 239.13 102.128 239.282 102.108C239.481 102.082 239.642 102.063 239.765 102.05C239.89 102.036 239.981 102.013 240.038 101.98C240.096 101.947 240.126 101.891 240.126 101.81V101.793C240.126 101.582 240.068 101.419 239.953 101.303C239.839 101.186 239.667 101.128 239.435 101.128C239.195 101.128 239.007 101.18 238.871 101.286C238.734 101.391 238.638 101.503 238.583 101.622L238.106 101.452C238.191 101.253 238.305 101.098 238.447 100.987C238.59 100.875 238.746 100.797 238.915 100.753C239.086 100.707 239.253 100.685 239.418 100.685C239.523 100.685 239.644 100.697 239.78 100.723C239.918 100.747 240.051 100.798 240.179 100.874C240.308 100.951 240.415 101.067 240.501 101.222C240.586 101.376 240.628 101.584 240.628 101.844V104H240.126V103.557H240.1C240.066 103.628 240.009 103.704 239.93 103.785C239.85 103.866 239.744 103.935 239.612 103.991C239.48 104.048 239.319 104.077 239.128 104.077ZM239.205 103.625C239.404 103.625 239.572 103.586 239.708 103.508C239.846 103.43 239.949 103.329 240.019 103.205C240.09 103.082 240.126 102.952 240.126 102.815V102.355C240.104 102.381 240.057 102.404 239.985 102.425C239.914 102.445 239.831 102.463 239.738 102.479C239.645 102.493 239.555 102.506 239.467 102.517C239.381 102.527 239.31 102.536 239.256 102.543C239.126 102.56 239.003 102.587 238.89 102.626C238.778 102.663 238.687 102.719 238.617 102.794C238.549 102.868 238.515 102.969 238.515 103.097C238.515 103.271 238.579 103.403 238.709 103.493C238.839 103.581 239.005 103.625 239.205 103.625ZM242.969 100.727V101.153H241.273V100.727H242.969ZM241.768 99.9432H242.271V103.062C242.271 103.205 242.291 103.311 242.332 103.382C242.375 103.452 242.429 103.499 242.494 103.523C242.561 103.545 242.631 103.557 242.705 103.557C242.761 103.557 242.806 103.554 242.842 103.548C242.877 103.541 242.906 103.536 242.927 103.531L243.029 103.983C242.995 103.996 242.947 104.009 242.886 104.021C242.825 104.036 242.748 104.043 242.654 104.043C242.512 104.043 242.373 104.012 242.237 103.951C242.102 103.89 241.989 103.797 241.9 103.672C241.812 103.547 241.768 103.389 241.768 103.199V99.9432ZM245.02 104.068C244.725 104.068 244.466 103.998 244.243 103.857C244.021 103.717 243.848 103.52 243.723 103.267C243.599 103.014 243.537 102.719 243.537 102.381C243.537 102.04 243.599 101.742 243.723 101.488C243.848 101.234 244.021 101.036 244.243 100.896C244.466 100.755 244.725 100.685 245.02 100.685C245.316 100.685 245.574 100.755 245.796 100.896C246.019 101.036 246.192 101.234 246.316 101.488C246.441 101.742 246.503 102.04 246.503 102.381C246.503 102.719 246.441 103.014 246.316 103.267C246.192 103.52 246.019 103.717 245.796 103.857C245.574 103.998 245.316 104.068 245.02 104.068ZM245.02 103.616C245.245 103.616 245.429 103.559 245.574 103.444C245.719 103.329 245.826 103.178 245.896 102.99C245.966 102.803 246 102.599 246 102.381C246 102.162 245.966 101.958 245.896 101.769C245.826 101.58 245.719 101.428 245.574 101.311C245.429 101.195 245.245 101.136 245.02 101.136C244.796 101.136 244.611 101.195 244.466 101.311C244.321 101.428 244.214 101.58 244.145 101.769C244.075 101.958 244.04 102.162 244.04 102.381C244.04 102.599 244.075 102.803 244.145 102.99C244.214 103.178 244.321 103.329 244.466 103.444C244.611 103.559 244.796 103.616 245.02 103.616ZM247.271 104V100.727H247.757V101.222H247.791C247.85 101.06 247.958 100.928 248.115 100.827C248.271 100.727 248.447 100.676 248.643 100.676C248.68 100.676 248.726 100.677 248.781 100.678C248.837 100.68 248.879 100.682 248.907 100.685V101.196C248.89 101.192 248.851 101.185 248.79 101.177C248.73 101.167 248.667 101.162 248.6 101.162C248.441 101.162 248.299 101.195 248.174 101.262C248.051 101.327 247.953 101.418 247.88 101.535C247.809 101.65 247.774 101.781 247.774 101.929V104H247.271ZM249.87 104.034C249.765 104.034 249.674 103.996 249.599 103.921C249.524 103.846 249.486 103.756 249.486 103.651C249.486 103.545 249.524 103.455 249.599 103.38C249.674 103.305 249.765 103.267 249.87 103.267C249.975 103.267 250.065 103.305 250.14 103.38C250.216 103.455 250.253 103.545 250.253 103.651C250.253 103.72 250.235 103.784 250.2 103.842C250.166 103.901 250.12 103.947 250.061 103.983C250.005 104.017 249.941 104.034 249.87 104.034ZM249.87 101.605C249.765 101.605 249.674 101.567 249.599 101.492C249.524 101.417 249.486 101.327 249.486 101.222C249.486 101.116 249.524 101.026 249.599 100.951C249.674 100.876 249.765 100.838 249.87 100.838C249.975 100.838 250.065 100.876 250.14 100.951C250.216 101.026 250.253 101.116 250.253 101.222C250.253 101.291 250.235 101.355 250.2 101.413C250.166 101.472 250.12 101.518 250.061 101.554C250.005 101.588 249.941 101.605 249.87 101.605ZM252.835 104V103.616L254.275 102.04C254.444 101.855 254.583 101.695 254.692 101.558C254.802 101.42 254.883 101.291 254.935 101.17C254.989 101.048 255.016 100.92 255.016 100.787C255.016 100.634 254.979 100.501 254.906 100.388C254.833 100.276 254.734 100.19 254.607 100.129C254.481 100.067 254.339 100.037 254.181 100.037C254.013 100.037 253.867 100.072 253.742 100.141C253.619 100.21 253.523 100.305 253.455 100.429C253.388 100.553 253.354 100.697 253.354 100.864H252.852C252.852 100.608 252.911 100.384 253.028 100.19C253.146 99.9972 253.307 99.8466 253.51 99.7386C253.714 99.6307 253.944 99.5767 254.198 99.5767C254.454 99.5767 254.68 99.6307 254.878 99.7386C255.075 99.8466 255.23 99.9922 255.342 100.175C255.455 100.359 255.511 100.562 255.511 100.787C255.511 100.947 255.482 101.104 255.423 101.258C255.366 101.41 255.267 101.58 255.125 101.767C254.984 101.953 254.789 102.18 254.539 102.449L253.559 103.497V103.531H255.587V104H252.835ZM258.342 101.818C258.342 101.281 258.412 100.788 258.551 100.337C258.692 99.8857 258.892 99.4702 259.152 99.0909H259.595C259.493 99.2315 259.397 99.4048 259.308 99.6108C259.219 99.8153 259.142 100.04 259.075 100.286C259.009 100.531 258.956 100.783 258.918 101.045C258.881 101.306 258.862 101.564 258.862 101.818C258.862 102.156 258.895 102.499 258.96 102.847C259.026 103.195 259.114 103.518 259.224 103.817C259.335 104.115 259.459 104.358 259.595 104.545H259.152C258.892 104.166 258.692 103.751 258.551 103.301C258.412 102.849 258.342 102.355 258.342 101.818ZM261.863 99.6364V104H261.334V100.19H261.309L260.243 100.898V100.361L261.334 99.6364H261.863ZM263.015 103.105V102.67L264.933 99.6364H265.248V100.31H265.035L263.586 102.602V102.636H266.169V103.105H263.015ZM265.069 104V102.973V102.771V99.6364H265.572V104H265.069ZM267.137 104.034C267.032 104.034 266.942 103.996 266.867 103.921C266.791 103.846 266.754 103.756 266.754 103.651C266.754 103.545 266.791 103.455 266.867 103.38C266.942 103.305 267.032 103.267 267.137 103.267C267.242 103.267 267.333 103.305 267.408 103.38C267.483 103.455 267.521 103.545 267.521 103.651C267.521 103.72 267.503 103.784 267.468 103.842C267.433 103.901 267.387 103.947 267.329 103.983C267.272 104.017 267.208 104.034 267.137 104.034ZM268.463 104L270.415 100.139V100.105H268.165V99.6364H270.96V100.131L269.017 104H268.463ZM273.129 104.06C272.848 104.06 272.597 104.011 272.377 103.915C272.158 103.818 271.984 103.684 271.855 103.512C271.727 103.339 271.658 103.138 271.646 102.909H272.183C272.195 103.05 272.243 103.171 272.328 103.273C272.413 103.374 272.525 103.452 272.663 103.508C272.8 103.563 272.953 103.591 273.121 103.591C273.308 103.591 273.474 103.558 273.619 103.493C273.764 103.428 273.878 103.337 273.96 103.22C274.043 103.104 274.084 102.969 274.084 102.815C274.084 102.655 274.044 102.513 273.964 102.391C273.885 102.268 273.768 102.171 273.615 102.102C273.462 102.032 273.274 101.997 273.053 101.997H272.703V101.528H273.053C273.226 101.528 273.378 101.497 273.509 101.435C273.641 101.372 273.744 101.284 273.817 101.17C273.893 101.057 273.93 100.923 273.93 100.77C273.93 100.622 273.898 100.494 273.832 100.384C273.767 100.275 273.675 100.19 273.555 100.129C273.438 100.067 273.298 100.037 273.138 100.037C272.987 100.037 272.845 100.065 272.712 100.12C272.58 100.174 272.472 100.253 272.388 100.357C272.304 100.459 272.259 100.582 272.251 100.727H271.74C271.749 100.499 271.817 100.298 271.947 100.126C272.076 99.9531 272.245 99.8182 272.454 99.7216C272.664 99.625 272.895 99.5767 273.146 99.5767C273.416 99.5767 273.648 99.6314 273.841 99.7408C274.034 99.8487 274.183 99.9915 274.286 100.169C274.39 100.347 274.442 100.538 274.442 100.744C274.442 100.99 274.377 101.2 274.248 101.373C274.12 101.546 273.946 101.666 273.726 101.733V101.767C274.001 101.812 274.217 101.93 274.371 102.119C274.526 102.306 274.604 102.538 274.604 102.815C274.604 103.053 274.539 103.266 274.41 103.455C274.282 103.642 274.107 103.79 273.886 103.898C273.664 104.006 273.412 104.06 273.129 104.06ZM277.009 99.6364V104H276.481V100.19H276.455L275.39 100.898V100.361L276.481 99.6364H277.009ZM279.662 104.06C279.369 104.06 279.111 104.008 278.886 103.904C278.663 103.799 278.489 103.655 278.364 103.472C278.239 103.287 278.178 103.077 278.179 102.841C278.178 102.656 278.214 102.486 278.288 102.33C278.362 102.172 278.462 102.04 278.59 101.935C278.719 101.829 278.864 101.761 279.023 101.733V101.707C278.814 101.653 278.648 101.536 278.524 101.356C278.401 101.174 278.339 100.967 278.341 100.736C278.339 100.514 278.396 100.316 278.509 100.141C278.623 99.9666 278.779 99.8288 278.978 99.728C279.178 99.6271 279.406 99.5767 279.662 99.5767C279.915 99.5767 280.141 99.6271 280.339 99.728C280.538 99.8288 280.695 99.9666 280.808 100.141C280.923 100.316 280.982 100.514 280.983 100.736C280.982 100.967 280.918 101.174 280.793 101.356C280.67 101.536 280.506 101.653 280.301 101.707V101.733C280.459 101.761 280.601 101.829 280.727 101.935C280.854 102.04 280.955 102.172 281.03 102.33C281.105 102.486 281.143 102.656 281.145 102.841C281.143 103.077 281.08 103.287 280.953 103.472C280.828 103.655 280.654 103.799 280.431 103.904C280.21 104.008 279.953 104.06 279.662 104.06ZM279.662 103.591C279.859 103.591 280.03 103.559 280.173 103.495C280.317 103.431 280.428 103.341 280.506 103.224C280.584 103.108 280.624 102.972 280.625 102.815C280.624 102.651 280.581 102.505 280.497 102.379C280.413 102.252 280.299 102.153 280.154 102.08C280.011 102.008 279.847 101.972 279.662 101.972C279.476 101.972 279.31 102.008 279.163 102.08C279.018 102.153 278.904 102.252 278.82 102.379C278.738 102.505 278.697 102.651 278.699 102.815C278.697 102.972 278.735 103.108 278.812 103.224C278.89 103.341 279.001 103.431 279.146 103.495C279.291 103.559 279.463 103.591 279.662 103.591ZM279.662 101.52C279.818 101.52 279.957 101.489 280.077 101.426C280.2 101.364 280.295 101.276 280.365 101.164C280.435 101.052 280.47 100.92 280.472 100.77C280.47 100.622 280.435 100.494 280.367 100.384C280.299 100.273 280.205 100.188 280.084 100.129C279.963 100.067 279.822 100.037 279.662 100.037C279.499 100.037 279.356 100.067 279.234 100.129C279.112 100.188 279.017 100.273 278.95 100.384C278.884 100.494 278.851 100.622 278.852 100.77C278.851 100.92 278.884 101.052 278.952 101.164C279.022 101.276 279.118 101.364 279.24 101.426C279.362 101.489 279.503 101.52 279.662 101.52ZM284.186 103.182V102.952C284.186 102.793 284.219 102.647 284.284 102.515C284.351 102.381 284.447 102.275 284.574 102.195C284.702 102.114 284.856 102.074 285.038 102.074C285.223 102.074 285.378 102.114 285.503 102.195C285.628 102.275 285.722 102.381 285.786 102.515C285.85 102.647 285.882 102.793 285.882 102.952V103.182C285.882 103.341 285.849 103.487 285.784 103.621C285.72 103.753 285.625 103.859 285.498 103.94C285.373 104.02 285.22 104.06 285.038 104.06C284.854 104.06 284.698 104.02 284.572 103.94C284.445 103.859 284.349 103.753 284.284 103.621C284.219 103.487 284.186 103.341 284.186 103.182ZM284.621 102.952V103.182C284.621 103.314 284.652 103.433 284.714 103.538C284.777 103.641 284.885 103.693 285.038 103.693C285.187 103.693 285.292 103.641 285.354 103.538C285.416 103.433 285.447 103.314 285.447 103.182V102.952C285.447 102.82 285.417 102.702 285.358 102.598C285.298 102.493 285.192 102.44 285.038 102.44C284.889 102.44 284.782 102.493 284.716 102.598C284.653 102.702 284.621 102.82 284.621 102.952ZM282.013 100.685V100.455C282.013 100.295 282.045 100.15 282.111 100.018C282.177 99.8842 282.274 99.7777 282.4 99.6982C282.528 99.6172 282.683 99.5767 282.865 99.5767C283.05 99.5767 283.204 99.6172 283.329 99.6982C283.454 99.7777 283.549 99.8842 283.613 100.018C283.677 100.15 283.709 100.295 283.709 100.455V100.685C283.709 100.844 283.676 100.99 283.611 101.124C283.547 101.256 283.452 101.362 283.325 101.443C283.2 101.523 283.047 101.562 282.865 101.562C282.68 101.562 282.525 101.523 282.398 101.443C282.272 101.362 282.176 101.256 282.111 101.124C282.045 100.99 282.013 100.844 282.013 100.685ZM282.447 100.455V100.685C282.447 100.817 282.479 100.935 282.541 101.04C282.604 101.144 282.711 101.196 282.865 101.196C283.014 101.196 283.119 101.144 283.18 101.04C283.243 100.935 283.274 100.817 283.274 100.685V100.455C283.274 100.322 283.244 100.205 283.184 100.101C283.125 99.9957 283.018 99.9432 282.865 99.9432C282.716 99.9432 282.608 99.9957 282.543 100.101C282.479 100.205 282.447 100.322 282.447 100.455ZM282.175 104L285.175 99.6364H285.66L282.66 104H282.175ZM287.919 101.818C287.919 102.355 287.849 102.849 287.708 103.301C287.569 103.751 287.369 104.166 287.109 104.545H286.666C286.768 104.405 286.863 104.232 286.952 104.026C287.041 103.821 287.119 103.597 287.186 103.352C287.253 103.107 287.305 102.853 287.341 102.592C287.38 102.329 287.399 102.071 287.399 101.818C287.399 101.48 287.366 101.137 287.301 100.789C287.236 100.441 287.148 100.118 287.037 99.8196C286.926 99.5213 286.802 99.2784 286.666 99.0909H287.109C287.369 99.4702 287.569 99.8857 287.708 100.337C287.849 100.788 287.919 101.281 287.919 101.818Z" fill="#6C757D"/>
<path d="M39.7074 109.636L41.0028 113.31H41.054L42.3494 109.636H42.9034L41.3011 114H40.7557L39.1534 109.636H39.7074ZM44.1733 114.077C43.9659 114.077 43.7777 114.038 43.6087 113.96C43.4396 113.88 43.3054 113.766 43.206 113.616C43.1065 113.466 43.0568 113.284 43.0568 113.071C43.0568 112.884 43.0938 112.732 43.1676 112.615C43.2415 112.497 43.3402 112.405 43.4638 112.338C43.5874 112.271 43.7237 112.222 43.8729 112.189C44.0234 112.155 44.1747 112.128 44.3267 112.108C44.5256 112.082 44.6868 112.063 44.8104 112.05C44.9354 112.036 45.0263 112.013 45.0831 111.98C45.1413 111.947 45.1705 111.891 45.1705 111.81V111.793C45.1705 111.582 45.1129 111.419 44.9979 111.303C44.8842 111.186 44.7116 111.128 44.4801 111.128C44.2401 111.128 44.0518 111.18 43.9155 111.286C43.7791 111.391 43.6832 111.503 43.6278 111.622L43.1506 111.452C43.2358 111.253 43.3494 111.098 43.4915 110.987C43.6349 110.875 43.7912 110.797 43.9602 110.753C44.1307 110.707 44.2983 110.685 44.4631 110.685C44.5682 110.685 44.6889 110.697 44.8253 110.723C44.9631 110.747 45.0959 110.798 45.2237 110.874C45.353 110.951 45.4602 111.067 45.5455 111.222C45.6307 111.376 45.6733 111.584 45.6733 111.844V114H45.1705V113.557H45.1449C45.1108 113.628 45.054 113.704 44.9744 113.785C44.8949 113.866 44.7891 113.935 44.657 113.991C44.5249 114.048 44.3636 114.077 44.1733 114.077ZM44.25 113.625C44.4489 113.625 44.6165 113.586 44.7528 113.508C44.8906 113.43 44.9943 113.329 45.0639 113.205C45.1349 113.082 45.1705 112.952 45.1705 112.815V112.355C45.1491 112.381 45.1023 112.404 45.0298 112.425C44.9588 112.445 44.8764 112.463 44.7827 112.479C44.6903 112.493 44.6001 112.506 44.5121 112.517C44.4254 112.527 44.3551 112.536 44.3011 112.543C44.1705 112.56 44.0483 112.587 43.9347 112.626C43.8224 112.663 43.7315 112.719 43.6619 112.794C43.5938 112.868 43.5597 112.969 43.5597 113.097C43.5597 113.271 43.6243 113.403 43.7536 113.493C43.8842 113.581 44.0497 113.625 44.25 113.625ZM47.0939 109.636V114H46.5911V109.636H47.0939ZM48.0149 114V110.727H48.5178V114H48.0149ZM48.2706 110.182C48.1726 110.182 48.0881 110.148 48.017 110.082C47.9474 110.015 47.9126 109.935 47.9126 109.841C47.9126 109.747 47.9474 109.667 48.017 109.6C48.0881 109.533 48.1726 109.5 48.2706 109.5C48.3686 109.5 48.4524 109.533 48.522 109.6C48.593 109.667 48.6286 109.747 48.6286 109.841C48.6286 109.935 48.593 110.015 48.522 110.082C48.4524 110.148 48.3686 110.182 48.2706 110.182ZM50.6745 114.068C50.4018 114.068 50.161 113.999 49.9522 113.862C49.7434 113.722 49.5801 113.526 49.4622 113.273C49.3443 113.019 49.2853 112.719 49.2853 112.372C49.2853 112.028 49.3443 111.73 49.4622 111.477C49.5801 111.224 49.7441 111.029 49.9544 110.891C50.1646 110.754 50.4075 110.685 50.6831 110.685C50.8961 110.685 51.0645 110.72 51.188 110.791C51.313 110.861 51.4082 110.94 51.4735 111.03C51.5403 111.118 51.5922 111.19 51.6291 111.247H51.6717V109.636H52.1745V114H51.6887V113.497H51.6291C51.5922 113.557 51.5396 113.632 51.4714 113.723C51.4032 113.812 51.3059 113.893 51.1795 113.964C51.0531 114.033 50.8848 114.068 50.6745 114.068ZM50.7427 113.616C50.9444 113.616 51.1149 113.564 51.2541 113.459C51.3933 113.352 51.4991 113.205 51.5716 113.018C51.644 112.829 51.6802 112.611 51.6802 112.364C51.6802 112.119 51.6447 111.906 51.5737 111.722C51.5027 111.538 51.3975 111.394 51.2583 111.292C51.1191 111.188 50.9473 111.136 50.7427 111.136C50.5297 111.136 50.3521 111.191 50.21 111.3C50.0694 111.408 49.9636 111.555 49.8926 111.741C49.823 111.926 49.7882 112.134 49.7882 112.364C49.7882 112.597 49.8237 112.808 49.8947 112.999C49.9672 113.187 50.0737 113.338 50.2143 113.45C50.3564 113.561 50.5325 113.616 50.7427 113.616ZM54.1284 114.077C53.921 114.077 53.7328 114.038 53.5637 113.96C53.3947 113.88 53.2605 113.766 53.161 113.616C53.0616 113.466 53.0119 113.284 53.0119 113.071C53.0119 112.884 53.0488 112.732 53.1227 112.615C53.1966 112.497 53.2953 112.405 53.4189 112.338C53.5424 112.271 53.6788 112.222 53.8279 112.189C53.9785 112.155 54.1298 112.128 54.2818 112.108C54.4806 112.082 54.6419 112.063 54.7654 112.05C54.8904 112.036 54.9814 112.013 55.0382 111.98C55.0964 111.947 55.1255 111.891 55.1255 111.81V111.793C55.1255 111.582 55.068 111.419 54.9529 111.303C54.8393 111.186 54.6667 111.128 54.4352 111.128C54.1951 111.128 54.0069 111.18 53.8706 111.286C53.7342 111.391 53.6383 111.503 53.5829 111.622L53.1056 111.452C53.1909 111.253 53.3045 111.098 53.4466 110.987C53.59 110.875 53.7463 110.797 53.9153 110.753C54.0858 110.707 54.2534 110.685 54.4181 110.685C54.5233 110.685 54.644 110.697 54.7804 110.723C54.9181 110.747 55.051 110.798 55.1788 110.874C55.3081 110.951 55.4153 111.067 55.5005 111.222C55.5858 111.376 55.6284 111.584 55.6284 111.844V114H55.1255V113.557H55.1C55.0659 113.628 55.0091 113.704 54.9295 113.785C54.85 113.866 54.7441 113.935 54.612 113.991C54.4799 114.048 54.3187 114.077 54.1284 114.077ZM54.2051 113.625C54.4039 113.625 54.5716 113.586 54.7079 113.508C54.8457 113.43 54.9494 113.329 55.019 113.205C55.09 113.082 55.1255 112.952 55.1255 112.815V112.355C55.1042 112.381 55.0574 112.404 54.9849 112.425C54.9139 112.445 54.8315 112.463 54.7377 112.479C54.6454 112.493 54.5552 112.506 54.4672 112.517C54.3805 112.527 54.3102 112.536 54.2562 112.543C54.1255 112.56 54.0034 112.587 53.8897 112.626C53.7775 112.663 53.6866 112.719 53.617 112.794C53.5488 112.868 53.5147 112.969 53.5147 113.097C53.5147 113.271 53.5794 113.403 53.7086 113.493C53.8393 113.581 54.0048 113.625 54.2051 113.625ZM57.9695 110.727V111.153H56.2734V110.727H57.9695ZM56.7678 109.943H57.2706V113.062C57.2706 113.205 57.2912 113.311 57.3324 113.382C57.375 113.452 57.429 113.499 57.4943 113.523C57.5611 113.545 57.6314 113.557 57.7053 113.557C57.7607 113.557 57.8061 113.554 57.8416 113.548C57.8771 113.541 57.9055 113.536 57.9268 113.531L58.0291 113.983C57.995 113.996 57.9474 114.009 57.8864 114.021C57.8253 114.036 57.7479 114.043 57.6541 114.043C57.5121 114.043 57.3729 114.012 57.2365 113.951C57.1016 113.89 56.9893 113.797 56.8999 113.672C56.8118 113.547 56.7678 113.389 56.7678 113.199V109.943ZM60.0202 114.068C59.7248 114.068 59.4656 113.998 59.2425 113.857C59.021 113.717 58.8477 113.52 58.7227 113.267C58.5991 113.014 58.5373 112.719 58.5373 112.381C58.5373 112.04 58.5991 111.742 58.7227 111.488C58.8477 111.234 59.021 111.036 59.2425 110.896C59.4656 110.755 59.7248 110.685 60.0202 110.685C60.3157 110.685 60.5742 110.755 60.7958 110.896C61.0188 111.036 61.1921 111.234 61.3157 111.488C61.4407 111.742 61.5032 112.04 61.5032 112.381C61.5032 112.719 61.4407 113.014 61.3157 113.267C61.1921 113.52 61.0188 113.717 60.7958 113.857C60.5742 113.998 60.3157 114.068 60.0202 114.068ZM60.0202 113.616C60.2447 113.616 60.4293 113.559 60.5742 113.444C60.7191 113.329 60.8263 113.178 60.896 112.99C60.9656 112.803 61.0004 112.599 61.0004 112.381C61.0004 112.162 60.9656 111.958 60.896 111.769C60.8263 111.58 60.7191 111.428 60.5742 111.311C60.4293 111.195 60.2447 111.136 60.0202 111.136C59.7958 111.136 59.6112 111.195 59.4663 111.311C59.3214 111.428 59.2141 111.58 59.1445 111.769C59.0749 111.958 59.0401 112.162 59.0401 112.381C59.0401 112.599 59.0749 112.803 59.1445 112.99C59.2141 113.178 59.3214 113.329 59.4663 113.444C59.6112 113.559 59.7958 113.616 60.0202 113.616ZM62.2708 114V110.727H62.7566V111.222H62.7907C62.8503 111.06 62.9583 110.928 63.1145 110.827C63.2708 110.727 63.4469 110.676 63.6429 110.676C63.6799 110.676 63.726 110.677 63.7814 110.678C63.8368 110.68 63.8787 110.682 63.9071 110.685V111.196C63.8901 111.192 63.851 111.185 63.79 111.177C63.7303 111.167 63.6671 111.162 63.6003 111.162C63.4412 111.162 63.2992 111.195 63.1742 111.262C63.0506 111.327 62.9526 111.418 62.8801 111.535C62.8091 111.65 62.7736 111.781 62.7736 111.929V114H62.2708ZM64.8697 114.034C64.7646 114.034 64.6744 113.996 64.5991 113.921C64.5238 113.846 64.4862 113.756 64.4862 113.651C64.4862 113.545 64.5238 113.455 64.5991 113.38C64.6744 113.305 64.7646 113.267 64.8697 113.267C64.9748 113.267 65.065 113.305 65.1403 113.38C65.2156 113.455 65.2532 113.545 65.2532 113.651C65.2532 113.72 65.2354 113.784 65.1999 113.842C65.1658 113.901 65.1197 113.947 65.0614 113.983C65.0046 114.017 64.9407 114.034 64.8697 114.034ZM64.8697 111.605C64.7646 111.605 64.6744 111.567 64.5991 111.492C64.5238 111.417 64.4862 111.327 64.4862 111.222C64.4862 111.116 64.5238 111.026 64.5991 110.951C64.6744 110.876 64.7646 110.838 64.8697 110.838C64.9748 110.838 65.065 110.876 65.1403 110.951C65.2156 111.026 65.2532 111.116 65.2532 111.222C65.2532 111.291 65.2354 111.355 65.1999 111.413C65.1658 111.472 65.1197 111.518 65.0614 111.554C65.0046 111.588 64.9407 111.605 64.8697 111.605ZM69.3089 114.06C69.0277 114.06 68.777 114.011 68.5568 113.915C68.3381 113.818 68.1641 113.684 68.0348 113.512C67.907 113.339 67.8374 113.138 67.826 112.909H68.3629C68.3743 113.05 68.4226 113.171 68.5078 113.273C68.593 113.374 68.7045 113.452 68.8423 113.508C68.9801 113.563 69.1328 113.591 69.3004 113.591C69.4879 113.591 69.6541 113.558 69.799 113.493C69.9439 113.428 70.0575 113.337 70.1399 113.22C70.2223 113.104 70.2635 112.969 70.2635 112.815C70.2635 112.655 70.2237 112.513 70.1442 112.391C70.0646 112.268 69.9482 112.171 69.7947 112.102C69.6413 112.032 69.4538 111.997 69.2322 111.997H68.8828V111.528H69.2322C69.4055 111.528 69.5575 111.497 69.6882 111.435C69.8203 111.372 69.9233 111.284 69.9972 111.17C70.0724 111.057 70.1101 110.923 70.1101 110.77C70.1101 110.622 70.0774 110.494 70.0121 110.384C69.9467 110.275 69.8544 110.19 69.7351 110.129C69.6172 110.067 69.478 110.037 69.3175 110.037C69.1669 110.037 69.0249 110.065 68.8913 110.12C68.7592 110.174 68.6513 110.253 68.5675 110.357C68.4837 110.459 68.4382 110.582 68.4311 110.727H67.9197C67.9283 110.499 67.9972 110.298 68.1264 110.126C68.2557 109.953 68.4247 109.818 68.6335 109.722C68.8438 109.625 69.0746 109.577 69.326 109.577C69.5959 109.577 69.8274 109.631 70.0206 109.741C70.2138 109.849 70.3622 109.991 70.4659 110.169C70.5696 110.347 70.6214 110.538 70.6214 110.744C70.6214 110.99 70.5568 111.2 70.4276 111.373C70.2997 111.546 70.1257 111.666 69.9055 111.733V111.767C70.1811 111.812 70.3963 111.93 70.5511 112.119C70.706 112.306 70.7834 112.538 70.7834 112.815C70.7834 113.053 70.7188 113.266 70.5895 113.455C70.4616 113.642 70.2869 113.79 70.0653 113.898C69.8438 114.006 69.5916 114.06 69.3089 114.06ZM73.5298 111.818C73.5298 111.281 73.5994 110.788 73.7386 110.337C73.8793 109.886 74.0795 109.47 74.3395 109.091H74.7827C74.6804 109.232 74.5845 109.405 74.495 109.611C74.407 109.815 74.3295 110.04 74.2628 110.286C74.196 110.531 74.1435 110.783 74.1051 111.045C74.0682 111.306 74.0497 111.564 74.0497 111.818C74.0497 112.156 74.0824 112.499 74.1477 112.847C74.2131 113.195 74.3011 113.518 74.4119 113.817C74.5227 114.115 74.6463 114.358 74.7827 114.545H74.3395C74.0795 114.166 73.8793 113.751 73.7386 113.301C73.5994 112.849 73.5298 112.355 73.5298 111.818ZM75.5162 114V113.616L76.9565 112.04C77.1255 111.855 77.2647 111.695 77.3741 111.558C77.4835 111.42 77.5645 111.291 77.617 111.17C77.671 111.048 77.698 110.92 77.698 110.787C77.698 110.634 77.661 110.501 77.5872 110.388C77.5147 110.276 77.4153 110.19 77.2889 110.129C77.1625 110.067 77.0204 110.037 76.8627 110.037C76.6951 110.037 76.5488 110.072 76.4238 110.141C76.3002 110.21 76.2044 110.305 76.1362 110.429C76.0694 110.553 76.036 110.697 76.036 110.864H75.5332C75.5332 110.608 75.5922 110.384 75.71 110.19C75.8279 109.997 75.9885 109.847 76.1916 109.739C76.3961 109.631 76.6255 109.577 76.8798 109.577C77.1355 109.577 77.362 109.631 77.5595 109.739C77.7569 109.847 77.9118 109.992 78.024 110.175C78.1362 110.359 78.1923 110.562 78.1923 110.787C78.1923 110.947 78.1632 111.104 78.1049 111.258C78.0481 111.41 77.9487 111.58 77.8066 111.767C77.666 111.953 77.4707 112.18 77.2207 112.449L76.2406 113.497V113.531H78.269V114H75.5162ZM80.5126 114.06C80.2626 114.06 80.0375 114.01 79.8372 113.911C79.6369 113.811 79.4764 113.675 79.3556 113.501C79.2349 113.328 79.1689 113.131 79.1575 112.909H79.6689C79.6887 113.107 79.7782 113.27 79.9373 113.399C80.0978 113.527 80.2896 113.591 80.5126 113.591C80.6916 113.591 80.8507 113.549 80.9899 113.465C81.1305 113.381 81.2406 113.266 81.3201 113.12C81.4011 112.972 81.4416 112.805 81.4416 112.619C81.4416 112.429 81.3997 112.259 81.3159 112.11C81.2335 111.96 81.1199 111.841 80.975 111.754C80.8301 111.668 80.6646 111.624 80.4785 111.622C80.345 111.621 80.2079 111.641 80.0673 111.684C79.9267 111.725 79.8109 111.778 79.72 111.844L79.2257 111.784L79.4899 109.636H81.7569V110.105H79.9331L79.7797 111.392H79.8052C79.8947 111.321 80.0069 111.262 80.1419 111.215C80.2768 111.168 80.4174 111.145 80.5637 111.145C80.8308 111.145 81.0687 111.209 81.2775 111.337C81.4877 111.463 81.6525 111.636 81.7718 111.857C81.8926 112.077 81.9529 112.328 81.9529 112.611C81.9529 112.889 81.8904 113.138 81.7654 113.357C81.6419 113.574 81.4714 113.746 81.2541 113.872C81.0368 113.997 80.7896 114.06 80.5126 114.06ZM83.0103 114.034C82.9052 114.034 82.815 113.996 82.7397 113.921C82.6644 113.846 82.6268 113.756 82.6268 113.651C82.6268 113.545 82.6644 113.455 82.7397 113.38C82.815 113.305 82.9052 113.267 83.0103 113.267C83.1154 113.267 83.2056 113.305 83.2809 113.38C83.3562 113.455 83.3938 113.545 83.3938 113.651C83.3938 113.72 83.3761 113.784 83.3406 113.842C83.3065 113.901 83.2603 113.947 83.2021 113.983C83.1452 114.017 83.0813 114.034 83.0103 114.034ZM84.2876 114V113.616L85.728 112.04C85.897 111.855 86.0362 111.695 86.1456 111.558C86.255 111.42 86.3359 111.291 86.3885 111.17C86.4425 111.048 86.4695 110.92 86.4695 110.787C86.4695 110.634 86.4325 110.501 86.3587 110.388C86.2862 110.276 86.1868 110.19 86.0604 110.129C85.9339 110.067 85.7919 110.037 85.6342 110.037C85.4666 110.037 85.3203 110.072 85.1953 110.141C85.0717 110.21 84.9759 110.305 84.9077 110.429C84.8409 110.553 84.8075 110.697 84.8075 110.864H84.3047C84.3047 110.608 84.3636 110.384 84.4815 110.19C84.5994 109.997 84.7599 109.847 84.9631 109.739C85.1676 109.631 85.397 109.577 85.6513 109.577C85.907 109.577 86.1335 109.631 86.331 109.739C86.5284 109.847 86.6832 109.992 86.7955 110.175C86.9077 110.359 86.9638 110.562 86.9638 110.787C86.9638 110.947 86.9347 111.104 86.8764 111.258C86.8196 111.41 86.7202 111.58 86.5781 111.767C86.4375 111.953 86.2422 112.18 85.9922 112.449L85.0121 113.497V113.531H87.0405V114H84.2876ZM89.4545 109.636V114H88.9261V110.19H88.9006L87.8352 110.898V110.361L88.9261 109.636H89.4545ZM92.1839 114.06C91.9027 114.06 91.652 114.011 91.4318 113.915C91.2131 113.818 91.0391 113.684 90.9098 113.512C90.782 113.339 90.7124 113.138 90.701 112.909H91.2379C91.2493 113.05 91.2976 113.171 91.3828 113.273C91.468 113.374 91.5795 113.452 91.7173 113.508C91.8551 113.563 92.0078 113.591 92.1754 113.591C92.3629 113.591 92.5291 113.558 92.674 113.493C92.8189 113.428 92.9325 113.337 93.0149 113.22C93.0973 113.104 93.1385 112.969 93.1385 112.815C93.1385 112.655 93.0987 112.513 93.0192 112.391C92.9396 112.268 92.8232 112.171 92.6697 112.102C92.5163 112.032 92.3288 111.997 92.1072 111.997H91.7578V111.528H92.1072C92.2805 111.528 92.4325 111.497 92.5632 111.435C92.6953 111.372 92.7983 111.284 92.8722 111.17C92.9474 111.057 92.9851 110.923 92.9851 110.77C92.9851 110.622 92.9524 110.494 92.8871 110.384C92.8217 110.275 92.7294 110.19 92.6101 110.129C92.4922 110.067 92.353 110.037 92.1925 110.037C92.0419 110.037 91.8999 110.065 91.7663 110.12C91.6342 110.174 91.5263 110.253 91.4425 110.357C91.3587 110.459 91.3132 110.582 91.3061 110.727H90.7947C90.8033 110.499 90.8722 110.298 91.0014 110.126C91.1307 109.953 91.2997 109.818 91.5085 109.722C91.7188 109.625 91.9496 109.577 92.201 109.577C92.4709 109.577 92.7024 109.631 92.8956 109.741C93.0888 109.849 93.2372 109.991 93.3409 110.169C93.4446 110.347 93.4964 110.538 93.4964 110.744C93.4964 110.99 93.4318 111.2 93.3026 111.373C93.1747 111.546 93.0007 111.666 92.7805 111.733V111.767C93.0561 111.812 93.2713 111.93 93.4261 112.119C93.581 112.306 93.6584 112.538 93.6584 112.815C93.6584 113.053 93.5938 113.266 93.4645 113.455C93.3366 113.642 93.1619 113.79 92.9403 113.898C92.7188 114.006 92.4666 114.06 92.1839 114.06ZM96.7543 113.182V112.952C96.7543 112.793 96.7869 112.647 96.8523 112.515C96.919 112.381 97.0156 112.275 97.142 112.195C97.2699 112.114 97.4247 112.074 97.6065 112.074C97.7912 112.074 97.946 112.114 98.071 112.195C98.196 112.275 98.2905 112.381 98.3544 112.515C98.4183 112.647 98.4503 112.793 98.4503 112.952V113.182C98.4503 113.341 98.4176 113.487 98.3523 113.621C98.2884 113.753 98.1932 113.859 98.0668 113.94C97.9418 114.02 97.7884 114.06 97.6065 114.06C97.4219 114.06 97.2663 114.02 97.1399 113.94C97.0135 113.859 96.9176 113.753 96.8523 113.621C96.7869 113.487 96.7543 113.341 96.7543 113.182ZM97.1889 112.952V113.182C97.1889 113.314 97.2202 113.433 97.2827 113.538C97.3452 113.641 97.4531 113.693 97.6065 113.693C97.7557 113.693 97.8608 113.641 97.9219 113.538C97.9844 113.433 98.0156 113.314 98.0156 113.182V112.952C98.0156 112.82 97.9858 112.702 97.9261 112.598C97.8665 112.493 97.7599 112.44 97.6065 112.44C97.4574 112.44 97.3501 112.493 97.2848 112.598C97.2209 112.702 97.1889 112.82 97.1889 112.952ZM94.581 110.685V110.455C94.581 110.295 94.6136 110.15 94.679 110.018C94.7457 109.884 94.8423 109.778 94.9688 109.698C95.0966 109.617 95.2514 109.577 95.4332 109.577C95.6179 109.577 95.7727 109.617 95.8977 109.698C96.0227 109.778 96.1172 109.884 96.1811 110.018C96.245 110.15 96.277 110.295 96.277 110.455V110.685C96.277 110.844 96.2443 110.99 96.179 111.124C96.1151 111.256 96.0199 111.362 95.8935 111.443C95.7685 111.523 95.6151 111.562 95.4332 111.562C95.2486 111.562 95.093 111.523 94.9666 111.443C94.8402 111.362 94.7443 111.256 94.679 111.124C94.6136 110.99 94.581 110.844 94.581 110.685ZM95.0156 110.455V110.685C95.0156 110.817 95.0469 110.935 95.1094 111.04C95.1719 111.144 95.2798 111.196 95.4332 111.196C95.5824 111.196 95.6875 111.144 95.7486 111.04C95.8111 110.935 95.8423 110.817 95.8423 110.685V110.455C95.8423 110.322 95.8125 110.205 95.7528 110.101C95.6932 109.996 95.5866 109.943 95.4332 109.943C95.2841 109.943 95.1768 109.996 95.1115 110.101C95.0476 110.205 95.0156 110.322 95.0156 110.455ZM94.7429 114L97.7429 109.636H98.2287L95.2287 114H94.7429ZM100.487 111.818C100.487 112.355 100.417 112.849 100.276 113.301C100.137 113.751 99.9375 114.166 99.6776 114.545H99.2344C99.3366 114.405 99.4318 114.232 99.5199 114.026C99.6094 113.821 99.6875 113.597 99.7543 113.352C99.821 113.107 99.8729 112.853 99.9098 112.592C99.9482 112.329 99.9673 112.071 99.9673 111.818C99.9673 111.48 99.9347 111.137 99.8693 110.789C99.804 110.441 99.7159 110.118 99.6051 109.82C99.4943 109.521 99.3707 109.278 99.2344 109.091H99.6776C99.9375 109.47 100.137 109.886 100.276 110.337C100.417 110.788 100.487 111.281 100.487 111.818Z" fill="#6C757D"/>
<path d="M27.7074 14.6364L29.0028 18.3097H29.054L30.3494 14.6364H30.9034L29.3011 19H28.7557L27.1534 14.6364H27.7074ZM32.1733 19.0767C31.9659 19.0767 31.7777 19.0376 31.6087 18.9595C31.4396 18.88 31.3054 18.7656 31.206 18.6165C31.1065 18.4659 31.0568 18.2841 31.0568 18.071C31.0568 17.8835 31.0938 17.7315 31.1676 17.6151C31.2415 17.4972 31.3402 17.4048 31.4638 17.3381C31.5874 17.2713 31.7237 17.2216 31.8729 17.1889C32.0234 17.1548 32.1747 17.1278 32.3267 17.108C32.5256 17.0824 32.6868 17.0632 32.8104 17.0504C32.9354 17.0362 33.0263 17.0128 33.0831 16.9801C33.1413 16.9474 33.1705 16.8906 33.1705 16.8097V16.7926C33.1705 16.5824 33.1129 16.419 32.9979 16.3026C32.8842 16.1861 32.7116 16.1278 32.4801 16.1278C32.2401 16.1278 32.0518 16.1804 31.9155 16.2855C31.7791 16.3906 31.6832 16.5028 31.6278 16.6222L31.1506 16.4517C31.2358 16.2528 31.3494 16.098 31.4915 15.9872C31.6349 15.875 31.7912 15.7969 31.9602 15.7528C32.1307 15.7074 32.2983 15.6847 32.4631 15.6847C32.5682 15.6847 32.6889 15.6974 32.8253 15.723C32.9631 15.7472 33.0959 15.7976 33.2237 15.8743C33.353 15.951 33.4602 16.0668 33.5455 16.2216C33.6307 16.3764 33.6733 16.5838 33.6733 16.8438V19H33.1705V18.5568H33.1449C33.1108 18.6278 33.054 18.7038 32.9744 18.7848C32.8949 18.8658 32.7891 18.9347 32.657 18.9915C32.5249 19.0483 32.3636 19.0767 32.1733 19.0767ZM32.25 18.625C32.4489 18.625 32.6165 18.5859 32.7528 18.5078C32.8906 18.4297 32.9943 18.3288 33.0639 18.2053C33.1349 18.0817 33.1705 17.9517 33.1705 17.8153V17.3551C33.1491 17.3807 33.1023 17.4041 33.0298 17.4254C32.9588 17.4453 32.8764 17.4631 32.7827 17.4787C32.6903 17.4929 32.6001 17.5057 32.5121 17.517C32.4254 17.527 32.3551 17.5355 32.3011 17.5426C32.1705 17.5597 32.0483 17.5874 31.9347 17.6257C31.8224 17.6626 31.7315 17.7187 31.6619 17.794C31.5938 17.8679 31.5597 17.9687 31.5597 18.0966C31.5597 18.2713 31.6243 18.4034 31.7536 18.4929C31.8842 18.581 32.0497 18.625 32.25 18.625ZM35.0939 14.6364V19H34.5911V14.6364H35.0939ZM36.0149 19V15.7273H36.5178V19H36.0149ZM36.2706 15.1818C36.1726 15.1818 36.0881 15.1484 36.017 15.0817C35.9474 15.0149 35.9126 14.9347 35.9126 14.8409C35.9126 14.7472 35.9474 14.6669 36.017 14.6001C36.0881 14.5334 36.1726 14.5 36.2706 14.5C36.3686 14.5 36.4524 14.5334 36.522 14.6001C36.593 14.6669 36.6286 14.7472 36.6286 14.8409C36.6286 14.9347 36.593 15.0149 36.522 15.0817C36.4524 15.1484 36.3686 15.1818 36.2706 15.1818ZM38.6745 19.0682C38.4018 19.0682 38.161 18.9993 37.9522 18.8615C37.7434 18.7223 37.5801 18.5263 37.4622 18.2734C37.3443 18.0192 37.2853 17.7188 37.2853 17.3722C37.2853 17.0284 37.3443 16.7301 37.4622 16.4773C37.5801 16.2244 37.7441 16.0291 37.9544 15.8913C38.1646 15.7536 38.4075 15.6847 38.6831 15.6847C38.8961 15.6847 39.0645 15.7202 39.188 15.7912C39.313 15.8608 39.4082 15.9403 39.4735 16.0298C39.5403 16.1179 39.5922 16.1903 39.6291 16.2472H39.6717V14.6364H40.1745V19H39.6887V18.4972H39.6291C39.5922 18.5568 39.5396 18.6321 39.4714 18.723C39.4032 18.8125 39.3059 18.8928 39.1795 18.9638C39.0531 19.0334 38.8848 19.0682 38.6745 19.0682ZM38.7427 18.6165C38.9444 18.6165 39.1149 18.5639 39.2541 18.4588C39.3933 18.3523 39.4991 18.2053 39.5716 18.0178C39.644 17.8288 39.6802 17.6108 39.6802 17.3636C39.6802 17.1193 39.6447 16.9055 39.5737 16.7223C39.5027 16.5376 39.3975 16.3942 39.2583 16.2919C39.1191 16.1882 38.9473 16.1364 38.7427 16.1364C38.5297 16.1364 38.3521 16.1911 38.21 16.3004C38.0694 16.4084 37.9636 16.5554 37.8926 16.7415C37.823 16.9261 37.7882 17.1335 37.7882 17.3636C37.7882 17.5966 37.8237 17.8082 37.8947 17.9986C37.9672 18.1875 38.0737 18.3381 38.2143 18.4503C38.3564 18.5611 38.5325 18.6165 38.7427 18.6165ZM42.1284 19.0767C41.921 19.0767 41.7328 19.0376 41.5637 18.9595C41.3947 18.88 41.2605 18.7656 41.161 18.6165C41.0616 18.4659 41.0119 18.2841 41.0119 18.071C41.0119 17.8835 41.0488 17.7315 41.1227 17.6151C41.1966 17.4972 41.2953 17.4048 41.4189 17.3381C41.5424 17.2713 41.6788 17.2216 41.8279 17.1889C41.9785 17.1548 42.1298 17.1278 42.2818 17.108C42.4806 17.0824 42.6419 17.0632 42.7654 17.0504C42.8904 17.0362 42.9814 17.0128 43.0382 16.9801C43.0964 16.9474 43.1255 16.8906 43.1255 16.8097V16.7926C43.1255 16.5824 43.068 16.419 42.9529 16.3026C42.8393 16.1861 42.6667 16.1278 42.4352 16.1278C42.1951 16.1278 42.0069 16.1804 41.8706 16.2855C41.7342 16.3906 41.6383 16.5028 41.5829 16.6222L41.1056 16.4517C41.1909 16.2528 41.3045 16.098 41.4466 15.9872C41.59 15.875 41.7463 15.7969 41.9153 15.7528C42.0858 15.7074 42.2534 15.6847 42.4181 15.6847C42.5233 15.6847 42.644 15.6974 42.7804 15.723C42.9181 15.7472 43.051 15.7976 43.1788 15.8743C43.3081 15.951 43.4153 16.0668 43.5005 16.2216C43.5858 16.3764 43.6284 16.5838 43.6284 16.8438V19H43.1255V18.5568H43.1C43.0659 18.6278 43.0091 18.7038 42.9295 18.7848C42.85 18.8658 42.7441 18.9347 42.612 18.9915C42.4799 19.0483 42.3187 19.0767 42.1284 19.0767ZM42.2051 18.625C42.4039 18.625 42.5716 18.5859 42.7079 18.5078C42.8457 18.4297 42.9494 18.3288 43.019 18.2053C43.09 18.0817 43.1255 17.9517 43.1255 17.8153V17.3551C43.1042 17.3807 43.0574 17.4041 42.9849 17.4254C42.9139 17.4453 42.8315 17.4631 42.7377 17.4787C42.6454 17.4929 42.5552 17.5057 42.4672 17.517C42.3805 17.527 42.3102 17.5355 42.2562 17.5426C42.1255 17.5597 42.0034 17.5874 41.8897 17.6257C41.7775 17.6626 41.6866 17.7187 41.617 17.794C41.5488 17.8679 41.5147 17.9687 41.5147 18.0966C41.5147 18.2713 41.5794 18.4034 41.7086 18.4929C41.8393 18.581 42.0048 18.625 42.2051 18.625ZM45.9695 15.7273V16.1534H44.2734V15.7273H45.9695ZM44.7678 14.9432H45.2706V18.0625C45.2706 18.2045 45.2912 18.3111 45.3324 18.3821C45.375 18.4517 45.429 18.4986 45.4943 18.5227C45.5611 18.5455 45.6314 18.5568 45.7053 18.5568C45.7607 18.5568 45.8061 18.554 45.8416 18.5483C45.8771 18.5412 45.9055 18.5355 45.9268 18.5312L46.0291 18.983C45.995 18.9957 45.9474 19.0085 45.8864 19.0213C45.8253 19.0355 45.7479 19.0426 45.6541 19.0426C45.5121 19.0426 45.3729 19.0121 45.2365 18.951C45.1016 18.8899 44.9893 18.7969 44.8999 18.6719C44.8118 18.5469 44.7678 18.3892 44.7678 18.1989V14.9432ZM48.0202 19.0682C47.7248 19.0682 47.4656 18.9979 47.2425 18.8572C47.021 18.7166 46.8477 18.5199 46.7227 18.267C46.5991 18.0142 46.5373 17.7187 46.5373 17.3807C46.5373 17.0398 46.5991 16.7422 46.7227 16.4879C46.8477 16.2337 47.021 16.0362 47.2425 15.8956C47.4656 15.755 47.7248 15.6847 48.0202 15.6847C48.3157 15.6847 48.5742 15.755 48.7958 15.8956C49.0188 16.0362 49.1921 16.2337 49.3157 16.4879C49.4407 16.7422 49.5032 17.0398 49.5032 17.3807C49.5032 17.7187 49.4407 18.0142 49.3157 18.267C49.1921 18.5199 49.0188 18.7166 48.7958 18.8572C48.5742 18.9979 48.3157 19.0682 48.0202 19.0682ZM48.0202 18.6165C48.2447 18.6165 48.4293 18.5589 48.5742 18.4439C48.7191 18.3288 48.8263 18.1776 48.896 17.9901C48.9656 17.8026 49.0004 17.5994 49.0004 17.3807C49.0004 17.1619 48.9656 16.9581 48.896 16.7692C48.8263 16.5803 48.7191 16.4276 48.5742 16.3111C48.4293 16.1946 48.2447 16.1364 48.0202 16.1364C47.7958 16.1364 47.6112 16.1946 47.4663 16.3111C47.3214 16.4276 47.2141 16.5803 47.1445 16.7692C47.0749 16.9581 47.0401 17.1619 47.0401 17.3807C47.0401 17.5994 47.0749 17.8026 47.1445 17.9901C47.2141 18.1776 47.3214 18.3288 47.4663 18.4439C47.6112 18.5589 47.7958 18.6165 48.0202 18.6165ZM50.2708 19V15.7273H50.7566V16.2216H50.7907C50.8503 16.0597 50.9583 15.9283 51.1145 15.8274C51.2708 15.7266 51.4469 15.6761 51.6429 15.6761C51.6799 15.6761 51.726 15.6768 51.7814 15.6783C51.8368 15.6797 51.8787 15.6818 51.9071 15.6847V16.196C51.8901 16.1918 51.851 16.1854 51.79 16.1768C51.7303 16.1669 51.6671 16.1619 51.6003 16.1619C51.4412 16.1619 51.2992 16.1953 51.1742 16.2621C51.0506 16.3274 50.9526 16.4183 50.8801 16.5348C50.8091 16.6499 50.7736 16.7812 50.7736 16.929V19H50.2708ZM52.8697 19.0341C52.7646 19.0341 52.6744 18.9964 52.5991 18.9212C52.5238 18.8459 52.4862 18.7557 52.4862 18.6506C52.4862 18.5455 52.5238 18.4553 52.5991 18.38C52.6744 18.3047 52.7646 18.267 52.8697 18.267C52.9748 18.267 53.065 18.3047 53.1403 18.38C53.2156 18.4553 53.2532 18.5455 53.2532 18.6506C53.2532 18.7202 53.2354 18.7841 53.1999 18.8423C53.1658 18.9006 53.1197 18.9474 53.0614 18.983C53.0046 19.017 52.9407 19.0341 52.8697 19.0341ZM52.8697 16.6051C52.7646 16.6051 52.6744 16.5675 52.5991 16.4922C52.5238 16.4169 52.4862 16.3267 52.4862 16.2216C52.4862 16.1165 52.5238 16.0263 52.5991 15.951C52.6744 15.8757 52.7646 15.8381 52.8697 15.8381C52.9748 15.8381 53.065 15.8757 53.1403 15.951C53.2156 16.0263 53.2532 16.1165 53.2532 16.2216C53.2532 16.2912 53.2354 16.3551 53.1999 16.4134C53.1658 16.4716 53.1197 16.5185 53.0614 16.554C53.0046 16.5881 52.9407 16.6051 52.8697 16.6051ZM55.7322 18.1051V17.6705L57.6499 14.6364H57.9652V15.3097H57.7521L56.3033 17.6023V17.6364H58.8857V18.1051H55.7322ZM57.7862 19V17.973V17.7706V14.6364H58.2891V19H57.7862ZM61.5591 16.8182C61.5591 16.2812 61.6287 15.7876 61.7679 15.3374C61.9086 14.8857 62.1088 14.4702 62.3688 14.0909H62.812C62.7097 14.2315 62.6138 14.4048 62.5243 14.6108C62.4363 14.8153 62.3588 15.0405 62.2921 15.2862C62.2253 15.5305 62.1728 15.7834 62.1344 16.0447C62.0975 16.3061 62.079 16.5639 62.079 16.8182C62.079 17.1562 62.1117 17.4993 62.177 17.8473C62.2424 18.1953 62.3304 18.5185 62.4412 18.8168C62.552 19.1151 62.6756 19.358 62.812 19.5455H62.3688C62.1088 19.1662 61.9086 18.7514 61.7679 18.3011C61.6287 17.8494 61.5591 17.3551 61.5591 16.8182ZM65.0199 19.0597C64.7386 19.0597 64.4879 19.0114 64.2678 18.9148C64.049 18.8182 63.875 18.6839 63.7457 18.5121C63.6179 18.3388 63.5483 18.1378 63.5369 17.9091H64.0739C64.0852 18.0497 64.1335 18.1712 64.2188 18.2734C64.304 18.3743 64.4155 18.4524 64.5533 18.5078C64.6911 18.5632 64.8438 18.5909 65.0114 18.5909C65.1989 18.5909 65.3651 18.5582 65.5099 18.4929C65.6548 18.4276 65.7685 18.3366 65.8509 18.2202C65.9332 18.1037 65.9744 17.9688 65.9744 17.8153C65.9744 17.6548 65.9347 17.5135 65.8551 17.3913C65.7756 17.2678 65.6591 17.1712 65.5057 17.1016C65.3523 17.032 65.1648 16.9972 64.9432 16.9972H64.5938V16.5284H64.9432C65.1165 16.5284 65.2685 16.4972 65.3991 16.4347C65.5313 16.3722 65.6342 16.2841 65.7081 16.1705C65.7834 16.0568 65.821 15.9233 65.821 15.7699C65.821 15.6222 65.7884 15.4936 65.723 15.3842C65.6577 15.2749 65.5653 15.1896 65.446 15.1286C65.3281 15.0675 65.1889 15.0369 65.0284 15.0369C64.8778 15.0369 64.7358 15.0646 64.6023 15.12C64.4702 15.174 64.3622 15.2528 64.2784 15.3565C64.1946 15.4588 64.1491 15.5824 64.142 15.7273H63.6307C63.6392 15.4986 63.7081 15.2983 63.8374 15.1264C63.9666 14.9531 64.1357 14.8182 64.3445 14.7216C64.5547 14.625 64.7855 14.5767 65.0369 14.5767C65.3068 14.5767 65.5384 14.6314 65.7315 14.7408C65.9247 14.8487 66.0732 14.9915 66.1768 15.169C66.2805 15.3466 66.3324 15.5384 66.3324 15.7443C66.3324 15.9901 66.2678 16.1996 66.1385 16.3729C66.0107 16.5462 65.8366 16.6662 65.6165 16.733V16.767C65.892 16.8125 66.1072 16.9297 66.2621 17.1186C66.4169 17.3061 66.4943 17.5384 66.4943 17.8153C66.4943 18.0526 66.4297 18.2656 66.3004 18.4545C66.1726 18.642 65.9979 18.7898 65.7763 18.8977C65.5547 19.0057 65.3026 19.0597 65.0199 19.0597ZM68.8402 19.0597C68.5589 19.0597 68.3082 19.0114 68.0881 18.9148C67.8693 18.8182 67.6953 18.6839 67.5661 18.5121C67.4382 18.3388 67.3686 18.1378 67.3572 17.9091H67.8942C67.9055 18.0497 67.9538 18.1712 68.0391 18.2734C68.1243 18.3743 68.2358 18.4524 68.3736 18.5078C68.5114 18.5632 68.6641 18.5909 68.8317 18.5909C69.0192 18.5909 69.1854 18.5582 69.3303 18.4929C69.4751 18.4276 69.5888 18.3366 69.6712 18.2202C69.7536 18.1037 69.7947 17.9688 69.7947 17.8153C69.7947 17.6548 69.755 17.5135 69.6754 17.3913C69.5959 17.2678 69.4794 17.1712 69.326 17.1016C69.1726 17.032 68.9851 16.9972 68.7635 16.9972H68.4141V16.5284H68.7635C68.9368 16.5284 69.0888 16.4972 69.2195 16.4347C69.3516 16.3722 69.4545 16.2841 69.5284 16.1705C69.6037 16.0568 69.6413 15.9233 69.6413 15.7699C69.6413 15.6222 69.6087 15.4936 69.5433 15.3842C69.478 15.2749 69.3857 15.1896 69.2663 15.1286C69.1484 15.0675 69.0092 15.0369 68.8487 15.0369C68.6982 15.0369 68.5561 15.0646 68.4226 15.12C68.2905 15.174 68.1825 15.2528 68.0987 15.3565C68.0149 15.4588 67.9695 15.5824 67.9624 15.7273H67.451C67.4595 15.4986 67.5284 15.2983 67.6577 15.1264C67.7869 14.9531 67.956 14.8182 68.1648 14.7216C68.375 14.625 68.6058 14.5767 68.8572 14.5767C69.1271 14.5767 69.3587 14.6314 69.5518 14.7408C69.745 14.8487 69.8935 14.9915 69.9972 15.169C70.1009 15.3466 70.1527 15.5384 70.1527 15.7443C70.1527 15.9901 70.0881 16.1996 69.9588 16.3729C69.831 16.5462 69.657 16.6662 69.4368 16.733V16.767C69.7124 16.8125 69.9276 16.9297 70.0824 17.1186C70.2372 17.3061 70.3146 17.5384 70.3146 17.8153C70.3146 18.0526 70.25 18.2656 70.1207 18.4545C69.9929 18.642 69.8182 18.7898 69.5966 18.8977C69.375 19.0057 69.1229 19.0597 68.8402 19.0597ZM71.4263 19.0341C71.3212 19.0341 71.231 18.9964 71.1557 18.9212C71.0804 18.8459 71.0428 18.7557 71.0428 18.6506C71.0428 18.5455 71.0804 18.4553 71.1557 18.38C71.231 18.3047 71.3212 18.267 71.4263 18.267C71.5314 18.267 71.6216 18.3047 71.6969 18.38C71.7722 18.4553 71.8098 18.5455 71.8098 18.6506C71.8098 18.7202 71.7921 18.7841 71.7566 18.8423C71.7225 18.9006 71.6763 18.9474 71.6181 18.983C71.5613 19.017 71.4973 19.0341 71.4263 19.0341ZM72.7037 19V18.6165L74.144 17.0398C74.313 16.8551 74.4522 16.6946 74.5616 16.5582C74.671 16.4205 74.752 16.2912 74.8045 16.1705C74.8585 16.0483 74.8855 15.9205 74.8855 15.7869C74.8855 15.6335 74.8485 15.5007 74.7747 15.3885C74.7022 15.2763 74.6028 15.1896 74.4764 15.1286C74.35 15.0675 74.2079 15.0369 74.0502 15.0369C73.8826 15.0369 73.7363 15.0717 73.6113 15.1413C73.4877 15.2095 73.3919 15.3054 73.3237 15.429C73.2569 15.5526 73.2235 15.6974 73.2235 15.8636H72.7207C72.7207 15.608 72.7797 15.3835 72.8975 15.1903C73.0154 14.9972 73.176 14.8466 73.3791 14.7386C73.5836 14.6307 73.813 14.5767 74.0673 14.5767C74.323 14.5767 74.5495 14.6307 74.747 14.7386C74.9444 14.8466 75.0993 14.9922 75.2115 15.1754C75.3237 15.3587 75.3798 15.5625 75.3798 15.7869C75.3798 15.9474 75.3507 16.1044 75.2924 16.2578C75.2356 16.4098 75.1362 16.5795 74.9941 16.767C74.8535 16.9531 74.6582 17.1804 74.4082 17.4489L73.4281 18.4972V18.5312H75.4565V19H72.7037ZM77.8706 14.6364V19H77.3422V15.1903H77.3166L76.2512 15.8977V15.3608L77.3422 14.6364H77.8706ZM80.6 19.0597C80.3187 19.0597 80.068 19.0114 79.8478 18.9148C79.6291 18.8182 79.4551 18.6839 79.3258 18.5121C79.198 18.3388 79.1284 18.1378 79.117 17.9091H79.6539C79.6653 18.0497 79.7136 18.1712 79.7988 18.2734C79.8841 18.3743 79.9956 18.4524 80.1333 18.5078C80.2711 18.5632 80.4238 18.5909 80.5914 18.5909C80.7789 18.5909 80.9451 18.5582 81.09 18.4929C81.2349 18.4276 81.3485 18.3366 81.4309 18.2202C81.5133 18.1037 81.5545 17.9688 81.5545 17.8153C81.5545 17.6548 81.5147 17.5135 81.4352 17.3913C81.3556 17.2678 81.2392 17.1712 81.0858 17.1016C80.9324 17.032 80.7449 16.9972 80.5233 16.9972H80.1738V16.5284H80.5233C80.6966 16.5284 80.8485 16.4972 80.9792 16.4347C81.1113 16.3722 81.2143 16.2841 81.2882 16.1705C81.3635 16.0568 81.4011 15.9233 81.4011 15.7699C81.4011 15.6222 81.3684 15.4936 81.3031 15.3842C81.2377 15.2749 81.1454 15.1896 81.0261 15.1286C80.9082 15.0675 80.769 15.0369 80.6085 15.0369C80.4579 15.0369 80.3159 15.0646 80.1824 15.12C80.0502 15.174 79.9423 15.2528 79.8585 15.3565C79.7747 15.4588 79.7292 15.5824 79.7221 15.7273H79.2108C79.2193 15.4986 79.2882 15.2983 79.4174 15.1264C79.5467 14.9531 79.7157 14.8182 79.9245 14.7216C80.1348 14.625 80.3656 14.5767 80.617 14.5767C80.8869 14.5767 81.1184 14.6314 81.3116 14.7408C81.5048 14.8487 81.6532 14.9915 81.7569 15.169C81.8606 15.3466 81.9125 15.5384 81.9125 15.7443C81.9125 15.9901 81.8478 16.1996 81.7186 16.3729C81.5907 16.5462 81.4167 16.6662 81.1966 16.733V16.767C81.4721 16.8125 81.6873 16.9297 81.8422 17.1186C81.997 17.3061 82.0744 17.5384 82.0744 17.8153C82.0744 18.0526 82.0098 18.2656 81.8805 18.4545C81.7527 18.642 81.5779 18.7898 81.3564 18.8977C81.1348 19.0057 80.8826 19.0597 80.6 19.0597ZM85.1703 18.1818V17.9517C85.1703 17.7926 85.2029 17.647 85.2683 17.5149C85.335 17.3814 85.4316 17.2749 85.5581 17.1953C85.6859 17.1143 85.8407 17.0739 86.0225 17.0739C86.2072 17.0739 86.362 17.1143 86.487 17.1953C86.612 17.2749 86.7065 17.3814 86.7704 17.5149C86.8343 17.647 86.8663 17.7926 86.8663 17.9517V18.1818C86.8663 18.3409 86.8336 18.4872 86.7683 18.6207C86.7044 18.7528 86.6092 18.8594 86.4828 18.9403C86.3578 19.0199 86.2044 19.0597 86.0225 19.0597C85.8379 19.0597 85.6824 19.0199 85.5559 18.9403C85.4295 18.8594 85.3336 18.7528 85.2683 18.6207C85.2029 18.4872 85.1703 18.3409 85.1703 18.1818ZM85.6049 17.9517V18.1818C85.6049 18.3139 85.6362 18.4325 85.6987 18.5376C85.7612 18.6413 85.8691 18.6932 86.0225 18.6932C86.1717 18.6932 86.2768 18.6413 86.3379 18.5376C86.4004 18.4325 86.4316 18.3139 86.4316 18.1818V17.9517C86.4316 17.8196 86.4018 17.7017 86.3422 17.598C86.2825 17.4929 86.176 17.4403 86.0225 17.4403C85.8734 17.4403 85.7662 17.4929 85.7008 17.598C85.6369 17.7017 85.6049 17.8196 85.6049 17.9517ZM82.997 15.6847V15.4545C82.997 15.2955 83.0297 15.1499 83.095 15.0178C83.1618 14.8842 83.2583 14.7777 83.3848 14.6982C83.5126 14.6172 83.6674 14.5767 83.8493 14.5767C84.0339 14.5767 84.1887 14.6172 84.3137 14.6982C84.4387 14.7777 84.5332 14.8842 84.5971 15.0178C84.661 15.1499 84.693 15.2955 84.693 15.4545V15.6847C84.693 15.8437 84.6603 15.9901 84.595 16.1236C84.5311 16.2557 84.4359 16.3622 84.3095 16.4432C84.1845 16.5227 84.0311 16.5625 83.8493 16.5625C83.6646 16.5625 83.5091 16.5227 83.3826 16.4432C83.2562 16.3622 83.1603 16.2557 83.095 16.1236C83.0297 15.9901 82.997 15.8437 82.997 15.6847ZM83.4316 15.4545V15.6847C83.4316 15.8168 83.4629 15.9354 83.5254 16.0405C83.5879 16.1442 83.6958 16.196 83.8493 16.196C83.9984 16.196 84.1035 16.1442 84.1646 16.0405C84.2271 15.9354 84.2583 15.8168 84.2583 15.6847V15.4545C84.2583 15.3224 84.2285 15.2045 84.1689 15.1009C84.1092 14.9957 84.0027 14.9432 83.8493 14.9432C83.7001 14.9432 83.5929 14.9957 83.5275 15.1009C83.4636 15.2045 83.4316 15.3224 83.4316 15.4545ZM83.1589 19L86.1589 14.6364H86.6447L83.6447 19H83.1589ZM88.9032 16.8182C88.9032 17.3551 88.8329 17.8494 88.6923 18.3011C88.5531 18.7514 88.3535 19.1662 88.0936 19.5455H87.6504C87.7527 19.4048 87.8478 19.2315 87.9359 19.0256C88.0254 18.821 88.1035 18.5966 88.1703 18.3523C88.237 18.1065 88.2889 17.853 88.3258 17.5916C88.3642 17.3288 88.3833 17.071 88.3833 16.8182C88.3833 16.4801 88.3507 16.1371 88.2853 15.7891C88.22 15.4411 88.1319 15.1179 88.0211 14.8196C87.9103 14.5213 87.7868 14.2784 87.6504 14.0909H88.0936C88.3535 14.4702 88.5531 14.8857 88.6923 15.3374C88.8329 15.7876 88.9032 16.2812 88.9032 16.8182Z" fill="#6C757D"/>
<path d="M103 111.726C105.66 111.726 110.549 103.491 112.178 100.745L113.807 98" stroke="#CED4DA"/>
<path d="M92 18C94.66 18 101.38 24.857 103.429 27.3L105.478 29.748" stroke="#CED4DA"/>
</g>
<defs>
<clipPath id="clip0_815_103">
<rect width="316" height="118" fill="white"/>
</clipPath>
</defs>
</svg>
